%TF.GenerationSoftware,KiCad,Pcbnew,(6.0.1)*%
%TF.CreationDate,2022-06-23T18:30:01-05:00*%
%TF.ProjectId,lantern-lts,6c616e74-6572-46e2-9d6c-74732e6b6963,rev?*%
%TF.SameCoordinates,Original*%
%TF.FileFunction,Legend,Top*%
%TF.FilePolarity,Positive*%
%FSLAX46Y46*%
G04 Gerber Fmt 4.6, Leading zero omitted, Abs format (unit mm)*
G04 Created by KiCad (PCBNEW (6.0.1)) date 2022-06-23 18:30:01*
%MOMM*%
%LPD*%
G01*
G04 APERTURE LIST*
%ADD10C,0.010000*%
G04 APERTURE END LIST*
D10*
%TO.C,G\u002A\u002A\u002A*%
X118045028Y-138969242D02*
X118073016Y-139020292D01*
X118073016Y-139020292D02*
X118100163Y-139100860D01*
X118100163Y-139100860D02*
X118123120Y-139169327D01*
X118123120Y-139169327D02*
X118144196Y-139221635D01*
X118144196Y-139221635D02*
X118155897Y-139242423D01*
X118155897Y-139242423D02*
X118171954Y-139279533D01*
X118171954Y-139279533D02*
X118174343Y-139301021D01*
X118174343Y-139301021D02*
X118183503Y-139341358D01*
X118183503Y-139341358D02*
X118206893Y-139401883D01*
X118206893Y-139401883D02*
X118224608Y-139439663D01*
X118224608Y-139439663D02*
X118259528Y-139512675D01*
X118259528Y-139512675D02*
X118300827Y-139603922D01*
X118300827Y-139603922D02*
X118335733Y-139684649D01*
X118335733Y-139684649D02*
X118370367Y-139758250D01*
X118370367Y-139758250D02*
X118404688Y-139816695D01*
X118404688Y-139816695D02*
X118431745Y-139848284D01*
X118431745Y-139848284D02*
X118433635Y-139849435D01*
X118433635Y-139849435D02*
X118464544Y-139880057D01*
X118464544Y-139880057D02*
X118470676Y-139900393D01*
X118470676Y-139900393D02*
X118462905Y-139915278D01*
X118462905Y-139915278D02*
X118434951Y-139924682D01*
X118434951Y-139924682D02*
X118379859Y-139929685D01*
X118379859Y-139929685D02*
X118290670Y-139931365D01*
X118290670Y-139931365D02*
X118270842Y-139931398D01*
X118270842Y-139931398D02*
X118161344Y-139928805D01*
X118161344Y-139928805D02*
X118091408Y-139920066D01*
X118091408Y-139920066D02*
X118058525Y-139903745D01*
X118058525Y-139903745D02*
X118060186Y-139878406D01*
X118060186Y-139878406D02*
X118093881Y-139842610D01*
X118093881Y-139842610D02*
X118102853Y-139835190D01*
X118102853Y-139835190D02*
X118141762Y-139800500D01*
X118141762Y-139800500D02*
X118151486Y-139773495D01*
X118151486Y-139773495D02*
X118136664Y-139736409D01*
X118136664Y-139736409D02*
X118131267Y-139726410D01*
X118131267Y-139726410D02*
X118102696Y-139687896D01*
X118102696Y-139687896D02*
X118061099Y-139666161D01*
X118061099Y-139666161D02*
X117993684Y-139653618D01*
X117993684Y-139653618D02*
X117904583Y-139647799D01*
X117904583Y-139647799D02*
X117810800Y-139649417D01*
X117810800Y-139649417D02*
X117786152Y-139651500D01*
X117786152Y-139651500D02*
X117718256Y-139663386D01*
X117718256Y-139663386D02*
X117679626Y-139684484D01*
X117679626Y-139684484D02*
X117660864Y-139712719D01*
X117660864Y-139712719D02*
X117650232Y-139751213D01*
X117650232Y-139751213D02*
X117663614Y-139786007D01*
X117663614Y-139786007D02*
X117694514Y-139821829D01*
X117694514Y-139821829D02*
X117735093Y-139868439D01*
X117735093Y-139868439D02*
X117748603Y-139899749D01*
X117748603Y-139899749D02*
X117731481Y-139918700D01*
X117731481Y-139918700D02*
X117680159Y-139928236D01*
X117680159Y-139928236D02*
X117591074Y-139931299D01*
X117591074Y-139931299D02*
X117561759Y-139931398D01*
X117561759Y-139931398D02*
X117476213Y-139929175D01*
X117476213Y-139929175D02*
X117407612Y-139923230D01*
X117407612Y-139923230D02*
X117366322Y-139914646D01*
X117366322Y-139914646D02*
X117359426Y-139910232D01*
X117359426Y-139910232D02*
X117356890Y-139874571D01*
X117356890Y-139874571D02*
X117382989Y-139849308D01*
X117382989Y-139849308D02*
X117397717Y-139846726D01*
X117397717Y-139846726D02*
X117407212Y-139843836D01*
X117407212Y-139843836D02*
X117418888Y-139832377D01*
X117418888Y-139832377D02*
X117434905Y-139808160D01*
X117434905Y-139808160D02*
X117457426Y-139766999D01*
X117457426Y-139766999D02*
X117488610Y-139704705D01*
X117488610Y-139704705D02*
X117530618Y-139617091D01*
X117530618Y-139617091D02*
X117585612Y-139499968D01*
X117585612Y-139499968D02*
X117586768Y-139497482D01*
X117586768Y-139497482D02*
X117757666Y-139497482D01*
X117757666Y-139497482D02*
X117823129Y-139510487D01*
X117823129Y-139510487D02*
X117878353Y-139517446D01*
X117878353Y-139517446D02*
X117916782Y-139515779D01*
X117916782Y-139515779D02*
X117964751Y-139508417D01*
X117964751Y-139508417D02*
X117974991Y-139508065D01*
X117974991Y-139508065D02*
X117998419Y-139501525D01*
X117998419Y-139501525D02*
X118001039Y-139478100D01*
X118001039Y-139478100D02*
X117981432Y-139432081D01*
X117981432Y-139432081D02*
X117938181Y-139357758D01*
X117938181Y-139357758D02*
X117937315Y-139356350D01*
X117937315Y-139356350D02*
X117869620Y-139246332D01*
X117869620Y-139246332D02*
X117757666Y-139497482D01*
X117757666Y-139497482D02*
X117586768Y-139497482D01*
X117586768Y-139497482D02*
X117655751Y-139349148D01*
X117655751Y-139349148D02*
X117667315Y-139324217D01*
X117667315Y-139324217D02*
X117715192Y-139222918D01*
X117715192Y-139222918D02*
X117752427Y-139151672D01*
X117752427Y-139151672D02*
X117785310Y-139101730D01*
X117785310Y-139101730D02*
X117820129Y-139064343D01*
X117820129Y-139064343D02*
X117863172Y-139030764D01*
X117863172Y-139030764D02*
X117892648Y-139010736D01*
X117892648Y-139010736D02*
X117962771Y-138967906D01*
X117962771Y-138967906D02*
X118010922Y-138952927D01*
X118010922Y-138952927D02*
X118045028Y-138969242D01*
X118045028Y-138969242D02*
X118045028Y-138969242D01*
G36*
X117667315Y-139324217D02*
G01*
X117715192Y-139222918D01*
X117752427Y-139151672D01*
X117785310Y-139101730D01*
X117820129Y-139064343D01*
X117863172Y-139030764D01*
X117892648Y-139010736D01*
X117962771Y-138967906D01*
X118010922Y-138952927D01*
X118045028Y-138969242D01*
X118073016Y-139020292D01*
X118100163Y-139100860D01*
X118123120Y-139169327D01*
X118144196Y-139221635D01*
X118155897Y-139242423D01*
X118171954Y-139279533D01*
X118174343Y-139301021D01*
X118183503Y-139341358D01*
X118206893Y-139401883D01*
X118224608Y-139439663D01*
X118259528Y-139512675D01*
X118300827Y-139603922D01*
X118335733Y-139684649D01*
X118370367Y-139758250D01*
X118404688Y-139816695D01*
X118431745Y-139848284D01*
X118433635Y-139849435D01*
X118464544Y-139880057D01*
X118470676Y-139900393D01*
X118462905Y-139915278D01*
X118434951Y-139924682D01*
X118379859Y-139929685D01*
X118290670Y-139931365D01*
X118270842Y-139931398D01*
X118161344Y-139928805D01*
X118091408Y-139920066D01*
X118058525Y-139903745D01*
X118060186Y-139878406D01*
X118093881Y-139842610D01*
X118102853Y-139835190D01*
X118141762Y-139800500D01*
X118151486Y-139773495D01*
X118136664Y-139736409D01*
X118131267Y-139726410D01*
X118102696Y-139687896D01*
X118061099Y-139666161D01*
X117993684Y-139653618D01*
X117904583Y-139647799D01*
X117810800Y-139649417D01*
X117786152Y-139651500D01*
X117718256Y-139663386D01*
X117679626Y-139684484D01*
X117660864Y-139712719D01*
X117650232Y-139751213D01*
X117663614Y-139786007D01*
X117694514Y-139821829D01*
X117735093Y-139868439D01*
X117748603Y-139899749D01*
X117731481Y-139918700D01*
X117680159Y-139928236D01*
X117591074Y-139931299D01*
X117561759Y-139931398D01*
X117476213Y-139929175D01*
X117407612Y-139923230D01*
X117366322Y-139914646D01*
X117359426Y-139910232D01*
X117356890Y-139874571D01*
X117382989Y-139849308D01*
X117397717Y-139846726D01*
X117407212Y-139843836D01*
X117418888Y-139832377D01*
X117434905Y-139808160D01*
X117457426Y-139766999D01*
X117488610Y-139704705D01*
X117530618Y-139617091D01*
X117585612Y-139499968D01*
X117586768Y-139497482D01*
X117757666Y-139497482D01*
X117823129Y-139510487D01*
X117878353Y-139517446D01*
X117916782Y-139515779D01*
X117964751Y-139508417D01*
X117974991Y-139508065D01*
X117998419Y-139501525D01*
X118001039Y-139478100D01*
X117981432Y-139432081D01*
X117938181Y-139357758D01*
X117937315Y-139356350D01*
X117869620Y-139246332D01*
X117757666Y-139497482D01*
X117586768Y-139497482D01*
X117655751Y-139349148D01*
X117667315Y-139324217D01*
G37*
X117667315Y-139324217D02*
X117715192Y-139222918D01*
X117752427Y-139151672D01*
X117785310Y-139101730D01*
X117820129Y-139064343D01*
X117863172Y-139030764D01*
X117892648Y-139010736D01*
X117962771Y-138967906D01*
X118010922Y-138952927D01*
X118045028Y-138969242D01*
X118073016Y-139020292D01*
X118100163Y-139100860D01*
X118123120Y-139169327D01*
X118144196Y-139221635D01*
X118155897Y-139242423D01*
X118171954Y-139279533D01*
X118174343Y-139301021D01*
X118183503Y-139341358D01*
X118206893Y-139401883D01*
X118224608Y-139439663D01*
X118259528Y-139512675D01*
X118300827Y-139603922D01*
X118335733Y-139684649D01*
X118370367Y-139758250D01*
X118404688Y-139816695D01*
X118431745Y-139848284D01*
X118433635Y-139849435D01*
X118464544Y-139880057D01*
X118470676Y-139900393D01*
X118462905Y-139915278D01*
X118434951Y-139924682D01*
X118379859Y-139929685D01*
X118290670Y-139931365D01*
X118270842Y-139931398D01*
X118161344Y-139928805D01*
X118091408Y-139920066D01*
X118058525Y-139903745D01*
X118060186Y-139878406D01*
X118093881Y-139842610D01*
X118102853Y-139835190D01*
X118141762Y-139800500D01*
X118151486Y-139773495D01*
X118136664Y-139736409D01*
X118131267Y-139726410D01*
X118102696Y-139687896D01*
X118061099Y-139666161D01*
X117993684Y-139653618D01*
X117904583Y-139647799D01*
X117810800Y-139649417D01*
X117786152Y-139651500D01*
X117718256Y-139663386D01*
X117679626Y-139684484D01*
X117660864Y-139712719D01*
X117650232Y-139751213D01*
X117663614Y-139786007D01*
X117694514Y-139821829D01*
X117735093Y-139868439D01*
X117748603Y-139899749D01*
X117731481Y-139918700D01*
X117680159Y-139928236D01*
X117591074Y-139931299D01*
X117561759Y-139931398D01*
X117476213Y-139929175D01*
X117407612Y-139923230D01*
X117366322Y-139914646D01*
X117359426Y-139910232D01*
X117356890Y-139874571D01*
X117382989Y-139849308D01*
X117397717Y-139846726D01*
X117407212Y-139843836D01*
X117418888Y-139832377D01*
X117434905Y-139808160D01*
X117457426Y-139766999D01*
X117488610Y-139704705D01*
X117530618Y-139617091D01*
X117585612Y-139499968D01*
X117586768Y-139497482D01*
X117757666Y-139497482D01*
X117823129Y-139510487D01*
X117878353Y-139517446D01*
X117916782Y-139515779D01*
X117964751Y-139508417D01*
X117974991Y-139508065D01*
X117998419Y-139501525D01*
X118001039Y-139478100D01*
X117981432Y-139432081D01*
X117938181Y-139357758D01*
X117937315Y-139356350D01*
X117869620Y-139246332D01*
X117757666Y-139497482D01*
X117586768Y-139497482D01*
X117655751Y-139349148D01*
X117667315Y-139324217D01*
X121545491Y-138961122D02*
X121638355Y-138964808D01*
X121638355Y-138964808D02*
X121716706Y-138971487D01*
X121716706Y-138971487D02*
X121771512Y-138981091D01*
X121771512Y-138981091D02*
X121793740Y-138993552D01*
X121793740Y-138993552D02*
X121793843Y-138994527D01*
X121793843Y-138994527D02*
X121776786Y-139022651D01*
X121776786Y-139022651D02*
X121734881Y-139054488D01*
X121734881Y-139054488D02*
X121726385Y-139059258D01*
X121726385Y-139059258D02*
X121662762Y-139099817D01*
X121662762Y-139099817D02*
X121607082Y-139144864D01*
X121607082Y-139144864D02*
X121585435Y-139167043D01*
X121585435Y-139167043D02*
X121571340Y-139189920D01*
X121571340Y-139189920D02*
X121563792Y-139221857D01*
X121563792Y-139221857D02*
X121561782Y-139271214D01*
X121561782Y-139271214D02*
X121564304Y-139346356D01*
X121564304Y-139346356D02*
X121570128Y-139451780D01*
X121570128Y-139451780D02*
X121577091Y-139561528D01*
X121577091Y-139561528D02*
X121584302Y-139637724D01*
X121584302Y-139637724D02*
X121593709Y-139689116D01*
X121593709Y-139689116D02*
X121607264Y-139724450D01*
X121607264Y-139724450D02*
X121626916Y-139752473D01*
X121626916Y-139752473D02*
X121640474Y-139767357D01*
X121640474Y-139767357D02*
X121686596Y-139805719D01*
X121686596Y-139805719D02*
X121728546Y-139825021D01*
X121728546Y-139825021D02*
X121734303Y-139825565D01*
X121734303Y-139825565D02*
X121764922Y-139840551D01*
X121764922Y-139840551D02*
X121771506Y-139871549D01*
X121771506Y-139871549D02*
X121750675Y-139897622D01*
X121750675Y-139897622D02*
X121746218Y-139899410D01*
X121746218Y-139899410D02*
X121714270Y-139903666D01*
X121714270Y-139903666D02*
X121650315Y-139907742D01*
X121650315Y-139907742D02*
X121564676Y-139911380D01*
X121564676Y-139911380D02*
X121467679Y-139914323D01*
X121467679Y-139914323D02*
X121369648Y-139916314D01*
X121369648Y-139916314D02*
X121280910Y-139917095D01*
X121280910Y-139917095D02*
X121211788Y-139916409D01*
X121211788Y-139916409D02*
X121172609Y-139913998D01*
X121172609Y-139913998D02*
X121171192Y-139913746D01*
X121171192Y-139913746D02*
X121143751Y-139897311D01*
X121143751Y-139897311D02*
X121152858Y-139869602D01*
X121152858Y-139869602D02*
X121195916Y-139835457D01*
X121195916Y-139835457D02*
X121220484Y-139821881D01*
X121220484Y-139821881D02*
X121270291Y-139793301D01*
X121270291Y-139793301D02*
X121305682Y-139761362D01*
X121305682Y-139761362D02*
X121329206Y-139718518D01*
X121329206Y-139718518D02*
X121343413Y-139657227D01*
X121343413Y-139657227D02*
X121350853Y-139569943D01*
X121350853Y-139569943D02*
X121354074Y-139449122D01*
X121354074Y-139449122D02*
X121354374Y-139425653D01*
X121354374Y-139425653D02*
X121354702Y-139300627D01*
X121354702Y-139300627D02*
X121350865Y-139211205D01*
X121350865Y-139211205D02*
X121340735Y-139150706D01*
X121340735Y-139150706D02*
X121322182Y-139112448D01*
X121322182Y-139112448D02*
X121293078Y-139089751D01*
X121293078Y-139089751D02*
X121251295Y-139075934D01*
X121251295Y-139075934D02*
X121242290Y-139073880D01*
X121242290Y-139073880D02*
X121182795Y-139051799D01*
X121182795Y-139051799D02*
X121164664Y-139020786D01*
X121164664Y-139020786D02*
X121179631Y-138989938D01*
X121179631Y-138989938D02*
X121209566Y-138977650D01*
X121209566Y-138977650D02*
X121270152Y-138968692D01*
X121270152Y-138968692D02*
X121352357Y-138962996D01*
X121352357Y-138962996D02*
X121447147Y-138960495D01*
X121447147Y-138960495D02*
X121545491Y-138961122D01*
X121545491Y-138961122D02*
X121545491Y-138961122D01*
G36*
X121545491Y-138961122D02*
G01*
X121638355Y-138964808D01*
X121716706Y-138971487D01*
X121771512Y-138981091D01*
X121793740Y-138993552D01*
X121793843Y-138994527D01*
X121776786Y-139022651D01*
X121734881Y-139054488D01*
X121726385Y-139059258D01*
X121662762Y-139099817D01*
X121607082Y-139144864D01*
X121585435Y-139167043D01*
X121571340Y-139189920D01*
X121563792Y-139221857D01*
X121561782Y-139271214D01*
X121564304Y-139346356D01*
X121570128Y-139451780D01*
X121577091Y-139561528D01*
X121584302Y-139637724D01*
X121593709Y-139689116D01*
X121607264Y-139724450D01*
X121626916Y-139752473D01*
X121640474Y-139767357D01*
X121686596Y-139805719D01*
X121728546Y-139825021D01*
X121734303Y-139825565D01*
X121764922Y-139840551D01*
X121771506Y-139871549D01*
X121750675Y-139897622D01*
X121746218Y-139899410D01*
X121714270Y-139903666D01*
X121650315Y-139907742D01*
X121564676Y-139911380D01*
X121467679Y-139914323D01*
X121369648Y-139916314D01*
X121280910Y-139917095D01*
X121211788Y-139916409D01*
X121172609Y-139913998D01*
X121171192Y-139913746D01*
X121143751Y-139897311D01*
X121152858Y-139869602D01*
X121195916Y-139835457D01*
X121220484Y-139821881D01*
X121270291Y-139793301D01*
X121305682Y-139761362D01*
X121329206Y-139718518D01*
X121343413Y-139657227D01*
X121350853Y-139569943D01*
X121354074Y-139449122D01*
X121354374Y-139425653D01*
X121354702Y-139300627D01*
X121350865Y-139211205D01*
X121340735Y-139150706D01*
X121322182Y-139112448D01*
X121293078Y-139089751D01*
X121251295Y-139075934D01*
X121242290Y-139073880D01*
X121182795Y-139051799D01*
X121164664Y-139020786D01*
X121179631Y-138989938D01*
X121209566Y-138977650D01*
X121270152Y-138968692D01*
X121352357Y-138962996D01*
X121447147Y-138960495D01*
X121545491Y-138961122D01*
G37*
X121545491Y-138961122D02*
X121638355Y-138964808D01*
X121716706Y-138971487D01*
X121771512Y-138981091D01*
X121793740Y-138993552D01*
X121793843Y-138994527D01*
X121776786Y-139022651D01*
X121734881Y-139054488D01*
X121726385Y-139059258D01*
X121662762Y-139099817D01*
X121607082Y-139144864D01*
X121585435Y-139167043D01*
X121571340Y-139189920D01*
X121563792Y-139221857D01*
X121561782Y-139271214D01*
X121564304Y-139346356D01*
X121570128Y-139451780D01*
X121577091Y-139561528D01*
X121584302Y-139637724D01*
X121593709Y-139689116D01*
X121607264Y-139724450D01*
X121626916Y-139752473D01*
X121640474Y-139767357D01*
X121686596Y-139805719D01*
X121728546Y-139825021D01*
X121734303Y-139825565D01*
X121764922Y-139840551D01*
X121771506Y-139871549D01*
X121750675Y-139897622D01*
X121746218Y-139899410D01*
X121714270Y-139903666D01*
X121650315Y-139907742D01*
X121564676Y-139911380D01*
X121467679Y-139914323D01*
X121369648Y-139916314D01*
X121280910Y-139917095D01*
X121211788Y-139916409D01*
X121172609Y-139913998D01*
X121171192Y-139913746D01*
X121143751Y-139897311D01*
X121152858Y-139869602D01*
X121195916Y-139835457D01*
X121220484Y-139821881D01*
X121270291Y-139793301D01*
X121305682Y-139761362D01*
X121329206Y-139718518D01*
X121343413Y-139657227D01*
X121350853Y-139569943D01*
X121354074Y-139449122D01*
X121354374Y-139425653D01*
X121354702Y-139300627D01*
X121350865Y-139211205D01*
X121340735Y-139150706D01*
X121322182Y-139112448D01*
X121293078Y-139089751D01*
X121251295Y-139075934D01*
X121242290Y-139073880D01*
X121182795Y-139051799D01*
X121164664Y-139020786D01*
X121179631Y-138989938D01*
X121209566Y-138977650D01*
X121270152Y-138968692D01*
X121352357Y-138962996D01*
X121447147Y-138960495D01*
X121545491Y-138961122D01*
X120641621Y-138971574D02*
X120714626Y-138974850D01*
X120714626Y-138974850D02*
X120770173Y-138981488D01*
X120770173Y-138981488D02*
X120816550Y-138992335D01*
X120816550Y-138992335D02*
X120862045Y-139008240D01*
X120862045Y-139008240D02*
X120893976Y-139021235D01*
X120893976Y-139021235D02*
X120994093Y-139078018D01*
X120994093Y-139078018D02*
X121054398Y-139146055D01*
X121054398Y-139146055D02*
X121074340Y-139222021D01*
X121074340Y-139222021D02*
X121053369Y-139302593D01*
X121053369Y-139302593D02*
X120990932Y-139384447D01*
X120990932Y-139384447D02*
X120958953Y-139412969D01*
X120958953Y-139412969D02*
X120893868Y-139461479D01*
X120893868Y-139461479D02*
X120830966Y-139494573D01*
X120830966Y-139494573D02*
X120757156Y-139517011D01*
X120757156Y-139517011D02*
X120659348Y-139533547D01*
X120659348Y-139533547D02*
X120610548Y-139539578D01*
X120610548Y-139539578D02*
X120478550Y-139554898D01*
X120478550Y-139554898D02*
X120485463Y-139653190D01*
X120485463Y-139653190D02*
X120493473Y-139716401D01*
X120493473Y-139716401D02*
X120512376Y-139753578D01*
X120512376Y-139753578D02*
X120551711Y-139780997D01*
X120551711Y-139780997D02*
X120564089Y-139787353D01*
X120564089Y-139787353D02*
X120630873Y-139824416D01*
X120630873Y-139824416D02*
X120662463Y-139853547D01*
X120662463Y-139853547D02*
X120663662Y-139880688D01*
X120663662Y-139880688D02*
X120652883Y-139897190D01*
X120652883Y-139897190D02*
X120633710Y-139910190D01*
X120633710Y-139910190D02*
X120597340Y-139918870D01*
X120597340Y-139918870D02*
X120537264Y-139923811D01*
X120537264Y-139923811D02*
X120446975Y-139925594D01*
X120446975Y-139925594D02*
X120340922Y-139925054D01*
X120340922Y-139925054D02*
X120235295Y-139922725D01*
X120235295Y-139922725D02*
X120145715Y-139918595D01*
X120145715Y-139918595D02*
X120080257Y-139913197D01*
X120080257Y-139913197D02*
X120046996Y-139907066D01*
X120046996Y-139907066D02*
X120044636Y-139905448D01*
X120044636Y-139905448D02*
X120044155Y-139875612D01*
X120044155Y-139875612D02*
X120079643Y-139841025D01*
X120079643Y-139841025D02*
X120142740Y-139804451D01*
X120142740Y-139804451D02*
X120196422Y-139769887D01*
X120196422Y-139769887D02*
X120231748Y-139733917D01*
X120231748Y-139733917D02*
X120236792Y-139723831D01*
X120236792Y-139723831D02*
X120243556Y-139681106D01*
X120243556Y-139681106D02*
X120248666Y-139607778D01*
X120248666Y-139607778D02*
X120252034Y-139514625D01*
X120252034Y-139514625D02*
X120253574Y-139412426D01*
X120253574Y-139412426D02*
X120253201Y-139311959D01*
X120253201Y-139311959D02*
X120252068Y-139269940D01*
X120252068Y-139269940D02*
X120489318Y-139269940D01*
X120489318Y-139269940D02*
X120489737Y-139349906D01*
X120489737Y-139349906D02*
X120493271Y-139410615D01*
X120493271Y-139410615D02*
X120499224Y-139442207D01*
X120499224Y-139442207D02*
X120501663Y-139444565D01*
X120501663Y-139444565D02*
X120529246Y-139440687D01*
X120529246Y-139440687D02*
X120584559Y-139430681D01*
X120584559Y-139430681D02*
X120634455Y-139420933D01*
X120634455Y-139420933D02*
X120709124Y-139401686D01*
X120709124Y-139401686D02*
X120752830Y-139377649D01*
X120752830Y-139377649D02*
X120775569Y-139345854D01*
X120775569Y-139345854D02*
X120797467Y-139262993D01*
X120797467Y-139262993D02*
X120779830Y-139190085D01*
X120779830Y-139190085D02*
X120744231Y-139141640D01*
X120744231Y-139141640D02*
X120702905Y-139104456D01*
X120702905Y-139104456D02*
X120659311Y-139089017D01*
X120659311Y-139089017D02*
X120594224Y-139088721D01*
X120594224Y-139088721D02*
X120590773Y-139088939D01*
X120590773Y-139088939D02*
X120492093Y-139095315D01*
X120492093Y-139095315D02*
X120489318Y-139269940D01*
X120489318Y-139269940D02*
X120252068Y-139269940D01*
X120252068Y-139269940D02*
X120250828Y-139224001D01*
X120250828Y-139224001D02*
X120246368Y-139159331D01*
X120246368Y-139159331D02*
X120241520Y-139132357D01*
X120241520Y-139132357D02*
X120224740Y-139103070D01*
X120224740Y-139103070D02*
X120193224Y-139088891D01*
X120193224Y-139088891D02*
X120134293Y-139084789D01*
X120134293Y-139084789D02*
X120121499Y-139084732D01*
X120121499Y-139084732D02*
X120044474Y-139078056D01*
X120044474Y-139078056D02*
X120005051Y-139058760D01*
X120005051Y-139058760D02*
X120004634Y-139027936D01*
X120004634Y-139027936D02*
X120021281Y-139006722D01*
X120021281Y-139006722D02*
X120041657Y-138994512D01*
X120041657Y-138994512D02*
X120078690Y-138985500D01*
X120078690Y-138985500D02*
X120138193Y-138979163D01*
X120138193Y-138979163D02*
X120225976Y-138974978D01*
X120225976Y-138974978D02*
X120347851Y-138972421D01*
X120347851Y-138972421D02*
X120410077Y-138971711D01*
X120410077Y-138971711D02*
X120542867Y-138970810D01*
X120542867Y-138970810D02*
X120641621Y-138971574D01*
X120641621Y-138971574D02*
X120641621Y-138971574D01*
G36*
X120246368Y-139159331D02*
G01*
X120241520Y-139132357D01*
X120224740Y-139103070D01*
X120193224Y-139088891D01*
X120134293Y-139084789D01*
X120121499Y-139084732D01*
X120044474Y-139078056D01*
X120005051Y-139058760D01*
X120004634Y-139027936D01*
X120021281Y-139006722D01*
X120041657Y-138994512D01*
X120078690Y-138985500D01*
X120138193Y-138979163D01*
X120225976Y-138974978D01*
X120347851Y-138972421D01*
X120410077Y-138971711D01*
X120542867Y-138970810D01*
X120641621Y-138971574D01*
X120714626Y-138974850D01*
X120770173Y-138981488D01*
X120816550Y-138992335D01*
X120862045Y-139008240D01*
X120893976Y-139021235D01*
X120994093Y-139078018D01*
X121054398Y-139146055D01*
X121074340Y-139222021D01*
X121053369Y-139302593D01*
X120990932Y-139384447D01*
X120958953Y-139412969D01*
X120893868Y-139461479D01*
X120830966Y-139494573D01*
X120757156Y-139517011D01*
X120659348Y-139533547D01*
X120610548Y-139539578D01*
X120478550Y-139554898D01*
X120485463Y-139653190D01*
X120493473Y-139716401D01*
X120512376Y-139753578D01*
X120551711Y-139780997D01*
X120564089Y-139787353D01*
X120630873Y-139824416D01*
X120662463Y-139853547D01*
X120663662Y-139880688D01*
X120652883Y-139897190D01*
X120633710Y-139910190D01*
X120597340Y-139918870D01*
X120537264Y-139923811D01*
X120446975Y-139925594D01*
X120340922Y-139925054D01*
X120235295Y-139922725D01*
X120145715Y-139918595D01*
X120080257Y-139913197D01*
X120046996Y-139907066D01*
X120044636Y-139905448D01*
X120044155Y-139875612D01*
X120079643Y-139841025D01*
X120142740Y-139804451D01*
X120196422Y-139769887D01*
X120231748Y-139733917D01*
X120236792Y-139723831D01*
X120243556Y-139681106D01*
X120248666Y-139607778D01*
X120252034Y-139514625D01*
X120253574Y-139412426D01*
X120253201Y-139311959D01*
X120252068Y-139269940D01*
X120489318Y-139269940D01*
X120489737Y-139349906D01*
X120493271Y-139410615D01*
X120499224Y-139442207D01*
X120501663Y-139444565D01*
X120529246Y-139440687D01*
X120584559Y-139430681D01*
X120634455Y-139420933D01*
X120709124Y-139401686D01*
X120752830Y-139377649D01*
X120775569Y-139345854D01*
X120797467Y-139262993D01*
X120779830Y-139190085D01*
X120744231Y-139141640D01*
X120702905Y-139104456D01*
X120659311Y-139089017D01*
X120594224Y-139088721D01*
X120590773Y-139088939D01*
X120492093Y-139095315D01*
X120489318Y-139269940D01*
X120252068Y-139269940D01*
X120250828Y-139224001D01*
X120246368Y-139159331D01*
G37*
X120246368Y-139159331D02*
X120241520Y-139132357D01*
X120224740Y-139103070D01*
X120193224Y-139088891D01*
X120134293Y-139084789D01*
X120121499Y-139084732D01*
X120044474Y-139078056D01*
X120005051Y-139058760D01*
X120004634Y-139027936D01*
X120021281Y-139006722D01*
X120041657Y-138994512D01*
X120078690Y-138985500D01*
X120138193Y-138979163D01*
X120225976Y-138974978D01*
X120347851Y-138972421D01*
X120410077Y-138971711D01*
X120542867Y-138970810D01*
X120641621Y-138971574D01*
X120714626Y-138974850D01*
X120770173Y-138981488D01*
X120816550Y-138992335D01*
X120862045Y-139008240D01*
X120893976Y-139021235D01*
X120994093Y-139078018D01*
X121054398Y-139146055D01*
X121074340Y-139222021D01*
X121053369Y-139302593D01*
X120990932Y-139384447D01*
X120958953Y-139412969D01*
X120893868Y-139461479D01*
X120830966Y-139494573D01*
X120757156Y-139517011D01*
X120659348Y-139533547D01*
X120610548Y-139539578D01*
X120478550Y-139554898D01*
X120485463Y-139653190D01*
X120493473Y-139716401D01*
X120512376Y-139753578D01*
X120551711Y-139780997D01*
X120564089Y-139787353D01*
X120630873Y-139824416D01*
X120662463Y-139853547D01*
X120663662Y-139880688D01*
X120652883Y-139897190D01*
X120633710Y-139910190D01*
X120597340Y-139918870D01*
X120537264Y-139923811D01*
X120446975Y-139925594D01*
X120340922Y-139925054D01*
X120235295Y-139922725D01*
X120145715Y-139918595D01*
X120080257Y-139913197D01*
X120046996Y-139907066D01*
X120044636Y-139905448D01*
X120044155Y-139875612D01*
X120079643Y-139841025D01*
X120142740Y-139804451D01*
X120196422Y-139769887D01*
X120231748Y-139733917D01*
X120236792Y-139723831D01*
X120243556Y-139681106D01*
X120248666Y-139607778D01*
X120252034Y-139514625D01*
X120253574Y-139412426D01*
X120253201Y-139311959D01*
X120252068Y-139269940D01*
X120489318Y-139269940D01*
X120489737Y-139349906D01*
X120493271Y-139410615D01*
X120499224Y-139442207D01*
X120501663Y-139444565D01*
X120529246Y-139440687D01*
X120584559Y-139430681D01*
X120634455Y-139420933D01*
X120709124Y-139401686D01*
X120752830Y-139377649D01*
X120775569Y-139345854D01*
X120797467Y-139262993D01*
X120779830Y-139190085D01*
X120744231Y-139141640D01*
X120702905Y-139104456D01*
X120659311Y-139089017D01*
X120594224Y-139088721D01*
X120590773Y-139088939D01*
X120492093Y-139095315D01*
X120489318Y-139269940D01*
X120252068Y-139269940D01*
X120250828Y-139224001D01*
X120246368Y-139159331D01*
X133946844Y-138953000D02*
X133981362Y-138980681D01*
X133981362Y-138980681D02*
X134001062Y-139044399D01*
X134001062Y-139044399D02*
X134006720Y-139131953D01*
X134006720Y-139131953D02*
X134002259Y-139186434D01*
X134002259Y-139186434D02*
X133982895Y-139213450D01*
X133982895Y-139213450D02*
X133954140Y-139224194D01*
X133954140Y-139224194D02*
X133886258Y-139228854D01*
X133886258Y-139228854D02*
X133845876Y-139201562D01*
X133845876Y-139201562D02*
X133834026Y-139166108D01*
X133834026Y-139166108D02*
X133809845Y-139119648D01*
X133809845Y-139119648D02*
X133762363Y-139082782D01*
X133762363Y-139082782D02*
X133708609Y-139066301D01*
X133708609Y-139066301D02*
X133682246Y-139069945D01*
X133682246Y-139069945D02*
X133654393Y-139102736D01*
X133654393Y-139102736D02*
X133647176Y-139157850D01*
X133647176Y-139157850D02*
X133653335Y-139210155D01*
X133653335Y-139210155D02*
X133678697Y-139248167D01*
X133678697Y-139248167D02*
X133726551Y-139283745D01*
X133726551Y-139283745D02*
X133791843Y-139317976D01*
X133791843Y-139317976D02*
X133876444Y-139351965D01*
X133876444Y-139351965D02*
X133936341Y-139370975D01*
X133936341Y-139370975D02*
X134013142Y-139396958D01*
X134013142Y-139396958D02*
X134064191Y-139424312D01*
X134064191Y-139424312D02*
X134079430Y-139441536D01*
X134079430Y-139441536D02*
X134097931Y-139480121D01*
X134097931Y-139480121D02*
X134129664Y-139536510D01*
X134129664Y-139536510D02*
X134144459Y-139560982D01*
X134144459Y-139560982D02*
X134176420Y-139622470D01*
X134176420Y-139622470D02*
X134195153Y-139677433D01*
X134195153Y-139677433D02*
X134197161Y-139693273D01*
X134197161Y-139693273D02*
X134205411Y-139730454D01*
X134205411Y-139730454D02*
X134218676Y-139740898D01*
X134218676Y-139740898D02*
X134235384Y-139758154D01*
X134235384Y-139758154D02*
X134237625Y-139799863D01*
X134237625Y-139799863D02*
X134226053Y-139850939D01*
X134226053Y-139850939D02*
X134212634Y-139880008D01*
X134212634Y-139880008D02*
X134172407Y-139930683D01*
X134172407Y-139930683D02*
X134109432Y-139991705D01*
X134109432Y-139991705D02*
X134037107Y-140051389D01*
X134037107Y-140051389D02*
X133968832Y-140098046D01*
X133968832Y-140098046D02*
X133952073Y-140107282D01*
X133952073Y-140107282D02*
X133892436Y-140131813D01*
X133892436Y-140131813D02*
X133808428Y-140159100D01*
X133808428Y-140159100D02*
X133713353Y-140185642D01*
X133713353Y-140185642D02*
X133620510Y-140207938D01*
X133620510Y-140207938D02*
X133543203Y-140222489D01*
X133543203Y-140222489D02*
X133500315Y-140226173D01*
X133500315Y-140226173D02*
X133453056Y-140220404D01*
X133453056Y-140220404D02*
X133380231Y-140206720D01*
X133380231Y-140206720D02*
X133297198Y-140188021D01*
X133297198Y-140188021D02*
X133293237Y-140187052D01*
X133293237Y-140187052D02*
X133158395Y-140143222D01*
X133158395Y-140143222D02*
X133045204Y-140085123D01*
X133045204Y-140085123D02*
X132962104Y-140017522D01*
X132962104Y-140017522D02*
X132937201Y-139985924D01*
X132937201Y-139985924D02*
X132922769Y-139966120D01*
X132922769Y-139966120D02*
X132905033Y-139952145D01*
X132905033Y-139952145D02*
X132876969Y-139942928D01*
X132876969Y-139942928D02*
X132831558Y-139937396D01*
X132831558Y-139937396D02*
X132761776Y-139934478D01*
X132761776Y-139934478D02*
X132660602Y-139933103D01*
X132660602Y-139933103D02*
X132587871Y-139932608D01*
X132587871Y-139932608D02*
X132430721Y-139929614D01*
X132430721Y-139929614D02*
X132313017Y-139922495D01*
X132313017Y-139922495D02*
X132232030Y-139910793D01*
X132232030Y-139910793D02*
X132185029Y-139894051D01*
X132185029Y-139894051D02*
X132169288Y-139871808D01*
X132169288Y-139871808D02*
X132170711Y-139862476D01*
X132170711Y-139862476D02*
X132195793Y-139842026D01*
X132195793Y-139842026D02*
X132244033Y-139829707D01*
X132244033Y-139829707D02*
X132244298Y-139829681D01*
X132244298Y-139829681D02*
X132292247Y-139821064D01*
X132292247Y-139821064D02*
X132327219Y-139802141D01*
X132327219Y-139802141D02*
X132351606Y-139766802D01*
X132351606Y-139766802D02*
X132367799Y-139708935D01*
X132367799Y-139708935D02*
X132378190Y-139622430D01*
X132378190Y-139622430D02*
X132378472Y-139617523D01*
X132378472Y-139617523D02*
X132631176Y-139617523D01*
X132631176Y-139617523D02*
X132643974Y-139703928D01*
X132643974Y-139703928D02*
X132683477Y-139758058D01*
X132683477Y-139758058D02*
X132751345Y-139781766D01*
X132751345Y-139781766D02*
X132779561Y-139783232D01*
X132779561Y-139783232D02*
X132833215Y-139778827D01*
X132833215Y-139778827D02*
X132861036Y-139758054D01*
X132861036Y-139758054D02*
X132877829Y-139714440D01*
X132877829Y-139714440D02*
X132886306Y-139647488D01*
X132886306Y-139647488D02*
X132865016Y-139587574D01*
X132865016Y-139587574D02*
X132838765Y-139551405D01*
X132838765Y-139551405D02*
X132803795Y-139534276D01*
X132803795Y-139534276D02*
X132744673Y-139529447D01*
X132744673Y-139529447D02*
X132731718Y-139529365D01*
X132731718Y-139529365D02*
X132631176Y-139529232D01*
X132631176Y-139529232D02*
X132631176Y-139617523D01*
X132631176Y-139617523D02*
X132378472Y-139617523D01*
X132378472Y-139617523D02*
X132385171Y-139501176D01*
X132385171Y-139501176D02*
X132386610Y-139466094D01*
X132386610Y-139466094D02*
X132389838Y-139325899D01*
X132389838Y-139325899D02*
X132386215Y-139222808D01*
X132386215Y-139222808D02*
X132374609Y-139151982D01*
X132374609Y-139151982D02*
X132353889Y-139108580D01*
X132353889Y-139108580D02*
X132322924Y-139087763D01*
X132322924Y-139087763D02*
X132297313Y-139084058D01*
X132297313Y-139084058D02*
X132251936Y-139071194D01*
X132251936Y-139071194D02*
X132219564Y-139052229D01*
X132219564Y-139052229D02*
X132192377Y-139024191D01*
X132192377Y-139024191D02*
X132195533Y-139002335D01*
X132195533Y-139002335D02*
X132231578Y-138985869D01*
X132231578Y-138985869D02*
X132303061Y-138974003D01*
X132303061Y-138974003D02*
X132412532Y-138965945D01*
X132412532Y-138965945D02*
X132509499Y-138962252D01*
X132509499Y-138962252D02*
X132617637Y-138959067D01*
X132617637Y-138959067D02*
X132713229Y-138956150D01*
X132713229Y-138956150D02*
X132786850Y-138953795D01*
X132786850Y-138953795D02*
X132829074Y-138952298D01*
X132829074Y-138952298D02*
X132832260Y-138952159D01*
X132832260Y-138952159D02*
X132957430Y-138950554D01*
X132957430Y-138950554D02*
X133051452Y-138958399D01*
X133051452Y-138958399D02*
X133110607Y-138975165D01*
X133110607Y-138975165D02*
X133130367Y-138994773D01*
X133130367Y-138994773D02*
X133146155Y-139035783D01*
X133146155Y-139035783D02*
X133172981Y-139095610D01*
X133172981Y-139095610D02*
X133185424Y-139121516D01*
X133185424Y-139121516D02*
X133211107Y-139180959D01*
X133211107Y-139180959D02*
X133215722Y-139217867D01*
X133215722Y-139217867D02*
X133202889Y-139243225D01*
X133202889Y-139243225D02*
X133171028Y-139269364D01*
X133171028Y-139269364D02*
X133134824Y-139268549D01*
X133134824Y-139268549D02*
X133086672Y-139238417D01*
X133086672Y-139238417D02*
X133033343Y-139190565D01*
X133033343Y-139190565D02*
X132983955Y-139145416D01*
X132983955Y-139145416D02*
X132943929Y-139120071D01*
X132943929Y-139120071D02*
X132897647Y-139108824D01*
X132897647Y-139108824D02*
X132829491Y-139105970D01*
X132829491Y-139105970D02*
X132801552Y-139105898D01*
X132801552Y-139105898D02*
X132657882Y-139105898D01*
X132657882Y-139105898D02*
X132644762Y-139185273D01*
X132644762Y-139185273D02*
X132635580Y-139259864D01*
X132635580Y-139259864D02*
X132631425Y-139331044D01*
X132631425Y-139331044D02*
X132631409Y-139333440D01*
X132631409Y-139333440D02*
X132633560Y-139375529D01*
X132633560Y-139375529D02*
X132648001Y-139395588D01*
X132648001Y-139395588D02*
X132686146Y-139401779D01*
X132686146Y-139401779D02*
X132727619Y-139402232D01*
X132727619Y-139402232D02*
X132795976Y-139396790D01*
X132795976Y-139396790D02*
X132844082Y-139374472D01*
X132844082Y-139374472D02*
X132884345Y-139336231D01*
X132884345Y-139336231D02*
X132925941Y-139298418D01*
X132925941Y-139298418D02*
X132958510Y-139282161D01*
X132958510Y-139282161D02*
X132965810Y-139283323D01*
X132965810Y-139283323D02*
X132976108Y-139311184D01*
X132976108Y-139311184D02*
X132978547Y-139370846D01*
X132978547Y-139370846D02*
X132975347Y-139424852D01*
X132975347Y-139424852D02*
X132963701Y-139553290D01*
X132963701Y-139553290D02*
X133043809Y-139498928D01*
X133043809Y-139498928D02*
X133124599Y-139461942D01*
X133124599Y-139461942D02*
X133219821Y-139444091D01*
X133219821Y-139444091D02*
X133312017Y-139447094D01*
X133312017Y-139447094D02*
X133373401Y-139466476D01*
X133373401Y-139466476D02*
X133409600Y-139495832D01*
X133409600Y-139495832D02*
X133409980Y-139520567D01*
X133409980Y-139520567D02*
X133381052Y-139536044D01*
X133381052Y-139536044D02*
X133329330Y-139537628D01*
X133329330Y-139537628D02*
X133285852Y-139528804D01*
X133285852Y-139528804D02*
X133215897Y-139521514D01*
X133215897Y-139521514D02*
X133164173Y-139540561D01*
X133164173Y-139540561D02*
X133139918Y-139581940D01*
X133139918Y-139581940D02*
X133139176Y-139592424D01*
X133139176Y-139592424D02*
X133156032Y-139635825D01*
X133156032Y-139635825D02*
X133176144Y-139653650D01*
X133176144Y-139653650D02*
X133199075Y-139672096D01*
X133199075Y-139672096D02*
X133200512Y-139699374D01*
X133200512Y-139699374D02*
X133184307Y-139744660D01*
X133184307Y-139744660D02*
X133152618Y-139833436D01*
X133152618Y-139833436D02*
X133143879Y-139893833D01*
X133143879Y-139893833D02*
X133158103Y-139933050D01*
X133158103Y-139933050D02*
X133184675Y-139953327D01*
X133184675Y-139953327D02*
X133238526Y-139987634D01*
X133238526Y-139987634D02*
X133282525Y-140022845D01*
X133282525Y-140022845D02*
X133321411Y-140048415D01*
X133321411Y-140048415D02*
X133376553Y-140063971D01*
X133376553Y-140063971D02*
X133459593Y-140072457D01*
X133459593Y-140072457D02*
X133483608Y-140073707D01*
X133483608Y-140073707D02*
X133616524Y-140067631D01*
X133616524Y-140067631D02*
X133720860Y-140033871D01*
X133720860Y-140033871D02*
X133802227Y-139969711D01*
X133802227Y-139969711D02*
X133855077Y-139893717D01*
X133855077Y-139893717D02*
X133889383Y-139841311D01*
X133889383Y-139841311D02*
X133920817Y-139809179D01*
X133920817Y-139809179D02*
X133932530Y-139804398D01*
X133932530Y-139804398D02*
X133949230Y-139788213D01*
X133949230Y-139788213D02*
X133947814Y-139749523D01*
X133947814Y-139749523D02*
X133930185Y-139703123D01*
X133930185Y-139703123D02*
X133916918Y-139682959D01*
X133916918Y-139682959D02*
X133904921Y-139642465D01*
X133904921Y-139642465D02*
X133907808Y-139627147D01*
X133907808Y-139627147D02*
X133905542Y-139606264D01*
X133905542Y-139606264D02*
X133878802Y-139608081D01*
X133878802Y-139608081D02*
X133841338Y-139602550D01*
X133841338Y-139602550D02*
X133805749Y-139561088D01*
X133805749Y-139561088D02*
X133801010Y-139553024D01*
X133801010Y-139553024D02*
X133758018Y-139502582D01*
X133758018Y-139502582D02*
X133685792Y-139456443D01*
X133685792Y-139456443D02*
X133628729Y-139429968D01*
X133628729Y-139429968D02*
X133551852Y-139394636D01*
X133551852Y-139394636D02*
X133484402Y-139359151D01*
X133484402Y-139359151D02*
X133444308Y-139333546D01*
X133444308Y-139333546D02*
X133397610Y-139272589D01*
X133397610Y-139272589D02*
X133378304Y-139194283D01*
X133378304Y-139194283D02*
X133385736Y-139112436D01*
X133385736Y-139112436D02*
X133419248Y-139040858D01*
X133419248Y-139040858D02*
X133460022Y-139002888D01*
X133460022Y-139002888D02*
X133498603Y-138990277D01*
X133498603Y-138990277D02*
X133567565Y-138977509D01*
X133567565Y-138977509D02*
X133654979Y-138965806D01*
X133654979Y-138965806D02*
X133748915Y-138956389D01*
X133748915Y-138956389D02*
X133837445Y-138950482D01*
X133837445Y-138950482D02*
X133908638Y-138949308D01*
X133908638Y-138949308D02*
X133946844Y-138953000D01*
X133946844Y-138953000D02*
X133946844Y-138953000D01*
G36*
X132386610Y-139466094D02*
G01*
X132389838Y-139325899D01*
X132386215Y-139222808D01*
X132374609Y-139151982D01*
X132353889Y-139108580D01*
X132322924Y-139087763D01*
X132297313Y-139084058D01*
X132251936Y-139071194D01*
X132219564Y-139052229D01*
X132192377Y-139024191D01*
X132195533Y-139002335D01*
X132231578Y-138985869D01*
X132303061Y-138974003D01*
X132412532Y-138965945D01*
X132509499Y-138962252D01*
X132617637Y-138959067D01*
X132713229Y-138956150D01*
X132786850Y-138953795D01*
X132829074Y-138952298D01*
X132832260Y-138952159D01*
X132957430Y-138950554D01*
X133051452Y-138958399D01*
X133110607Y-138975165D01*
X133130367Y-138994773D01*
X133146155Y-139035783D01*
X133172981Y-139095610D01*
X133185424Y-139121516D01*
X133211107Y-139180959D01*
X133215722Y-139217867D01*
X133202889Y-139243225D01*
X133171028Y-139269364D01*
X133134824Y-139268549D01*
X133086672Y-139238417D01*
X133033343Y-139190565D01*
X132983955Y-139145416D01*
X132943929Y-139120071D01*
X132897647Y-139108824D01*
X132829491Y-139105970D01*
X132801552Y-139105898D01*
X132657882Y-139105898D01*
X132644762Y-139185273D01*
X132635580Y-139259864D01*
X132631425Y-139331044D01*
X132631409Y-139333440D01*
X132633560Y-139375529D01*
X132648001Y-139395588D01*
X132686146Y-139401779D01*
X132727619Y-139402232D01*
X132795976Y-139396790D01*
X132844082Y-139374472D01*
X132884345Y-139336231D01*
X132925941Y-139298418D01*
X132958510Y-139282161D01*
X132965810Y-139283323D01*
X132976108Y-139311184D01*
X132978547Y-139370846D01*
X132975347Y-139424852D01*
X132963701Y-139553290D01*
X133043809Y-139498928D01*
X133124599Y-139461942D01*
X133219821Y-139444091D01*
X133312017Y-139447094D01*
X133373401Y-139466476D01*
X133409600Y-139495832D01*
X133409980Y-139520567D01*
X133381052Y-139536044D01*
X133329330Y-139537628D01*
X133285852Y-139528804D01*
X133215897Y-139521514D01*
X133164173Y-139540561D01*
X133139918Y-139581940D01*
X133139176Y-139592424D01*
X133156032Y-139635825D01*
X133176144Y-139653650D01*
X133199075Y-139672096D01*
X133200512Y-139699374D01*
X133184307Y-139744660D01*
X133152618Y-139833436D01*
X133143879Y-139893833D01*
X133158103Y-139933050D01*
X133184675Y-139953327D01*
X133238526Y-139987634D01*
X133282525Y-140022845D01*
X133321411Y-140048415D01*
X133376553Y-140063971D01*
X133459593Y-140072457D01*
X133483608Y-140073707D01*
X133616524Y-140067631D01*
X133720860Y-140033871D01*
X133802227Y-139969711D01*
X133855077Y-139893717D01*
X133889383Y-139841311D01*
X133920817Y-139809179D01*
X133932530Y-139804398D01*
X133949230Y-139788213D01*
X133947814Y-139749523D01*
X133930185Y-139703123D01*
X133916918Y-139682959D01*
X133904921Y-139642465D01*
X133907808Y-139627147D01*
X133905542Y-139606264D01*
X133878802Y-139608081D01*
X133841338Y-139602550D01*
X133805749Y-139561088D01*
X133801010Y-139553024D01*
X133758018Y-139502582D01*
X133685792Y-139456443D01*
X133628729Y-139429968D01*
X133551852Y-139394636D01*
X133484402Y-139359151D01*
X133444308Y-139333546D01*
X133397610Y-139272589D01*
X133378304Y-139194283D01*
X133385736Y-139112436D01*
X133419248Y-139040858D01*
X133460022Y-139002888D01*
X133498603Y-138990277D01*
X133567565Y-138977509D01*
X133654979Y-138965806D01*
X133748915Y-138956389D01*
X133837445Y-138950482D01*
X133908638Y-138949308D01*
X133946844Y-138953000D01*
X133981362Y-138980681D01*
X134001062Y-139044399D01*
X134006720Y-139131953D01*
X134002259Y-139186434D01*
X133982895Y-139213450D01*
X133954140Y-139224194D01*
X133886258Y-139228854D01*
X133845876Y-139201562D01*
X133834026Y-139166108D01*
X133809845Y-139119648D01*
X133762363Y-139082782D01*
X133708609Y-139066301D01*
X133682246Y-139069945D01*
X133654393Y-139102736D01*
X133647176Y-139157850D01*
X133653335Y-139210155D01*
X133678697Y-139248167D01*
X133726551Y-139283745D01*
X133791843Y-139317976D01*
X133876444Y-139351965D01*
X133936341Y-139370975D01*
X134013142Y-139396958D01*
X134064191Y-139424312D01*
X134079430Y-139441536D01*
X134097931Y-139480121D01*
X134129664Y-139536510D01*
X134144459Y-139560982D01*
X134176420Y-139622470D01*
X134195153Y-139677433D01*
X134197161Y-139693273D01*
X134205411Y-139730454D01*
X134218676Y-139740898D01*
X134235384Y-139758154D01*
X134237625Y-139799863D01*
X134226053Y-139850939D01*
X134212634Y-139880008D01*
X134172407Y-139930683D01*
X134109432Y-139991705D01*
X134037107Y-140051389D01*
X133968832Y-140098046D01*
X133952073Y-140107282D01*
X133892436Y-140131813D01*
X133808428Y-140159100D01*
X133713353Y-140185642D01*
X133620510Y-140207938D01*
X133543203Y-140222489D01*
X133500315Y-140226173D01*
X133453056Y-140220404D01*
X133380231Y-140206720D01*
X133297198Y-140188021D01*
X133293237Y-140187052D01*
X133158395Y-140143222D01*
X133045204Y-140085123D01*
X132962104Y-140017522D01*
X132937201Y-139985924D01*
X132922769Y-139966120D01*
X132905033Y-139952145D01*
X132876969Y-139942928D01*
X132831558Y-139937396D01*
X132761776Y-139934478D01*
X132660602Y-139933103D01*
X132587871Y-139932608D01*
X132430721Y-139929614D01*
X132313017Y-139922495D01*
X132232030Y-139910793D01*
X132185029Y-139894051D01*
X132169288Y-139871808D01*
X132170711Y-139862476D01*
X132195793Y-139842026D01*
X132244033Y-139829707D01*
X132244298Y-139829681D01*
X132292247Y-139821064D01*
X132327219Y-139802141D01*
X132351606Y-139766802D01*
X132367799Y-139708935D01*
X132378190Y-139622430D01*
X132378472Y-139617523D01*
X132631176Y-139617523D01*
X132643974Y-139703928D01*
X132683477Y-139758058D01*
X132751345Y-139781766D01*
X132779561Y-139783232D01*
X132833215Y-139778827D01*
X132861036Y-139758054D01*
X132877829Y-139714440D01*
X132886306Y-139647488D01*
X132865016Y-139587574D01*
X132838765Y-139551405D01*
X132803795Y-139534276D01*
X132744673Y-139529447D01*
X132731718Y-139529365D01*
X132631176Y-139529232D01*
X132631176Y-139617523D01*
X132378472Y-139617523D01*
X132385171Y-139501176D01*
X132386610Y-139466094D01*
G37*
X132386610Y-139466094D02*
X132389838Y-139325899D01*
X132386215Y-139222808D01*
X132374609Y-139151982D01*
X132353889Y-139108580D01*
X132322924Y-139087763D01*
X132297313Y-139084058D01*
X132251936Y-139071194D01*
X132219564Y-139052229D01*
X132192377Y-139024191D01*
X132195533Y-139002335D01*
X132231578Y-138985869D01*
X132303061Y-138974003D01*
X132412532Y-138965945D01*
X132509499Y-138962252D01*
X132617637Y-138959067D01*
X132713229Y-138956150D01*
X132786850Y-138953795D01*
X132829074Y-138952298D01*
X132832260Y-138952159D01*
X132957430Y-138950554D01*
X133051452Y-138958399D01*
X133110607Y-138975165D01*
X133130367Y-138994773D01*
X133146155Y-139035783D01*
X133172981Y-139095610D01*
X133185424Y-139121516D01*
X133211107Y-139180959D01*
X133215722Y-139217867D01*
X133202889Y-139243225D01*
X133171028Y-139269364D01*
X133134824Y-139268549D01*
X133086672Y-139238417D01*
X133033343Y-139190565D01*
X132983955Y-139145416D01*
X132943929Y-139120071D01*
X132897647Y-139108824D01*
X132829491Y-139105970D01*
X132801552Y-139105898D01*
X132657882Y-139105898D01*
X132644762Y-139185273D01*
X132635580Y-139259864D01*
X132631425Y-139331044D01*
X132631409Y-139333440D01*
X132633560Y-139375529D01*
X132648001Y-139395588D01*
X132686146Y-139401779D01*
X132727619Y-139402232D01*
X132795976Y-139396790D01*
X132844082Y-139374472D01*
X132884345Y-139336231D01*
X132925941Y-139298418D01*
X132958510Y-139282161D01*
X132965810Y-139283323D01*
X132976108Y-139311184D01*
X132978547Y-139370846D01*
X132975347Y-139424852D01*
X132963701Y-139553290D01*
X133043809Y-139498928D01*
X133124599Y-139461942D01*
X133219821Y-139444091D01*
X133312017Y-139447094D01*
X133373401Y-139466476D01*
X133409600Y-139495832D01*
X133409980Y-139520567D01*
X133381052Y-139536044D01*
X133329330Y-139537628D01*
X133285852Y-139528804D01*
X133215897Y-139521514D01*
X133164173Y-139540561D01*
X133139918Y-139581940D01*
X133139176Y-139592424D01*
X133156032Y-139635825D01*
X133176144Y-139653650D01*
X133199075Y-139672096D01*
X133200512Y-139699374D01*
X133184307Y-139744660D01*
X133152618Y-139833436D01*
X133143879Y-139893833D01*
X133158103Y-139933050D01*
X133184675Y-139953327D01*
X133238526Y-139987634D01*
X133282525Y-140022845D01*
X133321411Y-140048415D01*
X133376553Y-140063971D01*
X133459593Y-140072457D01*
X133483608Y-140073707D01*
X133616524Y-140067631D01*
X133720860Y-140033871D01*
X133802227Y-139969711D01*
X133855077Y-139893717D01*
X133889383Y-139841311D01*
X133920817Y-139809179D01*
X133932530Y-139804398D01*
X133949230Y-139788213D01*
X133947814Y-139749523D01*
X133930185Y-139703123D01*
X133916918Y-139682959D01*
X133904921Y-139642465D01*
X133907808Y-139627147D01*
X133905542Y-139606264D01*
X133878802Y-139608081D01*
X133841338Y-139602550D01*
X133805749Y-139561088D01*
X133801010Y-139553024D01*
X133758018Y-139502582D01*
X133685792Y-139456443D01*
X133628729Y-139429968D01*
X133551852Y-139394636D01*
X133484402Y-139359151D01*
X133444308Y-139333546D01*
X133397610Y-139272589D01*
X133378304Y-139194283D01*
X133385736Y-139112436D01*
X133419248Y-139040858D01*
X133460022Y-139002888D01*
X133498603Y-138990277D01*
X133567565Y-138977509D01*
X133654979Y-138965806D01*
X133748915Y-138956389D01*
X133837445Y-138950482D01*
X133908638Y-138949308D01*
X133946844Y-138953000D01*
X133981362Y-138980681D01*
X134001062Y-139044399D01*
X134006720Y-139131953D01*
X134002259Y-139186434D01*
X133982895Y-139213450D01*
X133954140Y-139224194D01*
X133886258Y-139228854D01*
X133845876Y-139201562D01*
X133834026Y-139166108D01*
X133809845Y-139119648D01*
X133762363Y-139082782D01*
X133708609Y-139066301D01*
X133682246Y-139069945D01*
X133654393Y-139102736D01*
X133647176Y-139157850D01*
X133653335Y-139210155D01*
X133678697Y-139248167D01*
X133726551Y-139283745D01*
X133791843Y-139317976D01*
X133876444Y-139351965D01*
X133936341Y-139370975D01*
X134013142Y-139396958D01*
X134064191Y-139424312D01*
X134079430Y-139441536D01*
X134097931Y-139480121D01*
X134129664Y-139536510D01*
X134144459Y-139560982D01*
X134176420Y-139622470D01*
X134195153Y-139677433D01*
X134197161Y-139693273D01*
X134205411Y-139730454D01*
X134218676Y-139740898D01*
X134235384Y-139758154D01*
X134237625Y-139799863D01*
X134226053Y-139850939D01*
X134212634Y-139880008D01*
X134172407Y-139930683D01*
X134109432Y-139991705D01*
X134037107Y-140051389D01*
X133968832Y-140098046D01*
X133952073Y-140107282D01*
X133892436Y-140131813D01*
X133808428Y-140159100D01*
X133713353Y-140185642D01*
X133620510Y-140207938D01*
X133543203Y-140222489D01*
X133500315Y-140226173D01*
X133453056Y-140220404D01*
X133380231Y-140206720D01*
X133297198Y-140188021D01*
X133293237Y-140187052D01*
X133158395Y-140143222D01*
X133045204Y-140085123D01*
X132962104Y-140017522D01*
X132937201Y-139985924D01*
X132922769Y-139966120D01*
X132905033Y-139952145D01*
X132876969Y-139942928D01*
X132831558Y-139937396D01*
X132761776Y-139934478D01*
X132660602Y-139933103D01*
X132587871Y-139932608D01*
X132430721Y-139929614D01*
X132313017Y-139922495D01*
X132232030Y-139910793D01*
X132185029Y-139894051D01*
X132169288Y-139871808D01*
X132170711Y-139862476D01*
X132195793Y-139842026D01*
X132244033Y-139829707D01*
X132244298Y-139829681D01*
X132292247Y-139821064D01*
X132327219Y-139802141D01*
X132351606Y-139766802D01*
X132367799Y-139708935D01*
X132378190Y-139622430D01*
X132378472Y-139617523D01*
X132631176Y-139617523D01*
X132643974Y-139703928D01*
X132683477Y-139758058D01*
X132751345Y-139781766D01*
X132779561Y-139783232D01*
X132833215Y-139778827D01*
X132861036Y-139758054D01*
X132877829Y-139714440D01*
X132886306Y-139647488D01*
X132865016Y-139587574D01*
X132838765Y-139551405D01*
X132803795Y-139534276D01*
X132744673Y-139529447D01*
X132731718Y-139529365D01*
X132631176Y-139529232D01*
X132631176Y-139617523D01*
X132378472Y-139617523D01*
X132385171Y-139501176D01*
X132386610Y-139466094D01*
X118885041Y-138970216D02*
X118968429Y-138982277D01*
X118968429Y-138982277D02*
X119033806Y-138998917D01*
X119033806Y-138998917D02*
X119068147Y-139018019D01*
X119068147Y-139018019D02*
X119096384Y-139064775D01*
X119096384Y-139064775D02*
X119121032Y-139125652D01*
X119121032Y-139125652D02*
X119137071Y-139184959D01*
X119137071Y-139184959D02*
X119139479Y-139227002D01*
X119139479Y-139227002D02*
X119137072Y-139233471D01*
X119137072Y-139233471D02*
X119138273Y-139264090D01*
X119138273Y-139264090D02*
X119158051Y-139313122D01*
X119158051Y-139313122D02*
X119166423Y-139328235D01*
X119166423Y-139328235D02*
X119199590Y-139398523D01*
X119199590Y-139398523D02*
X119222547Y-139471684D01*
X119222547Y-139471684D02*
X119223672Y-139477286D01*
X119223672Y-139477286D02*
X119236418Y-139521936D01*
X119236418Y-139521936D02*
X119250296Y-139538036D01*
X119250296Y-139538036D02*
X119253556Y-139536104D01*
X119253556Y-139536104D02*
X119266322Y-139509769D01*
X119266322Y-139509769D02*
X119288534Y-139452386D01*
X119288534Y-139452386D02*
X119316730Y-139373223D01*
X119316730Y-139373223D02*
X119339112Y-139306982D01*
X119339112Y-139306982D02*
X119370510Y-139212269D01*
X119370510Y-139212269D02*
X119398929Y-139127000D01*
X119398929Y-139127000D02*
X119420499Y-139062765D01*
X119420499Y-139062765D02*
X119429053Y-139037668D01*
X119429053Y-139037668D02*
X119449014Y-138980021D01*
X119449014Y-138980021D02*
X119684518Y-138984751D01*
X119684518Y-138984751D02*
X119789599Y-138987766D01*
X119789599Y-138987766D02*
X119859379Y-138992536D01*
X119859379Y-138992536D02*
X119900889Y-139000187D01*
X119900889Y-139000187D02*
X119921156Y-139011848D01*
X119921156Y-139011848D02*
X119926579Y-139023550D01*
X119926579Y-139023550D02*
X119912988Y-139057177D01*
X119912988Y-139057177D02*
X119870186Y-139083692D01*
X119870186Y-139083692D02*
X119817853Y-139108432D01*
X119817853Y-139108432D02*
X119780377Y-139137245D01*
X119780377Y-139137245D02*
X119755011Y-139177421D01*
X119755011Y-139177421D02*
X119739008Y-139236251D01*
X119739008Y-139236251D02*
X119729621Y-139321024D01*
X119729621Y-139321024D02*
X119724104Y-139439032D01*
X119724104Y-139439032D02*
X119723016Y-139474262D01*
X119723016Y-139474262D02*
X119714820Y-139754752D01*
X119714820Y-139754752D02*
X119805489Y-139832362D01*
X119805489Y-139832362D02*
X119852694Y-139876247D01*
X119852694Y-139876247D02*
X119880771Y-139909277D01*
X119880771Y-139909277D02*
X119884459Y-139921671D01*
X119884459Y-139921671D02*
X119860069Y-139926730D01*
X119860069Y-139926730D02*
X119801625Y-139932283D01*
X119801625Y-139932283D02*
X119717392Y-139937715D01*
X119717392Y-139937715D02*
X119615634Y-139942413D01*
X119615634Y-139942413D02*
X119595051Y-139943170D01*
X119595051Y-139943170D02*
X119469651Y-139946188D01*
X119469651Y-139946188D02*
X119383540Y-139944459D01*
X119383540Y-139944459D02*
X119333864Y-139937260D01*
X119333864Y-139937260D02*
X119317770Y-139923870D01*
X119317770Y-139923870D02*
X119332405Y-139903568D01*
X119332405Y-139903568D02*
X119360878Y-139883953D01*
X119360878Y-139883953D02*
X119407742Y-139847329D01*
X119407742Y-139847329D02*
X119442173Y-139798649D01*
X119442173Y-139798649D02*
X119466443Y-139730877D01*
X119466443Y-139730877D02*
X119482827Y-139636976D01*
X119482827Y-139636976D02*
X119493599Y-139509909D01*
X119493599Y-139509909D02*
X119496003Y-139465732D01*
X119496003Y-139465732D02*
X119509146Y-139201148D01*
X119509146Y-139201148D02*
X119375412Y-139571565D01*
X119375412Y-139571565D02*
X119326933Y-139704185D01*
X119326933Y-139704185D02*
X119289456Y-139801892D01*
X119289456Y-139801892D02*
X119260487Y-139869894D01*
X119260487Y-139869894D02*
X119237531Y-139913403D01*
X119237531Y-139913403D02*
X119218096Y-139937628D01*
X119218096Y-139937628D02*
X119199686Y-139947780D01*
X119199686Y-139947780D02*
X119194878Y-139948741D01*
X119194878Y-139948741D02*
X119170771Y-139949144D01*
X119170771Y-139949144D02*
X119151104Y-139938477D01*
X119151104Y-139938477D02*
X119133039Y-139910746D01*
X119133039Y-139910746D02*
X119113739Y-139859954D01*
X119113739Y-139859954D02*
X119090367Y-139780104D01*
X119090367Y-139780104D02*
X119060088Y-139665202D01*
X119060088Y-139665202D02*
X119059318Y-139662216D01*
X119059318Y-139662216D02*
X119036765Y-139578950D01*
X119036765Y-139578950D02*
X119016711Y-139512427D01*
X119016711Y-139512427D02*
X119002224Y-139472508D01*
X119002224Y-139472508D02*
X118998199Y-139465732D01*
X118998199Y-139465732D02*
X118965992Y-139419866D01*
X118965992Y-139419866D02*
X118943273Y-139350652D01*
X118943273Y-139350652D02*
X118936343Y-139288456D01*
X118936343Y-139288456D02*
X118930229Y-139234793D01*
X118930229Y-139234793D02*
X118915273Y-139201581D01*
X118915273Y-139201581D02*
X118912927Y-139199758D01*
X118912927Y-139199758D02*
X118902846Y-139207168D01*
X118902846Y-139207168D02*
X118896901Y-139246659D01*
X118896901Y-139246659D02*
X118894887Y-139321468D01*
X118894887Y-139321468D02*
X118896601Y-139434835D01*
X118896601Y-139434835D02*
X118897052Y-139451346D01*
X118897052Y-139451346D02*
X118904593Y-139717405D01*
X118904593Y-139717405D02*
X118973385Y-139788368D01*
X118973385Y-139788368D02*
X119025068Y-139847269D01*
X119025068Y-139847269D02*
X119044628Y-139887902D01*
X119044628Y-139887902D02*
X119029707Y-139913379D01*
X119029707Y-139913379D02*
X118977946Y-139926808D01*
X118977946Y-139926808D02*
X118886986Y-139931299D01*
X118886986Y-139931299D02*
X118864905Y-139931398D01*
X118864905Y-139931398D02*
X118773204Y-139932973D01*
X118773204Y-139932973D02*
X118689902Y-139937147D01*
X118689902Y-139937147D02*
X118630274Y-139943092D01*
X118630274Y-139943092D02*
X118621815Y-139944562D01*
X118621815Y-139944562D02*
X118570945Y-139948190D01*
X118570945Y-139948190D02*
X118545723Y-139929667D01*
X118545723Y-139929667D02*
X118542471Y-139922483D01*
X118542471Y-139922483D02*
X118534731Y-139890130D01*
X118534731Y-139890130D02*
X118536853Y-139882004D01*
X118536853Y-139882004D02*
X118625459Y-139820028D01*
X118625459Y-139820028D02*
X118688594Y-139764065D01*
X118688594Y-139764065D02*
X118730175Y-139705175D01*
X118730175Y-139705175D02*
X118754117Y-139634418D01*
X118754117Y-139634418D02*
X118764338Y-139542854D01*
X118764338Y-139542854D02*
X118764754Y-139421543D01*
X118764754Y-139421543D02*
X118763143Y-139365432D01*
X118763143Y-139365432D02*
X118758227Y-139247031D01*
X118758227Y-139247031D02*
X118750844Y-139164503D01*
X118750844Y-139164503D02*
X118738210Y-139111391D01*
X118738210Y-139111391D02*
X118717540Y-139081236D01*
X118717540Y-139081236D02*
X118686053Y-139067579D01*
X118686053Y-139067579D02*
X118640962Y-139063963D01*
X118640962Y-139063963D02*
X118633166Y-139063889D01*
X118633166Y-139063889D02*
X118589615Y-139053230D01*
X118589615Y-139053230D02*
X118579134Y-139028358D01*
X118579134Y-139028358D02*
X118599838Y-138998941D01*
X118599838Y-138998941D02*
X118649845Y-138974651D01*
X118649845Y-138974651D02*
X118650593Y-138974436D01*
X118650593Y-138974436D02*
X118713744Y-138965004D01*
X118713744Y-138965004D02*
X118796020Y-138964028D01*
X118796020Y-138964028D02*
X118885041Y-138970216D01*
X118885041Y-138970216D02*
X118885041Y-138970216D01*
G36*
X118885041Y-138970216D02*
G01*
X118968429Y-138982277D01*
X119033806Y-138998917D01*
X119068147Y-139018019D01*
X119096384Y-139064775D01*
X119121032Y-139125652D01*
X119137071Y-139184959D01*
X119139479Y-139227002D01*
X119137072Y-139233471D01*
X119138273Y-139264090D01*
X119158051Y-139313122D01*
X119166423Y-139328235D01*
X119199590Y-139398523D01*
X119222547Y-139471684D01*
X119223672Y-139477286D01*
X119236418Y-139521936D01*
X119250296Y-139538036D01*
X119253556Y-139536104D01*
X119266322Y-139509769D01*
X119288534Y-139452386D01*
X119316730Y-139373223D01*
X119339112Y-139306982D01*
X119370510Y-139212269D01*
X119398929Y-139127000D01*
X119420499Y-139062765D01*
X119429053Y-139037668D01*
X119449014Y-138980021D01*
X119684518Y-138984751D01*
X119789599Y-138987766D01*
X119859379Y-138992536D01*
X119900889Y-139000187D01*
X119921156Y-139011848D01*
X119926579Y-139023550D01*
X119912988Y-139057177D01*
X119870186Y-139083692D01*
X119817853Y-139108432D01*
X119780377Y-139137245D01*
X119755011Y-139177421D01*
X119739008Y-139236251D01*
X119729621Y-139321024D01*
X119724104Y-139439032D01*
X119723016Y-139474262D01*
X119714820Y-139754752D01*
X119805489Y-139832362D01*
X119852694Y-139876247D01*
X119880771Y-139909277D01*
X119884459Y-139921671D01*
X119860069Y-139926730D01*
X119801625Y-139932283D01*
X119717392Y-139937715D01*
X119615634Y-139942413D01*
X119595051Y-139943170D01*
X119469651Y-139946188D01*
X119383540Y-139944459D01*
X119333864Y-139937260D01*
X119317770Y-139923870D01*
X119332405Y-139903568D01*
X119360878Y-139883953D01*
X119407742Y-139847329D01*
X119442173Y-139798649D01*
X119466443Y-139730877D01*
X119482827Y-139636976D01*
X119493599Y-139509909D01*
X119496003Y-139465732D01*
X119509146Y-139201148D01*
X119375412Y-139571565D01*
X119326933Y-139704185D01*
X119289456Y-139801892D01*
X119260487Y-139869894D01*
X119237531Y-139913403D01*
X119218096Y-139937628D01*
X119199686Y-139947780D01*
X119194878Y-139948741D01*
X119170771Y-139949144D01*
X119151104Y-139938477D01*
X119133039Y-139910746D01*
X119113739Y-139859954D01*
X119090367Y-139780104D01*
X119060088Y-139665202D01*
X119059318Y-139662216D01*
X119036765Y-139578950D01*
X119016711Y-139512427D01*
X119002224Y-139472508D01*
X118998199Y-139465732D01*
X118965992Y-139419866D01*
X118943273Y-139350652D01*
X118936343Y-139288456D01*
X118930229Y-139234793D01*
X118915273Y-139201581D01*
X118912927Y-139199758D01*
X118902846Y-139207168D01*
X118896901Y-139246659D01*
X118894887Y-139321468D01*
X118896601Y-139434835D01*
X118897052Y-139451346D01*
X118904593Y-139717405D01*
X118973385Y-139788368D01*
X119025068Y-139847269D01*
X119044628Y-139887902D01*
X119029707Y-139913379D01*
X118977946Y-139926808D01*
X118886986Y-139931299D01*
X118864905Y-139931398D01*
X118773204Y-139932973D01*
X118689902Y-139937147D01*
X118630274Y-139943092D01*
X118621815Y-139944562D01*
X118570945Y-139948190D01*
X118545723Y-139929667D01*
X118542471Y-139922483D01*
X118534731Y-139890130D01*
X118536853Y-139882004D01*
X118625459Y-139820028D01*
X118688594Y-139764065D01*
X118730175Y-139705175D01*
X118754117Y-139634418D01*
X118764338Y-139542854D01*
X118764754Y-139421543D01*
X118763143Y-139365432D01*
X118758227Y-139247031D01*
X118750844Y-139164503D01*
X118738210Y-139111391D01*
X118717540Y-139081236D01*
X118686053Y-139067579D01*
X118640962Y-139063963D01*
X118633166Y-139063889D01*
X118589615Y-139053230D01*
X118579134Y-139028358D01*
X118599838Y-138998941D01*
X118649845Y-138974651D01*
X118650593Y-138974436D01*
X118713744Y-138965004D01*
X118796020Y-138964028D01*
X118885041Y-138970216D01*
G37*
X118885041Y-138970216D02*
X118968429Y-138982277D01*
X119033806Y-138998917D01*
X119068147Y-139018019D01*
X119096384Y-139064775D01*
X119121032Y-139125652D01*
X119137071Y-139184959D01*
X119139479Y-139227002D01*
X119137072Y-139233471D01*
X119138273Y-139264090D01*
X119158051Y-139313122D01*
X119166423Y-139328235D01*
X119199590Y-139398523D01*
X119222547Y-139471684D01*
X119223672Y-139477286D01*
X119236418Y-139521936D01*
X119250296Y-139538036D01*
X119253556Y-139536104D01*
X119266322Y-139509769D01*
X119288534Y-139452386D01*
X119316730Y-139373223D01*
X119339112Y-139306982D01*
X119370510Y-139212269D01*
X119398929Y-139127000D01*
X119420499Y-139062765D01*
X119429053Y-139037668D01*
X119449014Y-138980021D01*
X119684518Y-138984751D01*
X119789599Y-138987766D01*
X119859379Y-138992536D01*
X119900889Y-139000187D01*
X119921156Y-139011848D01*
X119926579Y-139023550D01*
X119912988Y-139057177D01*
X119870186Y-139083692D01*
X119817853Y-139108432D01*
X119780377Y-139137245D01*
X119755011Y-139177421D01*
X119739008Y-139236251D01*
X119729621Y-139321024D01*
X119724104Y-139439032D01*
X119723016Y-139474262D01*
X119714820Y-139754752D01*
X119805489Y-139832362D01*
X119852694Y-139876247D01*
X119880771Y-139909277D01*
X119884459Y-139921671D01*
X119860069Y-139926730D01*
X119801625Y-139932283D01*
X119717392Y-139937715D01*
X119615634Y-139942413D01*
X119595051Y-139943170D01*
X119469651Y-139946188D01*
X119383540Y-139944459D01*
X119333864Y-139937260D01*
X119317770Y-139923870D01*
X119332405Y-139903568D01*
X119360878Y-139883953D01*
X119407742Y-139847329D01*
X119442173Y-139798649D01*
X119466443Y-139730877D01*
X119482827Y-139636976D01*
X119493599Y-139509909D01*
X119496003Y-139465732D01*
X119509146Y-139201148D01*
X119375412Y-139571565D01*
X119326933Y-139704185D01*
X119289456Y-139801892D01*
X119260487Y-139869894D01*
X119237531Y-139913403D01*
X119218096Y-139937628D01*
X119199686Y-139947780D01*
X119194878Y-139948741D01*
X119170771Y-139949144D01*
X119151104Y-139938477D01*
X119133039Y-139910746D01*
X119113739Y-139859954D01*
X119090367Y-139780104D01*
X119060088Y-139665202D01*
X119059318Y-139662216D01*
X119036765Y-139578950D01*
X119016711Y-139512427D01*
X119002224Y-139472508D01*
X118998199Y-139465732D01*
X118965992Y-139419866D01*
X118943273Y-139350652D01*
X118936343Y-139288456D01*
X118930229Y-139234793D01*
X118915273Y-139201581D01*
X118912927Y-139199758D01*
X118902846Y-139207168D01*
X118896901Y-139246659D01*
X118894887Y-139321468D01*
X118896601Y-139434835D01*
X118897052Y-139451346D01*
X118904593Y-139717405D01*
X118973385Y-139788368D01*
X119025068Y-139847269D01*
X119044628Y-139887902D01*
X119029707Y-139913379D01*
X118977946Y-139926808D01*
X118886986Y-139931299D01*
X118864905Y-139931398D01*
X118773204Y-139932973D01*
X118689902Y-139937147D01*
X118630274Y-139943092D01*
X118621815Y-139944562D01*
X118570945Y-139948190D01*
X118545723Y-139929667D01*
X118542471Y-139922483D01*
X118534731Y-139890130D01*
X118536853Y-139882004D01*
X118625459Y-139820028D01*
X118688594Y-139764065D01*
X118730175Y-139705175D01*
X118754117Y-139634418D01*
X118764338Y-139542854D01*
X118764754Y-139421543D01*
X118763143Y-139365432D01*
X118758227Y-139247031D01*
X118750844Y-139164503D01*
X118738210Y-139111391D01*
X118717540Y-139081236D01*
X118686053Y-139067579D01*
X118640962Y-139063963D01*
X118633166Y-139063889D01*
X118589615Y-139053230D01*
X118579134Y-139028358D01*
X118599838Y-138998941D01*
X118649845Y-138974651D01*
X118650593Y-138974436D01*
X118713744Y-138965004D01*
X118796020Y-138964028D01*
X118885041Y-138970216D01*
X129605327Y-138966112D02*
X129758254Y-138981618D01*
X129758254Y-138981618D02*
X129886467Y-139008423D01*
X129886467Y-139008423D02*
X129985173Y-139045670D01*
X129985173Y-139045670D02*
X130049577Y-139092502D01*
X130049577Y-139092502D02*
X130067516Y-139119461D01*
X130067516Y-139119461D02*
X130090308Y-139213028D01*
X130090308Y-139213028D02*
X130073944Y-139301005D01*
X130073944Y-139301005D02*
X130021539Y-139380111D01*
X130021539Y-139380111D02*
X129936207Y-139447070D01*
X129936207Y-139447070D02*
X129821062Y-139498603D01*
X129821062Y-139498603D02*
X129679220Y-139531431D01*
X129679220Y-139531431D02*
X129675671Y-139531939D01*
X129675671Y-139531939D02*
X129591888Y-139543749D01*
X129591888Y-139543749D02*
X129541738Y-139556034D01*
X129541738Y-139556034D02*
X129517402Y-139577867D01*
X129517402Y-139577867D02*
X129511063Y-139618318D01*
X129511063Y-139618318D02*
X129514901Y-139686460D01*
X129514901Y-139686460D02*
X129517030Y-139716006D01*
X129517030Y-139716006D02*
X129536385Y-139749769D01*
X129536385Y-139749769D02*
X129581859Y-139786512D01*
X129581859Y-139786512D02*
X129599051Y-139796414D01*
X129599051Y-139796414D02*
X129656805Y-139837249D01*
X129656805Y-139837249D02*
X129678393Y-139877971D01*
X129678393Y-139877971D02*
X129678426Y-139879514D01*
X129678426Y-139879514D02*
X129676020Y-139895752D01*
X129676020Y-139895752D02*
X129664512Y-139907096D01*
X129664512Y-139907096D02*
X129637462Y-139914443D01*
X129637462Y-139914443D02*
X129588435Y-139918691D01*
X129588435Y-139918691D02*
X129510992Y-139920735D01*
X129510992Y-139920735D02*
X129398696Y-139921472D01*
X129398696Y-139921472D02*
X129376801Y-139921530D01*
X129376801Y-139921530D02*
X129258000Y-139921422D01*
X129258000Y-139921422D02*
X129175135Y-139919905D01*
X129175135Y-139919905D02*
X129121813Y-139916179D01*
X129121813Y-139916179D02*
X129091641Y-139909442D01*
X129091641Y-139909442D02*
X129078227Y-139898894D01*
X129078227Y-139898894D02*
X129075176Y-139883736D01*
X129075176Y-139883736D02*
X129096061Y-139847183D01*
X129096061Y-139847183D02*
X129157675Y-139809996D01*
X129157675Y-139809996D02*
X129167965Y-139805453D01*
X129167965Y-139805453D02*
X129260753Y-139765679D01*
X129260753Y-139765679D02*
X129274665Y-139493997D01*
X129274665Y-139493997D02*
X129278600Y-139385030D01*
X129278600Y-139385030D02*
X129278828Y-139346358D01*
X129278828Y-139346358D02*
X129507792Y-139346358D01*
X129507792Y-139346358D02*
X129511105Y-139403561D01*
X129511105Y-139403561D02*
X129521365Y-139432862D01*
X129521365Y-139432862D02*
X129540948Y-139441448D01*
X129540948Y-139441448D02*
X129569610Y-139437142D01*
X129569610Y-139437142D02*
X129621035Y-139426045D01*
X129621035Y-139426045D02*
X129686890Y-139413256D01*
X129686890Y-139413256D02*
X129695048Y-139411764D01*
X129695048Y-139411764D02*
X129762235Y-139388207D01*
X129762235Y-139388207D02*
X129803781Y-139341776D01*
X129803781Y-139341776D02*
X129806173Y-139337287D01*
X129806173Y-139337287D02*
X129831824Y-139274811D01*
X129831824Y-139274811D02*
X129829792Y-139225973D01*
X129829792Y-139225973D02*
X129797390Y-139174746D01*
X129797390Y-139174746D02*
X129774647Y-139149271D01*
X129774647Y-139149271D02*
X129730092Y-139107603D01*
X129730092Y-139107603D02*
X129687715Y-139089652D01*
X129687715Y-139089652D02*
X129627467Y-139087942D01*
X129627467Y-139087942D02*
X129612525Y-139088824D01*
X129612525Y-139088824D02*
X129512933Y-139095315D01*
X129512933Y-139095315D02*
X129509047Y-139254065D01*
X129509047Y-139254065D02*
X129507792Y-139346358D01*
X129507792Y-139346358D02*
X129278828Y-139346358D01*
X129278828Y-139346358D02*
X129279184Y-139286083D01*
X129279184Y-139286083D02*
X129276550Y-139207690D01*
X129276550Y-139207690D02*
X129270831Y-139160384D01*
X129270831Y-139160384D02*
X129270408Y-139158815D01*
X129270408Y-139158815D02*
X129256146Y-139121349D01*
X129256146Y-139121349D02*
X129232748Y-139101430D01*
X129232748Y-139101430D02*
X129187662Y-139092260D01*
X129187662Y-139092260D02*
X129141220Y-139088871D01*
X129141220Y-139088871D02*
X129076638Y-139083374D01*
X129076638Y-139083374D02*
X129044637Y-139073354D01*
X129044637Y-139073354D02*
X129035467Y-139053868D01*
X129035467Y-139053868D02*
X129036813Y-139035955D01*
X129036813Y-139035955D02*
X129043254Y-139014031D01*
X129043254Y-139014031D02*
X129060509Y-138999078D01*
X129060509Y-138999078D02*
X129096675Y-138988618D01*
X129096675Y-138988618D02*
X129159847Y-138980176D01*
X129159847Y-138980176D02*
X129244510Y-138972423D01*
X129244510Y-138972423D02*
X129432480Y-138962761D01*
X129432480Y-138962761D02*
X129605327Y-138966112D01*
X129605327Y-138966112D02*
X129605327Y-138966112D01*
G36*
X129276550Y-139207690D02*
G01*
X129270831Y-139160384D01*
X129270408Y-139158815D01*
X129256146Y-139121349D01*
X129232748Y-139101430D01*
X129187662Y-139092260D01*
X129141220Y-139088871D01*
X129076638Y-139083374D01*
X129044637Y-139073354D01*
X129035467Y-139053868D01*
X129036813Y-139035955D01*
X129043254Y-139014031D01*
X129060509Y-138999078D01*
X129096675Y-138988618D01*
X129159847Y-138980176D01*
X129244510Y-138972423D01*
X129432480Y-138962761D01*
X129605327Y-138966112D01*
X129758254Y-138981618D01*
X129886467Y-139008423D01*
X129985173Y-139045670D01*
X130049577Y-139092502D01*
X130067516Y-139119461D01*
X130090308Y-139213028D01*
X130073944Y-139301005D01*
X130021539Y-139380111D01*
X129936207Y-139447070D01*
X129821062Y-139498603D01*
X129679220Y-139531431D01*
X129675671Y-139531939D01*
X129591888Y-139543749D01*
X129541738Y-139556034D01*
X129517402Y-139577867D01*
X129511063Y-139618318D01*
X129514901Y-139686460D01*
X129517030Y-139716006D01*
X129536385Y-139749769D01*
X129581859Y-139786512D01*
X129599051Y-139796414D01*
X129656805Y-139837249D01*
X129678393Y-139877971D01*
X129678426Y-139879514D01*
X129676020Y-139895752D01*
X129664512Y-139907096D01*
X129637462Y-139914443D01*
X129588435Y-139918691D01*
X129510992Y-139920735D01*
X129398696Y-139921472D01*
X129376801Y-139921530D01*
X129258000Y-139921422D01*
X129175135Y-139919905D01*
X129121813Y-139916179D01*
X129091641Y-139909442D01*
X129078227Y-139898894D01*
X129075176Y-139883736D01*
X129096061Y-139847183D01*
X129157675Y-139809996D01*
X129167965Y-139805453D01*
X129260753Y-139765679D01*
X129274665Y-139493997D01*
X129278600Y-139385030D01*
X129278828Y-139346358D01*
X129507792Y-139346358D01*
X129511105Y-139403561D01*
X129521365Y-139432862D01*
X129540948Y-139441448D01*
X129569610Y-139437142D01*
X129621035Y-139426045D01*
X129686890Y-139413256D01*
X129695048Y-139411764D01*
X129762235Y-139388207D01*
X129803781Y-139341776D01*
X129806173Y-139337287D01*
X129831824Y-139274811D01*
X129829792Y-139225973D01*
X129797390Y-139174746D01*
X129774647Y-139149271D01*
X129730092Y-139107603D01*
X129687715Y-139089652D01*
X129627467Y-139087942D01*
X129612525Y-139088824D01*
X129512933Y-139095315D01*
X129509047Y-139254065D01*
X129507792Y-139346358D01*
X129278828Y-139346358D01*
X129279184Y-139286083D01*
X129276550Y-139207690D01*
G37*
X129276550Y-139207690D02*
X129270831Y-139160384D01*
X129270408Y-139158815D01*
X129256146Y-139121349D01*
X129232748Y-139101430D01*
X129187662Y-139092260D01*
X129141220Y-139088871D01*
X129076638Y-139083374D01*
X129044637Y-139073354D01*
X129035467Y-139053868D01*
X129036813Y-139035955D01*
X129043254Y-139014031D01*
X129060509Y-138999078D01*
X129096675Y-138988618D01*
X129159847Y-138980176D01*
X129244510Y-138972423D01*
X129432480Y-138962761D01*
X129605327Y-138966112D01*
X129758254Y-138981618D01*
X129886467Y-139008423D01*
X129985173Y-139045670D01*
X130049577Y-139092502D01*
X130067516Y-139119461D01*
X130090308Y-139213028D01*
X130073944Y-139301005D01*
X130021539Y-139380111D01*
X129936207Y-139447070D01*
X129821062Y-139498603D01*
X129679220Y-139531431D01*
X129675671Y-139531939D01*
X129591888Y-139543749D01*
X129541738Y-139556034D01*
X129517402Y-139577867D01*
X129511063Y-139618318D01*
X129514901Y-139686460D01*
X129517030Y-139716006D01*
X129536385Y-139749769D01*
X129581859Y-139786512D01*
X129599051Y-139796414D01*
X129656805Y-139837249D01*
X129678393Y-139877971D01*
X129678426Y-139879514D01*
X129676020Y-139895752D01*
X129664512Y-139907096D01*
X129637462Y-139914443D01*
X129588435Y-139918691D01*
X129510992Y-139920735D01*
X129398696Y-139921472D01*
X129376801Y-139921530D01*
X129258000Y-139921422D01*
X129175135Y-139919905D01*
X129121813Y-139916179D01*
X129091641Y-139909442D01*
X129078227Y-139898894D01*
X129075176Y-139883736D01*
X129096061Y-139847183D01*
X129157675Y-139809996D01*
X129167965Y-139805453D01*
X129260753Y-139765679D01*
X129274665Y-139493997D01*
X129278600Y-139385030D01*
X129278828Y-139346358D01*
X129507792Y-139346358D01*
X129511105Y-139403561D01*
X129521365Y-139432862D01*
X129540948Y-139441448D01*
X129569610Y-139437142D01*
X129621035Y-139426045D01*
X129686890Y-139413256D01*
X129695048Y-139411764D01*
X129762235Y-139388207D01*
X129803781Y-139341776D01*
X129806173Y-139337287D01*
X129831824Y-139274811D01*
X129829792Y-139225973D01*
X129797390Y-139174746D01*
X129774647Y-139149271D01*
X129730092Y-139107603D01*
X129687715Y-139089652D01*
X129627467Y-139087942D01*
X129612525Y-139088824D01*
X129512933Y-139095315D01*
X129509047Y-139254065D01*
X129507792Y-139346358D01*
X129278828Y-139346358D01*
X129279184Y-139286083D01*
X129276550Y-139207690D01*
X122346504Y-138948402D02*
X122389233Y-138962860D01*
X122389233Y-138962860D02*
X122420569Y-138993102D01*
X122420569Y-138993102D02*
X122450756Y-139043016D01*
X122450756Y-139043016D02*
X122456660Y-139054016D01*
X122456660Y-139054016D02*
X122483168Y-139090553D01*
X122483168Y-139090553D02*
X122533962Y-139149516D01*
X122533962Y-139149516D02*
X122602778Y-139224024D01*
X122602778Y-139224024D02*
X122683355Y-139307196D01*
X122683355Y-139307196D02*
X122723988Y-139347797D01*
X122723988Y-139347797D02*
X122958010Y-139579113D01*
X122958010Y-139579113D02*
X122958010Y-139174653D01*
X122958010Y-139174653D02*
X122863046Y-139092651D01*
X122863046Y-139092651D02*
X122812228Y-139046331D01*
X122812228Y-139046331D02*
X122777654Y-139010156D01*
X122777654Y-139010156D02*
X122767796Y-138994773D01*
X122767796Y-138994773D02*
X122787512Y-138988760D01*
X122787512Y-138988760D02*
X122841555Y-138983792D01*
X122841555Y-138983792D02*
X122921922Y-138980349D01*
X122921922Y-138980349D02*
X123020611Y-138978913D01*
X123020611Y-138978913D02*
X123032093Y-138978898D01*
X123032093Y-138978898D02*
X123144172Y-138979648D01*
X123144172Y-138979648D02*
X123220304Y-138982405D01*
X123220304Y-138982405D02*
X123266853Y-138987935D01*
X123266853Y-138987935D02*
X123290188Y-138997001D01*
X123290188Y-138997001D02*
X123296675Y-139010368D01*
X123296675Y-139010368D02*
X123296676Y-139010648D01*
X123296676Y-139010648D02*
X123279657Y-139038480D01*
X123279657Y-139038480D02*
X123263964Y-139042398D01*
X123263964Y-139042398D02*
X123227760Y-139056457D01*
X123227760Y-139056457D02*
X123183008Y-139090764D01*
X123183008Y-139090764D02*
X123178318Y-139095332D01*
X123178318Y-139095332D02*
X123158930Y-139115880D01*
X123158930Y-139115880D02*
X123145035Y-139137277D01*
X123145035Y-139137277D02*
X123135800Y-139166396D01*
X123135800Y-139166396D02*
X123130387Y-139210113D01*
X123130387Y-139210113D02*
X123127961Y-139275299D01*
X123127961Y-139275299D02*
X123127687Y-139368830D01*
X123127687Y-139368830D02*
X123128729Y-139497577D01*
X123128729Y-139497577D02*
X123128778Y-139502790D01*
X123128778Y-139502790D02*
X123129025Y-139625408D01*
X123129025Y-139625408D02*
X123127529Y-139736955D01*
X123127529Y-139736955D02*
X123124535Y-139828912D01*
X123124535Y-139828912D02*
X123120291Y-139892757D01*
X123120291Y-139892757D02*
X123116880Y-139915523D01*
X123116880Y-139915523D02*
X123091562Y-139959877D01*
X123091562Y-139959877D02*
X123044910Y-139972624D01*
X123044910Y-139972624D02*
X122973304Y-139954359D01*
X122973304Y-139954359D02*
X122947426Y-139943380D01*
X122947426Y-139943380D02*
X122894261Y-139908168D01*
X122894261Y-139908168D02*
X122838857Y-139855198D01*
X122838857Y-139855198D02*
X122823987Y-139837337D01*
X122823987Y-139837337D02*
X122788213Y-139785799D01*
X122788213Y-139785799D02*
X122778656Y-139752772D01*
X122778656Y-139752772D02*
X122789940Y-139728792D01*
X122789940Y-139728792D02*
X122804600Y-139706534D01*
X122804600Y-139706534D02*
X122787188Y-139708620D01*
X122787188Y-139708620D02*
X122783267Y-139710091D01*
X122783267Y-139710091D02*
X122749780Y-139701151D01*
X122749780Y-139701151D02*
X122691525Y-139658400D01*
X122691525Y-139658400D02*
X122608855Y-139582101D01*
X122608855Y-139582101D02*
X122600357Y-139573724D01*
X122600357Y-139573724D02*
X122537020Y-139510094D01*
X122537020Y-139510094D02*
X122486856Y-139457951D01*
X122486856Y-139457951D02*
X122456304Y-139424088D01*
X122456304Y-139424088D02*
X122450010Y-139415053D01*
X122450010Y-139415053D02*
X122436757Y-139395337D01*
X122436757Y-139395337D02*
X122402968Y-139355968D01*
X122402968Y-139355968D02*
X122378343Y-139329258D01*
X122378343Y-139329258D02*
X122340167Y-139291789D01*
X122340167Y-139291789D02*
X122313432Y-139276548D01*
X122313432Y-139276548D02*
X122296125Y-139287521D01*
X122296125Y-139287521D02*
X122286238Y-139328693D01*
X122286238Y-139328693D02*
X122281759Y-139404049D01*
X122281759Y-139404049D02*
X122280677Y-139517577D01*
X122280677Y-139517577D02*
X122280676Y-139522870D01*
X122280676Y-139522870D02*
X122280676Y-139724712D01*
X122280676Y-139724712D02*
X122365343Y-139809379D01*
X122365343Y-139809379D02*
X122411655Y-139858762D01*
X122411655Y-139858762D02*
X122442407Y-139897441D01*
X122442407Y-139897441D02*
X122450010Y-139912779D01*
X122450010Y-139912779D02*
X122430214Y-139919763D01*
X122430214Y-139919763D02*
X122376279Y-139925026D01*
X122376279Y-139925026D02*
X122296378Y-139928066D01*
X122296378Y-139928066D02*
X122198688Y-139928383D01*
X122198688Y-139928383D02*
X122196010Y-139928350D01*
X122196010Y-139928350D02*
X122075387Y-139925168D01*
X122075387Y-139925168D02*
X121994562Y-139918039D01*
X121994562Y-139918039D02*
X121951061Y-139905314D01*
X121951061Y-139905314D02*
X121942409Y-139885342D01*
X121942409Y-139885342D02*
X121966133Y-139856474D01*
X121966133Y-139856474D02*
X122019760Y-139817059D01*
X122019760Y-139817059D02*
X122024476Y-139813925D01*
X122024476Y-139813925D02*
X122068786Y-139778067D01*
X122068786Y-139778067D02*
X122099861Y-139733984D01*
X122099861Y-139733984D02*
X122119099Y-139674878D01*
X122119099Y-139674878D02*
X122127900Y-139593950D01*
X122127900Y-139593950D02*
X122127663Y-139484403D01*
X122127663Y-139484403D02*
X122120365Y-139348001D01*
X122120365Y-139348001D02*
X122113118Y-139248230D01*
X122113118Y-139248230D02*
X122105575Y-139181420D01*
X122105575Y-139181420D02*
X122095049Y-139138264D01*
X122095049Y-139138264D02*
X122078856Y-139109456D01*
X122078856Y-139109456D02*
X122054309Y-139085690D01*
X122054309Y-139085690D02*
X122041758Y-139075675D01*
X122041758Y-139075675D02*
X121997305Y-139033704D01*
X121997305Y-139033704D02*
X121987098Y-139002011D01*
X121987098Y-139002011D02*
X122013107Y-138978895D01*
X122013107Y-138978895D02*
X122077305Y-138962656D01*
X122077305Y-138962656D02*
X122181661Y-138951592D01*
X122181661Y-138951592D02*
X122185878Y-138951291D01*
X122185878Y-138951291D02*
X122282134Y-138945841D01*
X122282134Y-138945841D02*
X122346504Y-138948402D01*
X122346504Y-138948402D02*
X122346504Y-138948402D01*
G36*
X122346504Y-138948402D02*
G01*
X122389233Y-138962860D01*
X122420569Y-138993102D01*
X122450756Y-139043016D01*
X122456660Y-139054016D01*
X122483168Y-139090553D01*
X122533962Y-139149516D01*
X122602778Y-139224024D01*
X122683355Y-139307196D01*
X122723988Y-139347797D01*
X122958010Y-139579113D01*
X122958010Y-139174653D01*
X122863046Y-139092651D01*
X122812228Y-139046331D01*
X122777654Y-139010156D01*
X122767796Y-138994773D01*
X122787512Y-138988760D01*
X122841555Y-138983792D01*
X122921922Y-138980349D01*
X123020611Y-138978913D01*
X123032093Y-138978898D01*
X123144172Y-138979648D01*
X123220304Y-138982405D01*
X123266853Y-138987935D01*
X123290188Y-138997001D01*
X123296675Y-139010368D01*
X123296676Y-139010648D01*
X123279657Y-139038480D01*
X123263964Y-139042398D01*
X123227760Y-139056457D01*
X123183008Y-139090764D01*
X123178318Y-139095332D01*
X123158930Y-139115880D01*
X123145035Y-139137277D01*
X123135800Y-139166396D01*
X123130387Y-139210113D01*
X123127961Y-139275299D01*
X123127687Y-139368830D01*
X123128729Y-139497577D01*
X123128778Y-139502790D01*
X123129025Y-139625408D01*
X123127529Y-139736955D01*
X123124535Y-139828912D01*
X123120291Y-139892757D01*
X123116880Y-139915523D01*
X123091562Y-139959877D01*
X123044910Y-139972624D01*
X122973304Y-139954359D01*
X122947426Y-139943380D01*
X122894261Y-139908168D01*
X122838857Y-139855198D01*
X122823987Y-139837337D01*
X122788213Y-139785799D01*
X122778656Y-139752772D01*
X122789940Y-139728792D01*
X122804600Y-139706534D01*
X122787188Y-139708620D01*
X122783267Y-139710091D01*
X122749780Y-139701151D01*
X122691525Y-139658400D01*
X122608855Y-139582101D01*
X122600357Y-139573724D01*
X122537020Y-139510094D01*
X122486856Y-139457951D01*
X122456304Y-139424088D01*
X122450010Y-139415053D01*
X122436757Y-139395337D01*
X122402968Y-139355968D01*
X122378343Y-139329258D01*
X122340167Y-139291789D01*
X122313432Y-139276548D01*
X122296125Y-139287521D01*
X122286238Y-139328693D01*
X122281759Y-139404049D01*
X122280677Y-139517577D01*
X122280676Y-139522870D01*
X122280676Y-139724712D01*
X122365343Y-139809379D01*
X122411655Y-139858762D01*
X122442407Y-139897441D01*
X122450010Y-139912779D01*
X122430214Y-139919763D01*
X122376279Y-139925026D01*
X122296378Y-139928066D01*
X122198688Y-139928383D01*
X122196010Y-139928350D01*
X122075387Y-139925168D01*
X121994562Y-139918039D01*
X121951061Y-139905314D01*
X121942409Y-139885342D01*
X121966133Y-139856474D01*
X122019760Y-139817059D01*
X122024476Y-139813925D01*
X122068786Y-139778067D01*
X122099861Y-139733984D01*
X122119099Y-139674878D01*
X122127900Y-139593950D01*
X122127663Y-139484403D01*
X122120365Y-139348001D01*
X122113118Y-139248230D01*
X122105575Y-139181420D01*
X122095049Y-139138264D01*
X122078856Y-139109456D01*
X122054309Y-139085690D01*
X122041758Y-139075675D01*
X121997305Y-139033704D01*
X121987098Y-139002011D01*
X122013107Y-138978895D01*
X122077305Y-138962656D01*
X122181661Y-138951592D01*
X122185878Y-138951291D01*
X122282134Y-138945841D01*
X122346504Y-138948402D01*
G37*
X122346504Y-138948402D02*
X122389233Y-138962860D01*
X122420569Y-138993102D01*
X122450756Y-139043016D01*
X122456660Y-139054016D01*
X122483168Y-139090553D01*
X122533962Y-139149516D01*
X122602778Y-139224024D01*
X122683355Y-139307196D01*
X122723988Y-139347797D01*
X122958010Y-139579113D01*
X122958010Y-139174653D01*
X122863046Y-139092651D01*
X122812228Y-139046331D01*
X122777654Y-139010156D01*
X122767796Y-138994773D01*
X122787512Y-138988760D01*
X122841555Y-138983792D01*
X122921922Y-138980349D01*
X123020611Y-138978913D01*
X123032093Y-138978898D01*
X123144172Y-138979648D01*
X123220304Y-138982405D01*
X123266853Y-138987935D01*
X123290188Y-138997001D01*
X123296675Y-139010368D01*
X123296676Y-139010648D01*
X123279657Y-139038480D01*
X123263964Y-139042398D01*
X123227760Y-139056457D01*
X123183008Y-139090764D01*
X123178318Y-139095332D01*
X123158930Y-139115880D01*
X123145035Y-139137277D01*
X123135800Y-139166396D01*
X123130387Y-139210113D01*
X123127961Y-139275299D01*
X123127687Y-139368830D01*
X123128729Y-139497577D01*
X123128778Y-139502790D01*
X123129025Y-139625408D01*
X123127529Y-139736955D01*
X123124535Y-139828912D01*
X123120291Y-139892757D01*
X123116880Y-139915523D01*
X123091562Y-139959877D01*
X123044910Y-139972624D01*
X122973304Y-139954359D01*
X122947426Y-139943380D01*
X122894261Y-139908168D01*
X122838857Y-139855198D01*
X122823987Y-139837337D01*
X122788213Y-139785799D01*
X122778656Y-139752772D01*
X122789940Y-139728792D01*
X122804600Y-139706534D01*
X122787188Y-139708620D01*
X122783267Y-139710091D01*
X122749780Y-139701151D01*
X122691525Y-139658400D01*
X122608855Y-139582101D01*
X122600357Y-139573724D01*
X122537020Y-139510094D01*
X122486856Y-139457951D01*
X122456304Y-139424088D01*
X122450010Y-139415053D01*
X122436757Y-139395337D01*
X122402968Y-139355968D01*
X122378343Y-139329258D01*
X122340167Y-139291789D01*
X122313432Y-139276548D01*
X122296125Y-139287521D01*
X122286238Y-139328693D01*
X122281759Y-139404049D01*
X122280677Y-139517577D01*
X122280676Y-139522870D01*
X122280676Y-139724712D01*
X122365343Y-139809379D01*
X122411655Y-139858762D01*
X122442407Y-139897441D01*
X122450010Y-139912779D01*
X122430214Y-139919763D01*
X122376279Y-139925026D01*
X122296378Y-139928066D01*
X122198688Y-139928383D01*
X122196010Y-139928350D01*
X122075387Y-139925168D01*
X121994562Y-139918039D01*
X121951061Y-139905314D01*
X121942409Y-139885342D01*
X121966133Y-139856474D01*
X122019760Y-139817059D01*
X122024476Y-139813925D01*
X122068786Y-139778067D01*
X122099861Y-139733984D01*
X122119099Y-139674878D01*
X122127900Y-139593950D01*
X122127663Y-139484403D01*
X122120365Y-139348001D01*
X122113118Y-139248230D01*
X122105575Y-139181420D01*
X122095049Y-139138264D01*
X122078856Y-139109456D01*
X122054309Y-139085690D01*
X122041758Y-139075675D01*
X121997305Y-139033704D01*
X121987098Y-139002011D01*
X122013107Y-138978895D01*
X122077305Y-138962656D01*
X122181661Y-138951592D01*
X122185878Y-138951291D01*
X122282134Y-138945841D01*
X122346504Y-138948402D01*
X126185774Y-138673690D02*
X126230690Y-138676993D01*
X126230690Y-138676993D02*
X126231828Y-138677207D01*
X126231828Y-138677207D02*
X126257086Y-138686998D01*
X126257086Y-138686998D02*
X126272035Y-138710553D01*
X126272035Y-138710553D02*
X126280298Y-138757916D01*
X126280298Y-138757916D02*
X126284744Y-138823879D01*
X126284744Y-138823879D02*
X126285551Y-138912365D01*
X126285551Y-138912365D02*
X126273895Y-138966221D01*
X126273895Y-138966221D02*
X126245199Y-138992409D01*
X126245199Y-138992409D02*
X126194884Y-138997891D01*
X126194884Y-138997891D02*
X126171434Y-138996217D01*
X126171434Y-138996217D02*
X126118825Y-138983396D01*
X126118825Y-138983396D02*
X126096672Y-138953785D01*
X126096672Y-138953785D02*
X126094840Y-138944487D01*
X126094840Y-138944487D02*
X126066310Y-138880184D01*
X126066310Y-138880184D02*
X126009569Y-138832947D01*
X126009569Y-138832947D02*
X125938160Y-138812839D01*
X125938160Y-138812839D02*
X125918367Y-138813343D01*
X125918367Y-138813343D02*
X125874802Y-138820281D01*
X125874802Y-138820281D02*
X125852984Y-138838219D01*
X125852984Y-138838219D02*
X125843883Y-138879341D01*
X125843883Y-138879341D02*
X125840926Y-138917814D01*
X125840926Y-138917814D02*
X125839122Y-138974321D01*
X125839122Y-138974321D02*
X125848461Y-139010455D01*
X125848461Y-139010455D02*
X125877187Y-139040174D01*
X125877187Y-139040174D02*
X125933543Y-139077434D01*
X125933543Y-139077434D02*
X125936176Y-139079082D01*
X125936176Y-139079082D02*
X126010712Y-139117433D01*
X126010712Y-139117433D02*
X126105367Y-139154983D01*
X126105367Y-139154983D02*
X126192132Y-139181525D01*
X126192132Y-139181525D02*
X126285783Y-139209200D01*
X126285783Y-139209200D02*
X126343932Y-139237147D01*
X126343932Y-139237147D02*
X126372049Y-139266153D01*
X126372049Y-139266153D02*
X126396643Y-139308812D01*
X126396643Y-139308812D02*
X126434005Y-139372092D01*
X126434005Y-139372092D02*
X126466186Y-139425877D01*
X126466186Y-139425877D02*
X126503031Y-139496184D01*
X126503031Y-139496184D02*
X126528009Y-139561254D01*
X126528009Y-139561254D02*
X126534978Y-139598023D01*
X126534978Y-139598023D02*
X126542499Y-139640259D01*
X126542499Y-139640259D02*
X126558698Y-139656232D01*
X126558698Y-139656232D02*
X126572618Y-139675194D01*
X126572618Y-139675194D02*
X126568062Y-139731687D01*
X126568062Y-139731687D02*
X126567742Y-139733409D01*
X126567742Y-139733409D02*
X126545812Y-139808142D01*
X126545812Y-139808142D02*
X126513742Y-139869088D01*
X126513742Y-139869088D02*
X126478267Y-139905080D01*
X126478267Y-139905080D02*
X126461093Y-139910232D01*
X126461093Y-139910232D02*
X126431091Y-139926366D01*
X126431091Y-139926366D02*
X126400184Y-139962164D01*
X126400184Y-139962164D02*
X126343795Y-140021266D01*
X126343795Y-140021266D02*
X126253672Y-140076020D01*
X126253672Y-140076020D02*
X126127074Y-140127738D01*
X126127074Y-140127738D02*
X125961257Y-140177732D01*
X125961257Y-140177732D02*
X125935500Y-140184477D01*
X125935500Y-140184477D02*
X125819181Y-140214069D01*
X125819181Y-140214069D02*
X125737034Y-140233629D01*
X125737034Y-140233629D02*
X125682382Y-140244245D01*
X125682382Y-140244245D02*
X125648550Y-140247003D01*
X125648550Y-140247003D02*
X125628862Y-140242991D01*
X125628862Y-140242991D02*
X125619168Y-140236001D01*
X125619168Y-140236001D02*
X125593561Y-140226227D01*
X125593561Y-140226227D02*
X125537287Y-140211919D01*
X125537287Y-140211919D02*
X125461384Y-140195815D01*
X125461384Y-140195815D02*
X125442578Y-140192196D01*
X125442578Y-140192196D02*
X125297085Y-140156891D01*
X125297085Y-140156891D02*
X125180033Y-140108979D01*
X125180033Y-140108979D02*
X125078050Y-140042462D01*
X125078050Y-140042462D02*
X125042433Y-140012793D01*
X125042433Y-140012793D02*
X124964115Y-139928775D01*
X124964115Y-139928775D02*
X124917731Y-139836408D01*
X124917731Y-139836408D02*
X124898310Y-139752052D01*
X124898310Y-139752052D02*
X124900525Y-139635067D01*
X124900525Y-139635067D02*
X124939280Y-139520492D01*
X124939280Y-139520492D02*
X125009363Y-139417733D01*
X125009363Y-139417733D02*
X125105564Y-139336196D01*
X125105564Y-139336196D02*
X125139380Y-139316951D01*
X125139380Y-139316951D02*
X125211758Y-139291140D01*
X125211758Y-139291140D02*
X125295178Y-139278030D01*
X125295178Y-139278030D02*
X125379633Y-139276881D01*
X125379633Y-139276881D02*
X125455119Y-139286957D01*
X125455119Y-139286957D02*
X125511630Y-139307520D01*
X125511630Y-139307520D02*
X125539160Y-139337830D01*
X125539160Y-139337830D02*
X125540343Y-139346526D01*
X125540343Y-139346526D02*
X125526246Y-139378506D01*
X125526246Y-139378506D02*
X125481803Y-139389281D01*
X125481803Y-139389281D02*
X125403785Y-139379462D01*
X125403785Y-139379462D02*
X125386222Y-139375622D01*
X125386222Y-139375622D02*
X125300713Y-139366633D01*
X125300713Y-139366633D02*
X125245868Y-139385444D01*
X125245868Y-139385444D02*
X125222574Y-139431697D01*
X125222574Y-139431697D02*
X125221826Y-139441865D01*
X125221826Y-139441865D02*
X125212023Y-139482616D01*
X125212023Y-139482616D02*
X125189149Y-139539010D01*
X125189149Y-139539010D02*
X125183611Y-139550398D01*
X125183611Y-139550398D02*
X125160985Y-139603025D01*
X125160985Y-139603025D02*
X125159952Y-139638809D01*
X125159952Y-139638809D02*
X125176161Y-139671622D01*
X125176161Y-139671622D02*
X125196885Y-139725814D01*
X125196885Y-139725814D02*
X125205897Y-139791689D01*
X125205897Y-139791689D02*
X125205910Y-139793881D01*
X125205910Y-139793881D02*
X125213058Y-139850626D01*
X125213058Y-139850626D02*
X125242096Y-139885769D01*
X125242096Y-139885769D02*
X125269183Y-139901720D01*
X125269183Y-139901720D02*
X125330294Y-139939686D01*
X125330294Y-139939686D02*
X125390579Y-139986236D01*
X125390579Y-139986236D02*
X125392305Y-139987765D01*
X125392305Y-139987765D02*
X125469285Y-140030522D01*
X125469285Y-140030522D02*
X125583543Y-140055378D01*
X125583543Y-140055378D02*
X125733882Y-140062093D01*
X125733882Y-140062093D02*
X125758810Y-140061540D01*
X125758810Y-140061540D02*
X125865853Y-140039229D01*
X125865853Y-140039229D02*
X125969962Y-139983955D01*
X125969962Y-139983955D02*
X126058406Y-139903937D01*
X126058406Y-139903937D02*
X126103409Y-139839028D01*
X126103409Y-139839028D02*
X126141573Y-139779552D01*
X126141573Y-139779552D02*
X126179392Y-139737419D01*
X126179392Y-139737419D02*
X126199307Y-139725133D01*
X126199307Y-139725133D02*
X126230719Y-139708266D01*
X126230719Y-139708266D02*
X126234735Y-139676476D01*
X126234735Y-139676476D02*
X126211127Y-139622650D01*
X126211127Y-139622650D02*
X126195162Y-139595426D01*
X126195162Y-139595426D02*
X126169906Y-139542374D01*
X126169906Y-139542374D02*
X126161872Y-139500377D01*
X126161872Y-139500377D02*
X126163249Y-139493785D01*
X126163249Y-139493785D02*
X126163349Y-139474065D01*
X126163349Y-139474065D02*
X126154371Y-139476194D01*
X126154371Y-139476194D02*
X126115914Y-139477259D01*
X126115914Y-139477259D02*
X126068492Y-139446565D01*
X126068492Y-139446565D02*
X126021264Y-139390610D01*
X126021264Y-139390610D02*
X126011293Y-139374682D01*
X126011293Y-139374682D02*
X125974640Y-139327939D01*
X125974640Y-139327939D02*
X125920654Y-139290664D01*
X125920654Y-139290664D02*
X125837324Y-139254635D01*
X125837324Y-139254635D02*
X125834254Y-139253491D01*
X125834254Y-139253491D02*
X125715581Y-139205580D01*
X125715581Y-139205580D02*
X125632206Y-139161929D01*
X125632206Y-139161929D02*
X125577931Y-139118421D01*
X125577931Y-139118421D02*
X125546558Y-139070936D01*
X125546558Y-139070936D02*
X125542032Y-139059312D01*
X125542032Y-139059312D02*
X125519956Y-138946499D01*
X125519956Y-138946499D02*
X125534075Y-138847691D01*
X125534075Y-138847691D02*
X125581432Y-138768128D01*
X125581432Y-138768128D02*
X125659071Y-138713052D01*
X125659071Y-138713052D02*
X125750990Y-138688902D01*
X125750990Y-138688902D02*
X125826419Y-138682591D01*
X125826419Y-138682591D02*
X125919478Y-138677626D01*
X125919478Y-138677626D02*
X126018301Y-138674295D01*
X126018301Y-138674295D02*
X126111022Y-138672887D01*
X126111022Y-138672887D02*
X126185774Y-138673690D01*
X126185774Y-138673690D02*
X126185774Y-138673690D01*
G36*
X126185774Y-138673690D02*
G01*
X126230690Y-138676993D01*
X126231828Y-138677207D01*
X126257086Y-138686998D01*
X126272035Y-138710553D01*
X126280298Y-138757916D01*
X126284744Y-138823879D01*
X126285551Y-138912365D01*
X126273895Y-138966221D01*
X126245199Y-138992409D01*
X126194884Y-138997891D01*
X126171434Y-138996217D01*
X126118825Y-138983396D01*
X126096672Y-138953785D01*
X126094840Y-138944487D01*
X126066310Y-138880184D01*
X126009569Y-138832947D01*
X125938160Y-138812839D01*
X125918367Y-138813343D01*
X125874802Y-138820281D01*
X125852984Y-138838219D01*
X125843883Y-138879341D01*
X125840926Y-138917814D01*
X125839122Y-138974321D01*
X125848461Y-139010455D01*
X125877187Y-139040174D01*
X125933543Y-139077434D01*
X125936176Y-139079082D01*
X126010712Y-139117433D01*
X126105367Y-139154983D01*
X126192132Y-139181525D01*
X126285783Y-139209200D01*
X126343932Y-139237147D01*
X126372049Y-139266153D01*
X126396643Y-139308812D01*
X126434005Y-139372092D01*
X126466186Y-139425877D01*
X126503031Y-139496184D01*
X126528009Y-139561254D01*
X126534978Y-139598023D01*
X126542499Y-139640259D01*
X126558698Y-139656232D01*
X126572618Y-139675194D01*
X126568062Y-139731687D01*
X126567742Y-139733409D01*
X126545812Y-139808142D01*
X126513742Y-139869088D01*
X126478267Y-139905080D01*
X126461093Y-139910232D01*
X126431091Y-139926366D01*
X126400184Y-139962164D01*
X126343795Y-140021266D01*
X126253672Y-140076020D01*
X126127074Y-140127738D01*
X125961257Y-140177732D01*
X125935500Y-140184477D01*
X125819181Y-140214069D01*
X125737034Y-140233629D01*
X125682382Y-140244245D01*
X125648550Y-140247003D01*
X125628862Y-140242991D01*
X125619168Y-140236001D01*
X125593561Y-140226227D01*
X125537287Y-140211919D01*
X125461384Y-140195815D01*
X125442578Y-140192196D01*
X125297085Y-140156891D01*
X125180033Y-140108979D01*
X125078050Y-140042462D01*
X125042433Y-140012793D01*
X124964115Y-139928775D01*
X124917731Y-139836408D01*
X124898310Y-139752052D01*
X124900525Y-139635067D01*
X124939280Y-139520492D01*
X125009363Y-139417733D01*
X125105564Y-139336196D01*
X125139380Y-139316951D01*
X125211758Y-139291140D01*
X125295178Y-139278030D01*
X125379633Y-139276881D01*
X125455119Y-139286957D01*
X125511630Y-139307520D01*
X125539160Y-139337830D01*
X125540343Y-139346526D01*
X125526246Y-139378506D01*
X125481803Y-139389281D01*
X125403785Y-139379462D01*
X125386222Y-139375622D01*
X125300713Y-139366633D01*
X125245868Y-139385444D01*
X125222574Y-139431697D01*
X125221826Y-139441865D01*
X125212023Y-139482616D01*
X125189149Y-139539010D01*
X125183611Y-139550398D01*
X125160985Y-139603025D01*
X125159952Y-139638809D01*
X125176161Y-139671622D01*
X125196885Y-139725814D01*
X125205897Y-139791689D01*
X125205910Y-139793881D01*
X125213058Y-139850626D01*
X125242096Y-139885769D01*
X125269183Y-139901720D01*
X125330294Y-139939686D01*
X125390579Y-139986236D01*
X125392305Y-139987765D01*
X125469285Y-140030522D01*
X125583543Y-140055378D01*
X125733882Y-140062093D01*
X125758810Y-140061540D01*
X125865853Y-140039229D01*
X125969962Y-139983955D01*
X126058406Y-139903937D01*
X126103409Y-139839028D01*
X126141573Y-139779552D01*
X126179392Y-139737419D01*
X126199307Y-139725133D01*
X126230719Y-139708266D01*
X126234735Y-139676476D01*
X126211127Y-139622650D01*
X126195162Y-139595426D01*
X126169906Y-139542374D01*
X126161872Y-139500377D01*
X126163249Y-139493785D01*
X126163349Y-139474065D01*
X126154371Y-139476194D01*
X126115914Y-139477259D01*
X126068492Y-139446565D01*
X126021264Y-139390610D01*
X126011293Y-139374682D01*
X125974640Y-139327939D01*
X125920654Y-139290664D01*
X125837324Y-139254635D01*
X125834254Y-139253491D01*
X125715581Y-139205580D01*
X125632206Y-139161929D01*
X125577931Y-139118421D01*
X125546558Y-139070936D01*
X125542032Y-139059312D01*
X125519956Y-138946499D01*
X125534075Y-138847691D01*
X125581432Y-138768128D01*
X125659071Y-138713052D01*
X125750990Y-138688902D01*
X125826419Y-138682591D01*
X125919478Y-138677626D01*
X126018301Y-138674295D01*
X126111022Y-138672887D01*
X126185774Y-138673690D01*
G37*
X126185774Y-138673690D02*
X126230690Y-138676993D01*
X126231828Y-138677207D01*
X126257086Y-138686998D01*
X126272035Y-138710553D01*
X126280298Y-138757916D01*
X126284744Y-138823879D01*
X126285551Y-138912365D01*
X126273895Y-138966221D01*
X126245199Y-138992409D01*
X126194884Y-138997891D01*
X126171434Y-138996217D01*
X126118825Y-138983396D01*
X126096672Y-138953785D01*
X126094840Y-138944487D01*
X126066310Y-138880184D01*
X126009569Y-138832947D01*
X125938160Y-138812839D01*
X125918367Y-138813343D01*
X125874802Y-138820281D01*
X125852984Y-138838219D01*
X125843883Y-138879341D01*
X125840926Y-138917814D01*
X125839122Y-138974321D01*
X125848461Y-139010455D01*
X125877187Y-139040174D01*
X125933543Y-139077434D01*
X125936176Y-139079082D01*
X126010712Y-139117433D01*
X126105367Y-139154983D01*
X126192132Y-139181525D01*
X126285783Y-139209200D01*
X126343932Y-139237147D01*
X126372049Y-139266153D01*
X126396643Y-139308812D01*
X126434005Y-139372092D01*
X126466186Y-139425877D01*
X126503031Y-139496184D01*
X126528009Y-139561254D01*
X126534978Y-139598023D01*
X126542499Y-139640259D01*
X126558698Y-139656232D01*
X126572618Y-139675194D01*
X126568062Y-139731687D01*
X126567742Y-139733409D01*
X126545812Y-139808142D01*
X126513742Y-139869088D01*
X126478267Y-139905080D01*
X126461093Y-139910232D01*
X126431091Y-139926366D01*
X126400184Y-139962164D01*
X126343795Y-140021266D01*
X126253672Y-140076020D01*
X126127074Y-140127738D01*
X125961257Y-140177732D01*
X125935500Y-140184477D01*
X125819181Y-140214069D01*
X125737034Y-140233629D01*
X125682382Y-140244245D01*
X125648550Y-140247003D01*
X125628862Y-140242991D01*
X125619168Y-140236001D01*
X125593561Y-140226227D01*
X125537287Y-140211919D01*
X125461384Y-140195815D01*
X125442578Y-140192196D01*
X125297085Y-140156891D01*
X125180033Y-140108979D01*
X125078050Y-140042462D01*
X125042433Y-140012793D01*
X124964115Y-139928775D01*
X124917731Y-139836408D01*
X124898310Y-139752052D01*
X124900525Y-139635067D01*
X124939280Y-139520492D01*
X125009363Y-139417733D01*
X125105564Y-139336196D01*
X125139380Y-139316951D01*
X125211758Y-139291140D01*
X125295178Y-139278030D01*
X125379633Y-139276881D01*
X125455119Y-139286957D01*
X125511630Y-139307520D01*
X125539160Y-139337830D01*
X125540343Y-139346526D01*
X125526246Y-139378506D01*
X125481803Y-139389281D01*
X125403785Y-139379462D01*
X125386222Y-139375622D01*
X125300713Y-139366633D01*
X125245868Y-139385444D01*
X125222574Y-139431697D01*
X125221826Y-139441865D01*
X125212023Y-139482616D01*
X125189149Y-139539010D01*
X125183611Y-139550398D01*
X125160985Y-139603025D01*
X125159952Y-139638809D01*
X125176161Y-139671622D01*
X125196885Y-139725814D01*
X125205897Y-139791689D01*
X125205910Y-139793881D01*
X125213058Y-139850626D01*
X125242096Y-139885769D01*
X125269183Y-139901720D01*
X125330294Y-139939686D01*
X125390579Y-139986236D01*
X125392305Y-139987765D01*
X125469285Y-140030522D01*
X125583543Y-140055378D01*
X125733882Y-140062093D01*
X125758810Y-140061540D01*
X125865853Y-140039229D01*
X125969962Y-139983955D01*
X126058406Y-139903937D01*
X126103409Y-139839028D01*
X126141573Y-139779552D01*
X126179392Y-139737419D01*
X126199307Y-139725133D01*
X126230719Y-139708266D01*
X126234735Y-139676476D01*
X126211127Y-139622650D01*
X126195162Y-139595426D01*
X126169906Y-139542374D01*
X126161872Y-139500377D01*
X126163249Y-139493785D01*
X126163349Y-139474065D01*
X126154371Y-139476194D01*
X126115914Y-139477259D01*
X126068492Y-139446565D01*
X126021264Y-139390610D01*
X126011293Y-139374682D01*
X125974640Y-139327939D01*
X125920654Y-139290664D01*
X125837324Y-139254635D01*
X125834254Y-139253491D01*
X125715581Y-139205580D01*
X125632206Y-139161929D01*
X125577931Y-139118421D01*
X125546558Y-139070936D01*
X125542032Y-139059312D01*
X125519956Y-138946499D01*
X125534075Y-138847691D01*
X125581432Y-138768128D01*
X125659071Y-138713052D01*
X125750990Y-138688902D01*
X125826419Y-138682591D01*
X125919478Y-138677626D01*
X126018301Y-138674295D01*
X126111022Y-138672887D01*
X126185774Y-138673690D01*
X124022279Y-138940467D02*
X124112462Y-138953342D01*
X124112462Y-138953342D02*
X124198928Y-138962836D01*
X124198928Y-138962836D02*
X124259760Y-138966758D01*
X124259760Y-138966758D02*
X124325049Y-138974310D01*
X124325049Y-138974310D02*
X124363167Y-138997520D01*
X124363167Y-138997520D02*
X124375562Y-139041598D01*
X124375562Y-139041598D02*
X124363682Y-139111754D01*
X124363682Y-139111754D02*
X124328974Y-139213198D01*
X124328974Y-139213198D02*
X124328551Y-139214298D01*
X124328551Y-139214298D02*
X124299708Y-139283300D01*
X124299708Y-139283300D02*
X124275613Y-139320892D01*
X124275613Y-139320892D02*
X124248676Y-139336158D01*
X124248676Y-139336158D02*
X124224829Y-139338421D01*
X124224829Y-139338421D02*
X124190211Y-139333853D01*
X124190211Y-139333853D02*
X124168402Y-139312715D01*
X124168402Y-139312715D02*
X124151294Y-139264579D01*
X124151294Y-139264579D02*
X124143594Y-139233947D01*
X124143594Y-139233947D02*
X124121729Y-139158711D01*
X124121729Y-139158711D02*
X124093538Y-139114549D01*
X124093538Y-139114549D02*
X124047188Y-139090562D01*
X124047188Y-139090562D02*
X123972152Y-139076036D01*
X123972152Y-139076036D02*
X123857646Y-139075723D01*
X123857646Y-139075723D02*
X123759280Y-139112669D01*
X123759280Y-139112669D02*
X123695128Y-139162611D01*
X123695128Y-139162611D02*
X123663841Y-139198844D01*
X123663841Y-139198844D02*
X123643951Y-139242746D01*
X123643951Y-139242746D02*
X123631121Y-139307096D01*
X123631121Y-139307096D02*
X123623893Y-139372465D01*
X123623893Y-139372465D02*
X123617382Y-139508320D01*
X123617382Y-139508320D02*
X123629238Y-139612594D01*
X123629238Y-139612594D02*
X123663151Y-139693414D01*
X123663151Y-139693414D02*
X123722812Y-139758907D01*
X123722812Y-139758907D02*
X123811910Y-139817199D01*
X123811910Y-139817199D02*
X123830291Y-139826999D01*
X123830291Y-139826999D02*
X123913906Y-139860714D01*
X123913906Y-139860714D02*
X123985162Y-139863357D01*
X123985162Y-139863357D02*
X124057162Y-139836931D01*
X124057162Y-139836931D02*
X124114213Y-139793996D01*
X124114213Y-139793996D02*
X124139865Y-139734254D01*
X124139865Y-139734254D02*
X124143343Y-139686995D01*
X124143343Y-139686995D02*
X124124767Y-139634945D01*
X124124767Y-139634945D02*
X124070430Y-139603112D01*
X124070430Y-139603112D02*
X123985984Y-139592732D01*
X123985984Y-139592732D02*
X123934342Y-139588184D01*
X123934342Y-139588184D02*
X123913214Y-139570341D01*
X123913214Y-139570341D02*
X123910510Y-139550398D01*
X123910510Y-139550398D02*
X123915824Y-139525475D01*
X123915824Y-139525475D02*
X123938577Y-139512731D01*
X123938577Y-139512731D02*
X123988981Y-139508263D01*
X123988981Y-139508263D02*
X124021635Y-139507914D01*
X124021635Y-139507914D02*
X124104981Y-139505657D01*
X124104981Y-139505657D02*
X124204861Y-139499981D01*
X124204861Y-139499981D02*
X124275635Y-139494270D01*
X124275635Y-139494270D02*
X124351383Y-139488100D01*
X124351383Y-139488100D02*
X124394302Y-139488764D01*
X124394302Y-139488764D02*
X124413593Y-139498044D01*
X124413593Y-139498044D02*
X124418456Y-139517722D01*
X124418456Y-139517722D02*
X124418510Y-139521937D01*
X124418510Y-139521937D02*
X124409206Y-139566531D01*
X124409206Y-139566531D02*
X124398969Y-139583207D01*
X124398969Y-139583207D02*
X124385285Y-139613239D01*
X124385285Y-139613239D02*
X124368722Y-139671943D01*
X124368722Y-139671943D02*
X124353994Y-139740898D01*
X124353994Y-139740898D02*
X124332429Y-139849704D01*
X124332429Y-139849704D02*
X124313081Y-139922748D01*
X124313081Y-139922748D02*
X124292563Y-139966233D01*
X124292563Y-139966233D02*
X124267491Y-139986356D01*
X124267491Y-139986356D02*
X124234476Y-139989320D01*
X124234476Y-139989320D02*
X124219430Y-139987285D01*
X124219430Y-139987285D02*
X124169044Y-139983925D01*
X124169044Y-139983925D02*
X124090316Y-139984410D01*
X124090316Y-139984410D02*
X123997038Y-139988531D01*
X123997038Y-139988531D02*
X123956969Y-139991285D01*
X123956969Y-139991285D02*
X123849608Y-139997360D01*
X123849608Y-139997360D02*
X123772180Y-139995752D01*
X123772180Y-139995752D02*
X123712863Y-139985735D01*
X123712863Y-139985735D02*
X123677921Y-139974179D01*
X123677921Y-139974179D02*
X123562249Y-139915854D01*
X123562249Y-139915854D02*
X123455358Y-139832027D01*
X123455358Y-139832027D02*
X123406121Y-139783138D01*
X123406121Y-139783138D02*
X123371949Y-139744637D01*
X123371949Y-139744637D02*
X123350298Y-139708804D01*
X123350298Y-139708804D02*
X123337505Y-139663815D01*
X123337505Y-139663815D02*
X123329908Y-139597849D01*
X123329908Y-139597849D02*
X123325083Y-139521527D01*
X123325083Y-139521527D02*
X123322754Y-139388671D01*
X123322754Y-139388671D02*
X123332851Y-139296155D01*
X123332851Y-139296155D02*
X123341462Y-139267621D01*
X123341462Y-139267621D02*
X123413454Y-139131370D01*
X123413454Y-139131370D02*
X123506198Y-139030153D01*
X123506198Y-139030153D02*
X123621406Y-138963149D01*
X123621406Y-138963149D02*
X123760787Y-138929536D01*
X123760787Y-138929536D02*
X123926051Y-138928493D01*
X123926051Y-138928493D02*
X124022279Y-138940467D01*
X124022279Y-138940467D02*
X124022279Y-138940467D01*
G36*
X124022279Y-138940467D02*
G01*
X124112462Y-138953342D01*
X124198928Y-138962836D01*
X124259760Y-138966758D01*
X124325049Y-138974310D01*
X124363167Y-138997520D01*
X124375562Y-139041598D01*
X124363682Y-139111754D01*
X124328974Y-139213198D01*
X124328551Y-139214298D01*
X124299708Y-139283300D01*
X124275613Y-139320892D01*
X124248676Y-139336158D01*
X124224829Y-139338421D01*
X124190211Y-139333853D01*
X124168402Y-139312715D01*
X124151294Y-139264579D01*
X124143594Y-139233947D01*
X124121729Y-139158711D01*
X124093538Y-139114549D01*
X124047188Y-139090562D01*
X123972152Y-139076036D01*
X123857646Y-139075723D01*
X123759280Y-139112669D01*
X123695128Y-139162611D01*
X123663841Y-139198844D01*
X123643951Y-139242746D01*
X123631121Y-139307096D01*
X123623893Y-139372465D01*
X123617382Y-139508320D01*
X123629238Y-139612594D01*
X123663151Y-139693414D01*
X123722812Y-139758907D01*
X123811910Y-139817199D01*
X123830291Y-139826999D01*
X123913906Y-139860714D01*
X123985162Y-139863357D01*
X124057162Y-139836931D01*
X124114213Y-139793996D01*
X124139865Y-139734254D01*
X124143343Y-139686995D01*
X124124767Y-139634945D01*
X124070430Y-139603112D01*
X123985984Y-139592732D01*
X123934342Y-139588184D01*
X123913214Y-139570341D01*
X123910510Y-139550398D01*
X123915824Y-139525475D01*
X123938577Y-139512731D01*
X123988981Y-139508263D01*
X124021635Y-139507914D01*
X124104981Y-139505657D01*
X124204861Y-139499981D01*
X124275635Y-139494270D01*
X124351383Y-139488100D01*
X124394302Y-139488764D01*
X124413593Y-139498044D01*
X124418456Y-139517722D01*
X124418510Y-139521937D01*
X124409206Y-139566531D01*
X124398969Y-139583207D01*
X124385285Y-139613239D01*
X124368722Y-139671943D01*
X124353994Y-139740898D01*
X124332429Y-139849704D01*
X124313081Y-139922748D01*
X124292563Y-139966233D01*
X124267491Y-139986356D01*
X124234476Y-139989320D01*
X124219430Y-139987285D01*
X124169044Y-139983925D01*
X124090316Y-139984410D01*
X123997038Y-139988531D01*
X123956969Y-139991285D01*
X123849608Y-139997360D01*
X123772180Y-139995752D01*
X123712863Y-139985735D01*
X123677921Y-139974179D01*
X123562249Y-139915854D01*
X123455358Y-139832027D01*
X123406121Y-139783138D01*
X123371949Y-139744637D01*
X123350298Y-139708804D01*
X123337505Y-139663815D01*
X123329908Y-139597849D01*
X123325083Y-139521527D01*
X123322754Y-139388671D01*
X123332851Y-139296155D01*
X123341462Y-139267621D01*
X123413454Y-139131370D01*
X123506198Y-139030153D01*
X123621406Y-138963149D01*
X123760787Y-138929536D01*
X123926051Y-138928493D01*
X124022279Y-138940467D01*
G37*
X124022279Y-138940467D02*
X124112462Y-138953342D01*
X124198928Y-138962836D01*
X124259760Y-138966758D01*
X124325049Y-138974310D01*
X124363167Y-138997520D01*
X124375562Y-139041598D01*
X124363682Y-139111754D01*
X124328974Y-139213198D01*
X124328551Y-139214298D01*
X124299708Y-139283300D01*
X124275613Y-139320892D01*
X124248676Y-139336158D01*
X124224829Y-139338421D01*
X124190211Y-139333853D01*
X124168402Y-139312715D01*
X124151294Y-139264579D01*
X124143594Y-139233947D01*
X124121729Y-139158711D01*
X124093538Y-139114549D01*
X124047188Y-139090562D01*
X123972152Y-139076036D01*
X123857646Y-139075723D01*
X123759280Y-139112669D01*
X123695128Y-139162611D01*
X123663841Y-139198844D01*
X123643951Y-139242746D01*
X123631121Y-139307096D01*
X123623893Y-139372465D01*
X123617382Y-139508320D01*
X123629238Y-139612594D01*
X123663151Y-139693414D01*
X123722812Y-139758907D01*
X123811910Y-139817199D01*
X123830291Y-139826999D01*
X123913906Y-139860714D01*
X123985162Y-139863357D01*
X124057162Y-139836931D01*
X124114213Y-139793996D01*
X124139865Y-139734254D01*
X124143343Y-139686995D01*
X124124767Y-139634945D01*
X124070430Y-139603112D01*
X123985984Y-139592732D01*
X123934342Y-139588184D01*
X123913214Y-139570341D01*
X123910510Y-139550398D01*
X123915824Y-139525475D01*
X123938577Y-139512731D01*
X123988981Y-139508263D01*
X124021635Y-139507914D01*
X124104981Y-139505657D01*
X124204861Y-139499981D01*
X124275635Y-139494270D01*
X124351383Y-139488100D01*
X124394302Y-139488764D01*
X124413593Y-139498044D01*
X124418456Y-139517722D01*
X124418510Y-139521937D01*
X124409206Y-139566531D01*
X124398969Y-139583207D01*
X124385285Y-139613239D01*
X124368722Y-139671943D01*
X124353994Y-139740898D01*
X124332429Y-139849704D01*
X124313081Y-139922748D01*
X124292563Y-139966233D01*
X124267491Y-139986356D01*
X124234476Y-139989320D01*
X124219430Y-139987285D01*
X124169044Y-139983925D01*
X124090316Y-139984410D01*
X123997038Y-139988531D01*
X123956969Y-139991285D01*
X123849608Y-139997360D01*
X123772180Y-139995752D01*
X123712863Y-139985735D01*
X123677921Y-139974179D01*
X123562249Y-139915854D01*
X123455358Y-139832027D01*
X123406121Y-139783138D01*
X123371949Y-139744637D01*
X123350298Y-139708804D01*
X123337505Y-139663815D01*
X123329908Y-139597849D01*
X123325083Y-139521527D01*
X123322754Y-139388671D01*
X123332851Y-139296155D01*
X123341462Y-139267621D01*
X123413454Y-139131370D01*
X123506198Y-139030153D01*
X123621406Y-138963149D01*
X123760787Y-138929536D01*
X123926051Y-138928493D01*
X124022279Y-138940467D01*
X131881574Y-138963191D02*
X131958888Y-138966445D01*
X131958888Y-138966445D02*
X132010832Y-138972190D01*
X132010832Y-138972190D02*
X132027735Y-138978589D01*
X132027735Y-138978589D02*
X132024202Y-139008355D01*
X132024202Y-139008355D02*
X131980824Y-139045992D01*
X131980824Y-139045992D02*
X131915948Y-139082753D01*
X131915948Y-139082753D02*
X131862326Y-139114495D01*
X131862326Y-139114495D02*
X131825302Y-139151217D01*
X131825302Y-139151217D02*
X131802611Y-139200499D01*
X131802611Y-139200499D02*
X131791989Y-139269919D01*
X131791989Y-139269919D02*
X131791170Y-139367057D01*
X131791170Y-139367057D02*
X131796762Y-139481531D01*
X131796762Y-139481531D02*
X131803675Y-139585672D01*
X131803675Y-139585672D02*
X131810737Y-139656470D01*
X131810737Y-139656470D02*
X131820306Y-139702856D01*
X131820306Y-139702856D02*
X131834737Y-139733763D01*
X131834737Y-139733763D02*
X131856388Y-139758122D01*
X131856388Y-139758122D02*
X131873713Y-139773217D01*
X131873713Y-139773217D02*
X131921755Y-139807437D01*
X131921755Y-139807437D02*
X131960780Y-139824963D01*
X131960780Y-139824963D02*
X131966050Y-139825565D01*
X131966050Y-139825565D02*
X131990702Y-139843136D01*
X131990702Y-139843136D02*
X131996176Y-139866721D01*
X131996176Y-139866721D02*
X131993322Y-139883754D01*
X131993322Y-139883754D02*
X131980242Y-139895611D01*
X131980242Y-139895611D02*
X131950154Y-139903487D01*
X131950154Y-139903487D02*
X131896281Y-139908580D01*
X131896281Y-139908580D02*
X131811842Y-139912085D01*
X131811842Y-139912085D02*
X131726301Y-139914346D01*
X131726301Y-139914346D02*
X131619340Y-139916291D01*
X131619340Y-139916291D02*
X131524157Y-139916884D01*
X131524157Y-139916884D02*
X131450713Y-139916140D01*
X131450713Y-139916140D02*
X131408970Y-139914072D01*
X131408970Y-139914072D02*
X131407581Y-139913891D01*
X131407581Y-139913891D02*
X131371152Y-139899655D01*
X131371152Y-139899655D02*
X131374107Y-139874331D01*
X131374107Y-139874331D02*
X131415602Y-139840016D01*
X131415602Y-139840016D02*
X131443978Y-139823609D01*
X131443978Y-139823609D02*
X131495784Y-139792470D01*
X131495784Y-139792470D02*
X131532443Y-139758544D01*
X131532443Y-139758544D02*
X131556556Y-139714131D01*
X131556556Y-139714131D02*
X131570725Y-139651532D01*
X131570725Y-139651532D02*
X131577552Y-139563049D01*
X131577552Y-139563049D02*
X131579639Y-139440983D01*
X131579639Y-139440983D02*
X131579698Y-139422015D01*
X131579698Y-139422015D02*
X131578811Y-139297657D01*
X131578811Y-139297657D02*
X131574046Y-139208884D01*
X131574046Y-139208884D02*
X131563206Y-139148981D01*
X131563206Y-139148981D02*
X131544095Y-139111233D01*
X131544095Y-139111233D02*
X131514514Y-139088925D01*
X131514514Y-139088925D02*
X131472267Y-139075342D01*
X131472267Y-139075342D02*
X131465790Y-139073880D01*
X131465790Y-139073880D02*
X131407933Y-139052449D01*
X131407933Y-139052449D02*
X131387962Y-139023854D01*
X131387962Y-139023854D02*
X131407987Y-138991507D01*
X131407987Y-138991507D02*
X131412616Y-138987944D01*
X131412616Y-138987944D02*
X131444263Y-138979264D01*
X131444263Y-138979264D02*
X131507079Y-138972214D01*
X131507079Y-138972214D02*
X131591642Y-138966939D01*
X131591642Y-138966939D02*
X131688528Y-138963581D01*
X131688528Y-138963581D02*
X131788313Y-138962284D01*
X131788313Y-138962284D02*
X131881574Y-138963191D01*
X131881574Y-138963191D02*
X131881574Y-138963191D01*
G36*
X131881574Y-138963191D02*
G01*
X131958888Y-138966445D01*
X132010832Y-138972190D01*
X132027735Y-138978589D01*
X132024202Y-139008355D01*
X131980824Y-139045992D01*
X131915948Y-139082753D01*
X131862326Y-139114495D01*
X131825302Y-139151217D01*
X131802611Y-139200499D01*
X131791989Y-139269919D01*
X131791170Y-139367057D01*
X131796762Y-139481531D01*
X131803675Y-139585672D01*
X131810737Y-139656470D01*
X131820306Y-139702856D01*
X131834737Y-139733763D01*
X131856388Y-139758122D01*
X131873713Y-139773217D01*
X131921755Y-139807437D01*
X131960780Y-139824963D01*
X131966050Y-139825565D01*
X131990702Y-139843136D01*
X131996176Y-139866721D01*
X131993322Y-139883754D01*
X131980242Y-139895611D01*
X131950154Y-139903487D01*
X131896281Y-139908580D01*
X131811842Y-139912085D01*
X131726301Y-139914346D01*
X131619340Y-139916291D01*
X131524157Y-139916884D01*
X131450713Y-139916140D01*
X131408970Y-139914072D01*
X131407581Y-139913891D01*
X131371152Y-139899655D01*
X131374107Y-139874331D01*
X131415602Y-139840016D01*
X131443978Y-139823609D01*
X131495784Y-139792470D01*
X131532443Y-139758544D01*
X131556556Y-139714131D01*
X131570725Y-139651532D01*
X131577552Y-139563049D01*
X131579639Y-139440983D01*
X131579698Y-139422015D01*
X131578811Y-139297657D01*
X131574046Y-139208884D01*
X131563206Y-139148981D01*
X131544095Y-139111233D01*
X131514514Y-139088925D01*
X131472267Y-139075342D01*
X131465790Y-139073880D01*
X131407933Y-139052449D01*
X131387962Y-139023854D01*
X131407987Y-138991507D01*
X131412616Y-138987944D01*
X131444263Y-138979264D01*
X131507079Y-138972214D01*
X131591642Y-138966939D01*
X131688528Y-138963581D01*
X131788313Y-138962284D01*
X131881574Y-138963191D01*
G37*
X131881574Y-138963191D02*
X131958888Y-138966445D01*
X132010832Y-138972190D01*
X132027735Y-138978589D01*
X132024202Y-139008355D01*
X131980824Y-139045992D01*
X131915948Y-139082753D01*
X131862326Y-139114495D01*
X131825302Y-139151217D01*
X131802611Y-139200499D01*
X131791989Y-139269919D01*
X131791170Y-139367057D01*
X131796762Y-139481531D01*
X131803675Y-139585672D01*
X131810737Y-139656470D01*
X131820306Y-139702856D01*
X131834737Y-139733763D01*
X131856388Y-139758122D01*
X131873713Y-139773217D01*
X131921755Y-139807437D01*
X131960780Y-139824963D01*
X131966050Y-139825565D01*
X131990702Y-139843136D01*
X131996176Y-139866721D01*
X131993322Y-139883754D01*
X131980242Y-139895611D01*
X131950154Y-139903487D01*
X131896281Y-139908580D01*
X131811842Y-139912085D01*
X131726301Y-139914346D01*
X131619340Y-139916291D01*
X131524157Y-139916884D01*
X131450713Y-139916140D01*
X131408970Y-139914072D01*
X131407581Y-139913891D01*
X131371152Y-139899655D01*
X131374107Y-139874331D01*
X131415602Y-139840016D01*
X131443978Y-139823609D01*
X131495784Y-139792470D01*
X131532443Y-139758544D01*
X131556556Y-139714131D01*
X131570725Y-139651532D01*
X131577552Y-139563049D01*
X131579639Y-139440983D01*
X131579698Y-139422015D01*
X131578811Y-139297657D01*
X131574046Y-139208884D01*
X131563206Y-139148981D01*
X131544095Y-139111233D01*
X131514514Y-139088925D01*
X131472267Y-139075342D01*
X131465790Y-139073880D01*
X131407933Y-139052449D01*
X131387962Y-139023854D01*
X131407987Y-138991507D01*
X131412616Y-138987944D01*
X131444263Y-138979264D01*
X131507079Y-138972214D01*
X131591642Y-138966939D01*
X131688528Y-138963581D01*
X131788313Y-138962284D01*
X131881574Y-138963191D01*
X113088953Y-138705995D02*
X113212162Y-138708296D01*
X113212162Y-138708296D02*
X113284704Y-138710649D01*
X113284704Y-138710649D02*
X113484155Y-138721916D01*
X113484155Y-138721916D02*
X113645724Y-138740021D01*
X113645724Y-138740021D02*
X113773507Y-138766310D01*
X113773507Y-138766310D02*
X113871598Y-138802130D01*
X113871598Y-138802130D02*
X113944092Y-138848827D01*
X113944092Y-138848827D02*
X113995082Y-138907746D01*
X113995082Y-138907746D02*
X114018014Y-138951760D01*
X114018014Y-138951760D02*
X114045736Y-139056178D01*
X114045736Y-139056178D02*
X114036247Y-139147130D01*
X114036247Y-139147130D02*
X113991455Y-139219013D01*
X113991455Y-139219013D02*
X113936068Y-139274400D01*
X113936068Y-139274400D02*
X113990610Y-139295137D01*
X113990610Y-139295137D02*
X114054755Y-139326172D01*
X114054755Y-139326172D02*
X114096459Y-139366820D01*
X114096459Y-139366820D02*
X114120132Y-139426036D01*
X114120132Y-139426036D02*
X114130183Y-139512776D01*
X114130183Y-139512776D02*
X114131510Y-139581292D01*
X114131510Y-139581292D02*
X114130550Y-139669998D01*
X114130550Y-139669998D02*
X114125813Y-139727582D01*
X114125813Y-139727582D02*
X114114508Y-139765240D01*
X114114508Y-139765240D02*
X114093847Y-139794173D01*
X114093847Y-139794173D02*
X114073517Y-139814125D01*
X114073517Y-139814125D02*
X114029181Y-139849498D01*
X114029181Y-139849498D02*
X113994670Y-139867370D01*
X113994670Y-139867370D02*
X113990615Y-139867898D01*
X113990615Y-139867898D02*
X113961657Y-139884673D01*
X113961657Y-139884673D02*
X113957157Y-139893540D01*
X113957157Y-139893540D02*
X113934345Y-139902609D01*
X113934345Y-139902609D02*
X113877405Y-139911487D01*
X113877405Y-139911487D02*
X113794542Y-139919790D01*
X113794542Y-139919790D02*
X113693959Y-139927138D01*
X113693959Y-139927138D02*
X113583863Y-139933149D01*
X113583863Y-139933149D02*
X113472457Y-139937441D01*
X113472457Y-139937441D02*
X113367946Y-139939633D01*
X113367946Y-139939633D02*
X113278536Y-139939342D01*
X113278536Y-139939342D02*
X113212430Y-139936188D01*
X113212430Y-139936188D02*
X113177840Y-139929792D01*
X113177840Y-139929792D02*
X113137332Y-139921653D01*
X113137332Y-139921653D02*
X113075120Y-139921144D01*
X113075120Y-139921144D02*
X113050840Y-139923080D01*
X113050840Y-139923080D02*
X112950951Y-139933374D01*
X112950951Y-139933374D02*
X112884081Y-139939378D01*
X112884081Y-139939378D02*
X112841188Y-139941575D01*
X112841188Y-139941575D02*
X112813227Y-139940447D01*
X112813227Y-139940447D02*
X112792718Y-139936841D01*
X112792718Y-139936841D02*
X112757855Y-139917041D01*
X112757855Y-139917041D02*
X112760060Y-139885076D01*
X112760060Y-139885076D02*
X112797146Y-139844637D01*
X112797146Y-139844637D02*
X112866928Y-139799414D01*
X112866928Y-139799414D02*
X112877445Y-139793815D01*
X112877445Y-139793815D02*
X112999093Y-139730315D01*
X112999093Y-139730315D02*
X113014604Y-139550398D01*
X113014604Y-139550398D02*
X113025925Y-139404691D01*
X113025925Y-139404691D02*
X113029325Y-139332162D01*
X113029325Y-139332162D02*
X113302760Y-139332162D01*
X113302760Y-139332162D02*
X113312642Y-139517270D01*
X113312642Y-139517270D02*
X113319057Y-139602601D01*
X113319057Y-139602601D02*
X113327711Y-139671668D01*
X113327711Y-139671668D02*
X113337102Y-139713618D01*
X113337102Y-139713618D02*
X113340725Y-139720369D01*
X113340725Y-139720369D02*
X113372279Y-139734828D01*
X113372279Y-139734828D02*
X113432223Y-139751003D01*
X113432223Y-139751003D02*
X113506860Y-139766027D01*
X113506860Y-139766027D02*
X113582496Y-139777035D01*
X113582496Y-139777035D02*
X113629852Y-139780864D01*
X113629852Y-139780864D02*
X113691981Y-139772569D01*
X113691981Y-139772569D02*
X113751561Y-139750938D01*
X113751561Y-139750938D02*
X113797052Y-139717644D01*
X113797052Y-139717644D02*
X113813115Y-139670935D01*
X113813115Y-139670935D02*
X113814010Y-139647750D01*
X113814010Y-139647750D02*
X113818045Y-139575648D01*
X113818045Y-139575648D02*
X113826585Y-139513977D01*
X113826585Y-139513977D02*
X113820516Y-139455718D01*
X113820516Y-139455718D02*
X113776039Y-139409668D01*
X113776039Y-139409668D02*
X113692445Y-139375469D01*
X113692445Y-139375469D02*
X113569022Y-139352762D01*
X113569022Y-139352762D02*
X113493065Y-139345670D01*
X113493065Y-139345670D02*
X113302760Y-139332162D01*
X113302760Y-139332162D02*
X113029325Y-139332162D01*
X113029325Y-139332162D02*
X113031260Y-139290913D01*
X113031260Y-139290913D02*
X113030342Y-139199049D01*
X113030342Y-139199049D02*
X113022907Y-139119082D01*
X113022907Y-139119082D02*
X113008690Y-139040996D01*
X113008690Y-139040996D02*
X113000143Y-139004352D01*
X113000143Y-139004352D02*
X112996165Y-138989210D01*
X112996165Y-138989210D02*
X113315598Y-138989210D01*
X113315598Y-138989210D02*
X113316707Y-139065308D01*
X113316707Y-139065308D02*
X113319769Y-139138760D01*
X113319769Y-139138760D02*
X113324557Y-139194601D01*
X113324557Y-139194601D02*
X113324840Y-139196681D01*
X113324840Y-139196681D02*
X113345476Y-139203509D01*
X113345476Y-139203509D02*
X113398623Y-139207515D01*
X113398623Y-139207515D02*
X113474520Y-139208143D01*
X113474520Y-139208143D02*
X113510892Y-139207264D01*
X113510892Y-139207264D02*
X113599350Y-139203796D01*
X113599350Y-139203796D02*
X113654978Y-139198464D01*
X113654978Y-139198464D02*
X113687259Y-139188088D01*
X113687259Y-139188088D02*
X113705676Y-139169489D01*
X113705676Y-139169489D02*
X113719712Y-139139486D01*
X113719712Y-139139486D02*
X113720772Y-139136885D01*
X113720772Y-139136885D02*
X113734138Y-139093801D01*
X113734138Y-139093801D02*
X113730103Y-139056349D01*
X113730103Y-139056349D02*
X113705351Y-139007776D01*
X113705351Y-139007776D02*
X113690514Y-138984001D01*
X113690514Y-138984001D02*
X113628235Y-138912208D01*
X113628235Y-138912208D02*
X113547614Y-138869742D01*
X113547614Y-138869742D02*
X113440386Y-138852741D01*
X113440386Y-138852741D02*
X113407978Y-138852016D01*
X113407978Y-138852016D02*
X113349337Y-138858945D01*
X113349337Y-138858945D02*
X113322385Y-138882388D01*
X113322385Y-138882388D02*
X113320152Y-138888940D01*
X113320152Y-138888940D02*
X113316670Y-138925432D01*
X113316670Y-138925432D02*
X113315598Y-138989210D01*
X113315598Y-138989210D02*
X112996165Y-138989210D01*
X112996165Y-138989210D02*
X112979797Y-138926911D01*
X112979797Y-138926911D02*
X112962005Y-138881167D01*
X112962005Y-138881167D02*
X112940665Y-138857375D01*
X112940665Y-138857375D02*
X112909676Y-138845792D01*
X112909676Y-138845792D02*
X112899481Y-138843618D01*
X112899481Y-138843618D02*
X112834871Y-138834041D01*
X112834871Y-138834041D02*
X112784780Y-138830732D01*
X112784780Y-138830732D02*
X112746001Y-138821021D01*
X112746001Y-138821021D02*
X112734576Y-138784278D01*
X112734576Y-138784278D02*
X112734510Y-138779112D01*
X112734510Y-138779112D02*
X112739713Y-138746836D01*
X112739713Y-138746836D02*
X112762522Y-138728116D01*
X112762522Y-138728116D02*
X112813737Y-138715770D01*
X112813737Y-138715770D02*
X112834705Y-138712467D01*
X112834705Y-138712467D02*
X112890346Y-138708121D01*
X112890346Y-138708121D02*
X112978388Y-138705950D01*
X112978388Y-138705950D02*
X113088953Y-138705995D01*
X113088953Y-138705995D02*
X113088953Y-138705995D01*
G36*
X112962005Y-138881167D02*
G01*
X112940665Y-138857375D01*
X112909676Y-138845792D01*
X112899481Y-138843618D01*
X112834871Y-138834041D01*
X112784780Y-138830732D01*
X112746001Y-138821021D01*
X112734576Y-138784278D01*
X112734510Y-138779112D01*
X112739713Y-138746836D01*
X112762522Y-138728116D01*
X112813737Y-138715770D01*
X112834705Y-138712467D01*
X112890346Y-138708121D01*
X112978388Y-138705950D01*
X113088953Y-138705995D01*
X113212162Y-138708296D01*
X113284704Y-138710649D01*
X113484155Y-138721916D01*
X113645724Y-138740021D01*
X113773507Y-138766310D01*
X113871598Y-138802130D01*
X113944092Y-138848827D01*
X113995082Y-138907746D01*
X114018014Y-138951760D01*
X114045736Y-139056178D01*
X114036247Y-139147130D01*
X113991455Y-139219013D01*
X113936068Y-139274400D01*
X113990610Y-139295137D01*
X114054755Y-139326172D01*
X114096459Y-139366820D01*
X114120132Y-139426036D01*
X114130183Y-139512776D01*
X114131510Y-139581292D01*
X114130550Y-139669998D01*
X114125813Y-139727582D01*
X114114508Y-139765240D01*
X114093847Y-139794173D01*
X114073517Y-139814125D01*
X114029181Y-139849498D01*
X113994670Y-139867370D01*
X113990615Y-139867898D01*
X113961657Y-139884673D01*
X113957157Y-139893540D01*
X113934345Y-139902609D01*
X113877405Y-139911487D01*
X113794542Y-139919790D01*
X113693959Y-139927138D01*
X113583863Y-139933149D01*
X113472457Y-139937441D01*
X113367946Y-139939633D01*
X113278536Y-139939342D01*
X113212430Y-139936188D01*
X113177840Y-139929792D01*
X113137332Y-139921653D01*
X113075120Y-139921144D01*
X113050840Y-139923080D01*
X112950951Y-139933374D01*
X112884081Y-139939378D01*
X112841188Y-139941575D01*
X112813227Y-139940447D01*
X112792718Y-139936841D01*
X112757855Y-139917041D01*
X112760060Y-139885076D01*
X112797146Y-139844637D01*
X112866928Y-139799414D01*
X112877445Y-139793815D01*
X112999093Y-139730315D01*
X113014604Y-139550398D01*
X113025925Y-139404691D01*
X113029325Y-139332162D01*
X113302760Y-139332162D01*
X113312642Y-139517270D01*
X113319057Y-139602601D01*
X113327711Y-139671668D01*
X113337102Y-139713618D01*
X113340725Y-139720369D01*
X113372279Y-139734828D01*
X113432223Y-139751003D01*
X113506860Y-139766027D01*
X113582496Y-139777035D01*
X113629852Y-139780864D01*
X113691981Y-139772569D01*
X113751561Y-139750938D01*
X113797052Y-139717644D01*
X113813115Y-139670935D01*
X113814010Y-139647750D01*
X113818045Y-139575648D01*
X113826585Y-139513977D01*
X113820516Y-139455718D01*
X113776039Y-139409668D01*
X113692445Y-139375469D01*
X113569022Y-139352762D01*
X113493065Y-139345670D01*
X113302760Y-139332162D01*
X113029325Y-139332162D01*
X113031260Y-139290913D01*
X113030342Y-139199049D01*
X113022907Y-139119082D01*
X113008690Y-139040996D01*
X113000143Y-139004352D01*
X112996165Y-138989210D01*
X113315598Y-138989210D01*
X113316707Y-139065308D01*
X113319769Y-139138760D01*
X113324557Y-139194601D01*
X113324840Y-139196681D01*
X113345476Y-139203509D01*
X113398623Y-139207515D01*
X113474520Y-139208143D01*
X113510892Y-139207264D01*
X113599350Y-139203796D01*
X113654978Y-139198464D01*
X113687259Y-139188088D01*
X113705676Y-139169489D01*
X113719712Y-139139486D01*
X113720772Y-139136885D01*
X113734138Y-139093801D01*
X113730103Y-139056349D01*
X113705351Y-139007776D01*
X113690514Y-138984001D01*
X113628235Y-138912208D01*
X113547614Y-138869742D01*
X113440386Y-138852741D01*
X113407978Y-138852016D01*
X113349337Y-138858945D01*
X113322385Y-138882388D01*
X113320152Y-138888940D01*
X113316670Y-138925432D01*
X113315598Y-138989210D01*
X112996165Y-138989210D01*
X112979797Y-138926911D01*
X112962005Y-138881167D01*
G37*
X112962005Y-138881167D02*
X112940665Y-138857375D01*
X112909676Y-138845792D01*
X112899481Y-138843618D01*
X112834871Y-138834041D01*
X112784780Y-138830732D01*
X112746001Y-138821021D01*
X112734576Y-138784278D01*
X112734510Y-138779112D01*
X112739713Y-138746836D01*
X112762522Y-138728116D01*
X112813737Y-138715770D01*
X112834705Y-138712467D01*
X112890346Y-138708121D01*
X112978388Y-138705950D01*
X113088953Y-138705995D01*
X113212162Y-138708296D01*
X113284704Y-138710649D01*
X113484155Y-138721916D01*
X113645724Y-138740021D01*
X113773507Y-138766310D01*
X113871598Y-138802130D01*
X113944092Y-138848827D01*
X113995082Y-138907746D01*
X114018014Y-138951760D01*
X114045736Y-139056178D01*
X114036247Y-139147130D01*
X113991455Y-139219013D01*
X113936068Y-139274400D01*
X113990610Y-139295137D01*
X114054755Y-139326172D01*
X114096459Y-139366820D01*
X114120132Y-139426036D01*
X114130183Y-139512776D01*
X114131510Y-139581292D01*
X114130550Y-139669998D01*
X114125813Y-139727582D01*
X114114508Y-139765240D01*
X114093847Y-139794173D01*
X114073517Y-139814125D01*
X114029181Y-139849498D01*
X113994670Y-139867370D01*
X113990615Y-139867898D01*
X113961657Y-139884673D01*
X113957157Y-139893540D01*
X113934345Y-139902609D01*
X113877405Y-139911487D01*
X113794542Y-139919790D01*
X113693959Y-139927138D01*
X113583863Y-139933149D01*
X113472457Y-139937441D01*
X113367946Y-139939633D01*
X113278536Y-139939342D01*
X113212430Y-139936188D01*
X113177840Y-139929792D01*
X113137332Y-139921653D01*
X113075120Y-139921144D01*
X113050840Y-139923080D01*
X112950951Y-139933374D01*
X112884081Y-139939378D01*
X112841188Y-139941575D01*
X112813227Y-139940447D01*
X112792718Y-139936841D01*
X112757855Y-139917041D01*
X112760060Y-139885076D01*
X112797146Y-139844637D01*
X112866928Y-139799414D01*
X112877445Y-139793815D01*
X112999093Y-139730315D01*
X113014604Y-139550398D01*
X113025925Y-139404691D01*
X113029325Y-139332162D01*
X113302760Y-139332162D01*
X113312642Y-139517270D01*
X113319057Y-139602601D01*
X113327711Y-139671668D01*
X113337102Y-139713618D01*
X113340725Y-139720369D01*
X113372279Y-139734828D01*
X113432223Y-139751003D01*
X113506860Y-139766027D01*
X113582496Y-139777035D01*
X113629852Y-139780864D01*
X113691981Y-139772569D01*
X113751561Y-139750938D01*
X113797052Y-139717644D01*
X113813115Y-139670935D01*
X113814010Y-139647750D01*
X113818045Y-139575648D01*
X113826585Y-139513977D01*
X113820516Y-139455718D01*
X113776039Y-139409668D01*
X113692445Y-139375469D01*
X113569022Y-139352762D01*
X113493065Y-139345670D01*
X113302760Y-139332162D01*
X113029325Y-139332162D01*
X113031260Y-139290913D01*
X113030342Y-139199049D01*
X113022907Y-139119082D01*
X113008690Y-139040996D01*
X113000143Y-139004352D01*
X112996165Y-138989210D01*
X113315598Y-138989210D01*
X113316707Y-139065308D01*
X113319769Y-139138760D01*
X113324557Y-139194601D01*
X113324840Y-139196681D01*
X113345476Y-139203509D01*
X113398623Y-139207515D01*
X113474520Y-139208143D01*
X113510892Y-139207264D01*
X113599350Y-139203796D01*
X113654978Y-139198464D01*
X113687259Y-139188088D01*
X113705676Y-139169489D01*
X113719712Y-139139486D01*
X113720772Y-139136885D01*
X113734138Y-139093801D01*
X113730103Y-139056349D01*
X113705351Y-139007776D01*
X113690514Y-138984001D01*
X113628235Y-138912208D01*
X113547614Y-138869742D01*
X113440386Y-138852741D01*
X113407978Y-138852016D01*
X113349337Y-138858945D01*
X113322385Y-138882388D01*
X113320152Y-138888940D01*
X113316670Y-138925432D01*
X113315598Y-138989210D01*
X112996165Y-138989210D01*
X112979797Y-138926911D01*
X112962005Y-138881167D01*
X114879988Y-138686433D02*
X115003566Y-138692701D01*
X115003566Y-138692701D02*
X115097819Y-138704016D01*
X115097819Y-138704016D02*
X115109426Y-138706295D01*
X115109426Y-138706295D02*
X115192263Y-138728885D01*
X115192263Y-138728885D02*
X115287642Y-138762118D01*
X115287642Y-138762118D02*
X115349547Y-138787668D01*
X115349547Y-138787668D02*
X115420791Y-138822306D01*
X115420791Y-138822306D02*
X115463302Y-138852612D01*
X115463302Y-138852612D02*
X115488091Y-138888834D01*
X115488091Y-138888834D02*
X115503028Y-138930511D01*
X115503028Y-138930511D02*
X115520776Y-139013009D01*
X115520776Y-139013009D02*
X115516768Y-139083143D01*
X115516768Y-139083143D02*
X115487259Y-139149022D01*
X115487259Y-139149022D02*
X115428505Y-139218753D01*
X115428505Y-139218753D02*
X115336764Y-139300441D01*
X115336764Y-139300441D02*
X115329400Y-139306497D01*
X115329400Y-139306497D02*
X115211618Y-139377304D01*
X115211618Y-139377304D02*
X115063459Y-139423333D01*
X115063459Y-139423333D02*
X114889860Y-139443150D01*
X114889860Y-139443150D02*
X114856468Y-139443821D01*
X114856468Y-139443821D02*
X114745343Y-139444565D01*
X114745343Y-139444565D02*
X114745343Y-139580707D01*
X114745343Y-139580707D02*
X114746939Y-139656304D01*
X114746939Y-139656304D02*
X114754719Y-139702731D01*
X114754719Y-139702731D02*
X114773167Y-139733117D01*
X114773167Y-139733117D02*
X114806771Y-139760590D01*
X114806771Y-139760590D02*
X114806819Y-139760624D01*
X114806819Y-139760624D02*
X114856706Y-139790252D01*
X114856706Y-139790252D02*
X114896545Y-139804234D01*
X114896545Y-139804234D02*
X114899477Y-139804398D01*
X114899477Y-139804398D02*
X114943104Y-139822607D01*
X114943104Y-139822607D02*
X114971372Y-139865509D01*
X114971372Y-139865509D02*
X114974413Y-139903923D01*
X114974413Y-139903923D02*
X114963105Y-139924579D01*
X114963105Y-139924579D02*
X114932981Y-139938566D01*
X114932981Y-139938566D02*
X114875512Y-139948507D01*
X114875512Y-139948507D02*
X114808623Y-139954945D01*
X114808623Y-139954945D02*
X114726228Y-139958760D01*
X114726228Y-139958760D02*
X114656815Y-139956733D01*
X114656815Y-139956733D02*
X114614202Y-139949334D01*
X114614202Y-139949334D02*
X114611872Y-139948278D01*
X114611872Y-139948278D02*
X114569088Y-139940031D01*
X114569088Y-139940031D02*
X114496163Y-139939529D01*
X114496163Y-139939529D02*
X114404478Y-139946271D01*
X114404478Y-139946271D02*
X114305414Y-139959759D01*
X114305414Y-139959759D02*
X114290260Y-139962398D01*
X114290260Y-139962398D02*
X114236392Y-139960859D01*
X114236392Y-139960859D02*
X114200301Y-139951384D01*
X114200301Y-139951384D02*
X114158985Y-139923914D01*
X114158985Y-139923914D02*
X114158999Y-139890697D01*
X114158999Y-139890697D02*
X114199865Y-139852629D01*
X114199865Y-139852629D02*
X114273665Y-139813857D01*
X114273665Y-139813857D02*
X114340017Y-139781720D01*
X114340017Y-139781720D02*
X114390281Y-139752231D01*
X114390281Y-139752231D02*
X114410924Y-139734749D01*
X114410924Y-139734749D02*
X114419197Y-139701795D01*
X114419197Y-139701795D02*
X114425331Y-139639832D01*
X114425331Y-139639832D02*
X114428016Y-139562180D01*
X114428016Y-139562180D02*
X114428024Y-139560982D01*
X114428024Y-139560982D02*
X114431128Y-139472325D01*
X114431128Y-139472325D02*
X114438393Y-139388756D01*
X114438393Y-139388756D02*
X114447005Y-139334683D01*
X114447005Y-139334683D02*
X114448057Y-139323517D01*
X114448057Y-139323517D02*
X114743901Y-139323517D01*
X114743901Y-139323517D02*
X114842980Y-139309936D01*
X114842980Y-139309936D02*
X114924850Y-139296231D01*
X114924850Y-139296231D02*
X115005616Y-139278985D01*
X115005616Y-139278985D02*
X115023601Y-139274399D01*
X115023601Y-139274399D02*
X115085857Y-139248251D01*
X115085857Y-139248251D02*
X115129153Y-139201774D01*
X115129153Y-139201774D02*
X115147905Y-139168622D01*
X115147905Y-139168622D02*
X115175915Y-139094734D01*
X115175915Y-139094734D02*
X115174179Y-139029989D01*
X115174179Y-139029989D02*
X115140581Y-138961744D01*
X115140581Y-138961744D02*
X115105515Y-138915398D01*
X115105515Y-138915398D02*
X115070827Y-138876062D01*
X115070827Y-138876062D02*
X115039038Y-138853886D01*
X115039038Y-138853886D02*
X114996559Y-138843964D01*
X114996559Y-138843964D02*
X114929799Y-138841388D01*
X114929799Y-138841388D02*
X114900321Y-138841315D01*
X114900321Y-138841315D02*
X114755926Y-138841315D01*
X114755926Y-138841315D02*
X114749913Y-139082416D01*
X114749913Y-139082416D02*
X114743901Y-139323517D01*
X114743901Y-139323517D02*
X114448057Y-139323517D01*
X114448057Y-139323517D02*
X114451127Y-139290945D01*
X114451127Y-139290945D02*
X114451459Y-139220814D01*
X114451459Y-139220814D02*
X114448672Y-139135301D01*
X114448672Y-139135301D02*
X114443440Y-139045422D01*
X114443440Y-139045422D02*
X114436437Y-138962189D01*
X114436437Y-138962189D02*
X114428334Y-138896615D01*
X114428334Y-138896615D02*
X114419806Y-138859716D01*
X114419806Y-138859716D02*
X114417771Y-138856350D01*
X114417771Y-138856350D02*
X114395111Y-138851532D01*
X114395111Y-138851532D02*
X114342605Y-138845539D01*
X114342605Y-138845539D02*
X114272677Y-138839501D01*
X114272677Y-138839501D02*
X114197751Y-138834548D01*
X114197751Y-138834548D02*
X114156496Y-138832601D01*
X114156496Y-138832601D02*
X114119747Y-138822159D01*
X114119747Y-138822159D02*
X114113597Y-138787463D01*
X114113597Y-138787463D02*
X114114162Y-138783107D01*
X114114162Y-138783107D02*
X114121165Y-138759935D01*
X114121165Y-138759935D02*
X114139833Y-138743662D01*
X114139833Y-138743662D02*
X114178432Y-138731249D01*
X114178432Y-138731249D02*
X114245227Y-138719660D01*
X114245227Y-138719660D02*
X114311426Y-138710643D01*
X114311426Y-138710643D02*
X114442805Y-138697317D01*
X114442805Y-138697317D02*
X114588658Y-138688801D01*
X114588658Y-138688801D02*
X114738036Y-138685152D01*
X114738036Y-138685152D02*
X114879988Y-138686433D01*
X114879988Y-138686433D02*
X114879988Y-138686433D01*
G36*
X114451459Y-139220814D02*
G01*
X114448672Y-139135301D01*
X114443440Y-139045422D01*
X114436437Y-138962189D01*
X114428334Y-138896615D01*
X114419806Y-138859716D01*
X114417771Y-138856350D01*
X114395111Y-138851532D01*
X114342605Y-138845539D01*
X114272677Y-138839501D01*
X114197751Y-138834548D01*
X114156496Y-138832601D01*
X114119747Y-138822159D01*
X114113597Y-138787463D01*
X114114162Y-138783107D01*
X114121165Y-138759935D01*
X114139833Y-138743662D01*
X114178432Y-138731249D01*
X114245227Y-138719660D01*
X114311426Y-138710643D01*
X114442805Y-138697317D01*
X114588658Y-138688801D01*
X114738036Y-138685152D01*
X114879988Y-138686433D01*
X115003566Y-138692701D01*
X115097819Y-138704016D01*
X115109426Y-138706295D01*
X115192263Y-138728885D01*
X115287642Y-138762118D01*
X115349547Y-138787668D01*
X115420791Y-138822306D01*
X115463302Y-138852612D01*
X115488091Y-138888834D01*
X115503028Y-138930511D01*
X115520776Y-139013009D01*
X115516768Y-139083143D01*
X115487259Y-139149022D01*
X115428505Y-139218753D01*
X115336764Y-139300441D01*
X115329400Y-139306497D01*
X115211618Y-139377304D01*
X115063459Y-139423333D01*
X114889860Y-139443150D01*
X114856468Y-139443821D01*
X114745343Y-139444565D01*
X114745343Y-139580707D01*
X114746939Y-139656304D01*
X114754719Y-139702731D01*
X114773167Y-139733117D01*
X114806771Y-139760590D01*
X114806819Y-139760624D01*
X114856706Y-139790252D01*
X114896545Y-139804234D01*
X114899477Y-139804398D01*
X114943104Y-139822607D01*
X114971372Y-139865509D01*
X114974413Y-139903923D01*
X114963105Y-139924579D01*
X114932981Y-139938566D01*
X114875512Y-139948507D01*
X114808623Y-139954945D01*
X114726228Y-139958760D01*
X114656815Y-139956733D01*
X114614202Y-139949334D01*
X114611872Y-139948278D01*
X114569088Y-139940031D01*
X114496163Y-139939529D01*
X114404478Y-139946271D01*
X114305414Y-139959759D01*
X114290260Y-139962398D01*
X114236392Y-139960859D01*
X114200301Y-139951384D01*
X114158985Y-139923914D01*
X114158999Y-139890697D01*
X114199865Y-139852629D01*
X114273665Y-139813857D01*
X114340017Y-139781720D01*
X114390281Y-139752231D01*
X114410924Y-139734749D01*
X114419197Y-139701795D01*
X114425331Y-139639832D01*
X114428016Y-139562180D01*
X114428024Y-139560982D01*
X114431128Y-139472325D01*
X114438393Y-139388756D01*
X114447005Y-139334683D01*
X114448057Y-139323517D01*
X114743901Y-139323517D01*
X114842980Y-139309936D01*
X114924850Y-139296231D01*
X115005616Y-139278985D01*
X115023601Y-139274399D01*
X115085857Y-139248251D01*
X115129153Y-139201774D01*
X115147905Y-139168622D01*
X115175915Y-139094734D01*
X115174179Y-139029989D01*
X115140581Y-138961744D01*
X115105515Y-138915398D01*
X115070827Y-138876062D01*
X115039038Y-138853886D01*
X114996559Y-138843964D01*
X114929799Y-138841388D01*
X114900321Y-138841315D01*
X114755926Y-138841315D01*
X114749913Y-139082416D01*
X114743901Y-139323517D01*
X114448057Y-139323517D01*
X114451127Y-139290945D01*
X114451459Y-139220814D01*
G37*
X114451459Y-139220814D02*
X114448672Y-139135301D01*
X114443440Y-139045422D01*
X114436437Y-138962189D01*
X114428334Y-138896615D01*
X114419806Y-138859716D01*
X114417771Y-138856350D01*
X114395111Y-138851532D01*
X114342605Y-138845539D01*
X114272677Y-138839501D01*
X114197751Y-138834548D01*
X114156496Y-138832601D01*
X114119747Y-138822159D01*
X114113597Y-138787463D01*
X114114162Y-138783107D01*
X114121165Y-138759935D01*
X114139833Y-138743662D01*
X114178432Y-138731249D01*
X114245227Y-138719660D01*
X114311426Y-138710643D01*
X114442805Y-138697317D01*
X114588658Y-138688801D01*
X114738036Y-138685152D01*
X114879988Y-138686433D01*
X115003566Y-138692701D01*
X115097819Y-138704016D01*
X115109426Y-138706295D01*
X115192263Y-138728885D01*
X115287642Y-138762118D01*
X115349547Y-138787668D01*
X115420791Y-138822306D01*
X115463302Y-138852612D01*
X115488091Y-138888834D01*
X115503028Y-138930511D01*
X115520776Y-139013009D01*
X115516768Y-139083143D01*
X115487259Y-139149022D01*
X115428505Y-139218753D01*
X115336764Y-139300441D01*
X115329400Y-139306497D01*
X115211618Y-139377304D01*
X115063459Y-139423333D01*
X114889860Y-139443150D01*
X114856468Y-139443821D01*
X114745343Y-139444565D01*
X114745343Y-139580707D01*
X114746939Y-139656304D01*
X114754719Y-139702731D01*
X114773167Y-139733117D01*
X114806771Y-139760590D01*
X114806819Y-139760624D01*
X114856706Y-139790252D01*
X114896545Y-139804234D01*
X114899477Y-139804398D01*
X114943104Y-139822607D01*
X114971372Y-139865509D01*
X114974413Y-139903923D01*
X114963105Y-139924579D01*
X114932981Y-139938566D01*
X114875512Y-139948507D01*
X114808623Y-139954945D01*
X114726228Y-139958760D01*
X114656815Y-139956733D01*
X114614202Y-139949334D01*
X114611872Y-139948278D01*
X114569088Y-139940031D01*
X114496163Y-139939529D01*
X114404478Y-139946271D01*
X114305414Y-139959759D01*
X114290260Y-139962398D01*
X114236392Y-139960859D01*
X114200301Y-139951384D01*
X114158985Y-139923914D01*
X114158999Y-139890697D01*
X114199865Y-139852629D01*
X114273665Y-139813857D01*
X114340017Y-139781720D01*
X114390281Y-139752231D01*
X114410924Y-139734749D01*
X114419197Y-139701795D01*
X114425331Y-139639832D01*
X114428016Y-139562180D01*
X114428024Y-139560982D01*
X114431128Y-139472325D01*
X114438393Y-139388756D01*
X114447005Y-139334683D01*
X114448057Y-139323517D01*
X114743901Y-139323517D01*
X114842980Y-139309936D01*
X114924850Y-139296231D01*
X115005616Y-139278985D01*
X115023601Y-139274399D01*
X115085857Y-139248251D01*
X115129153Y-139201774D01*
X115147905Y-139168622D01*
X115175915Y-139094734D01*
X115174179Y-139029989D01*
X115140581Y-138961744D01*
X115105515Y-138915398D01*
X115070827Y-138876062D01*
X115039038Y-138853886D01*
X114996559Y-138843964D01*
X114929799Y-138841388D01*
X114900321Y-138841315D01*
X114755926Y-138841315D01*
X114749913Y-139082416D01*
X114743901Y-139323517D01*
X114448057Y-139323517D01*
X114451127Y-139290945D01*
X114451459Y-139220814D01*
X127177711Y-138985068D02*
X127230853Y-138988381D01*
X127230853Y-138988381D02*
X127260687Y-138994928D01*
X127260687Y-138994928D02*
X127273549Y-139005381D01*
X127273549Y-139005381D02*
X127275876Y-139017208D01*
X127275876Y-139017208D02*
X127258841Y-139051797D01*
X127258841Y-139051797D02*
X127217885Y-139085873D01*
X127217885Y-139085873D02*
X127216332Y-139086768D01*
X127216332Y-139086768D02*
X127156555Y-139134689D01*
X127156555Y-139134689D02*
X127116481Y-139202470D01*
X127116481Y-139202470D02*
X127094289Y-139295965D01*
X127094289Y-139295965D02*
X127088158Y-139421028D01*
X127088158Y-139421028D02*
X127090286Y-139491970D01*
X127090286Y-139491970D02*
X127098706Y-139607919D01*
X127098706Y-139607919D02*
X127113677Y-139688231D01*
X127113677Y-139688231D02*
X127139412Y-139739538D01*
X127139412Y-139739538D02*
X127180126Y-139768472D01*
X127180126Y-139768472D02*
X127240031Y-139781663D01*
X127240031Y-139781663D02*
X127276010Y-139784311D01*
X127276010Y-139784311D02*
X127360504Y-139786937D01*
X127360504Y-139786937D02*
X127414949Y-139783145D01*
X127414949Y-139783145D02*
X127451446Y-139770454D01*
X127451446Y-139770454D02*
X127482095Y-139746382D01*
X127482095Y-139746382D02*
X127487676Y-139740898D01*
X127487676Y-139740898D02*
X127504926Y-139719871D01*
X127504926Y-139719871D02*
X127516769Y-139692230D01*
X127516769Y-139692230D02*
X127524200Y-139650279D01*
X127524200Y-139650279D02*
X127528213Y-139586325D01*
X127528213Y-139586325D02*
X127529803Y-139492673D01*
X127529803Y-139492673D02*
X127530010Y-139413449D01*
X127530010Y-139413449D02*
X127530010Y-139128332D01*
X127530010Y-139128332D02*
X127466510Y-139081385D01*
X127466510Y-139081385D02*
X127420451Y-139043349D01*
X127420451Y-139043349D02*
X127404120Y-139016908D01*
X127404120Y-139016908D02*
X127420269Y-139000470D01*
X127420269Y-139000470D02*
X127471653Y-138992442D01*
X127471653Y-138992442D02*
X127561024Y-138991232D01*
X127561024Y-138991232D02*
X127619968Y-138992660D01*
X127619968Y-138992660D02*
X127723642Y-138997310D01*
X127723642Y-138997310D02*
X127791247Y-139004210D01*
X127791247Y-139004210D02*
X127829028Y-139014397D01*
X127829028Y-139014397D02*
X127843233Y-139028905D01*
X127843233Y-139028905D02*
X127843422Y-139029695D01*
X127843422Y-139029695D02*
X127831420Y-139059163D01*
X127831420Y-139059163D02*
X127806357Y-139073773D01*
X127806357Y-139073773D02*
X127772098Y-139091645D01*
X127772098Y-139091645D02*
X127746267Y-139124398D01*
X127746267Y-139124398D02*
X127727258Y-139177882D01*
X127727258Y-139177882D02*
X127713464Y-139257948D01*
X127713464Y-139257948D02*
X127703280Y-139370444D01*
X127703280Y-139370444D02*
X127697509Y-139470213D01*
X127697509Y-139470213D02*
X127688707Y-139612681D01*
X127688707Y-139612681D02*
X127676443Y-139719464D01*
X127676443Y-139719464D02*
X127657585Y-139797208D01*
X127657585Y-139797208D02*
X127629003Y-139852560D01*
X127629003Y-139852560D02*
X127587564Y-139892167D01*
X127587564Y-139892167D02*
X127530139Y-139922674D01*
X127530139Y-139922674D02*
X127474477Y-139943657D01*
X127474477Y-139943657D02*
X127330131Y-139980548D01*
X127330131Y-139980548D02*
X127190130Y-139986215D01*
X127190130Y-139986215D02*
X127096093Y-139974895D01*
X127096093Y-139974895D02*
X126978855Y-139940576D01*
X126978855Y-139940576D02*
X126886903Y-139883822D01*
X126886903Y-139883822D02*
X126842361Y-139833587D01*
X126842361Y-139833587D02*
X126825314Y-139800274D01*
X126825314Y-139800274D02*
X126814508Y-139756934D01*
X126814508Y-139756934D02*
X126808904Y-139694545D01*
X126808904Y-139694545D02*
X126807462Y-139604083D01*
X126807462Y-139604083D02*
X126808108Y-139536235D01*
X126808108Y-139536235D02*
X126810527Y-139437283D01*
X126810527Y-139437283D02*
X126814398Y-139352323D01*
X126814398Y-139352323D02*
X126819157Y-139291286D01*
X126819157Y-139291286D02*
X126823496Y-139265584D01*
X126823496Y-139265584D02*
X126826200Y-139207482D01*
X126826200Y-139207482D02*
X126802274Y-139142278D01*
X126802274Y-139142278D02*
X126759990Y-139086823D01*
X126759990Y-139086823D02*
X126723959Y-139062853D01*
X126723959Y-139062853D02*
X126676667Y-139038752D01*
X126676667Y-139038752D02*
X126664907Y-139019677D01*
X126664907Y-139019677D02*
X126690059Y-139005205D01*
X126690059Y-139005205D02*
X126753505Y-138994912D01*
X126753505Y-138994912D02*
X126856627Y-138988375D01*
X126856627Y-138988375D02*
X126976158Y-138985458D01*
X126976158Y-138985458D02*
X127094924Y-138984317D01*
X127094924Y-138984317D02*
X127177711Y-138985068D01*
X127177711Y-138985068D02*
X127177711Y-138985068D01*
G36*
X127177711Y-138985068D02*
G01*
X127230853Y-138988381D01*
X127260687Y-138994928D01*
X127273549Y-139005381D01*
X127275876Y-139017208D01*
X127258841Y-139051797D01*
X127217885Y-139085873D01*
X127216332Y-139086768D01*
X127156555Y-139134689D01*
X127116481Y-139202470D01*
X127094289Y-139295965D01*
X127088158Y-139421028D01*
X127090286Y-139491970D01*
X127098706Y-139607919D01*
X127113677Y-139688231D01*
X127139412Y-139739538D01*
X127180126Y-139768472D01*
X127240031Y-139781663D01*
X127276010Y-139784311D01*
X127360504Y-139786937D01*
X127414949Y-139783145D01*
X127451446Y-139770454D01*
X127482095Y-139746382D01*
X127487676Y-139740898D01*
X127504926Y-139719871D01*
X127516769Y-139692230D01*
X127524200Y-139650279D01*
X127528213Y-139586325D01*
X127529803Y-139492673D01*
X127530010Y-139413449D01*
X127530010Y-139128332D01*
X127466510Y-139081385D01*
X127420451Y-139043349D01*
X127404120Y-139016908D01*
X127420269Y-139000470D01*
X127471653Y-138992442D01*
X127561024Y-138991232D01*
X127619968Y-138992660D01*
X127723642Y-138997310D01*
X127791247Y-139004210D01*
X127829028Y-139014397D01*
X127843233Y-139028905D01*
X127843422Y-139029695D01*
X127831420Y-139059163D01*
X127806357Y-139073773D01*
X127772098Y-139091645D01*
X127746267Y-139124398D01*
X127727258Y-139177882D01*
X127713464Y-139257948D01*
X127703280Y-139370444D01*
X127697509Y-139470213D01*
X127688707Y-139612681D01*
X127676443Y-139719464D01*
X127657585Y-139797208D01*
X127629003Y-139852560D01*
X127587564Y-139892167D01*
X127530139Y-139922674D01*
X127474477Y-139943657D01*
X127330131Y-139980548D01*
X127190130Y-139986215D01*
X127096093Y-139974895D01*
X126978855Y-139940576D01*
X126886903Y-139883822D01*
X126842361Y-139833587D01*
X126825314Y-139800274D01*
X126814508Y-139756934D01*
X126808904Y-139694545D01*
X126807462Y-139604083D01*
X126808108Y-139536235D01*
X126810527Y-139437283D01*
X126814398Y-139352323D01*
X126819157Y-139291286D01*
X126823496Y-139265584D01*
X126826200Y-139207482D01*
X126802274Y-139142278D01*
X126759990Y-139086823D01*
X126723959Y-139062853D01*
X126676667Y-139038752D01*
X126664907Y-139019677D01*
X126690059Y-139005205D01*
X126753505Y-138994912D01*
X126856627Y-138988375D01*
X126976158Y-138985458D01*
X127094924Y-138984317D01*
X127177711Y-138985068D01*
G37*
X127177711Y-138985068D02*
X127230853Y-138988381D01*
X127260687Y-138994928D01*
X127273549Y-139005381D01*
X127275876Y-139017208D01*
X127258841Y-139051797D01*
X127217885Y-139085873D01*
X127216332Y-139086768D01*
X127156555Y-139134689D01*
X127116481Y-139202470D01*
X127094289Y-139295965D01*
X127088158Y-139421028D01*
X127090286Y-139491970D01*
X127098706Y-139607919D01*
X127113677Y-139688231D01*
X127139412Y-139739538D01*
X127180126Y-139768472D01*
X127240031Y-139781663D01*
X127276010Y-139784311D01*
X127360504Y-139786937D01*
X127414949Y-139783145D01*
X127451446Y-139770454D01*
X127482095Y-139746382D01*
X127487676Y-139740898D01*
X127504926Y-139719871D01*
X127516769Y-139692230D01*
X127524200Y-139650279D01*
X127528213Y-139586325D01*
X127529803Y-139492673D01*
X127530010Y-139413449D01*
X127530010Y-139128332D01*
X127466510Y-139081385D01*
X127420451Y-139043349D01*
X127404120Y-139016908D01*
X127420269Y-139000470D01*
X127471653Y-138992442D01*
X127561024Y-138991232D01*
X127619968Y-138992660D01*
X127723642Y-138997310D01*
X127791247Y-139004210D01*
X127829028Y-139014397D01*
X127843233Y-139028905D01*
X127843422Y-139029695D01*
X127831420Y-139059163D01*
X127806357Y-139073773D01*
X127772098Y-139091645D01*
X127746267Y-139124398D01*
X127727258Y-139177882D01*
X127713464Y-139257948D01*
X127703280Y-139370444D01*
X127697509Y-139470213D01*
X127688707Y-139612681D01*
X127676443Y-139719464D01*
X127657585Y-139797208D01*
X127629003Y-139852560D01*
X127587564Y-139892167D01*
X127530139Y-139922674D01*
X127474477Y-139943657D01*
X127330131Y-139980548D01*
X127190130Y-139986215D01*
X127096093Y-139974895D01*
X126978855Y-139940576D01*
X126886903Y-139883822D01*
X126842361Y-139833587D01*
X126825314Y-139800274D01*
X126814508Y-139756934D01*
X126808904Y-139694545D01*
X126807462Y-139604083D01*
X126808108Y-139536235D01*
X126810527Y-139437283D01*
X126814398Y-139352323D01*
X126819157Y-139291286D01*
X126823496Y-139265584D01*
X126826200Y-139207482D01*
X126802274Y-139142278D01*
X126759990Y-139086823D01*
X126723959Y-139062853D01*
X126676667Y-139038752D01*
X126664907Y-139019677D01*
X126690059Y-139005205D01*
X126753505Y-138994912D01*
X126856627Y-138988375D01*
X126976158Y-138985458D01*
X127094924Y-138984317D01*
X127177711Y-138985068D01*
X116749829Y-138678848D02*
X116843417Y-138686797D01*
X116843417Y-138686797D02*
X116915989Y-138698323D01*
X116915989Y-138698323D02*
X116936093Y-138703719D01*
X116936093Y-138703719D02*
X117007262Y-138720137D01*
X117007262Y-138720137D02*
X117095199Y-138731049D01*
X117095199Y-138731049D02*
X117143344Y-138733408D01*
X117143344Y-138733408D02*
X117213210Y-138736058D01*
X117213210Y-138736058D02*
X117251990Y-138744495D01*
X117251990Y-138744495D02*
X117270909Y-138763127D01*
X117270909Y-138763127D02*
X117278867Y-138786646D01*
X117278867Y-138786646D02*
X117279931Y-138842804D01*
X117279931Y-138842804D02*
X117264589Y-138903256D01*
X117264589Y-138903256D02*
X117240829Y-138963909D01*
X117240829Y-138963909D02*
X117213196Y-139039668D01*
X117213196Y-139039668D02*
X117203149Y-139068573D01*
X117203149Y-139068573D02*
X117180572Y-139128239D01*
X117180572Y-139128239D02*
X117158295Y-139157878D01*
X117158295Y-139157878D02*
X117124435Y-139168008D01*
X117124435Y-139168008D02*
X117089551Y-139169115D01*
X117089551Y-139169115D02*
X117037588Y-139166602D01*
X117037588Y-139166602D02*
X117015346Y-139150836D01*
X117015346Y-139150836D02*
X117010247Y-139110234D01*
X117010247Y-139110234D02*
X117010176Y-139096033D01*
X117010176Y-139096033D02*
X117000523Y-139025730D01*
X117000523Y-139025730D02*
X116977031Y-138953345D01*
X116977031Y-138953345D02*
X116974506Y-138947866D01*
X116974506Y-138947866D02*
X116945183Y-138898012D01*
X116945183Y-138898012D02*
X116910540Y-138876994D01*
X116910540Y-138876994D02*
X116862323Y-138873065D01*
X116862323Y-138873065D02*
X116805856Y-138867765D01*
X116805856Y-138867765D02*
X116767985Y-138854781D01*
X116767985Y-138854781D02*
X116765275Y-138852530D01*
X116765275Y-138852530D02*
X116731113Y-138844172D01*
X116731113Y-138844172D02*
X116672456Y-138851719D01*
X116672456Y-138851719D02*
X116602235Y-138871290D01*
X116602235Y-138871290D02*
X116533380Y-138899003D01*
X116533380Y-138899003D02*
X116478820Y-138930979D01*
X116478820Y-138930979D02*
X116465417Y-138942536D01*
X116465417Y-138942536D02*
X116425350Y-139004819D01*
X116425350Y-139004819D02*
X116392985Y-139097016D01*
X116392985Y-139097016D02*
X116370100Y-139207127D01*
X116370100Y-139207127D02*
X116358472Y-139323149D01*
X116358472Y-139323149D02*
X116359880Y-139433081D01*
X116359880Y-139433081D02*
X116376102Y-139524920D01*
X116376102Y-139524920D02*
X116378173Y-139531365D01*
X116378173Y-139531365D02*
X116406896Y-139598411D01*
X116406896Y-139598411D02*
X116447614Y-139651336D01*
X116447614Y-139651336D02*
X116510381Y-139700747D01*
X116510381Y-139700747D02*
X116577432Y-139741569D01*
X116577432Y-139741569D02*
X116696905Y-139792185D01*
X116696905Y-139792185D02*
X116806892Y-139802191D01*
X116806892Y-139802191D02*
X116901495Y-139774121D01*
X116901495Y-139774121D02*
X116955077Y-139733218D01*
X116955077Y-139733218D02*
X117008254Y-139672089D01*
X117008254Y-139672089D02*
X117050843Y-139604925D01*
X117050843Y-139604925D02*
X117072660Y-139545920D01*
X117072660Y-139545920D02*
X117073676Y-139534130D01*
X117073676Y-139534130D02*
X117090911Y-139485885D01*
X117090911Y-139485885D02*
X117135211Y-139461768D01*
X117135211Y-139461768D02*
X117195475Y-139467600D01*
X117195475Y-139467600D02*
X117198495Y-139468701D01*
X117198495Y-139468701D02*
X117222688Y-139479716D01*
X117222688Y-139479716D02*
X117236871Y-139496394D01*
X117236871Y-139496394D02*
X117242736Y-139527856D01*
X117242736Y-139527856D02*
X117241970Y-139583222D01*
X117241970Y-139583222D02*
X117236262Y-139671613D01*
X117236262Y-139671613D02*
X117236209Y-139672368D01*
X117236209Y-139672368D02*
X117226622Y-139773091D01*
X117226622Y-139773091D02*
X117213875Y-139838287D01*
X117213875Y-139838287D02*
X117196427Y-139874731D01*
X117196427Y-139874731D02*
X117188434Y-139882312D01*
X117188434Y-139882312D02*
X117130634Y-139908642D01*
X117130634Y-139908642D02*
X117041017Y-139930887D01*
X117041017Y-139930887D02*
X116929975Y-139948231D01*
X116929975Y-139948231D02*
X116807897Y-139959859D01*
X116807897Y-139959859D02*
X116685176Y-139964954D01*
X116685176Y-139964954D02*
X116572202Y-139962700D01*
X116572202Y-139962700D02*
X116479365Y-139952282D01*
X116479365Y-139952282D02*
X116436493Y-139941370D01*
X116436493Y-139941370D02*
X116367980Y-139907896D01*
X116367980Y-139907896D02*
X116283691Y-139853578D01*
X116283691Y-139853578D02*
X116196876Y-139788390D01*
X116196876Y-139788390D02*
X116120787Y-139722301D01*
X116120787Y-139722301D02*
X116068674Y-139665283D01*
X116068674Y-139665283D02*
X116067585Y-139663770D01*
X116067585Y-139663770D02*
X116047681Y-139629180D01*
X116047681Y-139629180D02*
X116034295Y-139585713D01*
X116034295Y-139585713D02*
X116025863Y-139523936D01*
X116025863Y-139523936D02*
X116020821Y-139434416D01*
X116020821Y-139434416D02*
X116018939Y-139370482D01*
X116018939Y-139370482D02*
X116019138Y-139230995D01*
X116019138Y-139230995D02*
X116026999Y-139124419D01*
X116026999Y-139124419D02*
X116040779Y-139059219D01*
X116040779Y-139059219D02*
X116092312Y-138959916D01*
X116092312Y-138959916D02*
X116172123Y-138861239D01*
X116172123Y-138861239D02*
X116268094Y-138776467D01*
X116268094Y-138776467D02*
X116339445Y-138731978D01*
X116339445Y-138731978D02*
X116398577Y-138704735D01*
X116398577Y-138704735D02*
X116453958Y-138687991D01*
X116453958Y-138687991D02*
X116519219Y-138679290D01*
X116519219Y-138679290D02*
X116607988Y-138676175D01*
X116607988Y-138676175D02*
X116650343Y-138675945D01*
X116650343Y-138675945D02*
X116749829Y-138678848D01*
X116749829Y-138678848D02*
X116749829Y-138678848D01*
G36*
X116749829Y-138678848D02*
G01*
X116843417Y-138686797D01*
X116915989Y-138698323D01*
X116936093Y-138703719D01*
X117007262Y-138720137D01*
X117095199Y-138731049D01*
X117143344Y-138733408D01*
X117213210Y-138736058D01*
X117251990Y-138744495D01*
X117270909Y-138763127D01*
X117278867Y-138786646D01*
X117279931Y-138842804D01*
X117264589Y-138903256D01*
X117240829Y-138963909D01*
X117213196Y-139039668D01*
X117203149Y-139068573D01*
X117180572Y-139128239D01*
X117158295Y-139157878D01*
X117124435Y-139168008D01*
X117089551Y-139169115D01*
X117037588Y-139166602D01*
X117015346Y-139150836D01*
X117010247Y-139110234D01*
X117010176Y-139096033D01*
X117000523Y-139025730D01*
X116977031Y-138953345D01*
X116974506Y-138947866D01*
X116945183Y-138898012D01*
X116910540Y-138876994D01*
X116862323Y-138873065D01*
X116805856Y-138867765D01*
X116767985Y-138854781D01*
X116765275Y-138852530D01*
X116731113Y-138844172D01*
X116672456Y-138851719D01*
X116602235Y-138871290D01*
X116533380Y-138899003D01*
X116478820Y-138930979D01*
X116465417Y-138942536D01*
X116425350Y-139004819D01*
X116392985Y-139097016D01*
X116370100Y-139207127D01*
X116358472Y-139323149D01*
X116359880Y-139433081D01*
X116376102Y-139524920D01*
X116378173Y-139531365D01*
X116406896Y-139598411D01*
X116447614Y-139651336D01*
X116510381Y-139700747D01*
X116577432Y-139741569D01*
X116696905Y-139792185D01*
X116806892Y-139802191D01*
X116901495Y-139774121D01*
X116955077Y-139733218D01*
X117008254Y-139672089D01*
X117050843Y-139604925D01*
X117072660Y-139545920D01*
X117073676Y-139534130D01*
X117090911Y-139485885D01*
X117135211Y-139461768D01*
X117195475Y-139467600D01*
X117198495Y-139468701D01*
X117222688Y-139479716D01*
X117236871Y-139496394D01*
X117242736Y-139527856D01*
X117241970Y-139583222D01*
X117236262Y-139671613D01*
X117236209Y-139672368D01*
X117226622Y-139773091D01*
X117213875Y-139838287D01*
X117196427Y-139874731D01*
X117188434Y-139882312D01*
X117130634Y-139908642D01*
X117041017Y-139930887D01*
X116929975Y-139948231D01*
X116807897Y-139959859D01*
X116685176Y-139964954D01*
X116572202Y-139962700D01*
X116479365Y-139952282D01*
X116436493Y-139941370D01*
X116367980Y-139907896D01*
X116283691Y-139853578D01*
X116196876Y-139788390D01*
X116120787Y-139722301D01*
X116068674Y-139665283D01*
X116067585Y-139663770D01*
X116047681Y-139629180D01*
X116034295Y-139585713D01*
X116025863Y-139523936D01*
X116020821Y-139434416D01*
X116018939Y-139370482D01*
X116019138Y-139230995D01*
X116026999Y-139124419D01*
X116040779Y-139059219D01*
X116092312Y-138959916D01*
X116172123Y-138861239D01*
X116268094Y-138776467D01*
X116339445Y-138731978D01*
X116398577Y-138704735D01*
X116453958Y-138687991D01*
X116519219Y-138679290D01*
X116607988Y-138676175D01*
X116650343Y-138675945D01*
X116749829Y-138678848D01*
G37*
X116749829Y-138678848D02*
X116843417Y-138686797D01*
X116915989Y-138698323D01*
X116936093Y-138703719D01*
X117007262Y-138720137D01*
X117095199Y-138731049D01*
X117143344Y-138733408D01*
X117213210Y-138736058D01*
X117251990Y-138744495D01*
X117270909Y-138763127D01*
X117278867Y-138786646D01*
X117279931Y-138842804D01*
X117264589Y-138903256D01*
X117240829Y-138963909D01*
X117213196Y-139039668D01*
X117203149Y-139068573D01*
X117180572Y-139128239D01*
X117158295Y-139157878D01*
X117124435Y-139168008D01*
X117089551Y-139169115D01*
X117037588Y-139166602D01*
X117015346Y-139150836D01*
X117010247Y-139110234D01*
X117010176Y-139096033D01*
X117000523Y-139025730D01*
X116977031Y-138953345D01*
X116974506Y-138947866D01*
X116945183Y-138898012D01*
X116910540Y-138876994D01*
X116862323Y-138873065D01*
X116805856Y-138867765D01*
X116767985Y-138854781D01*
X116765275Y-138852530D01*
X116731113Y-138844172D01*
X116672456Y-138851719D01*
X116602235Y-138871290D01*
X116533380Y-138899003D01*
X116478820Y-138930979D01*
X116465417Y-138942536D01*
X116425350Y-139004819D01*
X116392985Y-139097016D01*
X116370100Y-139207127D01*
X116358472Y-139323149D01*
X116359880Y-139433081D01*
X116376102Y-139524920D01*
X116378173Y-139531365D01*
X116406896Y-139598411D01*
X116447614Y-139651336D01*
X116510381Y-139700747D01*
X116577432Y-139741569D01*
X116696905Y-139792185D01*
X116806892Y-139802191D01*
X116901495Y-139774121D01*
X116955077Y-139733218D01*
X117008254Y-139672089D01*
X117050843Y-139604925D01*
X117072660Y-139545920D01*
X117073676Y-139534130D01*
X117090911Y-139485885D01*
X117135211Y-139461768D01*
X117195475Y-139467600D01*
X117198495Y-139468701D01*
X117222688Y-139479716D01*
X117236871Y-139496394D01*
X117242736Y-139527856D01*
X117241970Y-139583222D01*
X117236262Y-139671613D01*
X117236209Y-139672368D01*
X117226622Y-139773091D01*
X117213875Y-139838287D01*
X117196427Y-139874731D01*
X117188434Y-139882312D01*
X117130634Y-139908642D01*
X117041017Y-139930887D01*
X116929975Y-139948231D01*
X116807897Y-139959859D01*
X116685176Y-139964954D01*
X116572202Y-139962700D01*
X116479365Y-139952282D01*
X116436493Y-139941370D01*
X116367980Y-139907896D01*
X116283691Y-139853578D01*
X116196876Y-139788390D01*
X116120787Y-139722301D01*
X116068674Y-139665283D01*
X116067585Y-139663770D01*
X116047681Y-139629180D01*
X116034295Y-139585713D01*
X116025863Y-139523936D01*
X116020821Y-139434416D01*
X116018939Y-139370482D01*
X116019138Y-139230995D01*
X116026999Y-139124419D01*
X116040779Y-139059219D01*
X116092312Y-138959916D01*
X116172123Y-138861239D01*
X116268094Y-138776467D01*
X116339445Y-138731978D01*
X116398577Y-138704735D01*
X116453958Y-138687991D01*
X116519219Y-138679290D01*
X116607988Y-138676175D01*
X116650343Y-138675945D01*
X116749829Y-138678848D01*
X130576286Y-138973126D02*
X130696618Y-138978606D01*
X130696618Y-138978606D02*
X130819538Y-138989654D01*
X130819538Y-138989654D02*
X130838441Y-138991891D01*
X130838441Y-138991891D02*
X130906778Y-139007784D01*
X130906778Y-139007784D02*
X130934090Y-139031645D01*
X130934090Y-139031645D02*
X130920217Y-139060390D01*
X130920217Y-139060390D02*
X130864997Y-139090934D01*
X130864997Y-139090934D02*
X130843996Y-139098739D01*
X130843996Y-139098739D02*
X130779073Y-139123193D01*
X130779073Y-139123193D02*
X130734072Y-139149123D01*
X130734072Y-139149123D02*
X130705635Y-139184258D01*
X130705635Y-139184258D02*
X130690399Y-139236326D01*
X130690399Y-139236326D02*
X130685006Y-139313054D01*
X130685006Y-139313054D02*
X130686093Y-139422170D01*
X130686093Y-139422170D02*
X130687099Y-139459526D01*
X130687099Y-139459526D02*
X130691999Y-139584380D01*
X130691999Y-139584380D02*
X130700875Y-139673053D01*
X130700875Y-139673053D02*
X130717310Y-139731697D01*
X130717310Y-139731697D02*
X130744885Y-139766461D01*
X130744885Y-139766461D02*
X130787183Y-139783498D01*
X130787183Y-139783498D02*
X130847788Y-139788958D01*
X130847788Y-139788958D02*
X130879156Y-139789279D01*
X130879156Y-139789279D02*
X130974528Y-139783009D01*
X130974528Y-139783009D02*
X131040658Y-139760236D01*
X131040658Y-139760236D02*
X131089296Y-139715019D01*
X131089296Y-139715019D02*
X131118454Y-139668275D01*
X131118454Y-139668275D02*
X131152391Y-139620393D01*
X131152391Y-139620393D02*
X131186723Y-139594328D01*
X131186723Y-139594328D02*
X131194888Y-139592732D01*
X131194888Y-139592732D02*
X131211439Y-139597461D01*
X131211439Y-139597461D02*
X131221673Y-139616688D01*
X131221673Y-139616688D02*
X131226780Y-139657976D01*
X131226780Y-139657976D02*
X131227951Y-139728884D01*
X131227951Y-139728884D02*
X131227116Y-139797357D01*
X131227116Y-139797357D02*
X131222160Y-139909488D01*
X131222160Y-139909488D02*
X131211564Y-139981192D01*
X131211564Y-139981192D02*
X131194876Y-140014058D01*
X131194876Y-140014058D02*
X131171644Y-140009673D01*
X131171644Y-140009673D02*
X131167669Y-140006002D01*
X131167669Y-140006002D02*
X131144110Y-140002112D01*
X131144110Y-140002112D02*
X131084796Y-139997653D01*
X131084796Y-139997653D02*
X130996296Y-139992964D01*
X130996296Y-139992964D02*
X130885177Y-139988385D01*
X130885177Y-139988385D02*
X130758009Y-139984256D01*
X130758009Y-139984256D02*
X130735075Y-139983619D01*
X130735075Y-139983619D02*
X130603689Y-139979557D01*
X130603689Y-139979557D02*
X130485215Y-139974957D01*
X130485215Y-139974957D02*
X130386765Y-139970170D01*
X130386765Y-139970170D02*
X130315450Y-139965549D01*
X130315450Y-139965549D02*
X130278383Y-139961443D01*
X130278383Y-139961443D02*
X130276385Y-139960946D01*
X130276385Y-139960946D02*
X130242196Y-139936683D01*
X130242196Y-139936683D02*
X130241325Y-139903382D01*
X130241325Y-139903382D02*
X130270307Y-139872960D01*
X130270307Y-139872960D02*
X130305757Y-139859907D01*
X130305757Y-139859907D02*
X130369338Y-139834237D01*
X130369338Y-139834237D02*
X130417629Y-139797574D01*
X130417629Y-139797574D02*
X130435471Y-139775737D01*
X130435471Y-139775737D02*
X130447712Y-139750344D01*
X130447712Y-139750344D02*
X130455202Y-139713836D01*
X130455202Y-139713836D02*
X130458791Y-139658657D01*
X130458791Y-139658657D02*
X130459330Y-139577248D01*
X130459330Y-139577248D02*
X130457667Y-139462051D01*
X130457667Y-139462051D02*
X130457338Y-139444435D01*
X130457338Y-139444435D02*
X130454215Y-139334830D01*
X130454215Y-139334830D02*
X130449544Y-139240528D01*
X130449544Y-139240528D02*
X130443872Y-139169530D01*
X130443872Y-139169530D02*
X130437748Y-139129835D01*
X130437748Y-139129835D02*
X130435425Y-139124631D01*
X130435425Y-139124631D02*
X130405007Y-139112227D01*
X130405007Y-139112227D02*
X130352187Y-139102804D01*
X130352187Y-139102804D02*
X130345350Y-139102116D01*
X130345350Y-139102116D02*
X130286309Y-139085184D01*
X130286309Y-139085184D02*
X130263690Y-139050705D01*
X130263690Y-139050705D02*
X130278751Y-139003592D01*
X130278751Y-139003592D02*
X130309774Y-138988448D01*
X130309774Y-138988448D02*
X130374968Y-138978212D01*
X130374968Y-138978212D02*
X130466438Y-138973050D01*
X130466438Y-138973050D02*
X130576286Y-138973126D01*
X130576286Y-138973126D02*
X130576286Y-138973126D01*
G36*
X130576286Y-138973126D02*
G01*
X130696618Y-138978606D01*
X130819538Y-138989654D01*
X130838441Y-138991891D01*
X130906778Y-139007784D01*
X130934090Y-139031645D01*
X130920217Y-139060390D01*
X130864997Y-139090934D01*
X130843996Y-139098739D01*
X130779073Y-139123193D01*
X130734072Y-139149123D01*
X130705635Y-139184258D01*
X130690399Y-139236326D01*
X130685006Y-139313054D01*
X130686093Y-139422170D01*
X130687099Y-139459526D01*
X130691999Y-139584380D01*
X130700875Y-139673053D01*
X130717310Y-139731697D01*
X130744885Y-139766461D01*
X130787183Y-139783498D01*
X130847788Y-139788958D01*
X130879156Y-139789279D01*
X130974528Y-139783009D01*
X131040658Y-139760236D01*
X131089296Y-139715019D01*
X131118454Y-139668275D01*
X131152391Y-139620393D01*
X131186723Y-139594328D01*
X131194888Y-139592732D01*
X131211439Y-139597461D01*
X131221673Y-139616688D01*
X131226780Y-139657976D01*
X131227951Y-139728884D01*
X131227116Y-139797357D01*
X131222160Y-139909488D01*
X131211564Y-139981192D01*
X131194876Y-140014058D01*
X131171644Y-140009673D01*
X131167669Y-140006002D01*
X131144110Y-140002112D01*
X131084796Y-139997653D01*
X130996296Y-139992964D01*
X130885177Y-139988385D01*
X130758009Y-139984256D01*
X130735075Y-139983619D01*
X130603689Y-139979557D01*
X130485215Y-139974957D01*
X130386765Y-139970170D01*
X130315450Y-139965549D01*
X130278383Y-139961443D01*
X130276385Y-139960946D01*
X130242196Y-139936683D01*
X130241325Y-139903382D01*
X130270307Y-139872960D01*
X130305757Y-139859907D01*
X130369338Y-139834237D01*
X130417629Y-139797574D01*
X130435471Y-139775737D01*
X130447712Y-139750344D01*
X130455202Y-139713836D01*
X130458791Y-139658657D01*
X130459330Y-139577248D01*
X130457667Y-139462051D01*
X130457338Y-139444435D01*
X130454215Y-139334830D01*
X130449544Y-139240528D01*
X130443872Y-139169530D01*
X130437748Y-139129835D01*
X130435425Y-139124631D01*
X130405007Y-139112227D01*
X130352187Y-139102804D01*
X130345350Y-139102116D01*
X130286309Y-139085184D01*
X130263690Y-139050705D01*
X130278751Y-139003592D01*
X130309774Y-138988448D01*
X130374968Y-138978212D01*
X130466438Y-138973050D01*
X130576286Y-138973126D01*
G37*
X130576286Y-138973126D02*
X130696618Y-138978606D01*
X130819538Y-138989654D01*
X130838441Y-138991891D01*
X130906778Y-139007784D01*
X130934090Y-139031645D01*
X130920217Y-139060390D01*
X130864997Y-139090934D01*
X130843996Y-139098739D01*
X130779073Y-139123193D01*
X130734072Y-139149123D01*
X130705635Y-139184258D01*
X130690399Y-139236326D01*
X130685006Y-139313054D01*
X130686093Y-139422170D01*
X130687099Y-139459526D01*
X130691999Y-139584380D01*
X130700875Y-139673053D01*
X130717310Y-139731697D01*
X130744885Y-139766461D01*
X130787183Y-139783498D01*
X130847788Y-139788958D01*
X130879156Y-139789279D01*
X130974528Y-139783009D01*
X131040658Y-139760236D01*
X131089296Y-139715019D01*
X131118454Y-139668275D01*
X131152391Y-139620393D01*
X131186723Y-139594328D01*
X131194888Y-139592732D01*
X131211439Y-139597461D01*
X131221673Y-139616688D01*
X131226780Y-139657976D01*
X131227951Y-139728884D01*
X131227116Y-139797357D01*
X131222160Y-139909488D01*
X131211564Y-139981192D01*
X131194876Y-140014058D01*
X131171644Y-140009673D01*
X131167669Y-140006002D01*
X131144110Y-140002112D01*
X131084796Y-139997653D01*
X130996296Y-139992964D01*
X130885177Y-139988385D01*
X130758009Y-139984256D01*
X130735075Y-139983619D01*
X130603689Y-139979557D01*
X130485215Y-139974957D01*
X130386765Y-139970170D01*
X130315450Y-139965549D01*
X130278383Y-139961443D01*
X130276385Y-139960946D01*
X130242196Y-139936683D01*
X130241325Y-139903382D01*
X130270307Y-139872960D01*
X130305757Y-139859907D01*
X130369338Y-139834237D01*
X130417629Y-139797574D01*
X130435471Y-139775737D01*
X130447712Y-139750344D01*
X130455202Y-139713836D01*
X130458791Y-139658657D01*
X130459330Y-139577248D01*
X130457667Y-139462051D01*
X130457338Y-139444435D01*
X130454215Y-139334830D01*
X130449544Y-139240528D01*
X130443872Y-139169530D01*
X130437748Y-139129835D01*
X130435425Y-139124631D01*
X130405007Y-139112227D01*
X130352187Y-139102804D01*
X130345350Y-139102116D01*
X130286309Y-139085184D01*
X130263690Y-139050705D01*
X130278751Y-139003592D01*
X130309774Y-138988448D01*
X130374968Y-138978212D01*
X130466438Y-138973050D01*
X130576286Y-138973126D01*
X128580310Y-138971583D02*
X128653082Y-138974911D01*
X128653082Y-138974911D02*
X128708506Y-138981629D01*
X128708506Y-138981629D02*
X128754908Y-138992594D01*
X128754908Y-138992594D02*
X128800615Y-139008661D01*
X128800615Y-139008661D02*
X128831476Y-139021235D01*
X128831476Y-139021235D02*
X128931426Y-139078029D01*
X128931426Y-139078029D02*
X128991609Y-139146308D01*
X128991609Y-139146308D02*
X129011448Y-139222807D01*
X129011448Y-139222807D02*
X128990362Y-139304265D01*
X128990362Y-139304265D02*
X128927772Y-139387419D01*
X128927772Y-139387419D02*
X128900901Y-139412134D01*
X128900901Y-139412134D02*
X128835881Y-139460765D01*
X128835881Y-139460765D02*
X128766602Y-139495038D01*
X128766602Y-139495038D02*
X128681161Y-139519206D01*
X128681161Y-139519206D02*
X128567660Y-139537521D01*
X128567660Y-139537521D02*
X128540718Y-139540836D01*
X128540718Y-139540836D02*
X128472178Y-139550456D01*
X128472178Y-139550456D02*
X128435790Y-139562312D01*
X128435790Y-139562312D02*
X128421522Y-139582204D01*
X128421522Y-139582204D02*
X128419299Y-139611045D01*
X128419299Y-139611045D02*
X128428814Y-139697196D01*
X128428814Y-139697196D02*
X128460016Y-139754781D01*
X128460016Y-139754781D02*
X128515459Y-139792965D01*
X128515459Y-139792965D02*
X128575298Y-139825993D01*
X128575298Y-139825993D02*
X128601102Y-139855594D01*
X128601102Y-139855594D02*
X128599504Y-139890108D01*
X128599504Y-139890108D02*
X128597399Y-139895995D01*
X128597399Y-139895995D02*
X128586032Y-139908881D01*
X128586032Y-139908881D02*
X128559337Y-139917631D01*
X128559337Y-139917631D02*
X128510987Y-139922832D01*
X128510987Y-139922832D02*
X128434651Y-139925069D01*
X128434651Y-139925069D02*
X128324002Y-139924927D01*
X128324002Y-139924927D02*
X128288520Y-139924569D01*
X128288520Y-139924569D02*
X128180856Y-139922214D01*
X128180856Y-139922214D02*
X128089093Y-139918045D01*
X128089093Y-139918045D02*
X128021163Y-139912587D01*
X128021163Y-139912587D02*
X127984998Y-139906366D01*
X127984998Y-139906366D02*
X127981377Y-139904219D01*
X127981377Y-139904219D02*
X127984048Y-139873427D01*
X127984048Y-139873427D02*
X128019397Y-139839075D01*
X128019397Y-139839075D02*
X128079214Y-139808573D01*
X128079214Y-139808573D02*
X128092629Y-139803836D01*
X128092629Y-139803836D02*
X128152527Y-139770834D01*
X128152527Y-139770834D02*
X128174478Y-139733962D01*
X128174478Y-139733962D02*
X128183040Y-139671075D01*
X128183040Y-139671075D02*
X128189941Y-139581063D01*
X128189941Y-139581063D02*
X128194811Y-139476569D01*
X128194811Y-139476569D02*
X128197281Y-139370234D01*
X128197281Y-139370234D02*
X128196982Y-139274700D01*
X128196982Y-139274700D02*
X128196756Y-139269940D01*
X128196756Y-139269940D02*
X128427123Y-139269940D01*
X128427123Y-139269940D02*
X128427647Y-139349909D01*
X128427647Y-139349909D02*
X128431197Y-139410618D01*
X128431197Y-139410618D02*
X128437075Y-139442209D01*
X128437075Y-139442209D02*
X128439467Y-139444565D01*
X128439467Y-139444565D02*
X128466842Y-139440688D01*
X128466842Y-139440688D02*
X128522076Y-139430676D01*
X128522076Y-139430676D02*
X128573096Y-139420704D01*
X128573096Y-139420704D02*
X128643808Y-139403621D01*
X128643808Y-139403621D02*
X128686077Y-139382614D01*
X128686077Y-139382614D02*
X128713540Y-139349134D01*
X128713540Y-139349134D02*
X128726105Y-139324782D01*
X128726105Y-139324782D02*
X128746361Y-139275685D01*
X128746361Y-139275685D02*
X128746526Y-139239725D01*
X128746526Y-139239725D02*
X128724974Y-139195767D01*
X128724974Y-139195767D02*
X128714906Y-139179275D01*
X128714906Y-139179275D02*
X128664819Y-139119746D01*
X128664819Y-139119746D02*
X128601453Y-139090720D01*
X128601453Y-139090720D02*
X128513544Y-139087409D01*
X128513544Y-139087409D02*
X128501313Y-139088464D01*
X128501313Y-139088464D02*
X128429593Y-139095315D01*
X128429593Y-139095315D02*
X128427123Y-139269940D01*
X128427123Y-139269940D02*
X128196756Y-139269940D01*
X128196756Y-139269940D02*
X128193544Y-139202608D01*
X128193544Y-139202608D02*
X128190659Y-139179982D01*
X128190659Y-139179982D02*
X128179970Y-139131203D01*
X128179970Y-139131203D02*
X128163140Y-139104905D01*
X128163140Y-139104905D02*
X128128306Y-139092403D01*
X128128306Y-139092403D02*
X128063608Y-139085013D01*
X128063608Y-139085013D02*
X128060566Y-139084732D01*
X128060566Y-139084732D02*
X127980148Y-139071378D01*
X127980148Y-139071378D02*
X127941256Y-139049995D01*
X127941256Y-139049995D02*
X127943844Y-139020544D01*
X127943844Y-139020544D02*
X127962424Y-139001311D01*
X127962424Y-139001311D02*
X127993792Y-138990008D01*
X127993792Y-138990008D02*
X128058835Y-138981531D01*
X128058835Y-138981531D02*
X128160163Y-138975679D01*
X128160163Y-138975679D02*
X128300390Y-138972252D01*
X128300390Y-138972252D02*
X128349421Y-138971676D01*
X128349421Y-138971676D02*
X128481865Y-138970790D01*
X128481865Y-138970790D02*
X128580310Y-138971583D01*
X128580310Y-138971583D02*
X128580310Y-138971583D01*
G36*
X128190659Y-139179982D02*
G01*
X128179970Y-139131203D01*
X128163140Y-139104905D01*
X128128306Y-139092403D01*
X128063608Y-139085013D01*
X128060566Y-139084732D01*
X127980148Y-139071378D01*
X127941256Y-139049995D01*
X127943844Y-139020544D01*
X127962424Y-139001311D01*
X127993792Y-138990008D01*
X128058835Y-138981531D01*
X128160163Y-138975679D01*
X128300390Y-138972252D01*
X128349421Y-138971676D01*
X128481865Y-138970790D01*
X128580310Y-138971583D01*
X128653082Y-138974911D01*
X128708506Y-138981629D01*
X128754908Y-138992594D01*
X128800615Y-139008661D01*
X128831476Y-139021235D01*
X128931426Y-139078029D01*
X128991609Y-139146308D01*
X129011448Y-139222807D01*
X128990362Y-139304265D01*
X128927772Y-139387419D01*
X128900901Y-139412134D01*
X128835881Y-139460765D01*
X128766602Y-139495038D01*
X128681161Y-139519206D01*
X128567660Y-139537521D01*
X128540718Y-139540836D01*
X128472178Y-139550456D01*
X128435790Y-139562312D01*
X128421522Y-139582204D01*
X128419299Y-139611045D01*
X128428814Y-139697196D01*
X128460016Y-139754781D01*
X128515459Y-139792965D01*
X128575298Y-139825993D01*
X128601102Y-139855594D01*
X128599504Y-139890108D01*
X128597399Y-139895995D01*
X128586032Y-139908881D01*
X128559337Y-139917631D01*
X128510987Y-139922832D01*
X128434651Y-139925069D01*
X128324002Y-139924927D01*
X128288520Y-139924569D01*
X128180856Y-139922214D01*
X128089093Y-139918045D01*
X128021163Y-139912587D01*
X127984998Y-139906366D01*
X127981377Y-139904219D01*
X127984048Y-139873427D01*
X128019397Y-139839075D01*
X128079214Y-139808573D01*
X128092629Y-139803836D01*
X128152527Y-139770834D01*
X128174478Y-139733962D01*
X128183040Y-139671075D01*
X128189941Y-139581063D01*
X128194811Y-139476569D01*
X128197281Y-139370234D01*
X128196982Y-139274700D01*
X128196756Y-139269940D01*
X128427123Y-139269940D01*
X128427647Y-139349909D01*
X128431197Y-139410618D01*
X128437075Y-139442209D01*
X128439467Y-139444565D01*
X128466842Y-139440688D01*
X128522076Y-139430676D01*
X128573096Y-139420704D01*
X128643808Y-139403621D01*
X128686077Y-139382614D01*
X128713540Y-139349134D01*
X128726105Y-139324782D01*
X128746361Y-139275685D01*
X128746526Y-139239725D01*
X128724974Y-139195767D01*
X128714906Y-139179275D01*
X128664819Y-139119746D01*
X128601453Y-139090720D01*
X128513544Y-139087409D01*
X128501313Y-139088464D01*
X128429593Y-139095315D01*
X128427123Y-139269940D01*
X128196756Y-139269940D01*
X128193544Y-139202608D01*
X128190659Y-139179982D01*
G37*
X128190659Y-139179982D02*
X128179970Y-139131203D01*
X128163140Y-139104905D01*
X128128306Y-139092403D01*
X128063608Y-139085013D01*
X128060566Y-139084732D01*
X127980148Y-139071378D01*
X127941256Y-139049995D01*
X127943844Y-139020544D01*
X127962424Y-139001311D01*
X127993792Y-138990008D01*
X128058835Y-138981531D01*
X128160163Y-138975679D01*
X128300390Y-138972252D01*
X128349421Y-138971676D01*
X128481865Y-138970790D01*
X128580310Y-138971583D01*
X128653082Y-138974911D01*
X128708506Y-138981629D01*
X128754908Y-138992594D01*
X128800615Y-139008661D01*
X128831476Y-139021235D01*
X128931426Y-139078029D01*
X128991609Y-139146308D01*
X129011448Y-139222807D01*
X128990362Y-139304265D01*
X128927772Y-139387419D01*
X128900901Y-139412134D01*
X128835881Y-139460765D01*
X128766602Y-139495038D01*
X128681161Y-139519206D01*
X128567660Y-139537521D01*
X128540718Y-139540836D01*
X128472178Y-139550456D01*
X128435790Y-139562312D01*
X128421522Y-139582204D01*
X128419299Y-139611045D01*
X128428814Y-139697196D01*
X128460016Y-139754781D01*
X128515459Y-139792965D01*
X128575298Y-139825993D01*
X128601102Y-139855594D01*
X128599504Y-139890108D01*
X128597399Y-139895995D01*
X128586032Y-139908881D01*
X128559337Y-139917631D01*
X128510987Y-139922832D01*
X128434651Y-139925069D01*
X128324002Y-139924927D01*
X128288520Y-139924569D01*
X128180856Y-139922214D01*
X128089093Y-139918045D01*
X128021163Y-139912587D01*
X127984998Y-139906366D01*
X127981377Y-139904219D01*
X127984048Y-139873427D01*
X128019397Y-139839075D01*
X128079214Y-139808573D01*
X128092629Y-139803836D01*
X128152527Y-139770834D01*
X128174478Y-139733962D01*
X128183040Y-139671075D01*
X128189941Y-139581063D01*
X128194811Y-139476569D01*
X128197281Y-139370234D01*
X128196982Y-139274700D01*
X128196756Y-139269940D01*
X128427123Y-139269940D01*
X128427647Y-139349909D01*
X128431197Y-139410618D01*
X128437075Y-139442209D01*
X128439467Y-139444565D01*
X128466842Y-139440688D01*
X128522076Y-139430676D01*
X128573096Y-139420704D01*
X128643808Y-139403621D01*
X128686077Y-139382614D01*
X128713540Y-139349134D01*
X128726105Y-139324782D01*
X128746361Y-139275685D01*
X128746526Y-139239725D01*
X128724974Y-139195767D01*
X128714906Y-139179275D01*
X128664819Y-139119746D01*
X128601453Y-139090720D01*
X128513544Y-139087409D01*
X128501313Y-139088464D01*
X128429593Y-139095315D01*
X128427123Y-139269940D01*
X128196756Y-139269940D01*
X128193544Y-139202608D01*
X128190659Y-139179982D01*
%TD*%
M02*
