%TF.GenerationSoftware,KiCad,Pcbnew,(6.0.1)*%
%TF.CreationDate,2022-06-23T18:30:01-05:00*%
%TF.ProjectId,lantern-lts,6c616e74-6572-46e2-9d6c-74732e6b6963,rev?*%
%TF.SameCoordinates,Original*%
%TF.FileFunction,Copper,L2,Bot*%
%TF.FilePolarity,Positive*%
%FSLAX46Y46*%
G04 Gerber Fmt 4.6, Leading zero omitted, Abs format (unit mm)*
G04 Created by KiCad (PCBNEW (6.0.1)) date 2022-06-23 18:30:01*
%MOMM*%
%LPD*%
G01*
G04 APERTURE LIST*
%TA.AperFunction,SMDPad,CuDef*%
%ADD10R,3.857800X5.472400*%
%TD*%
%TA.AperFunction,SMDPad,CuDef*%
%ADD11R,3.908600X5.523200*%
%TD*%
%TA.AperFunction,SMDPad,CuDef*%
%ADD12C,16.459512*%
%TD*%
%TA.AperFunction,ComponentPad*%
%ADD13C,6.000000*%
%TD*%
%TA.AperFunction,ComponentPad*%
%ADD14C,0.650000*%
%TD*%
%TA.AperFunction,ComponentPad*%
%ADD15C,1.400000*%
%TD*%
%TA.AperFunction,ComponentPad*%
%ADD16O,1.400000X1.400000*%
%TD*%
%TA.AperFunction,ComponentPad*%
%ADD17R,1.800000X1.800000*%
%TD*%
%TA.AperFunction,ComponentPad*%
%ADD18C,1.800000*%
%TD*%
%TA.AperFunction,ViaPad*%
%ADD19C,0.600000*%
%TD*%
%TA.AperFunction,Conductor*%
%ADD20C,0.250000*%
%TD*%
G04 APERTURE END LIST*
D10*
%TO.P,BT1,1,+*%
%TO.N,Net-(BT1-Pad1)*%
X134841000Y-76276200D03*
D11*
X111031000Y-76276200D03*
D12*
%TO.P,BT1,2,-*%
%TO.N,GND*%
X122936000Y-76276200D03*
%TD*%
D13*
%TO.P,REF\u002A\u002A,*%
%TO.N,*%
X123291600Y-53162200D03*
%TD*%
D14*
%TO.P,SW1,1,A*%
%TO.N,Net-(R1-Pad1)*%
X139064400Y-82321400D03*
%TO.P,SW1,2,B*%
%TO.N,Net-(BT1-Pad1)*%
X139064400Y-83185000D03*
%TO.P,SW1,3,C*%
%TO.N,unconnected-(SW1-Pad3)*%
X139064400Y-84048600D03*
%TD*%
D15*
%TO.P,R1,1*%
%TO.N,Net-(R1-Pad1)*%
X126136400Y-132003800D03*
D16*
%TO.P,R1,2*%
%TO.N,VCC*%
X121056400Y-132003800D03*
%TD*%
D17*
%TO.P,D2,1,K*%
%TO.N,GND*%
X119481600Y-123743800D03*
D18*
%TO.P,D2,2,A*%
%TO.N,VCC*%
X119481600Y-126283800D03*
%TD*%
D17*
%TO.P,D1,1,K*%
%TO.N,GND*%
X128320800Y-123591400D03*
D18*
%TO.P,D1,2,A*%
%TO.N,VCC*%
X128320800Y-126131400D03*
%TD*%
D19*
%TO.N,GND*%
X118237000Y-73685400D03*
X127711200Y-73609200D03*
%TD*%
D20*
%TO.N,Net-(BT1-Pad1)*%
X138763600Y-83185000D02*
X139064400Y-83185000D01*
X134841000Y-79262400D02*
X138763600Y-83185000D01*
X134841000Y-76276200D02*
X134841000Y-79262400D01*
X126624533Y-67721933D02*
X134841000Y-75938400D01*
X111031000Y-75468900D02*
X118777967Y-67721933D01*
X111031000Y-76276200D02*
X111031000Y-75468900D01*
X118777967Y-67721933D02*
X126624533Y-67721933D01*
X134841000Y-75938400D02*
X134841000Y-76276200D01*
%TO.N,GND*%
X120345200Y-73685400D02*
X122936000Y-76276200D01*
X118237000Y-73685400D02*
X120345200Y-73685400D01*
X125603000Y-73609200D02*
X122936000Y-76276200D01*
X127711200Y-73609200D02*
X125603000Y-73609200D01*
%TO.N,Net-(R1-Pad1)*%
X139713911Y-82538511D02*
X139496800Y-82321400D01*
X139713911Y-118426289D02*
X139713911Y-82538511D01*
X139496800Y-82321400D02*
X139064400Y-82321400D01*
X126136400Y-132003800D02*
X139713911Y-118426289D01*
%TO.N,VCC*%
X121056400Y-132003800D02*
X121056400Y-127858600D01*
X121056400Y-127858600D02*
X119481600Y-126283800D01*
X126928800Y-126131400D02*
X121056400Y-132003800D01*
X128320800Y-126131400D02*
X126928800Y-126131400D01*
%TD*%
M02*
