%TF.GenerationSoftware,KiCad,Pcbnew,(6.0.1)*%
%TF.CreationDate,2022-06-23T19:42:35-05:00*%
%TF.ProjectId,torch-lts,746f7263-682d-46c7-9473-2e6b69636164,rev?*%
%TF.SameCoordinates,Original*%
%TF.FileFunction,Profile,NP*%
%FSLAX46Y46*%
G04 Gerber Fmt 4.6, Leading zero omitted, Abs format (unit mm)*
G04 Created by KiCad (PCBNEW (6.0.1)) date 2022-06-23 19:42:35*
%MOMM*%
%LPD*%
G01*
G04 APERTURE LIST*
%TA.AperFunction,Profile*%
%ADD10C,0.100000*%
%TD*%
G04 APERTURE END LIST*
D10*
X92895160Y-50721694D02*
X92518650Y-50751308D01*
X92518650Y-50751308D02*
X92145520Y-50798238D01*
X92145520Y-50798238D02*
X91776190Y-50862053D01*
X91776190Y-50862053D02*
X91411070Y-50942323D01*
X91411070Y-50942323D02*
X91050570Y-51038619D01*
X91050570Y-51038619D02*
X90695110Y-51150509D01*
X90695110Y-51150509D02*
X90345100Y-51277560D01*
X90345100Y-51277560D02*
X90000950Y-51419360D01*
X90000950Y-51419360D02*
X89663070Y-51575450D01*
X89663070Y-51575450D02*
X89331880Y-51745420D01*
X89331880Y-51745420D02*
X89007790Y-51928830D01*
X89007790Y-51928830D02*
X88691210Y-52125260D01*
X88691210Y-52125260D02*
X88082250Y-52555440D01*
X88082250Y-52555440D02*
X87508290Y-53032520D01*
X87508290Y-53032520D02*
X86972640Y-53553060D01*
X86972640Y-53553060D02*
X86478600Y-54113600D01*
X86478600Y-54113600D02*
X86029480Y-54710730D01*
X86029480Y-54710730D02*
X85628570Y-55340980D01*
X85628570Y-55340980D02*
X85447230Y-55667460D01*
X85447230Y-55667460D02*
X85279187Y-56000930D01*
X85279187Y-56000930D02*
X85124847Y-56340970D01*
X85124847Y-56340970D02*
X84984625Y-56687140D01*
X84984625Y-56687140D02*
X84858935Y-57039010D01*
X84858935Y-57039010D02*
X84748190Y-57396150D01*
X84748190Y-57396150D02*
X84652802Y-57758140D01*
X84652802Y-57758140D02*
X84573185Y-58124540D01*
X84573185Y-58124540D02*
X84496026Y-58542020D01*
X84496026Y-58542020D02*
X84436675Y-58964780D01*
X84436675Y-58964780D02*
X84395853Y-59391360D01*
X84395853Y-59391360D02*
X84374281Y-59820260D01*
X84374281Y-59820260D02*
X84372680Y-60250000D01*
X84372680Y-60250000D02*
X84391772Y-60679200D01*
X84391772Y-60679200D02*
X84432278Y-61106200D01*
X84432278Y-61106200D02*
X84494919Y-61529800D01*
X84494919Y-61529800D02*
X84580418Y-61948200D01*
X84580418Y-61948200D02*
X84689495Y-62360200D01*
X84689495Y-62360200D02*
X84822872Y-62764200D01*
X84822872Y-62764200D02*
X84981270Y-63158700D01*
X84981270Y-63158700D02*
X85165411Y-63542300D01*
X85165411Y-63542300D02*
X85376020Y-63913500D01*
X85376020Y-63913500D02*
X85613810Y-64270800D01*
X85613810Y-64270800D02*
X85879500Y-64612800D01*
X85879500Y-64612800D02*
X86550660Y-65447600D01*
X86550660Y-65447600D02*
X87247610Y-66260900D01*
X87247610Y-66260900D02*
X87963290Y-67058400D01*
X87963290Y-67058400D02*
X88690630Y-67846100D01*
X88690630Y-67846100D02*
X90152080Y-69414800D01*
X90152080Y-69414800D02*
X90872050Y-70207500D01*
X90872050Y-70207500D02*
X91575440Y-71013400D01*
X91575440Y-71013400D02*
X97020750Y-77041300D01*
X97020750Y-77041300D02*
X102472650Y-83064100D01*
X102472650Y-83064100D02*
X104256350Y-85121500D01*
X104256350Y-85121500D02*
X106062550Y-87157200D01*
X106062550Y-87157200D02*
X107884550Y-89177800D01*
X107884550Y-89177800D02*
X109715150Y-91189800D01*
X109715150Y-91189800D02*
X113374550Y-95214000D01*
X113374550Y-95214000D02*
X115189450Y-97239100D01*
X115189450Y-97239100D02*
X116985150Y-99281700D01*
X116985150Y-99281700D02*
X117917550Y-100331200D01*
X117917550Y-100331200D02*
X118863850Y-101368700D01*
X118863850Y-101368700D02*
X120776150Y-103426200D01*
X120776150Y-103426200D02*
X122678650Y-105491700D01*
X122678650Y-105491700D02*
X123612650Y-106539100D01*
X123612650Y-106539100D02*
X124527950Y-107602600D01*
X124527950Y-107602600D02*
X124641550Y-108045400D01*
X124641550Y-108045400D02*
X124778350Y-108478200D01*
X124778350Y-108478200D02*
X124936850Y-108901300D01*
X124936850Y-108901300D02*
X125115450Y-109315300D01*
X125115450Y-109315300D02*
X125312550Y-109720500D01*
X125312550Y-109720500D02*
X125526350Y-110117600D01*
X125526350Y-110117600D02*
X125755450Y-110507000D01*
X125755450Y-110507000D02*
X125998050Y-110889100D01*
X125998050Y-110889100D02*
X126517450Y-111633700D01*
X126517450Y-111633700D02*
X127071550Y-112355300D01*
X127071550Y-112355300D02*
X127647550Y-113057600D01*
X127647550Y-113057600D02*
X128232250Y-113744700D01*
X128232250Y-113744700D02*
X130823050Y-116721900D01*
X130823050Y-116721900D02*
X132132450Y-118195800D01*
X132132450Y-118195800D02*
X133461550Y-119642200D01*
X133461550Y-119642200D02*
X134170250Y-120452400D01*
X134170250Y-120452400D02*
X134899950Y-121248200D01*
X134899950Y-121248200D02*
X135608750Y-122058600D01*
X135608750Y-122058600D02*
X135942150Y-122478500D01*
X135942150Y-122478500D02*
X136254550Y-122913100D01*
X136254550Y-122913100D02*
X136091150Y-124179600D01*
X136091150Y-124179600D02*
X135938050Y-125447600D01*
X135938050Y-125447600D02*
X135850650Y-126079800D01*
X135850650Y-126079800D02*
X135748250Y-126709800D01*
X135748250Y-126709800D02*
X135624850Y-127336400D01*
X135624850Y-127336400D02*
X135474750Y-127958800D01*
X135474750Y-127958800D02*
X135332950Y-128608600D01*
X135332950Y-128608600D02*
X135215750Y-129265600D01*
X135215750Y-129265600D02*
X135126450Y-129927900D01*
X135126450Y-129927900D02*
X135067850Y-130593500D01*
X135067850Y-130593500D02*
X135043250Y-131260400D01*
X135043250Y-131260400D02*
X135055650Y-131926600D01*
X135055650Y-131926600D02*
X135108050Y-132590200D01*
X135108050Y-132590200D02*
X135203750Y-133249000D01*
X135203750Y-133249000D02*
X135338150Y-133735700D01*
X135338150Y-133735700D02*
X135486850Y-134217800D01*
X135486850Y-134217800D02*
X135826450Y-135166700D01*
X135826450Y-135166700D02*
X136221250Y-136093000D01*
X136221250Y-136093000D02*
X136669950Y-136994100D01*
X136669950Y-136994100D02*
X137171050Y-137867100D01*
X137171050Y-137867100D02*
X137723150Y-138709200D01*
X137723150Y-138709200D02*
X138017950Y-139117900D01*
X138017950Y-139117900D02*
X138325050Y-139517800D01*
X138325050Y-139517800D02*
X138644150Y-139908600D01*
X138644150Y-139908600D02*
X138975250Y-140290100D01*
X138975250Y-140290100D02*
X139069350Y-140446100D01*
X139069350Y-140446100D02*
X139149450Y-140607700D01*
X139149450Y-140607700D02*
X139275850Y-140944500D01*
X139275850Y-140944500D02*
X139370050Y-141294500D01*
X139370050Y-141294500D02*
X139447650Y-141651700D01*
X139447650Y-141651700D02*
X139524250Y-142010000D01*
X139524250Y-142010000D02*
X139615550Y-142363600D01*
X139615550Y-142363600D02*
X139737250Y-142706300D01*
X139737250Y-142706300D02*
X139904950Y-143032200D01*
X139904950Y-143032200D02*
X139981050Y-143315100D01*
X139981050Y-143315100D02*
X140075550Y-143588100D01*
X140075550Y-143588100D02*
X140187150Y-143851800D01*
X140187150Y-143851800D02*
X140314250Y-144106900D01*
X140314250Y-144106900D02*
X140455450Y-144354000D01*
X140455450Y-144354000D02*
X140609450Y-144593700D01*
X140609450Y-144593700D02*
X140949750Y-145053500D01*
X140949750Y-145053500D02*
X141323650Y-145491400D01*
X141323650Y-145491400D02*
X141719650Y-145912400D01*
X141719650Y-145912400D02*
X142532150Y-146723900D01*
X142532150Y-146723900D02*
X142760950Y-146931900D01*
X142760950Y-146931900D02*
X143004350Y-147113200D01*
X143004350Y-147113200D02*
X143260550Y-147271500D01*
X143260550Y-147271500D02*
X143527350Y-147410400D01*
X143527350Y-147410400D02*
X143802950Y-147533700D01*
X143802950Y-147533700D02*
X144085350Y-147644900D01*
X144085350Y-147644900D02*
X144662250Y-147845900D01*
X144662250Y-147845900D02*
X145242350Y-148042800D01*
X145242350Y-148042800D02*
X145809750Y-148265000D01*
X145809750Y-148265000D02*
X146083650Y-148394800D01*
X146083650Y-148394800D02*
X146348450Y-148541800D01*
X146348450Y-148541800D02*
X146602050Y-148709900D01*
X146602050Y-148709900D02*
X146842650Y-148902600D01*
X146842650Y-148902600D02*
X147447250Y-149262000D01*
X147447250Y-149262000D02*
X148077450Y-149572200D01*
X148077450Y-149572200D02*
X148729350Y-149832000D01*
X148729350Y-149832000D02*
X149399350Y-150039900D01*
X149399350Y-150039900D02*
X150083450Y-150194600D01*
X150083450Y-150194600D02*
X150777950Y-150294600D01*
X150777950Y-150294600D02*
X151479150Y-150338600D01*
X151479150Y-150338600D02*
X152183050Y-150325600D01*
X152183050Y-150325600D02*
X153572050Y-150321600D01*
X153572050Y-150321600D02*
X154963350Y-150331600D01*
X154963350Y-150331600D02*
X156352650Y-150325600D01*
X156352650Y-150325600D02*
X157045150Y-150307600D01*
X157045150Y-150307600D02*
X157735650Y-150274600D01*
X157735650Y-150274600D02*
X158961150Y-149941900D01*
X158961150Y-149941900D02*
X160170950Y-149559300D01*
X160170950Y-149559300D02*
X161364950Y-149130500D01*
X161364950Y-149130500D02*
X162543150Y-148659000D01*
X162543150Y-148659000D02*
X163705250Y-148148300D01*
X163705250Y-148148300D02*
X164851150Y-147601800D01*
X164851150Y-147601800D02*
X165980850Y-147023000D01*
X165980850Y-147023000D02*
X167094050Y-146415400D01*
X167094050Y-146415400D02*
X168359850Y-145578100D01*
X168359850Y-145578100D02*
X169606950Y-144709700D01*
X169606950Y-144709700D02*
X170829650Y-143806300D01*
X170829650Y-143806300D02*
X172022050Y-142864300D01*
X172022050Y-142864300D02*
X172605150Y-142377700D01*
X172605150Y-142377700D02*
X173178450Y-141880000D01*
X173178450Y-141880000D02*
X173741350Y-141370700D01*
X173741350Y-141370700D02*
X174293050Y-140849500D01*
X174293050Y-140849500D02*
X174832850Y-140315800D01*
X174832850Y-140315800D02*
X175360050Y-139769200D01*
X175360050Y-139769200D02*
X175873950Y-139209300D01*
X175873950Y-139209300D02*
X176373650Y-138635400D01*
X176373650Y-138635400D02*
X177134250Y-137802900D01*
X177134250Y-137802900D02*
X177847750Y-136976700D01*
X177847750Y-136976700D02*
X178515450Y-136156100D01*
X178515450Y-136156100D02*
X179138350Y-135340600D01*
X179138350Y-135340600D02*
X179717550Y-134529300D01*
X179717550Y-134529300D02*
X180254150Y-133721700D01*
X180254150Y-133721700D02*
X180749450Y-132917000D01*
X180749450Y-132917000D02*
X181204450Y-132114500D01*
X181204450Y-132114500D02*
X181620250Y-131313500D01*
X181620250Y-131313500D02*
X181997950Y-130513400D01*
X181997950Y-130513400D02*
X182338750Y-129713500D01*
X182338750Y-129713500D02*
X182643750Y-128913100D01*
X182643750Y-128913100D02*
X182914050Y-128111400D01*
X182914050Y-128111400D02*
X183150850Y-127307900D01*
X183150850Y-127307900D02*
X183355150Y-126501800D01*
X183355150Y-126501800D02*
X183528050Y-125692400D01*
X183528050Y-125692400D02*
X183670850Y-124879000D01*
X183670850Y-124879000D02*
X183784550Y-124061000D01*
X183784550Y-124061000D02*
X183870250Y-123237700D01*
X183870250Y-123237700D02*
X183929150Y-122408400D01*
X183929150Y-122408400D02*
X183962250Y-121572300D01*
X183962250Y-121572300D02*
X183970850Y-120728900D01*
X183970850Y-120728900D02*
X183955950Y-119877300D01*
X183955950Y-119877300D02*
X183918650Y-119017000D01*
X183918650Y-119017000D02*
X183860150Y-118147300D01*
X183860150Y-118147300D02*
X183781550Y-117267400D01*
X183781550Y-117267400D02*
X183683850Y-116376600D01*
X183683850Y-116376600D02*
X183568350Y-115474300D01*
X183568350Y-115474300D02*
X183288250Y-113632500D01*
X183288250Y-113632500D02*
X182950150Y-111736300D01*
X182950150Y-111736300D02*
X182831950Y-111275700D01*
X182831950Y-111275700D02*
X182687850Y-110820600D01*
X182687850Y-110820600D02*
X182514150Y-110376700D01*
X182514150Y-110376700D02*
X182307050Y-109950000D01*
X182307050Y-109950000D02*
X182062750Y-109546100D01*
X182062750Y-109546100D02*
X181777750Y-109170900D01*
X181777750Y-109170900D02*
X181618750Y-108995800D01*
X181618750Y-108995800D02*
X181448250Y-108830100D01*
X181448250Y-108830100D02*
X181265650Y-108674400D01*
X181265650Y-108674400D02*
X181070550Y-108529500D01*
X181070550Y-108529500D02*
X180742550Y-108268800D01*
X180742550Y-108268800D02*
X180406350Y-108021200D01*
X180406350Y-108021200D02*
X179711550Y-107562200D01*
X179711550Y-107562200D02*
X178991150Y-107145300D01*
X178991150Y-107145300D02*
X178250450Y-106763700D01*
X178250450Y-106763700D02*
X177494350Y-106410400D01*
X177494350Y-106410400D02*
X176728250Y-106078300D01*
X176728250Y-106078300D02*
X175186150Y-105450200D01*
X175186150Y-105450200D02*
X174849050Y-105025300D01*
X174849050Y-105025300D02*
X174473150Y-104635200D01*
X174473150Y-104635200D02*
X174064950Y-104275800D01*
X174064950Y-104275800D02*
X173631050Y-103942900D01*
X173631050Y-103942900D02*
X173177650Y-103632400D01*
X173177650Y-103632400D02*
X172711450Y-103340100D01*
X172711450Y-103340100D02*
X171766050Y-102793000D01*
X171766050Y-102793000D02*
X171211250Y-102512700D01*
X171211250Y-102512700D02*
X170644850Y-102254200D01*
X170644850Y-102254200D02*
X170067950Y-102018400D01*
X170067950Y-102018400D02*
X169481650Y-101805800D01*
X169481650Y-101805800D02*
X168887150Y-101617400D01*
X168887150Y-101617400D02*
X168285350Y-101453800D01*
X168285350Y-101453800D02*
X167677650Y-101315800D01*
X167677650Y-101315800D02*
X167064850Y-101204100D01*
X167064850Y-101204100D02*
X166448250Y-101119500D01*
X166448250Y-101119500D02*
X165828850Y-101062600D01*
X165828850Y-101062600D02*
X165207750Y-101034400D01*
X165207750Y-101034400D02*
X164586150Y-101035500D01*
X164586150Y-101035500D02*
X163965050Y-101066600D01*
X163965050Y-101066600D02*
X163345650Y-101128500D01*
X163345650Y-101128500D02*
X162728850Y-101222000D01*
X162728850Y-101222000D02*
X162115950Y-101347700D01*
X162115950Y-101347700D02*
X161482650Y-101459200D01*
X161482650Y-101459200D02*
X160852250Y-101592200D01*
X160852250Y-101592200D02*
X159595150Y-101883700D01*
X159595150Y-101883700D02*
X158965850Y-102022400D01*
X158965850Y-102022400D02*
X158334250Y-102143400D01*
X158334250Y-102143400D02*
X157699150Y-102236600D01*
X157699150Y-102236600D02*
X157059150Y-102292400D01*
X157059150Y-102292400D02*
X156881850Y-102241500D01*
X156881850Y-102241500D02*
X156712850Y-102175400D01*
X156712850Y-102175400D02*
X156396350Y-102003700D01*
X156396350Y-102003700D02*
X156102650Y-101790200D01*
X156102650Y-101790200D02*
X155824950Y-101547800D01*
X155824950Y-101547800D02*
X155290150Y-101027700D01*
X155290150Y-101027700D02*
X155019450Y-100776000D01*
X155019450Y-100776000D02*
X154737250Y-100546900D01*
X154737250Y-100546900D02*
X150412750Y-96740500D01*
X150412750Y-96740500D02*
X148266550Y-94818700D01*
X148266550Y-94818700D02*
X146141250Y-92874000D01*
X146141250Y-92874000D02*
X145861950Y-92634500D01*
X145861950Y-92634500D02*
X145573150Y-92407800D01*
X145573150Y-92407800D02*
X145275550Y-92193900D01*
X145275550Y-92193900D02*
X144969550Y-91992600D01*
X144969550Y-91992600D02*
X144335250Y-91627500D01*
X144335250Y-91627500D02*
X143674950Y-91311400D01*
X143674950Y-91311400D02*
X142993350Y-91043300D01*
X142993350Y-91043300D02*
X142295150Y-90822200D01*
X142295150Y-90822200D02*
X141585250Y-90647100D01*
X141585250Y-90647100D02*
X140868250Y-90516900D01*
X140868250Y-90516900D02*
X140708650Y-90422100D01*
X140708650Y-90422100D02*
X140560450Y-90311900D01*
X140560450Y-90311900D02*
X140429850Y-90186800D01*
X140429850Y-90186800D02*
X140322950Y-90047300D01*
X140322950Y-90047300D02*
X140246050Y-89893900D01*
X140246050Y-89893900D02*
X140205250Y-89727000D01*
X140205250Y-89727000D02*
X140206750Y-89547100D01*
X140206750Y-89547100D02*
X140256850Y-89354800D01*
X140256850Y-89354800D02*
X140308850Y-89026600D01*
X140308850Y-89026600D02*
X140333150Y-88696100D01*
X140333150Y-88696100D02*
X140326650Y-88367100D01*
X140326650Y-88367100D02*
X140286150Y-88043100D01*
X140286150Y-88043100D02*
X140208650Y-87727800D01*
X140208650Y-87727800D02*
X140091050Y-87424900D01*
X140091050Y-87424900D02*
X139930350Y-87137800D01*
X139930350Y-87137800D02*
X139723350Y-86870300D01*
X139723350Y-86870300D02*
X139512750Y-86579800D01*
X139512750Y-86579800D02*
X139289850Y-86299300D01*
X139289850Y-86299300D02*
X139055150Y-86029100D01*
X139055150Y-86029100D02*
X138809150Y-85769800D01*
X138809150Y-85769800D02*
X138552150Y-85521800D01*
X138552150Y-85521800D02*
X138284650Y-85285800D01*
X138284650Y-85285800D02*
X138007050Y-85062100D01*
X138007050Y-85062100D02*
X137719750Y-84851200D01*
X137719750Y-84851200D02*
X137423350Y-84653700D01*
X137423350Y-84653700D02*
X137118250Y-84470000D01*
X137118250Y-84470000D02*
X136804750Y-84300600D01*
X136804750Y-84300600D02*
X136483350Y-84146000D01*
X136483350Y-84146000D02*
X136154550Y-84006800D01*
X136154550Y-84006800D02*
X135818750Y-83883300D01*
X135818750Y-83883300D02*
X135476350Y-83776100D01*
X135476350Y-83776100D02*
X135127850Y-83685800D01*
X135127850Y-83685800D02*
X134858450Y-83606900D01*
X134858450Y-83606900D02*
X134582250Y-83552100D01*
X134582250Y-83552100D02*
X134019650Y-83491000D01*
X134019650Y-83491000D02*
X133460550Y-83454200D01*
X133460550Y-83454200D02*
X132925650Y-83393600D01*
X132925650Y-83393600D02*
X132044250Y-82557700D01*
X132044250Y-82557700D02*
X131152150Y-81733200D01*
X131152150Y-81733200D02*
X129345050Y-80109000D01*
X129345050Y-80109000D02*
X125703450Y-76891200D01*
X125703450Y-76891200D02*
X124670350Y-75965200D01*
X124670350Y-75965200D02*
X123627650Y-75049900D01*
X123627650Y-75049900D02*
X121530650Y-73232000D01*
X121530650Y-73232000D02*
X119447350Y-71398500D01*
X119447350Y-71398500D02*
X118421850Y-70463900D01*
X118421850Y-70463900D02*
X117412750Y-69510800D01*
X117412750Y-69510800D02*
X114597750Y-66967300D01*
X114597750Y-66967300D02*
X111761450Y-64448600D01*
X111761450Y-64448600D02*
X108921250Y-61938100D01*
X108921250Y-61938100D02*
X106094350Y-59418960D01*
X106094350Y-59418960D02*
X105299250Y-58747900D01*
X105299250Y-58747900D02*
X104517050Y-58061990D01*
X104517050Y-58061990D02*
X102977950Y-56662030D01*
X102977950Y-56662030D02*
X101450350Y-55251960D01*
X101450350Y-55251960D02*
X99907450Y-53864640D01*
X99907450Y-53864640D02*
X99398550Y-53369050D01*
X99398550Y-53369050D02*
X98875250Y-52876340D01*
X98875250Y-52876340D02*
X98332650Y-52402430D01*
X98332650Y-52402430D02*
X97765850Y-51963220D01*
X97765850Y-51963220D02*
X97471850Y-51761600D01*
X97471850Y-51761600D02*
X97169950Y-51574610D01*
X97169950Y-51574610D02*
X96859550Y-51404250D01*
X96859550Y-51404250D02*
X96540050Y-51252500D01*
X96540050Y-51252500D02*
X96210850Y-51121359D01*
X96210850Y-51121359D02*
X95871350Y-51012803D01*
X95871350Y-51012803D02*
X95520950Y-50928824D01*
X95520950Y-50928824D02*
X95158950Y-50871409D01*
X95158950Y-50871409D02*
X94597550Y-50780731D01*
X94597550Y-50780731D02*
X94031780Y-50725538D01*
X94031780Y-50725538D02*
X93463650Y-50705853D01*
X93463650Y-50705853D02*
X92895160Y-50721694D01*
X92895160Y-50721694D02*
X92895160Y-50721694D01*
X92895160Y-50721694D02*
X92895160Y-50721694D01*
M02*
