%TF.GenerationSoftware,KiCad,Pcbnew,7.0.2*%
%TF.CreationDate,2023-05-28T20:46:54-05:00*%
%TF.ProjectId,torch-lts,746f7263-682d-46c7-9473-2e6b69636164,1.0*%
%TF.SameCoordinates,Original*%
%TF.FileFunction,Copper,L1,Top*%
%TF.FilePolarity,Positive*%
%FSLAX46Y46*%
G04 Gerber Fmt 4.6, Leading zero omitted, Abs format (unit mm)*
G04 Created by KiCad (PCBNEW 7.0.2) date 2023-05-28 20:46:54*
%MOMM*%
%LPD*%
G01*
G04 APERTURE LIST*
G04 Aperture macros list*
%AMHorizOval*
0 Thick line with rounded ends*
0 $1 width*
0 $2 $3 position (X,Y) of the first rounded end (center of the circle)*
0 $4 $5 position (X,Y) of the second rounded end (center of the circle)*
0 Add line between two ends*
20,1,$1,$2,$3,$4,$5,0*
0 Add two circle primitives to create the rounded ends*
1,1,$1,$2,$3*
1,1,$1,$4,$5*%
%AMRotRect*
0 Rectangle, with rotation*
0 The origin of the aperture is its center*
0 $1 length*
0 $2 width*
0 $3 Rotation angle, in degrees counterclockwise*
0 Add horizontal line*
21,1,$1,$2,0,0,$3*%
G04 Aperture macros list end*
%TA.AperFunction,EtchedComponent*%
%ADD10C,0.010000*%
%TD*%
%TA.AperFunction,ComponentPad*%
%ADD11C,6.000000*%
%TD*%
%TA.AperFunction,ComponentPad*%
%ADD12C,1.752400*%
%TD*%
%TA.AperFunction,ComponentPad*%
%ADD13C,2.000000*%
%TD*%
%TA.AperFunction,ComponentPad*%
%ADD14C,1.400000*%
%TD*%
%TA.AperFunction,ComponentPad*%
%ADD15O,1.400000X1.400000*%
%TD*%
%TA.AperFunction,ComponentPad*%
%ADD16R,1.800000X1.800000*%
%TD*%
%TA.AperFunction,ComponentPad*%
%ADD17C,1.800000*%
%TD*%
%TA.AperFunction,ComponentPad*%
%ADD18RotRect,1.700000X1.700000X315.000000*%
%TD*%
%TA.AperFunction,ComponentPad*%
%ADD19HorizOval,1.700000X0.000000X0.000000X0.000000X0.000000X0*%
%TD*%
G04 APERTURE END LIST*
%TO.C,G\u002A\u002A\u002A*%
D10*
X145991410Y-112694686D02*
X146064429Y-112726977D01*
X146086015Y-112777171D01*
X146083953Y-112829655D01*
X146046574Y-112891190D01*
X145962767Y-112977466D01*
X145909767Y-113026008D01*
X145716698Y-113199590D01*
X145854308Y-113337201D01*
X145945906Y-113447263D01*
X145984866Y-113536109D01*
X145968837Y-113593124D01*
X145914476Y-113608683D01*
X145843000Y-113582605D01*
X145760462Y-113519652D01*
X145758290Y-113517499D01*
X145692908Y-113459415D01*
X145654889Y-113439208D01*
X145653369Y-113440053D01*
X145641345Y-113482525D01*
X145622054Y-113582362D01*
X145599293Y-113719559D01*
X145595066Y-113747040D01*
X145568948Y-113908806D01*
X145547157Y-114007986D01*
X145524248Y-114059531D01*
X145494771Y-114078398D01*
X145473686Y-114080262D01*
X145427504Y-114054623D01*
X145348246Y-113988740D01*
X145286960Y-113930377D01*
X145137075Y-113780492D01*
X144970072Y-113958884D01*
X144856374Y-114079219D01*
X144782654Y-114149570D01*
X144735332Y-114176874D01*
X144700833Y-114168065D01*
X144665574Y-114130080D01*
X144662254Y-114125903D01*
X144656719Y-114118939D01*
X144589476Y-114034209D01*
X145009836Y-113653253D01*
X144854052Y-113497469D01*
X144791927Y-113428108D01*
X145075461Y-113428108D01*
X145129580Y-113495855D01*
X145210527Y-113577630D01*
X145311821Y-113674989D01*
X145375178Y-113715348D01*
X145412002Y-113693314D01*
X145433699Y-113603496D01*
X145449269Y-113464763D01*
X145463568Y-113320874D01*
X145300880Y-113344004D01*
X145155747Y-113366054D01*
X145082397Y-113389464D01*
X145075461Y-113428108D01*
X144791927Y-113428108D01*
X144759686Y-113392112D01*
X144724367Y-113315853D01*
X144752698Y-113261350D01*
X144849277Y-113221256D01*
X145018706Y-113188226D01*
X145050752Y-113183417D01*
X145352417Y-113139256D01*
X145247261Y-113006470D01*
X145184389Y-112915556D01*
X145172809Y-112856966D01*
X145197371Y-112818420D01*
X145235925Y-112793812D01*
X145283487Y-112804882D01*
X145357575Y-112859296D01*
X145423772Y-112917493D01*
X145594912Y-113071829D01*
X145754270Y-112879643D01*
X145851753Y-112769236D01*
X145921130Y-112711466D01*
X145977991Y-112694173D01*
X145991410Y-112694686D01*
%TA.AperFunction,EtchedComponent*%
G36*
X145991410Y-112694686D02*
G01*
X146064429Y-112726977D01*
X146086015Y-112777171D01*
X146083953Y-112829655D01*
X146046574Y-112891190D01*
X145962767Y-112977466D01*
X145909767Y-113026008D01*
X145716698Y-113199590D01*
X145854308Y-113337201D01*
X145945906Y-113447263D01*
X145984866Y-113536109D01*
X145968837Y-113593124D01*
X145914476Y-113608683D01*
X145843000Y-113582605D01*
X145760462Y-113519652D01*
X145758290Y-113517499D01*
X145692908Y-113459415D01*
X145654889Y-113439208D01*
X145653369Y-113440053D01*
X145641345Y-113482525D01*
X145622054Y-113582362D01*
X145599293Y-113719559D01*
X145595066Y-113747040D01*
X145568948Y-113908806D01*
X145547157Y-114007986D01*
X145524248Y-114059531D01*
X145494771Y-114078398D01*
X145473686Y-114080262D01*
X145427504Y-114054623D01*
X145348246Y-113988740D01*
X145286960Y-113930377D01*
X145137075Y-113780492D01*
X144970072Y-113958884D01*
X144856374Y-114079219D01*
X144782654Y-114149570D01*
X144735332Y-114176874D01*
X144700833Y-114168065D01*
X144665574Y-114130080D01*
X144662254Y-114125903D01*
X144656719Y-114118939D01*
X144589476Y-114034209D01*
X145009836Y-113653253D01*
X144854052Y-113497469D01*
X144791927Y-113428108D01*
X145075461Y-113428108D01*
X145129580Y-113495855D01*
X145210527Y-113577630D01*
X145311821Y-113674989D01*
X145375178Y-113715348D01*
X145412002Y-113693314D01*
X145433699Y-113603496D01*
X145449269Y-113464763D01*
X145463568Y-113320874D01*
X145300880Y-113344004D01*
X145155747Y-113366054D01*
X145082397Y-113389464D01*
X145075461Y-113428108D01*
X144791927Y-113428108D01*
X144759686Y-113392112D01*
X144724367Y-113315853D01*
X144752698Y-113261350D01*
X144849277Y-113221256D01*
X145018706Y-113188226D01*
X145050752Y-113183417D01*
X145352417Y-113139256D01*
X145247261Y-113006470D01*
X145184389Y-112915556D01*
X145172809Y-112856966D01*
X145197371Y-112818420D01*
X145235925Y-112793812D01*
X145283487Y-112804882D01*
X145357575Y-112859296D01*
X145423772Y-112917493D01*
X145594912Y-113071829D01*
X145754270Y-112879643D01*
X145851753Y-112769236D01*
X145921130Y-112711466D01*
X145977991Y-112694173D01*
X145991410Y-112694686D01*
G37*
%TD.AperFunction*%
X147859828Y-106645201D02*
X148159871Y-106659585D01*
X148388098Y-106687985D01*
X148542803Y-106730183D01*
X148622286Y-106785962D01*
X148624093Y-106788833D01*
X148682255Y-106856445D01*
X148728353Y-106858471D01*
X148748335Y-106805228D01*
X148770302Y-106778542D01*
X148835975Y-106779895D01*
X148956240Y-106810578D01*
X149051868Y-106841178D01*
X149201584Y-106896343D01*
X149327722Y-106952377D01*
X149406910Y-106998690D01*
X149414895Y-107005690D01*
X149474186Y-107046673D01*
X149505678Y-107045640D01*
X149552654Y-107050135D01*
X149646901Y-107096056D01*
X149775604Y-107174853D01*
X149925946Y-107277979D01*
X150085109Y-107396887D01*
X150240276Y-107523030D01*
X150301357Y-107576276D01*
X150535821Y-107812847D01*
X150714275Y-108051181D01*
X150829801Y-108281034D01*
X150866360Y-108412413D01*
X150878789Y-108514104D01*
X150890719Y-108669402D01*
X150900473Y-108853770D01*
X150904795Y-108975519D01*
X150912082Y-109148867D01*
X150922638Y-109292413D01*
X150934899Y-109388658D01*
X150944431Y-109419437D01*
X150950197Y-109461969D01*
X150887770Y-109512926D01*
X150754206Y-109573993D01*
X150549269Y-109645984D01*
X150383467Y-109697303D01*
X150271450Y-109717399D01*
X150192643Y-109699103D01*
X150126469Y-109635242D01*
X150052353Y-109518644D01*
X150019077Y-109461186D01*
X149902423Y-109301525D01*
X149813106Y-109179276D01*
X149549373Y-108937094D01*
X149241342Y-108742184D01*
X149185971Y-108719293D01*
X148902473Y-108602098D01*
X148563364Y-108528122D01*
X150662617Y-108528122D01*
X150668419Y-108535528D01*
X150716274Y-108541331D01*
X150723681Y-108535529D01*
X150729484Y-108487674D01*
X150723681Y-108480266D01*
X150675826Y-108474464D01*
X150668419Y-108480267D01*
X150662617Y-108528122D01*
X148563364Y-108528122D01*
X148546229Y-108524384D01*
X148376415Y-108514015D01*
X148324288Y-108510833D01*
X148267894Y-108514450D01*
X148140849Y-108522600D01*
X147944769Y-108552498D01*
X147834564Y-108578596D01*
X147721719Y-108614370D01*
X147632845Y-108654580D01*
X147548120Y-108712598D01*
X147447721Y-108801799D01*
X147325000Y-108922371D01*
X147195105Y-109055042D01*
X147109482Y-109152861D01*
X147055363Y-109234403D01*
X147019978Y-109318242D01*
X146996304Y-109400507D01*
X146972260Y-109540749D01*
X146957798Y-109721895D01*
X146955739Y-109906990D01*
X146956315Y-109924049D01*
X146959095Y-110075587D01*
X146955589Y-110195671D01*
X146946581Y-110264108D01*
X146942837Y-110271638D01*
X146894253Y-110281253D01*
X146780499Y-110286876D01*
X146614438Y-110288798D01*
X146408934Y-110287313D01*
X146176853Y-110282716D01*
X145931060Y-110275299D01*
X145684419Y-110265358D01*
X145449795Y-110253183D01*
X145286289Y-110242179D01*
X145240053Y-110239069D01*
X145188794Y-110234720D01*
X145138876Y-110230486D01*
X145058127Y-110222140D01*
X144882824Y-110204022D01*
X144824964Y-110198042D01*
X144734253Y-110187094D01*
X144684682Y-110181112D01*
X144497531Y-110158526D01*
X144434312Y-110149955D01*
X144217766Y-110120597D01*
X144166552Y-110113655D01*
X144121815Y-110106969D01*
X143935322Y-110079097D01*
X143842000Y-110065150D01*
X143763489Y-110052304D01*
X143689601Y-110040214D01*
X143533851Y-110014731D01*
X143510047Y-110010456D01*
X143375336Y-109986258D01*
X143374935Y-109986186D01*
X145073028Y-109986186D01*
X145073028Y-110013818D01*
X145100660Y-110013817D01*
X145100660Y-109986186D01*
X145073028Y-109986186D01*
X143374935Y-109986186D01*
X143252078Y-109964118D01*
X143066144Y-109926928D01*
X143006656Y-109915030D01*
X142807559Y-109869186D01*
X142664761Y-109828307D01*
X142588237Y-109794113D01*
X142583293Y-109789871D01*
X142564334Y-109765717D01*
X142559940Y-109735122D01*
X142575446Y-109687489D01*
X142612158Y-109619658D01*
X145839289Y-109619658D01*
X145840648Y-109687820D01*
X145899162Y-109729352D01*
X145911572Y-109734183D01*
X145977769Y-109751756D01*
X146008709Y-109723420D01*
X146025335Y-109658397D01*
X146035464Y-109579799D01*
X146008103Y-109550053D01*
X145953052Y-109543872D01*
X145874981Y-109555418D01*
X145840634Y-109614070D01*
X145839289Y-109619658D01*
X142612158Y-109619658D01*
X142616184Y-109612219D01*
X142649287Y-109559527D01*
X143399688Y-109559527D01*
X143400114Y-109592958D01*
X143415135Y-109599344D01*
X143466325Y-109600875D01*
X143472029Y-109597713D01*
X143462518Y-109564466D01*
X143456582Y-109557897D01*
X143434219Y-109555405D01*
X143408770Y-109552569D01*
X143399688Y-109559527D01*
X142649287Y-109559527D01*
X142668854Y-109528381D01*
X143736662Y-109528381D01*
X143737841Y-109536678D01*
X143761446Y-109600148D01*
X143820711Y-109608390D01*
X143827356Y-109607417D01*
X143896685Y-109577713D01*
X143914539Y-109552775D01*
X144423172Y-109552775D01*
X144427629Y-109586790D01*
X144475901Y-109617328D01*
X144532905Y-109618469D01*
X144548467Y-109597489D01*
X144530093Y-109553950D01*
X144487042Y-109543549D01*
X144423172Y-109552775D01*
X143914539Y-109552775D01*
X143930453Y-109530546D01*
X143924894Y-109516449D01*
X144299345Y-109516449D01*
X144326976Y-109516450D01*
X144326976Y-109488817D01*
X144299345Y-109488818D01*
X144299345Y-109516449D01*
X143924894Y-109516449D01*
X143914637Y-109490436D01*
X143898239Y-109483476D01*
X143792194Y-109461175D01*
X143743252Y-109474513D01*
X143736662Y-109528381D01*
X142668854Y-109528381D01*
X142687490Y-109498718D01*
X142794695Y-109336387D01*
X142805999Y-109319481D01*
X144973289Y-109319481D01*
X144979042Y-109359322D01*
X145015520Y-109377762D01*
X145066896Y-109360170D01*
X145074677Y-109343675D01*
X145057012Y-109302751D01*
X145026265Y-109298160D01*
X144973289Y-109319481D01*
X142805999Y-109319481D01*
X142862731Y-109234636D01*
X142957003Y-109095456D01*
X144314280Y-109095456D01*
X144354352Y-109166150D01*
X144399879Y-109194863D01*
X144474186Y-109191422D01*
X144537304Y-109128708D01*
X144560880Y-109067674D01*
X144553491Y-109014157D01*
X144487238Y-108980152D01*
X144484344Y-108979268D01*
X144388714Y-108977926D01*
X144328880Y-109024685D01*
X144314280Y-109095456D01*
X142957003Y-109095456D01*
X142968814Y-109078019D01*
X143059700Y-108950509D01*
X143147245Y-108838668D01*
X143243298Y-108729057D01*
X143359713Y-108608240D01*
X143447628Y-108522197D01*
X146901316Y-108522197D01*
X146934046Y-108535186D01*
X146993421Y-108531582D01*
X147064133Y-108512053D01*
X147085526Y-108493598D01*
X147052797Y-108480610D01*
X146993421Y-108484213D01*
X146922711Y-108503742D01*
X146901316Y-108522197D01*
X143447628Y-108522197D01*
X143508342Y-108462776D01*
X143520804Y-108450906D01*
X145711317Y-108450906D01*
X145728105Y-108500679D01*
X145792958Y-108505770D01*
X145802415Y-108504392D01*
X145879875Y-108473654D01*
X145895257Y-108455648D01*
X146128619Y-108455648D01*
X146164475Y-108452634D01*
X146233417Y-108433397D01*
X146232452Y-108429182D01*
X146492165Y-108429182D01*
X146554616Y-108488507D01*
X146561468Y-108492184D01*
X146639705Y-108514642D01*
X146674221Y-108473873D01*
X146675150Y-108405716D01*
X146656966Y-108345453D01*
X146600644Y-108335352D01*
X146576297Y-108338572D01*
X146500000Y-108372907D01*
X146492165Y-108429182D01*
X146232452Y-108429182D01*
X146229931Y-108418163D01*
X146220196Y-108415334D01*
X146205922Y-108411187D01*
X146139297Y-108425270D01*
X146128727Y-108433965D01*
X146128619Y-108455648D01*
X145895257Y-108455648D01*
X145922219Y-108424087D01*
X145913459Y-108377895D01*
X145900067Y-108368786D01*
X145815972Y-108357234D01*
X145741750Y-108390437D01*
X145711317Y-108450906D01*
X143520804Y-108450906D01*
X143701038Y-108279228D01*
X143727414Y-108254262D01*
X143953612Y-108042518D01*
X144141110Y-107874184D01*
X144176585Y-107844740D01*
X146790790Y-107844740D01*
X146811010Y-107857374D01*
X146827632Y-107844740D01*
X146840266Y-107811886D01*
X146827632Y-107807898D01*
X146791533Y-107837384D01*
X146790790Y-107844740D01*
X144176585Y-107844740D01*
X144306211Y-107737153D01*
X144329197Y-107720118D01*
X149170313Y-107720118D01*
X149201159Y-107744459D01*
X149296091Y-107771697D01*
X149450758Y-107798619D01*
X149463817Y-107800423D01*
X149643315Y-107814607D01*
X149769999Y-107803323D01*
X149837241Y-107768949D01*
X149838144Y-107726330D01*
X149838410Y-107713865D01*
X149822020Y-107692766D01*
X150184867Y-107692766D01*
X150184867Y-107720398D01*
X150212498Y-107720398D01*
X150212498Y-107692767D01*
X150184867Y-107692766D01*
X149822020Y-107692766D01*
X149809362Y-107676471D01*
X149755238Y-107651319D01*
X149913156Y-107651319D01*
X149933376Y-107663954D01*
X149949998Y-107651320D01*
X149962632Y-107618465D01*
X149949998Y-107614477D01*
X149913899Y-107643963D01*
X149913156Y-107651319D01*
X149755238Y-107651319D01*
X149732124Y-107640578D01*
X149624210Y-107630058D01*
X149527160Y-107646497D01*
X149496509Y-107664542D01*
X149443069Y-107681587D01*
X149344802Y-107692043D01*
X149318287Y-107692981D01*
X149207904Y-107701888D01*
X149170313Y-107720118D01*
X144329197Y-107720118D01*
X144465220Y-107619313D01*
X144539234Y-107570869D01*
X149211475Y-107570869D01*
X149250455Y-107570256D01*
X149259209Y-107568425D01*
X149324915Y-107550973D01*
X149330556Y-107530981D01*
X149314473Y-107513162D01*
X149268465Y-107512720D01*
X149238908Y-107534308D01*
X149211475Y-107570869D01*
X144539234Y-107570869D01*
X144634441Y-107508554D01*
X144830177Y-107392770D01*
X144952884Y-107324356D01*
X145665268Y-107324356D01*
X145731899Y-107355386D01*
X145763441Y-107357375D01*
X145864112Y-107340762D01*
X145894942Y-107291482D01*
X145863415Y-107223018D01*
X145836870Y-107206685D01*
X146452253Y-107206685D01*
X146479051Y-107250764D01*
X146497556Y-107255267D01*
X146554476Y-107231966D01*
X146547710Y-107179580D01*
X146537501Y-107167768D01*
X146486661Y-107145038D01*
X146470053Y-107152320D01*
X146452253Y-107206685D01*
X145836870Y-107206685D01*
X145800286Y-107184175D01*
X145735711Y-107204886D01*
X145665525Y-107268615D01*
X145665268Y-107324356D01*
X144952884Y-107324356D01*
X145059400Y-107264969D01*
X145508321Y-107054435D01*
X148196576Y-107054435D01*
X148209210Y-107071057D01*
X148242064Y-107083690D01*
X148246052Y-107071057D01*
X148216567Y-107034957D01*
X148209210Y-107034215D01*
X148196576Y-107054435D01*
X145508321Y-107054435D01*
X145558784Y-107030769D01*
X146103623Y-106847994D01*
X146677017Y-106720955D01*
X146877214Y-106698031D01*
X148140131Y-106698031D01*
X148140131Y-106725662D01*
X148167762Y-106725662D01*
X148167762Y-106698031D01*
X148140131Y-106698031D01*
X146877214Y-106698031D01*
X147262064Y-106653963D01*
X147489671Y-106645045D01*
X147859828Y-106645201D01*
%TA.AperFunction,EtchedComponent*%
G36*
X147859828Y-106645201D02*
G01*
X148159871Y-106659585D01*
X148388098Y-106687985D01*
X148542803Y-106730183D01*
X148622286Y-106785962D01*
X148624093Y-106788833D01*
X148682255Y-106856445D01*
X148728353Y-106858471D01*
X148748335Y-106805228D01*
X148770302Y-106778542D01*
X148835975Y-106779895D01*
X148956240Y-106810578D01*
X149051868Y-106841178D01*
X149201584Y-106896343D01*
X149327722Y-106952377D01*
X149406910Y-106998690D01*
X149414895Y-107005690D01*
X149474186Y-107046673D01*
X149505678Y-107045640D01*
X149552654Y-107050135D01*
X149646901Y-107096056D01*
X149775604Y-107174853D01*
X149925946Y-107277979D01*
X150085109Y-107396887D01*
X150240276Y-107523030D01*
X150301357Y-107576276D01*
X150535821Y-107812847D01*
X150714275Y-108051181D01*
X150829801Y-108281034D01*
X150866360Y-108412413D01*
X150878789Y-108514104D01*
X150890719Y-108669402D01*
X150900473Y-108853770D01*
X150904795Y-108975519D01*
X150912082Y-109148867D01*
X150922638Y-109292413D01*
X150934899Y-109388658D01*
X150944431Y-109419437D01*
X150950197Y-109461969D01*
X150887770Y-109512926D01*
X150754206Y-109573993D01*
X150549269Y-109645984D01*
X150383467Y-109697303D01*
X150271450Y-109717399D01*
X150192643Y-109699103D01*
X150126469Y-109635242D01*
X150052353Y-109518644D01*
X150019077Y-109461186D01*
X149902423Y-109301525D01*
X149813106Y-109179276D01*
X149549373Y-108937094D01*
X149241342Y-108742184D01*
X149185971Y-108719293D01*
X148902473Y-108602098D01*
X148563364Y-108528122D01*
X150662617Y-108528122D01*
X150668419Y-108535528D01*
X150716274Y-108541331D01*
X150723681Y-108535529D01*
X150729484Y-108487674D01*
X150723681Y-108480266D01*
X150675826Y-108474464D01*
X150668419Y-108480267D01*
X150662617Y-108528122D01*
X148563364Y-108528122D01*
X148546229Y-108524384D01*
X148376415Y-108514015D01*
X148324288Y-108510833D01*
X148267894Y-108514450D01*
X148140849Y-108522600D01*
X147944769Y-108552498D01*
X147834564Y-108578596D01*
X147721719Y-108614370D01*
X147632845Y-108654580D01*
X147548120Y-108712598D01*
X147447721Y-108801799D01*
X147325000Y-108922371D01*
X147195105Y-109055042D01*
X147109482Y-109152861D01*
X147055363Y-109234403D01*
X147019978Y-109318242D01*
X146996304Y-109400507D01*
X146972260Y-109540749D01*
X146957798Y-109721895D01*
X146955739Y-109906990D01*
X146956315Y-109924049D01*
X146959095Y-110075587D01*
X146955589Y-110195671D01*
X146946581Y-110264108D01*
X146942837Y-110271638D01*
X146894253Y-110281253D01*
X146780499Y-110286876D01*
X146614438Y-110288798D01*
X146408934Y-110287313D01*
X146176853Y-110282716D01*
X145931060Y-110275299D01*
X145684419Y-110265358D01*
X145449795Y-110253183D01*
X145286289Y-110242179D01*
X145240053Y-110239069D01*
X145188794Y-110234720D01*
X145138876Y-110230486D01*
X145058127Y-110222140D01*
X144882824Y-110204022D01*
X144824964Y-110198042D01*
X144734253Y-110187094D01*
X144684682Y-110181112D01*
X144497531Y-110158526D01*
X144434312Y-110149955D01*
X144217766Y-110120597D01*
X144166552Y-110113655D01*
X144121815Y-110106969D01*
X143935322Y-110079097D01*
X143842000Y-110065150D01*
X143763489Y-110052304D01*
X143689601Y-110040214D01*
X143533851Y-110014731D01*
X143510047Y-110010456D01*
X143375336Y-109986258D01*
X143374935Y-109986186D01*
X145073028Y-109986186D01*
X145073028Y-110013818D01*
X145100660Y-110013817D01*
X145100660Y-109986186D01*
X145073028Y-109986186D01*
X143374935Y-109986186D01*
X143252078Y-109964118D01*
X143066144Y-109926928D01*
X143006656Y-109915030D01*
X142807559Y-109869186D01*
X142664761Y-109828307D01*
X142588237Y-109794113D01*
X142583293Y-109789871D01*
X142564334Y-109765717D01*
X142559940Y-109735122D01*
X142575446Y-109687489D01*
X142612158Y-109619658D01*
X145839289Y-109619658D01*
X145840648Y-109687820D01*
X145899162Y-109729352D01*
X145911572Y-109734183D01*
X145977769Y-109751756D01*
X146008709Y-109723420D01*
X146025335Y-109658397D01*
X146035464Y-109579799D01*
X146008103Y-109550053D01*
X145953052Y-109543872D01*
X145874981Y-109555418D01*
X145840634Y-109614070D01*
X145839289Y-109619658D01*
X142612158Y-109619658D01*
X142616184Y-109612219D01*
X142649287Y-109559527D01*
X143399688Y-109559527D01*
X143400114Y-109592958D01*
X143415135Y-109599344D01*
X143466325Y-109600875D01*
X143472029Y-109597713D01*
X143462518Y-109564466D01*
X143456582Y-109557897D01*
X143434219Y-109555405D01*
X143408770Y-109552569D01*
X143399688Y-109559527D01*
X142649287Y-109559527D01*
X142668854Y-109528381D01*
X143736662Y-109528381D01*
X143737841Y-109536678D01*
X143761446Y-109600148D01*
X143820711Y-109608390D01*
X143827356Y-109607417D01*
X143896685Y-109577713D01*
X143914539Y-109552775D01*
X144423172Y-109552775D01*
X144427629Y-109586790D01*
X144475901Y-109617328D01*
X144532905Y-109618469D01*
X144548467Y-109597489D01*
X144530093Y-109553950D01*
X144487042Y-109543549D01*
X144423172Y-109552775D01*
X143914539Y-109552775D01*
X143930453Y-109530546D01*
X143924894Y-109516449D01*
X144299345Y-109516449D01*
X144326976Y-109516450D01*
X144326976Y-109488817D01*
X144299345Y-109488818D01*
X144299345Y-109516449D01*
X143924894Y-109516449D01*
X143914637Y-109490436D01*
X143898239Y-109483476D01*
X143792194Y-109461175D01*
X143743252Y-109474513D01*
X143736662Y-109528381D01*
X142668854Y-109528381D01*
X142687490Y-109498718D01*
X142794695Y-109336387D01*
X142805999Y-109319481D01*
X144973289Y-109319481D01*
X144979042Y-109359322D01*
X145015520Y-109377762D01*
X145066896Y-109360170D01*
X145074677Y-109343675D01*
X145057012Y-109302751D01*
X145026265Y-109298160D01*
X144973289Y-109319481D01*
X142805999Y-109319481D01*
X142862731Y-109234636D01*
X142957003Y-109095456D01*
X144314280Y-109095456D01*
X144354352Y-109166150D01*
X144399879Y-109194863D01*
X144474186Y-109191422D01*
X144537304Y-109128708D01*
X144560880Y-109067674D01*
X144553491Y-109014157D01*
X144487238Y-108980152D01*
X144484344Y-108979268D01*
X144388714Y-108977926D01*
X144328880Y-109024685D01*
X144314280Y-109095456D01*
X142957003Y-109095456D01*
X142968814Y-109078019D01*
X143059700Y-108950509D01*
X143147245Y-108838668D01*
X143243298Y-108729057D01*
X143359713Y-108608240D01*
X143447628Y-108522197D01*
X146901316Y-108522197D01*
X146934046Y-108535186D01*
X146993421Y-108531582D01*
X147064133Y-108512053D01*
X147085526Y-108493598D01*
X147052797Y-108480610D01*
X146993421Y-108484213D01*
X146922711Y-108503742D01*
X146901316Y-108522197D01*
X143447628Y-108522197D01*
X143508342Y-108462776D01*
X143520804Y-108450906D01*
X145711317Y-108450906D01*
X145728105Y-108500679D01*
X145792958Y-108505770D01*
X145802415Y-108504392D01*
X145879875Y-108473654D01*
X145895257Y-108455648D01*
X146128619Y-108455648D01*
X146164475Y-108452634D01*
X146233417Y-108433397D01*
X146232452Y-108429182D01*
X146492165Y-108429182D01*
X146554616Y-108488507D01*
X146561468Y-108492184D01*
X146639705Y-108514642D01*
X146674221Y-108473873D01*
X146675150Y-108405716D01*
X146656966Y-108345453D01*
X146600644Y-108335352D01*
X146576297Y-108338572D01*
X146500000Y-108372907D01*
X146492165Y-108429182D01*
X146232452Y-108429182D01*
X146229931Y-108418163D01*
X146220196Y-108415334D01*
X146205922Y-108411187D01*
X146139297Y-108425270D01*
X146128727Y-108433965D01*
X146128619Y-108455648D01*
X145895257Y-108455648D01*
X145922219Y-108424087D01*
X145913459Y-108377895D01*
X145900067Y-108368786D01*
X145815972Y-108357234D01*
X145741750Y-108390437D01*
X145711317Y-108450906D01*
X143520804Y-108450906D01*
X143701038Y-108279228D01*
X143727414Y-108254262D01*
X143953612Y-108042518D01*
X144141110Y-107874184D01*
X144176585Y-107844740D01*
X146790790Y-107844740D01*
X146811010Y-107857374D01*
X146827632Y-107844740D01*
X146840266Y-107811886D01*
X146827632Y-107807898D01*
X146791533Y-107837384D01*
X146790790Y-107844740D01*
X144176585Y-107844740D01*
X144306211Y-107737153D01*
X144329197Y-107720118D01*
X149170313Y-107720118D01*
X149201159Y-107744459D01*
X149296091Y-107771697D01*
X149450758Y-107798619D01*
X149463817Y-107800423D01*
X149643315Y-107814607D01*
X149769999Y-107803323D01*
X149837241Y-107768949D01*
X149838144Y-107726330D01*
X149838410Y-107713865D01*
X149822020Y-107692766D01*
X150184867Y-107692766D01*
X150184867Y-107720398D01*
X150212498Y-107720398D01*
X150212498Y-107692767D01*
X150184867Y-107692766D01*
X149822020Y-107692766D01*
X149809362Y-107676471D01*
X149755238Y-107651319D01*
X149913156Y-107651319D01*
X149933376Y-107663954D01*
X149949998Y-107651320D01*
X149962632Y-107618465D01*
X149949998Y-107614477D01*
X149913899Y-107643963D01*
X149913156Y-107651319D01*
X149755238Y-107651319D01*
X149732124Y-107640578D01*
X149624210Y-107630058D01*
X149527160Y-107646497D01*
X149496509Y-107664542D01*
X149443069Y-107681587D01*
X149344802Y-107692043D01*
X149318287Y-107692981D01*
X149207904Y-107701888D01*
X149170313Y-107720118D01*
X144329197Y-107720118D01*
X144465220Y-107619313D01*
X144539234Y-107570869D01*
X149211475Y-107570869D01*
X149250455Y-107570256D01*
X149259209Y-107568425D01*
X149324915Y-107550973D01*
X149330556Y-107530981D01*
X149314473Y-107513162D01*
X149268465Y-107512720D01*
X149238908Y-107534308D01*
X149211475Y-107570869D01*
X144539234Y-107570869D01*
X144634441Y-107508554D01*
X144830177Y-107392770D01*
X144952884Y-107324356D01*
X145665268Y-107324356D01*
X145731899Y-107355386D01*
X145763441Y-107357375D01*
X145864112Y-107340762D01*
X145894942Y-107291482D01*
X145863415Y-107223018D01*
X145836870Y-107206685D01*
X146452253Y-107206685D01*
X146479051Y-107250764D01*
X146497556Y-107255267D01*
X146554476Y-107231966D01*
X146547710Y-107179580D01*
X146537501Y-107167768D01*
X146486661Y-107145038D01*
X146470053Y-107152320D01*
X146452253Y-107206685D01*
X145836870Y-107206685D01*
X145800286Y-107184175D01*
X145735711Y-107204886D01*
X145665525Y-107268615D01*
X145665268Y-107324356D01*
X144952884Y-107324356D01*
X145059400Y-107264969D01*
X145508321Y-107054435D01*
X148196576Y-107054435D01*
X148209210Y-107071057D01*
X148242064Y-107083690D01*
X148246052Y-107071057D01*
X148216567Y-107034957D01*
X148209210Y-107034215D01*
X148196576Y-107054435D01*
X145508321Y-107054435D01*
X145558784Y-107030769D01*
X146103623Y-106847994D01*
X146677017Y-106720955D01*
X146877214Y-106698031D01*
X148140131Y-106698031D01*
X148140131Y-106725662D01*
X148167762Y-106725662D01*
X148167762Y-106698031D01*
X148140131Y-106698031D01*
X146877214Y-106698031D01*
X147262064Y-106653963D01*
X147489671Y-106645045D01*
X147859828Y-106645201D01*
G37*
%TD.AperFunction*%
X151008795Y-110481272D02*
X151094187Y-110786985D01*
X151191038Y-111052554D01*
X151308656Y-111293321D01*
X151456346Y-111524629D01*
X151643418Y-111761819D01*
X151879178Y-112020233D01*
X152044453Y-112188437D01*
X152250962Y-112398747D01*
X152401791Y-112562318D01*
X152500575Y-112683299D01*
X152550948Y-112765844D01*
X152551647Y-112767519D01*
X152569653Y-112839810D01*
X152568413Y-112935158D01*
X152545938Y-113068215D01*
X152500236Y-113253628D01*
X152471279Y-113359064D01*
X152418614Y-113540679D01*
X152370623Y-113694804D01*
X152332420Y-113805761D01*
X152309114Y-113857877D01*
X152308295Y-113858797D01*
X152270236Y-113850931D01*
X152187797Y-113792128D01*
X152058096Y-113680089D01*
X151895808Y-113529203D01*
X151736333Y-113379624D01*
X151619810Y-113276228D01*
X151533932Y-113209929D01*
X151466392Y-113171645D01*
X151404884Y-113152287D01*
X151379180Y-113147804D01*
X151233185Y-113160954D01*
X151203334Y-113179262D01*
X151112578Y-113234925D01*
X151030030Y-113353421D01*
X150998212Y-113500151D01*
X151014564Y-113616610D01*
X151038723Y-113678472D01*
X151079608Y-113746328D01*
X151145758Y-113830427D01*
X151245710Y-113941013D01*
X151388004Y-114088331D01*
X151511796Y-114213199D01*
X151967102Y-114669735D01*
X151753097Y-115008361D01*
X151649091Y-115164789D01*
X151545591Y-115306685D01*
X151458001Y-115413509D01*
X151421518Y-115450466D01*
X151303944Y-115553944D01*
X150956812Y-115208511D01*
X150804099Y-115058926D01*
X150691499Y-114956004D01*
X150605644Y-114889421D01*
X150533165Y-114848847D01*
X150460698Y-114823958D01*
X150458136Y-114823280D01*
X150296393Y-114812136D01*
X150161179Y-114860497D01*
X150066299Y-114956809D01*
X150025554Y-115089515D01*
X150032396Y-115179723D01*
X150053862Y-115242948D01*
X150098568Y-115317815D01*
X150175082Y-115415401D01*
X150291964Y-115546779D01*
X150429615Y-115693466D01*
X150801277Y-116084244D01*
X150684296Y-116196831D01*
X150584045Y-116282093D01*
X150452173Y-116380186D01*
X150365140Y-116438823D01*
X150232324Y-116522710D01*
X150105817Y-116600791D01*
X150040979Y-116639662D01*
X149918992Y-116711096D01*
X149446585Y-116270940D01*
X149257671Y-116097053D01*
X149113260Y-115969960D01*
X149002562Y-115881227D01*
X148914787Y-115822414D01*
X148839146Y-115785086D01*
X148812746Y-115775260D01*
X148703206Y-115745517D01*
X148625782Y-115756231D01*
X148541934Y-115814459D01*
X148526492Y-115827668D01*
X148423755Y-115935200D01*
X148371921Y-116043144D01*
X148373461Y-116159907D01*
X148430844Y-116293897D01*
X148546541Y-116453522D01*
X148723022Y-116647190D01*
X148786057Y-116711054D01*
X149119684Y-117044680D01*
X149015044Y-117092015D01*
X148886128Y-117141685D01*
X148722136Y-117192611D01*
X148540777Y-117240797D01*
X148359760Y-117282253D01*
X148196795Y-117312982D01*
X148069589Y-117328992D01*
X147995852Y-117326288D01*
X147989341Y-117323326D01*
X147939922Y-117282655D01*
X147844868Y-117197274D01*
X147714663Y-117076864D01*
X147559793Y-116931109D01*
X147422771Y-116800395D01*
X147416792Y-116794692D01*
X147413606Y-116791653D01*
X147230444Y-116616596D01*
X147204856Y-116592785D01*
X147089302Y-116485259D01*
X147077869Y-116475334D01*
X147012761Y-116418815D01*
X146976077Y-116386972D01*
X146876665Y-116311066D01*
X146776965Y-116246869D01*
X146683704Y-116195241D01*
X146662874Y-116183711D01*
X146611125Y-116157294D01*
X146520288Y-116110924D01*
X146519656Y-116110606D01*
X146501259Y-116101369D01*
X146248023Y-115983829D01*
X146073824Y-115920101D01*
X146009632Y-115896618D01*
X145763804Y-115834280D01*
X145749649Y-115832075D01*
X145604941Y-115809531D01*
X145488259Y-115791353D01*
X145440252Y-115787106D01*
X145160713Y-115762378D01*
X145103103Y-115758738D01*
X144701553Y-115734242D01*
X144368968Y-115712138D01*
X144326052Y-115708628D01*
X144292905Y-115705918D01*
X147145395Y-115705918D01*
X147145395Y-115733550D01*
X147173026Y-115733550D01*
X147173026Y-115705919D01*
X147145395Y-115705918D01*
X144292905Y-115705918D01*
X144096320Y-115689846D01*
X143937336Y-115671875D01*
X143874578Y-115664782D01*
X143800397Y-115652236D01*
X143769932Y-115647084D01*
X145189335Y-115647084D01*
X145197370Y-115664471D01*
X145244265Y-115666604D01*
X145266449Y-115650655D01*
X145288301Y-115598964D01*
X145285353Y-115592586D01*
X145792630Y-115592586D01*
X145805264Y-115609208D01*
X145838118Y-115621841D01*
X145838631Y-115620217D01*
X146980787Y-115620217D01*
X146993422Y-115636839D01*
X147026275Y-115649473D01*
X147030264Y-115636839D01*
X147018979Y-115623024D01*
X147780921Y-115623024D01*
X147780921Y-115650655D01*
X147808553Y-115650655D01*
X147808552Y-115623024D01*
X147780921Y-115623024D01*
X147018979Y-115623024D01*
X147016723Y-115620262D01*
X147000779Y-115600740D01*
X146993421Y-115599997D01*
X146980787Y-115620217D01*
X145838631Y-115620217D01*
X145842107Y-115609208D01*
X145830822Y-115595392D01*
X147173026Y-115595392D01*
X147200658Y-115595391D01*
X147200658Y-115592130D01*
X147200658Y-115579837D01*
X148217804Y-115579837D01*
X148286476Y-115601386D01*
X148409118Y-115601879D01*
X148525200Y-115594491D01*
X148584855Y-115580787D01*
X148609773Y-115551963D01*
X148618368Y-115516966D01*
X148615537Y-115482650D01*
X148610739Y-115424483D01*
X148798683Y-115424483D01*
X148833694Y-115442789D01*
X148922503Y-115454981D01*
X148979104Y-115457391D01*
X149117714Y-115452075D01*
X149187969Y-115431630D01*
X149185494Y-115397337D01*
X149185184Y-115397025D01*
X149136685Y-115385263D01*
X149045375Y-115383737D01*
X148939860Y-115390413D01*
X148848751Y-115403260D01*
X148800653Y-115420246D01*
X148798683Y-115424483D01*
X148610739Y-115424483D01*
X148610186Y-115417779D01*
X148552129Y-115362229D01*
X148514980Y-115358700D01*
X148461249Y-115353597D01*
X148354597Y-115395159D01*
X148283021Y-115452502D01*
X148217932Y-115531724D01*
X148217804Y-115579837D01*
X147200658Y-115579837D01*
X147200658Y-115567761D01*
X147173027Y-115567761D01*
X147173026Y-115595392D01*
X145830822Y-115595392D01*
X145812621Y-115573108D01*
X145805264Y-115572366D01*
X145792630Y-115592586D01*
X145285353Y-115592586D01*
X145280265Y-115581576D01*
X145233370Y-115579443D01*
X145211186Y-115595392D01*
X145189335Y-115647084D01*
X143769932Y-115647084D01*
X143694714Y-115634364D01*
X143547697Y-115596010D01*
X143424498Y-115547138D01*
X143316087Y-115485164D01*
X143310848Y-115481201D01*
X143213434Y-115407508D01*
X143140485Y-115341444D01*
X143131041Y-115332892D01*
X144276319Y-115332892D01*
X144296539Y-115345526D01*
X144313161Y-115332892D01*
X144325795Y-115300038D01*
X144313161Y-115296051D01*
X144277061Y-115325535D01*
X144276319Y-115332892D01*
X143131041Y-115332892D01*
X143107511Y-115311584D01*
X142989287Y-115194813D01*
X142935755Y-115140907D01*
X144519562Y-115140907D01*
X144536434Y-115165594D01*
X144580200Y-115261030D01*
X144570895Y-115324553D01*
X144549853Y-115420387D01*
X144568055Y-115466625D01*
X144614776Y-115452757D01*
X144655032Y-115407001D01*
X144717581Y-115340907D01*
X144771581Y-115319669D01*
X144771900Y-115319742D01*
X144817720Y-115322036D01*
X144813181Y-115315954D01*
X148782233Y-115315954D01*
X148802278Y-115316325D01*
X148821503Y-115299105D01*
X148857433Y-115233822D01*
X148857850Y-115205576D01*
X148832801Y-115159673D01*
X148804600Y-115183014D01*
X148786862Y-115251421D01*
X148782233Y-115315954D01*
X144813181Y-115315954D01*
X144795591Y-115292385D01*
X144707836Y-115233051D01*
X144678860Y-115215877D01*
X144644161Y-115195313D01*
X144569659Y-115156026D01*
X144564464Y-115153287D01*
X144741450Y-115153287D01*
X144769081Y-115153287D01*
X144769081Y-115133267D01*
X146758173Y-115133267D01*
X146764909Y-115229015D01*
X146802154Y-115255272D01*
X146868594Y-115221881D01*
X146920533Y-115149725D01*
X146933480Y-115059483D01*
X146927853Y-115046017D01*
X146923680Y-115036030D01*
X147550039Y-115036030D01*
X147564016Y-115072968D01*
X147590545Y-115090596D01*
X147657143Y-115099317D01*
X147719507Y-115067183D01*
X147756104Y-115014825D01*
X147745404Y-114962874D01*
X147733992Y-114953153D01*
X147669474Y-114949292D01*
X147601614Y-114983946D01*
X147550039Y-115036030D01*
X146923680Y-115036030D01*
X146908202Y-114998989D01*
X146856736Y-114990774D01*
X146800117Y-115033498D01*
X146762417Y-115105618D01*
X146758173Y-115133267D01*
X144769081Y-115133267D01*
X144769081Y-115125655D01*
X144741450Y-115125656D01*
X144741450Y-115153287D01*
X144564464Y-115153287D01*
X144552239Y-115146841D01*
X144519562Y-115140907D01*
X142935755Y-115140907D01*
X142932961Y-115138093D01*
X142852715Y-115056536D01*
X143357369Y-115056536D01*
X143359872Y-115070393D01*
X143378663Y-115103266D01*
X143384242Y-115101285D01*
X143387933Y-115072680D01*
X144613532Y-115072680D01*
X144629293Y-115096393D01*
X144681525Y-115119773D01*
X144700003Y-115111840D01*
X144707011Y-115065167D01*
X144701633Y-115058207D01*
X144644126Y-115040871D01*
X144630923Y-115042761D01*
X144613532Y-115072680D01*
X143387933Y-115072680D01*
X143390006Y-115056617D01*
X143387899Y-115044955D01*
X143387503Y-115042761D01*
X144382239Y-115042761D01*
X144382239Y-115070393D01*
X144409871Y-115070392D01*
X144409871Y-115042761D01*
X144382239Y-115042761D01*
X143387503Y-115042761D01*
X143368712Y-115009887D01*
X143363134Y-115011868D01*
X143357369Y-115056536D01*
X142852715Y-115056536D01*
X142776866Y-114979448D01*
X142715399Y-114913550D01*
X142663076Y-114857453D01*
X142649674Y-114841118D01*
X142578174Y-114753964D01*
X142508739Y-114650830D01*
X142441355Y-114529907D01*
X142435257Y-114517761D01*
X143111187Y-114517761D01*
X143138820Y-114517761D01*
X143138819Y-114490130D01*
X143111188Y-114490130D01*
X143111187Y-114517761D01*
X142435257Y-114517761D01*
X142416839Y-114481075D01*
X143847336Y-114481075D01*
X143849642Y-114495845D01*
X143884919Y-114547935D01*
X143948778Y-114605907D01*
X144013843Y-114648332D01*
X144052192Y-114654387D01*
X144032568Y-114624996D01*
X143972166Y-114562961D01*
X143946722Y-114539012D01*
X143873115Y-114479547D01*
X143847336Y-114481075D01*
X142416839Y-114481075D01*
X142391847Y-114431295D01*
X143144600Y-114431295D01*
X143152635Y-114448683D01*
X143199530Y-114450816D01*
X143221715Y-114434867D01*
X143243565Y-114383175D01*
X143235530Y-114365788D01*
X143201330Y-114364231D01*
X143188635Y-114363654D01*
X143166451Y-114379603D01*
X143144600Y-114431295D01*
X142391847Y-114431295D01*
X142362602Y-114373045D01*
X142353375Y-114354256D01*
X142350250Y-114347613D01*
X142262470Y-114160979D01*
X142241594Y-114113294D01*
X142452836Y-114113294D01*
X142460732Y-114191312D01*
X142479856Y-114218008D01*
X142525001Y-114233384D01*
X142577658Y-114181862D01*
X142583367Y-114173614D01*
X142660952Y-114102418D01*
X142720278Y-114085525D01*
X142812098Y-114066015D01*
X142821694Y-114043363D01*
X143421017Y-114043363D01*
X143428951Y-114061841D01*
X143475623Y-114068849D01*
X143482583Y-114063471D01*
X143499920Y-114005964D01*
X143498030Y-113992762D01*
X143468110Y-113975370D01*
X143444397Y-113991131D01*
X143421017Y-114043363D01*
X142821694Y-114043363D01*
X142837159Y-114006856D01*
X142834409Y-113990804D01*
X142791899Y-113947609D01*
X142721224Y-113940182D01*
X142665083Y-113971314D01*
X142660574Y-113979440D01*
X142608824Y-114016351D01*
X142561920Y-114020706D01*
X142561283Y-114020928D01*
X142491116Y-114045488D01*
X142452836Y-114113294D01*
X142241594Y-114113294D01*
X142174877Y-113960897D01*
X142156539Y-113915502D01*
X143650059Y-113915502D01*
X143702167Y-113942562D01*
X143716434Y-113946066D01*
X143780497Y-113956232D01*
X143787125Y-113927368D01*
X143772015Y-113885040D01*
X143736381Y-113820819D01*
X143712647Y-113803946D01*
X143674457Y-113834499D01*
X143657065Y-113864972D01*
X143650059Y-113915502D01*
X142156539Y-113915502D01*
X142108930Y-113797652D01*
X142103037Y-113783065D01*
X142071753Y-113696405D01*
X142045292Y-113595563D01*
X142920010Y-113595563D01*
X142947029Y-113635183D01*
X142985899Y-113663562D01*
X143014776Y-113637553D01*
X143037327Y-113590432D01*
X143042631Y-113538320D01*
X142995313Y-113522528D01*
X142928401Y-113540669D01*
X142920010Y-113595563D01*
X142045292Y-113595563D01*
X142039262Y-113572582D01*
X141985704Y-113368467D01*
X141948113Y-113133121D01*
X141937451Y-113066367D01*
X143758823Y-113066367D01*
X143797581Y-113454572D01*
X143908804Y-113822151D01*
X144087783Y-114160806D01*
X144329810Y-114462239D01*
X144630174Y-114718148D01*
X144735702Y-114787748D01*
X144992523Y-114924123D01*
X145242580Y-115004213D01*
X145520013Y-115038333D01*
X145571657Y-115040284D01*
X145901987Y-115016366D01*
X146192320Y-114925326D01*
X146442087Y-114767521D01*
X146571628Y-114628308D01*
X148144492Y-114628308D01*
X148152316Y-114640472D01*
X148200512Y-114648552D01*
X148209209Y-114642103D01*
X148226695Y-114605763D01*
X148224656Y-114602287D01*
X148181703Y-114598058D01*
X148167762Y-114600656D01*
X148144492Y-114628308D01*
X146571628Y-114628308D01*
X146650720Y-114543310D01*
X146739106Y-114390281D01*
X147191442Y-114390281D01*
X147202849Y-114398113D01*
X147245489Y-114403851D01*
X147326389Y-114400541D01*
X147360621Y-114385431D01*
X147373970Y-114361755D01*
X147530670Y-114361755D01*
X147545438Y-114419732D01*
X147549436Y-114424434D01*
X147590727Y-114428660D01*
X147624832Y-114386099D01*
X147629938Y-114326736D01*
X147626788Y-114318086D01*
X147586844Y-114269805D01*
X147576647Y-114266507D01*
X147570356Y-114264472D01*
X147540825Y-114295863D01*
X147530670Y-114361755D01*
X147373970Y-114361755D01*
X147374662Y-114360527D01*
X147370142Y-114360271D01*
X147320718Y-114368424D01*
X147255011Y-114378693D01*
X147191442Y-114390281D01*
X146739106Y-114390281D01*
X146815029Y-114258831D01*
X146890802Y-114011045D01*
X146908129Y-113826787D01*
X147400572Y-113826787D01*
X147445550Y-113858108D01*
X147461655Y-113859210D01*
X147501688Y-113830353D01*
X147501610Y-113774419D01*
X147489158Y-113756263D01*
X147443679Y-113755592D01*
X147421711Y-113771709D01*
X147400572Y-113826787D01*
X146908129Y-113826787D01*
X146915031Y-113753390D01*
X146917945Y-113722402D01*
X146898253Y-113411757D01*
X146881306Y-113329604D01*
X147311184Y-113329604D01*
X147311185Y-113357236D01*
X147338815Y-113357236D01*
X147338816Y-113329604D01*
X147311184Y-113329604D01*
X146881306Y-113329604D01*
X146833521Y-113097960D01*
X146725550Y-112799862D01*
X146664368Y-112677738D01*
X146621452Y-112615149D01*
X147676610Y-112615149D01*
X147716570Y-112790483D01*
X147803303Y-113021347D01*
X147927121Y-113289794D01*
X148050866Y-113509940D01*
X148178102Y-113665052D01*
X148320985Y-113767767D01*
X148430713Y-113813303D01*
X148622730Y-113841040D01*
X148793303Y-113801025D01*
X148929741Y-113701582D01*
X149019358Y-113551043D01*
X149048320Y-113407947D01*
X149048136Y-113289788D01*
X150887841Y-113289788D01*
X150888265Y-113323218D01*
X150903286Y-113329604D01*
X150954477Y-113331134D01*
X150960180Y-113327974D01*
X150950671Y-113294727D01*
X150944734Y-113288156D01*
X150896922Y-113282829D01*
X150887841Y-113289788D01*
X149048136Y-113289788D01*
X149048037Y-113226287D01*
X149043364Y-113205327D01*
X149015627Y-113080920D01*
X150765129Y-113080920D01*
X150765129Y-113108551D01*
X150792761Y-113108552D01*
X150792761Y-113080920D01*
X150765129Y-113080920D01*
X149015627Y-113080920D01*
X149015091Y-113078516D01*
X148940722Y-112954049D01*
X148876899Y-112896783D01*
X148816174Y-112842300D01*
X148692918Y-112768666D01*
X151546224Y-112768666D01*
X151577296Y-112805300D01*
X151609043Y-112809210D01*
X151660685Y-112778598D01*
X151669400Y-112711651D01*
X151662003Y-112691776D01*
X151622311Y-112679324D01*
X151582562Y-112705592D01*
X151546224Y-112768666D01*
X148692918Y-112768666D01*
X148632691Y-112732686D01*
X148397856Y-112621787D01*
X148177568Y-112525934D01*
X148016751Y-112459358D01*
X147903933Y-112418548D01*
X147827645Y-112399991D01*
X147776414Y-112400172D01*
X147738771Y-112415580D01*
X147734242Y-112418542D01*
X147682732Y-112492212D01*
X147676610Y-112615149D01*
X146621452Y-112615149D01*
X146479856Y-112408645D01*
X146417052Y-112343475D01*
X150925235Y-112343475D01*
X150951821Y-112405906D01*
X150996617Y-112496074D01*
X151022072Y-112531131D01*
X151042763Y-112526379D01*
X151055261Y-112514473D01*
X151061062Y-112466618D01*
X151055260Y-112459210D01*
X151055953Y-112413617D01*
X151082892Y-112376316D01*
X151110889Y-112314310D01*
X151078427Y-112268872D01*
X151003175Y-112258523D01*
X150976301Y-112264597D01*
X150925768Y-112291912D01*
X150925235Y-112343475D01*
X146417052Y-112343475D01*
X146248988Y-112169079D01*
X150682234Y-112169079D01*
X150682235Y-112196710D01*
X150709866Y-112196710D01*
X150709866Y-112169079D01*
X150682234Y-112169079D01*
X146248988Y-112169079D01*
X146242414Y-112162257D01*
X145969597Y-111952217D01*
X145904957Y-111916619D01*
X150105754Y-111916619D01*
X150121218Y-111971501D01*
X150171431Y-112035875D01*
X150188460Y-112060231D01*
X150218134Y-112084130D01*
X150256598Y-112058832D01*
X150314149Y-111982323D01*
X150373445Y-111868799D01*
X150403473Y-111757128D01*
X150404384Y-111739963D01*
X150404384Y-111628225D01*
X150269997Y-111670999D01*
X150178000Y-111706308D01*
X150134341Y-111750413D01*
X150112521Y-111824629D01*
X150105754Y-111916619D01*
X145904957Y-111916619D01*
X145678963Y-111792162D01*
X145405248Y-111699488D01*
X145078315Y-111661336D01*
X144771811Y-111694306D01*
X144492827Y-111792511D01*
X144248452Y-111950065D01*
X144045775Y-112161084D01*
X143891886Y-112419682D01*
X143793874Y-112719971D01*
X143758829Y-113056068D01*
X143758823Y-113066367D01*
X141937451Y-113066367D01*
X141924944Y-112988064D01*
X141924624Y-112984210D01*
X142922372Y-112984210D01*
X142942592Y-112996844D01*
X142959214Y-112984210D01*
X142971848Y-112951356D01*
X142959215Y-112947368D01*
X142923115Y-112976853D01*
X142922372Y-112984210D01*
X141924624Y-112984210D01*
X141890876Y-112577144D01*
X141888764Y-112428911D01*
X142025585Y-112428911D01*
X142040244Y-112441974D01*
X142064469Y-112454956D01*
X142119622Y-112509271D01*
X142182036Y-112605402D01*
X142201280Y-112642856D01*
X142246897Y-112737307D01*
X142275348Y-112794491D01*
X142279435Y-112801799D01*
X142306520Y-112779839D01*
X142369059Y-112720114D01*
X142392195Y-112697163D01*
X142456184Y-112624948D01*
X142462389Y-112590073D01*
X142439544Y-112582763D01*
X142372739Y-112605241D01*
X142355621Y-112627751D01*
X142307187Y-112667158D01*
X142284973Y-112667092D01*
X142251285Y-112636224D01*
X142272049Y-112587137D01*
X142332854Y-112538567D01*
X142404395Y-112511859D01*
X142475981Y-112487887D01*
X142492660Y-112462488D01*
X142491745Y-112461478D01*
X142433353Y-112443020D01*
X142424596Y-112444403D01*
X142374562Y-112422961D01*
X142343293Y-112384287D01*
X142302476Y-112342859D01*
X142250861Y-112367259D01*
X142231573Y-112385536D01*
X142148068Y-112433868D01*
X142081199Y-112439200D01*
X142025585Y-112428911D01*
X141888764Y-112428911D01*
X141888149Y-112385744D01*
X141884899Y-112157657D01*
X141900449Y-111889132D01*
X141963171Y-111889132D01*
X142017488Y-111972659D01*
X142043455Y-111990516D01*
X142103212Y-112054187D01*
X142117382Y-112096194D01*
X142133582Y-112140311D01*
X142164645Y-112112622D01*
X142189501Y-112056608D01*
X142206962Y-112017261D01*
X142220709Y-111977880D01*
X142237598Y-111877736D01*
X142221291Y-111805084D01*
X142216665Y-111799555D01*
X142204074Y-111777509D01*
X142174278Y-111725330D01*
X142168951Y-111693125D01*
X142148547Y-111665083D01*
X142082751Y-111692487D01*
X142059257Y-111707538D01*
X141977445Y-111794484D01*
X141963171Y-111889132D01*
X141900449Y-111889132D01*
X141908416Y-111751551D01*
X141934286Y-111542792D01*
X141938741Y-111517842D01*
X141964066Y-111376027D01*
X141982775Y-111289987D01*
X142151450Y-111289987D01*
X142157899Y-111298685D01*
X142194240Y-111316170D01*
X142197715Y-111314131D01*
X142200872Y-111282063D01*
X144300526Y-111282063D01*
X144313160Y-111298685D01*
X144346014Y-111311319D01*
X144350002Y-111298685D01*
X144320517Y-111262586D01*
X144313160Y-111261843D01*
X144300526Y-111282063D01*
X142200872Y-111282063D01*
X142201944Y-111271178D01*
X142199346Y-111257237D01*
X142171693Y-111233967D01*
X142159530Y-111241792D01*
X142151450Y-111289987D01*
X141982775Y-111289987D01*
X142004835Y-111188532D01*
X142052383Y-110995388D01*
X142102500Y-110811674D01*
X142104598Y-110804783D01*
X143441326Y-110804783D01*
X143463491Y-110813502D01*
X143520976Y-110815343D01*
X143530886Y-110793264D01*
X143527292Y-110789132D01*
X143484294Y-110785387D01*
X143463490Y-110789132D01*
X143441326Y-110804783D01*
X142104598Y-110804783D01*
X142126690Y-110732238D01*
X143221714Y-110732238D01*
X143221714Y-110759869D01*
X143249345Y-110759870D01*
X143249345Y-110732238D01*
X143221714Y-110732238D01*
X142126690Y-110732238D01*
X142150981Y-110652469D01*
X142193612Y-110532852D01*
X142226189Y-110467903D01*
X142236364Y-110460528D01*
X142281357Y-110468963D01*
X142387413Y-110492036D01*
X142539539Y-110526402D01*
X142722742Y-110568714D01*
X142757927Y-110576931D01*
X142997499Y-110629056D01*
X143279038Y-110684257D01*
X143566971Y-110735852D01*
X143819071Y-110776189D01*
X144041869Y-110810333D01*
X144197445Y-110838291D01*
X144296201Y-110862968D01*
X144348537Y-110887272D01*
X144364852Y-110914111D01*
X144363083Y-110928264D01*
X144370127Y-110997017D01*
X144411902Y-111063956D01*
X144467158Y-111105039D01*
X144513066Y-111097933D01*
X144557080Y-111005996D01*
X144543668Y-110915551D01*
X144567125Y-110897794D01*
X144650808Y-110892846D01*
X144777731Y-110901433D01*
X144803309Y-110904406D01*
X145083553Y-110932410D01*
X145419034Y-110955605D01*
X145786945Y-110973256D01*
X146164477Y-110984628D01*
X146528818Y-110988986D01*
X146857164Y-110985595D01*
X147068397Y-110977394D01*
X147214347Y-110972331D01*
X147313950Y-110983912D01*
X147398714Y-111021950D01*
X147500145Y-111096258D01*
X147531929Y-111121756D01*
X147890410Y-111374195D01*
X148247149Y-111553032D01*
X148599091Y-111657865D01*
X148943186Y-111688288D01*
X149276380Y-111643898D01*
X149423397Y-111588816D01*
X150157235Y-111588816D01*
X150157235Y-111616447D01*
X150184867Y-111616448D01*
X150184866Y-111588816D01*
X150157235Y-111588816D01*
X149423397Y-111588816D01*
X149595620Y-111524290D01*
X149775449Y-111418775D01*
X149992574Y-111233076D01*
X150153501Y-111001676D01*
X150264928Y-110714839D01*
X150268453Y-110702065D01*
X150330014Y-110475863D01*
X150641032Y-110365131D01*
X150952050Y-110254401D01*
X151008795Y-110481272D01*
%TA.AperFunction,EtchedComponent*%
G36*
X151008795Y-110481272D02*
G01*
X151094187Y-110786985D01*
X151191038Y-111052554D01*
X151308656Y-111293321D01*
X151456346Y-111524629D01*
X151643418Y-111761819D01*
X151879178Y-112020233D01*
X152044453Y-112188437D01*
X152250962Y-112398747D01*
X152401791Y-112562318D01*
X152500575Y-112683299D01*
X152550948Y-112765844D01*
X152551647Y-112767519D01*
X152569653Y-112839810D01*
X152568413Y-112935158D01*
X152545938Y-113068215D01*
X152500236Y-113253628D01*
X152471279Y-113359064D01*
X152418614Y-113540679D01*
X152370623Y-113694804D01*
X152332420Y-113805761D01*
X152309114Y-113857877D01*
X152308295Y-113858797D01*
X152270236Y-113850931D01*
X152187797Y-113792128D01*
X152058096Y-113680089D01*
X151895808Y-113529203D01*
X151736333Y-113379624D01*
X151619810Y-113276228D01*
X151533932Y-113209929D01*
X151466392Y-113171645D01*
X151404884Y-113152287D01*
X151379180Y-113147804D01*
X151233185Y-113160954D01*
X151203334Y-113179262D01*
X151112578Y-113234925D01*
X151030030Y-113353421D01*
X150998212Y-113500151D01*
X151014564Y-113616610D01*
X151038723Y-113678472D01*
X151079608Y-113746328D01*
X151145758Y-113830427D01*
X151245710Y-113941013D01*
X151388004Y-114088331D01*
X151511796Y-114213199D01*
X151967102Y-114669735D01*
X151753097Y-115008361D01*
X151649091Y-115164789D01*
X151545591Y-115306685D01*
X151458001Y-115413509D01*
X151421518Y-115450466D01*
X151303944Y-115553944D01*
X150956812Y-115208511D01*
X150804099Y-115058926D01*
X150691499Y-114956004D01*
X150605644Y-114889421D01*
X150533165Y-114848847D01*
X150460698Y-114823958D01*
X150458136Y-114823280D01*
X150296393Y-114812136D01*
X150161179Y-114860497D01*
X150066299Y-114956809D01*
X150025554Y-115089515D01*
X150032396Y-115179723D01*
X150053862Y-115242948D01*
X150098568Y-115317815D01*
X150175082Y-115415401D01*
X150291964Y-115546779D01*
X150429615Y-115693466D01*
X150801277Y-116084244D01*
X150684296Y-116196831D01*
X150584045Y-116282093D01*
X150452173Y-116380186D01*
X150365140Y-116438823D01*
X150232324Y-116522710D01*
X150105817Y-116600791D01*
X150040979Y-116639662D01*
X149918992Y-116711096D01*
X149446585Y-116270940D01*
X149257671Y-116097053D01*
X149113260Y-115969960D01*
X149002562Y-115881227D01*
X148914787Y-115822414D01*
X148839146Y-115785086D01*
X148812746Y-115775260D01*
X148703206Y-115745517D01*
X148625782Y-115756231D01*
X148541934Y-115814459D01*
X148526492Y-115827668D01*
X148423755Y-115935200D01*
X148371921Y-116043144D01*
X148373461Y-116159907D01*
X148430844Y-116293897D01*
X148546541Y-116453522D01*
X148723022Y-116647190D01*
X148786057Y-116711054D01*
X149119684Y-117044680D01*
X149015044Y-117092015D01*
X148886128Y-117141685D01*
X148722136Y-117192611D01*
X148540777Y-117240797D01*
X148359760Y-117282253D01*
X148196795Y-117312982D01*
X148069589Y-117328992D01*
X147995852Y-117326288D01*
X147989341Y-117323326D01*
X147939922Y-117282655D01*
X147844868Y-117197274D01*
X147714663Y-117076864D01*
X147559793Y-116931109D01*
X147422771Y-116800395D01*
X147416792Y-116794692D01*
X147413606Y-116791653D01*
X147230444Y-116616596D01*
X147204856Y-116592785D01*
X147089302Y-116485259D01*
X147077869Y-116475334D01*
X147012761Y-116418815D01*
X146976077Y-116386972D01*
X146876665Y-116311066D01*
X146776965Y-116246869D01*
X146683704Y-116195241D01*
X146662874Y-116183711D01*
X146611125Y-116157294D01*
X146520288Y-116110924D01*
X146519656Y-116110606D01*
X146501259Y-116101369D01*
X146248023Y-115983829D01*
X146073824Y-115920101D01*
X146009632Y-115896618D01*
X145763804Y-115834280D01*
X145749649Y-115832075D01*
X145604941Y-115809531D01*
X145488259Y-115791353D01*
X145440252Y-115787106D01*
X145160713Y-115762378D01*
X145103103Y-115758738D01*
X144701553Y-115734242D01*
X144368968Y-115712138D01*
X144326052Y-115708628D01*
X144292905Y-115705918D01*
X147145395Y-115705918D01*
X147145395Y-115733550D01*
X147173026Y-115733550D01*
X147173026Y-115705919D01*
X147145395Y-115705918D01*
X144292905Y-115705918D01*
X144096320Y-115689846D01*
X143937336Y-115671875D01*
X143874578Y-115664782D01*
X143800397Y-115652236D01*
X143769932Y-115647084D01*
X145189335Y-115647084D01*
X145197370Y-115664471D01*
X145244265Y-115666604D01*
X145266449Y-115650655D01*
X145288301Y-115598964D01*
X145285353Y-115592586D01*
X145792630Y-115592586D01*
X145805264Y-115609208D01*
X145838118Y-115621841D01*
X145838631Y-115620217D01*
X146980787Y-115620217D01*
X146993422Y-115636839D01*
X147026275Y-115649473D01*
X147030264Y-115636839D01*
X147018979Y-115623024D01*
X147780921Y-115623024D01*
X147780921Y-115650655D01*
X147808553Y-115650655D01*
X147808552Y-115623024D01*
X147780921Y-115623024D01*
X147018979Y-115623024D01*
X147016723Y-115620262D01*
X147000779Y-115600740D01*
X146993421Y-115599997D01*
X146980787Y-115620217D01*
X145838631Y-115620217D01*
X145842107Y-115609208D01*
X145830822Y-115595392D01*
X147173026Y-115595392D01*
X147200658Y-115595391D01*
X147200658Y-115592130D01*
X147200658Y-115579837D01*
X148217804Y-115579837D01*
X148286476Y-115601386D01*
X148409118Y-115601879D01*
X148525200Y-115594491D01*
X148584855Y-115580787D01*
X148609773Y-115551963D01*
X148618368Y-115516966D01*
X148615537Y-115482650D01*
X148610739Y-115424483D01*
X148798683Y-115424483D01*
X148833694Y-115442789D01*
X148922503Y-115454981D01*
X148979104Y-115457391D01*
X149117714Y-115452075D01*
X149187969Y-115431630D01*
X149185494Y-115397337D01*
X149185184Y-115397025D01*
X149136685Y-115385263D01*
X149045375Y-115383737D01*
X148939860Y-115390413D01*
X148848751Y-115403260D01*
X148800653Y-115420246D01*
X148798683Y-115424483D01*
X148610739Y-115424483D01*
X148610186Y-115417779D01*
X148552129Y-115362229D01*
X148514980Y-115358700D01*
X148461249Y-115353597D01*
X148354597Y-115395159D01*
X148283021Y-115452502D01*
X148217932Y-115531724D01*
X148217804Y-115579837D01*
X147200658Y-115579837D01*
X147200658Y-115567761D01*
X147173027Y-115567761D01*
X147173026Y-115595392D01*
X145830822Y-115595392D01*
X145812621Y-115573108D01*
X145805264Y-115572366D01*
X145792630Y-115592586D01*
X145285353Y-115592586D01*
X145280265Y-115581576D01*
X145233370Y-115579443D01*
X145211186Y-115595392D01*
X145189335Y-115647084D01*
X143769932Y-115647084D01*
X143694714Y-115634364D01*
X143547697Y-115596010D01*
X143424498Y-115547138D01*
X143316087Y-115485164D01*
X143310848Y-115481201D01*
X143213434Y-115407508D01*
X143140485Y-115341444D01*
X143131041Y-115332892D01*
X144276319Y-115332892D01*
X144296539Y-115345526D01*
X144313161Y-115332892D01*
X144325795Y-115300038D01*
X144313161Y-115296051D01*
X144277061Y-115325535D01*
X144276319Y-115332892D01*
X143131041Y-115332892D01*
X143107511Y-115311584D01*
X142989287Y-115194813D01*
X142935755Y-115140907D01*
X144519562Y-115140907D01*
X144536434Y-115165594D01*
X144580200Y-115261030D01*
X144570895Y-115324553D01*
X144549853Y-115420387D01*
X144568055Y-115466625D01*
X144614776Y-115452757D01*
X144655032Y-115407001D01*
X144717581Y-115340907D01*
X144771581Y-115319669D01*
X144771900Y-115319742D01*
X144817720Y-115322036D01*
X144813181Y-115315954D01*
X148782233Y-115315954D01*
X148802278Y-115316325D01*
X148821503Y-115299105D01*
X148857433Y-115233822D01*
X148857850Y-115205576D01*
X148832801Y-115159673D01*
X148804600Y-115183014D01*
X148786862Y-115251421D01*
X148782233Y-115315954D01*
X144813181Y-115315954D01*
X144795591Y-115292385D01*
X144707836Y-115233051D01*
X144678860Y-115215877D01*
X144644161Y-115195313D01*
X144569659Y-115156026D01*
X144564464Y-115153287D01*
X144741450Y-115153287D01*
X144769081Y-115153287D01*
X144769081Y-115133267D01*
X146758173Y-115133267D01*
X146764909Y-115229015D01*
X146802154Y-115255272D01*
X146868594Y-115221881D01*
X146920533Y-115149725D01*
X146933480Y-115059483D01*
X146927853Y-115046017D01*
X146923680Y-115036030D01*
X147550039Y-115036030D01*
X147564016Y-115072968D01*
X147590545Y-115090596D01*
X147657143Y-115099317D01*
X147719507Y-115067183D01*
X147756104Y-115014825D01*
X147745404Y-114962874D01*
X147733992Y-114953153D01*
X147669474Y-114949292D01*
X147601614Y-114983946D01*
X147550039Y-115036030D01*
X146923680Y-115036030D01*
X146908202Y-114998989D01*
X146856736Y-114990774D01*
X146800117Y-115033498D01*
X146762417Y-115105618D01*
X146758173Y-115133267D01*
X144769081Y-115133267D01*
X144769081Y-115125655D01*
X144741450Y-115125656D01*
X144741450Y-115153287D01*
X144564464Y-115153287D01*
X144552239Y-115146841D01*
X144519562Y-115140907D01*
X142935755Y-115140907D01*
X142932961Y-115138093D01*
X142852715Y-115056536D01*
X143357369Y-115056536D01*
X143359872Y-115070393D01*
X143378663Y-115103266D01*
X143384242Y-115101285D01*
X143387933Y-115072680D01*
X144613532Y-115072680D01*
X144629293Y-115096393D01*
X144681525Y-115119773D01*
X144700003Y-115111840D01*
X144707011Y-115065167D01*
X144701633Y-115058207D01*
X144644126Y-115040871D01*
X144630923Y-115042761D01*
X144613532Y-115072680D01*
X143387933Y-115072680D01*
X143390006Y-115056617D01*
X143387899Y-115044955D01*
X143387503Y-115042761D01*
X144382239Y-115042761D01*
X144382239Y-115070393D01*
X144409871Y-115070392D01*
X144409871Y-115042761D01*
X144382239Y-115042761D01*
X143387503Y-115042761D01*
X143368712Y-115009887D01*
X143363134Y-115011868D01*
X143357369Y-115056536D01*
X142852715Y-115056536D01*
X142776866Y-114979448D01*
X142715399Y-114913550D01*
X142663076Y-114857453D01*
X142649674Y-114841118D01*
X142578174Y-114753964D01*
X142508739Y-114650830D01*
X142441355Y-114529907D01*
X142435257Y-114517761D01*
X143111187Y-114517761D01*
X143138820Y-114517761D01*
X143138819Y-114490130D01*
X143111188Y-114490130D01*
X143111187Y-114517761D01*
X142435257Y-114517761D01*
X142416839Y-114481075D01*
X143847336Y-114481075D01*
X143849642Y-114495845D01*
X143884919Y-114547935D01*
X143948778Y-114605907D01*
X144013843Y-114648332D01*
X144052192Y-114654387D01*
X144032568Y-114624996D01*
X143972166Y-114562961D01*
X143946722Y-114539012D01*
X143873115Y-114479547D01*
X143847336Y-114481075D01*
X142416839Y-114481075D01*
X142391847Y-114431295D01*
X143144600Y-114431295D01*
X143152635Y-114448683D01*
X143199530Y-114450816D01*
X143221715Y-114434867D01*
X143243565Y-114383175D01*
X143235530Y-114365788D01*
X143201330Y-114364231D01*
X143188635Y-114363654D01*
X143166451Y-114379603D01*
X143144600Y-114431295D01*
X142391847Y-114431295D01*
X142362602Y-114373045D01*
X142353375Y-114354256D01*
X142350250Y-114347613D01*
X142262470Y-114160979D01*
X142241594Y-114113294D01*
X142452836Y-114113294D01*
X142460732Y-114191312D01*
X142479856Y-114218008D01*
X142525001Y-114233384D01*
X142577658Y-114181862D01*
X142583367Y-114173614D01*
X142660952Y-114102418D01*
X142720278Y-114085525D01*
X142812098Y-114066015D01*
X142821694Y-114043363D01*
X143421017Y-114043363D01*
X143428951Y-114061841D01*
X143475623Y-114068849D01*
X143482583Y-114063471D01*
X143499920Y-114005964D01*
X143498030Y-113992762D01*
X143468110Y-113975370D01*
X143444397Y-113991131D01*
X143421017Y-114043363D01*
X142821694Y-114043363D01*
X142837159Y-114006856D01*
X142834409Y-113990804D01*
X142791899Y-113947609D01*
X142721224Y-113940182D01*
X142665083Y-113971314D01*
X142660574Y-113979440D01*
X142608824Y-114016351D01*
X142561920Y-114020706D01*
X142561283Y-114020928D01*
X142491116Y-114045488D01*
X142452836Y-114113294D01*
X142241594Y-114113294D01*
X142174877Y-113960897D01*
X142156539Y-113915502D01*
X143650059Y-113915502D01*
X143702167Y-113942562D01*
X143716434Y-113946066D01*
X143780497Y-113956232D01*
X143787125Y-113927368D01*
X143772015Y-113885040D01*
X143736381Y-113820819D01*
X143712647Y-113803946D01*
X143674457Y-113834499D01*
X143657065Y-113864972D01*
X143650059Y-113915502D01*
X142156539Y-113915502D01*
X142108930Y-113797652D01*
X142103037Y-113783065D01*
X142071753Y-113696405D01*
X142045292Y-113595563D01*
X142920010Y-113595563D01*
X142947029Y-113635183D01*
X142985899Y-113663562D01*
X143014776Y-113637553D01*
X143037327Y-113590432D01*
X143042631Y-113538320D01*
X142995313Y-113522528D01*
X142928401Y-113540669D01*
X142920010Y-113595563D01*
X142045292Y-113595563D01*
X142039262Y-113572582D01*
X141985704Y-113368467D01*
X141948113Y-113133121D01*
X141937451Y-113066367D01*
X143758823Y-113066367D01*
X143797581Y-113454572D01*
X143908804Y-113822151D01*
X144087783Y-114160806D01*
X144329810Y-114462239D01*
X144630174Y-114718148D01*
X144735702Y-114787748D01*
X144992523Y-114924123D01*
X145242580Y-115004213D01*
X145520013Y-115038333D01*
X145571657Y-115040284D01*
X145901987Y-115016366D01*
X146192320Y-114925326D01*
X146442087Y-114767521D01*
X146571628Y-114628308D01*
X148144492Y-114628308D01*
X148152316Y-114640472D01*
X148200512Y-114648552D01*
X148209209Y-114642103D01*
X148226695Y-114605763D01*
X148224656Y-114602287D01*
X148181703Y-114598058D01*
X148167762Y-114600656D01*
X148144492Y-114628308D01*
X146571628Y-114628308D01*
X146650720Y-114543310D01*
X146739106Y-114390281D01*
X147191442Y-114390281D01*
X147202849Y-114398113D01*
X147245489Y-114403851D01*
X147326389Y-114400541D01*
X147360621Y-114385431D01*
X147373970Y-114361755D01*
X147530670Y-114361755D01*
X147545438Y-114419732D01*
X147549436Y-114424434D01*
X147590727Y-114428660D01*
X147624832Y-114386099D01*
X147629938Y-114326736D01*
X147626788Y-114318086D01*
X147586844Y-114269805D01*
X147576647Y-114266507D01*
X147570356Y-114264472D01*
X147540825Y-114295863D01*
X147530670Y-114361755D01*
X147373970Y-114361755D01*
X147374662Y-114360527D01*
X147370142Y-114360271D01*
X147320718Y-114368424D01*
X147255011Y-114378693D01*
X147191442Y-114390281D01*
X146739106Y-114390281D01*
X146815029Y-114258831D01*
X146890802Y-114011045D01*
X146908129Y-113826787D01*
X147400572Y-113826787D01*
X147445550Y-113858108D01*
X147461655Y-113859210D01*
X147501688Y-113830353D01*
X147501610Y-113774419D01*
X147489158Y-113756263D01*
X147443679Y-113755592D01*
X147421711Y-113771709D01*
X147400572Y-113826787D01*
X146908129Y-113826787D01*
X146915031Y-113753390D01*
X146917945Y-113722402D01*
X146898253Y-113411757D01*
X146881306Y-113329604D01*
X147311184Y-113329604D01*
X147311185Y-113357236D01*
X147338815Y-113357236D01*
X147338816Y-113329604D01*
X147311184Y-113329604D01*
X146881306Y-113329604D01*
X146833521Y-113097960D01*
X146725550Y-112799862D01*
X146664368Y-112677738D01*
X146621452Y-112615149D01*
X147676610Y-112615149D01*
X147716570Y-112790483D01*
X147803303Y-113021347D01*
X147927121Y-113289794D01*
X148050866Y-113509940D01*
X148178102Y-113665052D01*
X148320985Y-113767767D01*
X148430713Y-113813303D01*
X148622730Y-113841040D01*
X148793303Y-113801025D01*
X148929741Y-113701582D01*
X149019358Y-113551043D01*
X149048320Y-113407947D01*
X149048136Y-113289788D01*
X150887841Y-113289788D01*
X150888265Y-113323218D01*
X150903286Y-113329604D01*
X150954477Y-113331134D01*
X150960180Y-113327974D01*
X150950671Y-113294727D01*
X150944734Y-113288156D01*
X150896922Y-113282829D01*
X150887841Y-113289788D01*
X149048136Y-113289788D01*
X149048037Y-113226287D01*
X149043364Y-113205327D01*
X149015627Y-113080920D01*
X150765129Y-113080920D01*
X150765129Y-113108551D01*
X150792761Y-113108552D01*
X150792761Y-113080920D01*
X150765129Y-113080920D01*
X149015627Y-113080920D01*
X149015091Y-113078516D01*
X148940722Y-112954049D01*
X148876899Y-112896783D01*
X148816174Y-112842300D01*
X148692918Y-112768666D01*
X151546224Y-112768666D01*
X151577296Y-112805300D01*
X151609043Y-112809210D01*
X151660685Y-112778598D01*
X151669400Y-112711651D01*
X151662003Y-112691776D01*
X151622311Y-112679324D01*
X151582562Y-112705592D01*
X151546224Y-112768666D01*
X148692918Y-112768666D01*
X148632691Y-112732686D01*
X148397856Y-112621787D01*
X148177568Y-112525934D01*
X148016751Y-112459358D01*
X147903933Y-112418548D01*
X147827645Y-112399991D01*
X147776414Y-112400172D01*
X147738771Y-112415580D01*
X147734242Y-112418542D01*
X147682732Y-112492212D01*
X147676610Y-112615149D01*
X146621452Y-112615149D01*
X146479856Y-112408645D01*
X146417052Y-112343475D01*
X150925235Y-112343475D01*
X150951821Y-112405906D01*
X150996617Y-112496074D01*
X151022072Y-112531131D01*
X151042763Y-112526379D01*
X151055261Y-112514473D01*
X151061062Y-112466618D01*
X151055260Y-112459210D01*
X151055953Y-112413617D01*
X151082892Y-112376316D01*
X151110889Y-112314310D01*
X151078427Y-112268872D01*
X151003175Y-112258523D01*
X150976301Y-112264597D01*
X150925768Y-112291912D01*
X150925235Y-112343475D01*
X146417052Y-112343475D01*
X146248988Y-112169079D01*
X150682234Y-112169079D01*
X150682235Y-112196710D01*
X150709866Y-112196710D01*
X150709866Y-112169079D01*
X150682234Y-112169079D01*
X146248988Y-112169079D01*
X146242414Y-112162257D01*
X145969597Y-111952217D01*
X145904957Y-111916619D01*
X150105754Y-111916619D01*
X150121218Y-111971501D01*
X150171431Y-112035875D01*
X150188460Y-112060231D01*
X150218134Y-112084130D01*
X150256598Y-112058832D01*
X150314149Y-111982323D01*
X150373445Y-111868799D01*
X150403473Y-111757128D01*
X150404384Y-111739963D01*
X150404384Y-111628225D01*
X150269997Y-111670999D01*
X150178000Y-111706308D01*
X150134341Y-111750413D01*
X150112521Y-111824629D01*
X150105754Y-111916619D01*
X145904957Y-111916619D01*
X145678963Y-111792162D01*
X145405248Y-111699488D01*
X145078315Y-111661336D01*
X144771811Y-111694306D01*
X144492827Y-111792511D01*
X144248452Y-111950065D01*
X144045775Y-112161084D01*
X143891886Y-112419682D01*
X143793874Y-112719971D01*
X143758829Y-113056068D01*
X143758823Y-113066367D01*
X141937451Y-113066367D01*
X141924944Y-112988064D01*
X141924624Y-112984210D01*
X142922372Y-112984210D01*
X142942592Y-112996844D01*
X142959214Y-112984210D01*
X142971848Y-112951356D01*
X142959215Y-112947368D01*
X142923115Y-112976853D01*
X142922372Y-112984210D01*
X141924624Y-112984210D01*
X141890876Y-112577144D01*
X141888764Y-112428911D01*
X142025585Y-112428911D01*
X142040244Y-112441974D01*
X142064469Y-112454956D01*
X142119622Y-112509271D01*
X142182036Y-112605402D01*
X142201280Y-112642856D01*
X142246897Y-112737307D01*
X142275348Y-112794491D01*
X142279435Y-112801799D01*
X142306520Y-112779839D01*
X142369059Y-112720114D01*
X142392195Y-112697163D01*
X142456184Y-112624948D01*
X142462389Y-112590073D01*
X142439544Y-112582763D01*
X142372739Y-112605241D01*
X142355621Y-112627751D01*
X142307187Y-112667158D01*
X142284973Y-112667092D01*
X142251285Y-112636224D01*
X142272049Y-112587137D01*
X142332854Y-112538567D01*
X142404395Y-112511859D01*
X142475981Y-112487887D01*
X142492660Y-112462488D01*
X142491745Y-112461478D01*
X142433353Y-112443020D01*
X142424596Y-112444403D01*
X142374562Y-112422961D01*
X142343293Y-112384287D01*
X142302476Y-112342859D01*
X142250861Y-112367259D01*
X142231573Y-112385536D01*
X142148068Y-112433868D01*
X142081199Y-112439200D01*
X142025585Y-112428911D01*
X141888764Y-112428911D01*
X141888149Y-112385744D01*
X141884899Y-112157657D01*
X141900449Y-111889132D01*
X141963171Y-111889132D01*
X142017488Y-111972659D01*
X142043455Y-111990516D01*
X142103212Y-112054187D01*
X142117382Y-112096194D01*
X142133582Y-112140311D01*
X142164645Y-112112622D01*
X142189501Y-112056608D01*
X142206962Y-112017261D01*
X142220709Y-111977880D01*
X142237598Y-111877736D01*
X142221291Y-111805084D01*
X142216665Y-111799555D01*
X142204074Y-111777509D01*
X142174278Y-111725330D01*
X142168951Y-111693125D01*
X142148547Y-111665083D01*
X142082751Y-111692487D01*
X142059257Y-111707538D01*
X141977445Y-111794484D01*
X141963171Y-111889132D01*
X141900449Y-111889132D01*
X141908416Y-111751551D01*
X141934286Y-111542792D01*
X141938741Y-111517842D01*
X141964066Y-111376027D01*
X141982775Y-111289987D01*
X142151450Y-111289987D01*
X142157899Y-111298685D01*
X142194240Y-111316170D01*
X142197715Y-111314131D01*
X142200872Y-111282063D01*
X144300526Y-111282063D01*
X144313160Y-111298685D01*
X144346014Y-111311319D01*
X144350002Y-111298685D01*
X144320517Y-111262586D01*
X144313160Y-111261843D01*
X144300526Y-111282063D01*
X142200872Y-111282063D01*
X142201944Y-111271178D01*
X142199346Y-111257237D01*
X142171693Y-111233967D01*
X142159530Y-111241792D01*
X142151450Y-111289987D01*
X141982775Y-111289987D01*
X142004835Y-111188532D01*
X142052383Y-110995388D01*
X142102500Y-110811674D01*
X142104598Y-110804783D01*
X143441326Y-110804783D01*
X143463491Y-110813502D01*
X143520976Y-110815343D01*
X143530886Y-110793264D01*
X143527292Y-110789132D01*
X143484294Y-110785387D01*
X143463490Y-110789132D01*
X143441326Y-110804783D01*
X142104598Y-110804783D01*
X142126690Y-110732238D01*
X143221714Y-110732238D01*
X143221714Y-110759869D01*
X143249345Y-110759870D01*
X143249345Y-110732238D01*
X143221714Y-110732238D01*
X142126690Y-110732238D01*
X142150981Y-110652469D01*
X142193612Y-110532852D01*
X142226189Y-110467903D01*
X142236364Y-110460528D01*
X142281357Y-110468963D01*
X142387413Y-110492036D01*
X142539539Y-110526402D01*
X142722742Y-110568714D01*
X142757927Y-110576931D01*
X142997499Y-110629056D01*
X143279038Y-110684257D01*
X143566971Y-110735852D01*
X143819071Y-110776189D01*
X144041869Y-110810333D01*
X144197445Y-110838291D01*
X144296201Y-110862968D01*
X144348537Y-110887272D01*
X144364852Y-110914111D01*
X144363083Y-110928264D01*
X144370127Y-110997017D01*
X144411902Y-111063956D01*
X144467158Y-111105039D01*
X144513066Y-111097933D01*
X144557080Y-111005996D01*
X144543668Y-110915551D01*
X144567125Y-110897794D01*
X144650808Y-110892846D01*
X144777731Y-110901433D01*
X144803309Y-110904406D01*
X145083553Y-110932410D01*
X145419034Y-110955605D01*
X145786945Y-110973256D01*
X146164477Y-110984628D01*
X146528818Y-110988986D01*
X146857164Y-110985595D01*
X147068397Y-110977394D01*
X147214347Y-110972331D01*
X147313950Y-110983912D01*
X147398714Y-111021950D01*
X147500145Y-111096258D01*
X147531929Y-111121756D01*
X147890410Y-111374195D01*
X148247149Y-111553032D01*
X148599091Y-111657865D01*
X148943186Y-111688288D01*
X149276380Y-111643898D01*
X149423397Y-111588816D01*
X150157235Y-111588816D01*
X150157235Y-111616447D01*
X150184867Y-111616448D01*
X150184866Y-111588816D01*
X150157235Y-111588816D01*
X149423397Y-111588816D01*
X149595620Y-111524290D01*
X149775449Y-111418775D01*
X149992574Y-111233076D01*
X150153501Y-111001676D01*
X150264928Y-110714839D01*
X150268453Y-110702065D01*
X150330014Y-110475863D01*
X150641032Y-110365131D01*
X150952050Y-110254401D01*
X151008795Y-110481272D01*
G37*
%TD.AperFunction*%
%TD*%
D11*
%TO.P,REF\u002A\u002A,*%
%TO.N,*%
X90322400Y-56184800D03*
%TD*%
D12*
%TO.P,BT1,1,+*%
%TO.N,Net-(BT1-+)*%
X110673751Y-77023109D03*
%TO.P,BT1,2,-*%
%TO.N,GND*%
X124754792Y-91175992D03*
%TD*%
D13*
%TO.P,SW1,1,C*%
%TO.N,Net-(BT1-+)*%
X141775000Y-100075000D03*
X135275000Y-100075000D03*
%TO.P,SW1,2,D*%
%TO.N,Net-(SW1A-D)*%
X141775000Y-104575000D03*
X135275000Y-104575000D03*
%TD*%
D14*
%TO.P,R1,1*%
%TO.N,Net-(SW1A-D)*%
X151385000Y-119300000D03*
D15*
%TO.P,R1,2*%
%TO.N,VCC*%
X156465000Y-119300000D03*
%TD*%
D16*
%TO.P,D1,1,K*%
%TO.N,GND*%
X163245800Y-118795800D03*
D17*
%TO.P,D1,2,A*%
%TO.N,VCC*%
X160705800Y-118795800D03*
%TD*%
D18*
%TO.P,REF\u002A\u002A,1*%
%TO.N,N/C*%
X172300000Y-138250000D03*
D19*
%TO.P,REF\u002A\u002A,2*%
X174096051Y-136453949D03*
%TD*%
D16*
%TO.P,D2,1,K*%
%TO.N,GND*%
X154838400Y-126771400D03*
D17*
%TO.P,D2,2,A*%
%TO.N,VCC*%
X152298400Y-126771400D03*
%TD*%
%TA.AperFunction,Conductor*%
%TO.N,GND*%
G36*
X93467405Y-50756512D02*
G01*
X94024532Y-50775816D01*
X94032344Y-50776332D01*
X94587146Y-50830455D01*
X94594966Y-50831467D01*
X95116219Y-50915661D01*
X95116701Y-50915841D01*
X95150831Y-50921252D01*
X95153914Y-50921750D01*
X95160814Y-50922865D01*
X95160814Y-50922864D01*
X95185541Y-50926859D01*
X95186050Y-50926838D01*
X95406503Y-50961803D01*
X95506241Y-50977622D01*
X95515871Y-50979536D01*
X95853211Y-51060384D01*
X95862179Y-51062889D01*
X96189633Y-51167593D01*
X96197850Y-51170539D01*
X96516095Y-51297316D01*
X96523494Y-51300543D01*
X96685034Y-51377268D01*
X96833227Y-51447654D01*
X96839792Y-51451012D01*
X97141561Y-51616634D01*
X97147284Y-51619973D01*
X97441776Y-51802375D01*
X97446690Y-51805579D01*
X97733085Y-52001984D01*
X97738969Y-52006277D01*
X98297620Y-52439173D01*
X98303326Y-52443868D01*
X98755643Y-52838925D01*
X98839561Y-52912219D01*
X98843044Y-52915378D01*
X99363615Y-53405519D01*
X99849686Y-53878876D01*
X99853200Y-53883773D01*
X99871082Y-53899852D01*
X99874745Y-53903280D01*
X99892004Y-53920088D01*
X99897120Y-53923264D01*
X101416316Y-55289270D01*
X102918305Y-56675700D01*
X102919062Y-56676734D01*
X102943846Y-56699276D01*
X102968323Y-56721871D01*
X102969416Y-56722534D01*
X104084337Y-57736662D01*
X104458368Y-58076879D01*
X104460189Y-58079296D01*
X104483431Y-58099676D01*
X104506375Y-58120547D01*
X104508979Y-58122078D01*
X104740387Y-58325000D01*
X105240905Y-58763904D01*
X105242840Y-58766374D01*
X105266308Y-58786180D01*
X105289471Y-58806492D01*
X105292201Y-58808033D01*
X106059943Y-59456003D01*
X106062504Y-59458223D01*
X108861769Y-61952736D01*
X108862199Y-61953302D01*
X108887736Y-61975877D01*
X108913436Y-61998777D01*
X108914046Y-61999132D01*
X111728112Y-64486532D01*
X114564097Y-67004954D01*
X117289159Y-69467190D01*
X117377428Y-69546945D01*
X117379473Y-69548834D01*
X118362868Y-70477657D01*
X118364612Y-70480065D01*
X118387507Y-70500927D01*
X118410026Y-70522201D01*
X118412558Y-70523759D01*
X119388623Y-71413305D01*
X119390361Y-71415616D01*
X119413654Y-71436117D01*
X119436671Y-71457093D01*
X119439157Y-71458562D01*
X121471548Y-73247258D01*
X121472343Y-73248288D01*
X121497404Y-73270013D01*
X121522564Y-73292158D01*
X121523699Y-73292808D01*
X122195273Y-73874999D01*
X123594422Y-75087928D01*
X124636890Y-76003025D01*
X125644069Y-76905792D01*
X125644817Y-76906781D01*
X125662483Y-76922390D01*
X125662484Y-76922392D01*
X125669882Y-76928929D01*
X125677223Y-76935509D01*
X125677224Y-76935509D01*
X125694898Y-76951351D01*
X125695961Y-76951973D01*
X129218595Y-80064651D01*
X129311441Y-80146692D01*
X131118171Y-81770561D01*
X131937429Y-82527739D01*
X132009714Y-82594546D01*
X132493141Y-83053018D01*
X132860221Y-83401148D01*
X132872071Y-83414067D01*
X132883359Y-83428239D01*
X132892613Y-83435017D01*
X132896071Y-83436343D01*
X132911980Y-83443752D01*
X132915220Y-83445545D01*
X132926347Y-83448262D01*
X132944444Y-83447781D01*
X132961965Y-83448536D01*
X133424268Y-83500912D01*
X133430892Y-83502857D01*
X133447209Y-83503930D01*
X133447210Y-83503931D01*
X133453093Y-83504318D01*
X133458956Y-83504842D01*
X133464846Y-83505510D01*
X133464847Y-83505509D01*
X133481156Y-83507357D01*
X133488019Y-83506616D01*
X134012622Y-83541146D01*
X134017941Y-83541610D01*
X134569097Y-83601467D01*
X134579989Y-83603136D01*
X134840911Y-83654904D01*
X134851786Y-83657569D01*
X135082723Y-83725205D01*
X135087124Y-83727416D01*
X135112495Y-83733989D01*
X135116304Y-83735039D01*
X135123296Y-83737088D01*
X135123296Y-83737087D01*
X135141519Y-83742426D01*
X135146434Y-83742782D01*
X135459423Y-83823881D01*
X135465433Y-83825599D01*
X135784088Y-83925363D01*
X135799522Y-83930196D01*
X135805370Y-83932185D01*
X136133165Y-84052742D01*
X136138744Y-84054948D01*
X136459766Y-84190854D01*
X136465243Y-84193328D01*
X136691470Y-84302148D01*
X136779121Y-84344310D01*
X136784401Y-84347005D01*
X136898356Y-84408580D01*
X137090642Y-84512482D01*
X137095704Y-84515372D01*
X137263798Y-84616581D01*
X137393825Y-84694870D01*
X137398694Y-84697955D01*
X137558663Y-84804547D01*
X137688409Y-84891000D01*
X137693098Y-84894281D01*
X137973990Y-85100477D01*
X137978425Y-85103889D01*
X138249911Y-85322662D01*
X138254193Y-85326274D01*
X138515778Y-85557055D01*
X138519914Y-85560871D01*
X138771263Y-85803418D01*
X138775173Y-85807361D01*
X139015855Y-86061055D01*
X139019547Y-86065122D01*
X139249210Y-86329522D01*
X139252703Y-86333727D01*
X139296884Y-86389324D01*
X139470782Y-86608160D01*
X139474149Y-86612594D01*
X139663539Y-86873835D01*
X139665664Y-86878271D01*
X139677263Y-86893260D01*
X139677264Y-86893262D01*
X139681739Y-86899044D01*
X139684089Y-86902182D01*
X139688360Y-86908073D01*
X139699509Y-86923453D01*
X139703165Y-86926733D01*
X139882388Y-87158337D01*
X139892686Y-87173905D01*
X139902160Y-87190830D01*
X140040939Y-87438768D01*
X140048449Y-87454707D01*
X140157437Y-87735424D01*
X140162337Y-87750952D01*
X140234649Y-88045147D01*
X140237318Y-88059594D01*
X140275393Y-88364193D01*
X140276341Y-88377332D01*
X140282496Y-88688872D01*
X140282182Y-88700600D01*
X140259027Y-89015522D01*
X140257814Y-89026001D01*
X140208320Y-89338380D01*
X140205802Y-89350428D01*
X140161138Y-89521868D01*
X140155210Y-89539290D01*
X140154813Y-89540225D01*
X140154954Y-89541241D01*
X140156144Y-89559596D01*
X140154858Y-89713803D01*
X140153392Y-89731940D01*
X140153221Y-89733048D01*
X140153639Y-89734081D01*
X140159230Y-89751410D01*
X140193470Y-89891479D01*
X140196575Y-89911229D01*
X140197130Y-89912739D01*
X140207552Y-89929792D01*
X140269726Y-90053815D01*
X140275697Y-90069541D01*
X140282295Y-90080081D01*
X140293827Y-90092321D01*
X140376836Y-90200644D01*
X140384072Y-90212880D01*
X140385144Y-90213907D01*
X140398001Y-90228264D01*
X140398897Y-90229434D01*
X140410260Y-90237966D01*
X140508330Y-90331907D01*
X140516483Y-90342137D01*
X140521487Y-90345858D01*
X140533463Y-90355979D01*
X140537970Y-90360296D01*
X140549424Y-90366632D01*
X140657875Y-90447274D01*
X140666311Y-90455688D01*
X140674222Y-90460386D01*
X140674224Y-90460388D01*
X140675011Y-90460855D01*
X140685838Y-90468067D01*
X140686578Y-90468618D01*
X140686581Y-90468618D01*
X140693962Y-90474108D01*
X140704965Y-90478647D01*
X140839747Y-90558706D01*
X140843528Y-90561045D01*
X140849344Y-90564793D01*
X140849346Y-90564793D01*
X140850150Y-90565311D01*
X140851096Y-90565447D01*
X140851097Y-90565448D01*
X140857857Y-90566423D01*
X140862332Y-90567151D01*
X141570847Y-90695810D01*
X141578461Y-90697439D01*
X142277502Y-90869860D01*
X142285366Y-90872072D01*
X142675684Y-90995675D01*
X142972381Y-91089630D01*
X142980463Y-91092496D01*
X143650570Y-91356076D01*
X143658837Y-91359674D01*
X144307439Y-91670175D01*
X144315858Y-91674605D01*
X144939814Y-92033751D01*
X144946172Y-92037667D01*
X145244761Y-92234093D01*
X145249045Y-92237040D01*
X145540674Y-92446650D01*
X145544892Y-92449818D01*
X145722549Y-92589274D01*
X145827761Y-92671863D01*
X145831980Y-92675326D01*
X146106221Y-92910488D01*
X146109260Y-92913180D01*
X148207363Y-94832993D01*
X148208469Y-94834480D01*
X148232661Y-94856141D01*
X148256733Y-94878169D01*
X148258321Y-94879119D01*
X150353457Y-96755194D01*
X150354351Y-96756373D01*
X150379249Y-96778289D01*
X150404024Y-96800474D01*
X150405297Y-96801216D01*
X154616979Y-100508313D01*
X154680263Y-100564015D01*
X154684024Y-100568737D01*
X154702705Y-100583903D01*
X154706537Y-100587142D01*
X154724578Y-100603021D01*
X154729847Y-100605936D01*
X154983027Y-100811478D01*
X154989403Y-100817020D01*
X155169520Y-100984494D01*
X155254312Y-101063334D01*
X155256359Y-101065281D01*
X155768096Y-101562952D01*
X155772615Y-101569151D01*
X155788151Y-101582711D01*
X155793144Y-101587312D01*
X155807944Y-101601706D01*
X155814493Y-101605704D01*
X155884300Y-101666638D01*
X156049088Y-101810478D01*
X156056130Y-101818816D01*
X156064830Y-101825140D01*
X156064831Y-101825141D01*
X156066587Y-101826417D01*
X156075370Y-101833420D01*
X156085107Y-101841920D01*
X156094800Y-101846927D01*
X156347901Y-102030914D01*
X156357634Y-102040149D01*
X156362043Y-102042541D01*
X156376059Y-102051383D01*
X156380126Y-102054339D01*
X156392654Y-102059147D01*
X156667820Y-102208424D01*
X156678382Y-102216145D01*
X156684220Y-102218428D01*
X156698432Y-102225031D01*
X156703954Y-102228027D01*
X156716667Y-102231118D01*
X156838667Y-102278836D01*
X156848387Y-102284433D01*
X156858259Y-102287267D01*
X156858260Y-102287268D01*
X156859994Y-102287766D01*
X156871120Y-102291529D01*
X156872810Y-102292190D01*
X156872810Y-102292189D01*
X156882398Y-102295940D01*
X156893523Y-102297390D01*
X157043020Y-102340309D01*
X157046091Y-102341234D01*
X157053529Y-102343582D01*
X157053530Y-102343581D01*
X157054184Y-102343788D01*
X157054867Y-102343710D01*
X157054870Y-102343711D01*
X157062561Y-102342836D01*
X157065802Y-102342511D01*
X157673892Y-102289493D01*
X157682059Y-102290149D01*
X157696543Y-102288022D01*
X157696544Y-102288023D01*
X157701346Y-102287317D01*
X157708680Y-102286460D01*
X157713543Y-102286037D01*
X157713545Y-102286035D01*
X157728152Y-102284763D01*
X157735946Y-102282239D01*
X158310751Y-102197888D01*
X158317248Y-102198077D01*
X158333884Y-102194887D01*
X158333886Y-102194888D01*
X158339973Y-102193721D01*
X158345369Y-102192808D01*
X158351521Y-102191906D01*
X158351522Y-102191905D01*
X158368274Y-102189448D01*
X158374337Y-102187137D01*
X158943314Y-102078134D01*
X158947730Y-102078107D01*
X158974315Y-102072246D01*
X158977748Y-102071539D01*
X159004525Y-102066411D01*
X159008596Y-102064689D01*
X159572545Y-101940392D01*
X159574430Y-101940346D01*
X159596771Y-101935163D01*
X159596772Y-101935164D01*
X159606334Y-101932946D01*
X159615829Y-101930854D01*
X159615829Y-101930853D01*
X159638300Y-101925902D01*
X159640011Y-101925136D01*
X160863171Y-101641507D01*
X161490247Y-101509208D01*
X161494272Y-101508430D01*
X162092635Y-101403081D01*
X162097102Y-101403117D01*
X162116254Y-101399187D01*
X162116256Y-101399188D01*
X162123690Y-101397662D01*
X162127066Y-101397018D01*
X162134600Y-101395693D01*
X162134602Y-101395691D01*
X162153901Y-101392295D01*
X162158037Y-101390618D01*
X162734535Y-101272384D01*
X162740914Y-101271247D01*
X163348799Y-101179099D01*
X163355122Y-101178304D01*
X163965758Y-101117280D01*
X163971915Y-101116818D01*
X164584420Y-101086149D01*
X164590444Y-101085992D01*
X165203704Y-101084906D01*
X165209622Y-101085035D01*
X165822493Y-101112863D01*
X165828285Y-101113260D01*
X166439717Y-101169428D01*
X166445258Y-101170062D01*
X167054163Y-101253606D01*
X167059599Y-101254474D01*
X167664872Y-101364803D01*
X167670168Y-101365887D01*
X168270564Y-101502228D01*
X168275703Y-101503509D01*
X168870358Y-101665166D01*
X168875362Y-101666638D01*
X169462966Y-101852854D01*
X169467808Y-101854498D01*
X170047454Y-102064685D01*
X170052153Y-102066498D01*
X170206318Y-102129511D01*
X170622463Y-102299605D01*
X170627105Y-102301612D01*
X170817448Y-102388482D01*
X171187104Y-102557190D01*
X171191562Y-102559332D01*
X171738840Y-102835832D01*
X171745109Y-102839227D01*
X172683456Y-103382247D01*
X172687278Y-103384550D01*
X173147789Y-103673283D01*
X173152051Y-103676076D01*
X173598599Y-103981884D01*
X173604072Y-103985854D01*
X173796061Y-104133152D01*
X174029477Y-104312235D01*
X174036042Y-104317633D01*
X174211481Y-104472097D01*
X174434351Y-104668323D01*
X174441803Y-104675448D01*
X174739922Y-104984828D01*
X174806780Y-105054212D01*
X174814757Y-105063329D01*
X175121853Y-105450410D01*
X175121952Y-105450534D01*
X175132264Y-105467946D01*
X175143064Y-105478619D01*
X175153208Y-105489932D01*
X175154822Y-105491967D01*
X175157211Y-105492940D01*
X175170922Y-105499514D01*
X175184212Y-105506903D01*
X175203819Y-105511924D01*
X176707402Y-106124336D01*
X176709923Y-106125396D01*
X177472015Y-106455758D01*
X177475167Y-106457176D01*
X178060379Y-106730627D01*
X178225980Y-106808007D01*
X178230346Y-106810151D01*
X178964195Y-107188220D01*
X178969574Y-107191160D01*
X179681730Y-107603289D01*
X179688058Y-107607205D01*
X180372384Y-108059286D01*
X180374767Y-108060860D01*
X180380031Y-108064534D01*
X180611384Y-108234918D01*
X180709983Y-108307532D01*
X180713657Y-108310344D01*
X180956044Y-108502997D01*
X181013995Y-108549057D01*
X181017361Y-108552899D01*
X181032375Y-108564050D01*
X181032376Y-108564052D01*
X181038111Y-108568311D01*
X181041381Y-108570825D01*
X181061647Y-108586932D01*
X181066230Y-108589195D01*
X181230782Y-108711408D01*
X181237397Y-108716675D01*
X181411117Y-108864803D01*
X181417161Y-108870305D01*
X181579610Y-109028181D01*
X181585068Y-109033828D01*
X181735160Y-109199119D01*
X181742215Y-109207607D01*
X182016892Y-109569218D01*
X182024369Y-109580222D01*
X182259628Y-109969175D01*
X182265169Y-109979369D01*
X182465677Y-110392486D01*
X182469660Y-110401589D01*
X182638690Y-110833555D01*
X182641475Y-110841434D01*
X182782327Y-111286279D01*
X182784250Y-111292994D01*
X182899591Y-111742452D01*
X182901590Y-111751655D01*
X183238141Y-113639166D01*
X183238665Y-113642339D01*
X183518113Y-115479858D01*
X183518525Y-115482804D01*
X183633701Y-116382565D01*
X183731161Y-117271185D01*
X183731412Y-117273708D01*
X183809677Y-118149866D01*
X183809893Y-118152621D01*
X183868120Y-119018268D01*
X183868286Y-119021266D01*
X183905397Y-119877189D01*
X183905496Y-119880443D01*
X183920314Y-120727379D01*
X183920326Y-120730868D01*
X183911777Y-121569200D01*
X183911685Y-121572899D01*
X183878797Y-122403659D01*
X183878579Y-122407602D01*
X183820082Y-123231215D01*
X183819722Y-123235333D01*
X183734632Y-124052774D01*
X183734109Y-124057076D01*
X183621262Y-124868933D01*
X183620564Y-124873373D01*
X183478869Y-125680481D01*
X183477987Y-125685016D01*
X183306460Y-126487988D01*
X183305378Y-126492621D01*
X183102737Y-127292175D01*
X183101460Y-127296839D01*
X182866566Y-128093876D01*
X182865101Y-128098513D01*
X182596985Y-128893731D01*
X182595330Y-128898341D01*
X182292778Y-129692317D01*
X182290955Y-129696838D01*
X181952811Y-130490504D01*
X181950835Y-130494905D01*
X181576008Y-131288920D01*
X181573896Y-131293183D01*
X181161137Y-132088325D01*
X181158915Y-132092419D01*
X180707084Y-132889329D01*
X180704779Y-132893230D01*
X180212747Y-133692622D01*
X180210390Y-133696306D01*
X179677121Y-134498892D01*
X179674723Y-134502373D01*
X179098911Y-135308928D01*
X179096495Y-135312200D01*
X178476959Y-136123294D01*
X178474561Y-136126335D01*
X177810215Y-136942814D01*
X177807843Y-136945644D01*
X177097646Y-137768019D01*
X177095306Y-137770653D01*
X176358517Y-138577091D01*
X176355437Y-138579417D01*
X176336942Y-138600653D01*
X176334963Y-138602871D01*
X176315926Y-138623714D01*
X176313968Y-138627038D01*
X175837384Y-139174391D01*
X175835184Y-139176852D01*
X175324329Y-139733434D01*
X175322192Y-139735705D01*
X174797943Y-140279245D01*
X174795841Y-140281373D01*
X174258952Y-140812194D01*
X174256892Y-140814185D01*
X173708062Y-141332673D01*
X173706070Y-141334515D01*
X173145905Y-141841341D01*
X173143970Y-141843056D01*
X172572419Y-142339239D01*
X171991529Y-142823994D01*
X171988910Y-142826121D01*
X170800582Y-143764906D01*
X170797349Y-143767376D01*
X169578918Y-144667620D01*
X169576045Y-144669681D01*
X168332711Y-145535459D01*
X168330223Y-145537147D01*
X167072440Y-146369145D01*
X167063292Y-146374654D01*
X165958666Y-146977574D01*
X165955754Y-146979114D01*
X164830375Y-147555700D01*
X164827160Y-147557290D01*
X163685997Y-148101532D01*
X163682451Y-148103157D01*
X162525528Y-148611582D01*
X162521649Y-148613210D01*
X161349115Y-149082442D01*
X161344888Y-149084046D01*
X160157067Y-149510626D01*
X160152473Y-149512177D01*
X158949386Y-149892653D01*
X158944405Y-149894116D01*
X157740999Y-150220819D01*
X157714002Y-150225076D01*
X157044649Y-150257065D01*
X157041908Y-150257166D01*
X156353278Y-150275065D01*
X156350548Y-150275107D01*
X154963392Y-150281099D01*
X153606539Y-150271345D01*
X153604842Y-150271005D01*
X153572425Y-150271098D01*
X153572142Y-150271098D01*
X153539512Y-150270865D01*
X153537813Y-150271198D01*
X152216549Y-150275002D01*
X152213980Y-150274520D01*
X152182509Y-150275101D01*
X152151068Y-150275192D01*
X152148508Y-150275728D01*
X151485379Y-150287975D01*
X151475161Y-150287749D01*
X150788188Y-150244642D01*
X150778122Y-150243603D01*
X150097591Y-150145615D01*
X150087757Y-150143798D01*
X149417255Y-149992173D01*
X149407705Y-149989616D01*
X148750921Y-149785817D01*
X148741615Y-149782524D01*
X148102560Y-149527843D01*
X148093562Y-149523843D01*
X147475802Y-149219766D01*
X147467064Y-149215028D01*
X146879017Y-148865469D01*
X146864634Y-148855506D01*
X146654633Y-148687313D01*
X146647201Y-148679241D01*
X146636562Y-148672188D01*
X146627423Y-148665520D01*
X146617464Y-148657544D01*
X146607508Y-148652930D01*
X146399653Y-148515153D01*
X146392238Y-148508348D01*
X146379013Y-148501006D01*
X146370577Y-148495880D01*
X146367979Y-148494158D01*
X146367978Y-148494157D01*
X146357977Y-148487529D01*
X146348528Y-148484083D01*
X146133753Y-148364855D01*
X146126900Y-148359412D01*
X146110388Y-148351587D01*
X146103195Y-148347891D01*
X146087267Y-148339049D01*
X146078862Y-148336646D01*
X145857407Y-148231700D01*
X145849813Y-148226456D01*
X145837518Y-148221640D01*
X145833848Y-148220202D01*
X145825862Y-148216751D01*
X145810407Y-148209428D01*
X145801383Y-148207488D01*
X145289552Y-148007050D01*
X145283760Y-148003525D01*
X145262429Y-147996285D01*
X145256986Y-147994296D01*
X145236038Y-147986093D01*
X145229335Y-147985052D01*
X144678641Y-147798134D01*
X144678640Y-147798133D01*
X144105267Y-147598362D01*
X144100575Y-147596621D01*
X143825187Y-147488181D01*
X143819896Y-147485957D01*
X143552759Y-147366444D01*
X143546031Y-147363191D01*
X143463159Y-147320047D01*
X143289613Y-147229696D01*
X143281583Y-147225134D01*
X143037413Y-147074266D01*
X143028379Y-147068128D01*
X143027718Y-147067636D01*
X142907860Y-146978358D01*
X142798029Y-146896549D01*
X142788539Y-146888732D01*
X142569187Y-146689321D01*
X142564903Y-146685239D01*
X142342451Y-146463061D01*
X142078656Y-146199590D01*
X141757293Y-145878622D01*
X141754555Y-145875801D01*
X141424697Y-145525120D01*
X141363330Y-145459879D01*
X141359290Y-145455371D01*
X140992145Y-145025382D01*
X140986688Y-145018521D01*
X140653523Y-144568361D01*
X140648795Y-144561511D01*
X140500412Y-144330555D01*
X140497020Y-144324961D01*
X140360579Y-144086189D01*
X140357201Y-144079866D01*
X140342772Y-144050906D01*
X140234782Y-143834162D01*
X140231528Y-143827089D01*
X140205743Y-143766162D01*
X140124361Y-143573863D01*
X140121333Y-143565982D01*
X140042388Y-143337919D01*
X140030804Y-143304455D01*
X140028206Y-143295998D01*
X139957858Y-143034479D01*
X139954610Y-143015853D01*
X139952688Y-143010882D01*
X139942556Y-142994912D01*
X139892533Y-142897700D01*
X139835554Y-142786968D01*
X139787571Y-142693720D01*
X139780873Y-142678235D01*
X139690085Y-142422581D01*
X139665752Y-142354061D01*
X139662493Y-142343410D01*
X139579401Y-142021602D01*
X139574071Y-142000957D01*
X139572858Y-141995816D01*
X139557673Y-141924788D01*
X139504437Y-141675777D01*
X139504432Y-141675187D01*
X139497039Y-141641167D01*
X139489885Y-141607695D01*
X139489648Y-141607146D01*
X139425904Y-141313729D01*
X139425606Y-141306610D01*
X139419936Y-141285543D01*
X139418481Y-141279558D01*
X139417266Y-141273963D01*
X139417265Y-141273961D01*
X139413854Y-141258257D01*
X139410852Y-141251792D01*
X139331472Y-140956856D01*
X139330167Y-140945507D01*
X139326109Y-140934693D01*
X139322406Y-140923170D01*
X139319415Y-140912058D01*
X139313868Y-140902077D01*
X139273004Y-140793192D01*
X145845068Y-140793192D01*
X145845506Y-140805754D01*
X145852524Y-140818483D01*
X145856837Y-140827065D01*
X145867071Y-140849523D01*
X145875832Y-140860762D01*
X146912115Y-142740532D01*
X146921649Y-142763829D01*
X146926446Y-142769937D01*
X146937685Y-142786913D01*
X146937715Y-142786968D01*
X146937761Y-142786994D01*
X146954656Y-142798387D01*
X146959812Y-142802508D01*
X146960719Y-142803233D01*
X146983923Y-142812960D01*
X148821220Y-143846439D01*
X149310847Y-144121854D01*
X149312923Y-144123612D01*
X149332418Y-144134272D01*
X149332419Y-144134273D01*
X149350542Y-144144183D01*
X149358997Y-144148939D01*
X149359273Y-144149094D01*
X149359584Y-144149127D01*
X149359585Y-144149128D01*
X149364851Y-144149697D01*
X149369314Y-144150180D01*
X149411915Y-144155303D01*
X149414620Y-144155077D01*
X153052678Y-144548380D01*
X153070169Y-144551993D01*
X153079078Y-144552058D01*
X153096611Y-144548701D01*
X156813288Y-144201812D01*
X156831659Y-144201813D01*
X156838669Y-144200419D01*
X156855645Y-144193388D01*
X160217909Y-143155041D01*
X160231217Y-143152759D01*
X160235467Y-143150795D01*
X160251180Y-143144768D01*
X160255663Y-143143383D01*
X160267083Y-143136179D01*
X162877765Y-141929355D01*
X162891616Y-141924788D01*
X162909121Y-141914884D01*
X162920166Y-141905366D01*
X166155523Y-139707298D01*
X166164918Y-139702860D01*
X166173906Y-139695603D01*
X166173907Y-139695603D01*
X166176052Y-139693870D01*
X166184401Y-139687681D01*
X166196227Y-139679647D01*
X166203202Y-139671951D01*
X167964482Y-138249999D01*
X170584189Y-138249999D01*
X170604998Y-138394731D01*
X170604998Y-138394732D01*
X170604999Y-138394734D01*
X170665742Y-138527743D01*
X170703962Y-138575172D01*
X171974828Y-139846038D01*
X172022257Y-139884258D01*
X172155266Y-139945001D01*
X172300000Y-139965810D01*
X172444734Y-139945001D01*
X172577743Y-139884258D01*
X172625172Y-139846038D01*
X173896038Y-138575172D01*
X173934258Y-138527743D01*
X173995001Y-138394734D01*
X174015810Y-138250000D01*
X173995001Y-138105266D01*
X173942721Y-137990790D01*
X173932619Y-137920517D01*
X173962112Y-137855936D01*
X174021838Y-137817553D01*
X174057336Y-137812449D01*
X174208617Y-137812449D01*
X174208620Y-137812449D01*
X174430686Y-137775393D01*
X174643625Y-137702291D01*
X174841627Y-137595138D01*
X175019291Y-137456855D01*
X175171773Y-137291217D01*
X175294911Y-137102740D01*
X175385347Y-136896565D01*
X175440615Y-136678317D01*
X175459207Y-136453949D01*
X175440615Y-136229581D01*
X175385347Y-136011333D01*
X175294911Y-135805158D01*
X175171773Y-135616681D01*
X175019291Y-135451043D01*
X175019290Y-135451042D01*
X175019288Y-135451040D01*
X174841629Y-135312761D01*
X174643624Y-135205606D01*
X174476602Y-135148268D01*
X174430686Y-135132505D01*
X174208620Y-135095449D01*
X173983482Y-135095449D01*
X173761416Y-135132505D01*
X173761413Y-135132505D01*
X173761413Y-135132506D01*
X173548477Y-135205606D01*
X173350472Y-135312761D01*
X173172813Y-135451040D01*
X173020329Y-135616680D01*
X172897190Y-135805158D01*
X172806753Y-136011337D01*
X172760208Y-136195141D01*
X172751487Y-136229581D01*
X172732894Y-136453948D01*
X172732895Y-136453949D01*
X172735167Y-136481366D01*
X172720858Y-136550906D01*
X172671225Y-136601671D01*
X172602026Y-136617543D01*
X172557256Y-136606385D01*
X172444733Y-136554998D01*
X172300000Y-136534189D01*
X172155268Y-136554998D01*
X172022256Y-136615742D01*
X171977458Y-136651842D01*
X171977450Y-136651848D01*
X171974828Y-136653962D01*
X171972444Y-136656345D01*
X171972435Y-136656354D01*
X170706354Y-137922435D01*
X170706345Y-137922444D01*
X170703962Y-137924828D01*
X170701848Y-137927450D01*
X170701842Y-137927458D01*
X170665742Y-137972256D01*
X170604998Y-138105268D01*
X170584189Y-138249999D01*
X167964482Y-138249999D01*
X168883439Y-137508088D01*
X168890463Y-137504149D01*
X168901479Y-137494158D01*
X168901481Y-137494158D01*
X168905174Y-137490808D01*
X168910649Y-137486121D01*
X168914538Y-137482983D01*
X168914538Y-137482981D01*
X168926117Y-137473635D01*
X168931091Y-137467306D01*
X171845080Y-134824960D01*
X171858141Y-134815417D01*
X171868057Y-134804631D01*
X171876471Y-134790815D01*
X174196737Y-131754723D01*
X174202308Y-131749552D01*
X174211030Y-131736782D01*
X174211032Y-131736781D01*
X174214058Y-131732350D01*
X174217955Y-131726959D01*
X174221224Y-131722683D01*
X174221224Y-131722679D01*
X174230604Y-131710410D01*
X174233768Y-131703499D01*
X175929343Y-129221569D01*
X175938599Y-129211076D01*
X175939742Y-129208730D01*
X175948992Y-129192810D01*
X175950455Y-129190668D01*
X175954984Y-129177441D01*
X176882719Y-127273141D01*
X176887990Y-127265694D01*
X176894542Y-127249540D01*
X176898041Y-127241692D01*
X176905653Y-127226072D01*
X176907668Y-127217181D01*
X177964156Y-124612813D01*
X177971137Y-124600037D01*
X177977176Y-124580762D01*
X177978732Y-124566291D01*
X178720553Y-121277554D01*
X178726165Y-121260453D01*
X178727181Y-121252081D01*
X178725820Y-121234124D01*
X178735688Y-120730868D01*
X178800215Y-117439965D01*
X178802177Y-117420155D01*
X178802226Y-117419880D01*
X178802119Y-117419606D01*
X178796354Y-117400568D01*
X178793566Y-117387800D01*
X178325858Y-115246193D01*
X178324089Y-115236148D01*
X178323706Y-115233302D01*
X178323705Y-115233300D01*
X178323418Y-115231171D01*
X178320541Y-115227034D01*
X178315054Y-115218420D01*
X177704853Y-114168875D01*
X177089286Y-113110099D01*
X177081023Y-113093051D01*
X177075838Y-113079922D01*
X177075839Y-113079921D01*
X177075837Y-113079919D01*
X177075746Y-113079687D01*
X177067700Y-113069054D01*
X177066198Y-113067908D01*
X177052049Y-113055329D01*
X177050731Y-113053967D01*
X177039233Y-113047224D01*
X177025318Y-113043540D01*
X177007427Y-113037331D01*
X175402475Y-112341208D01*
X174972322Y-112154635D01*
X174969152Y-112153208D01*
X174952419Y-112145392D01*
X174942316Y-112144944D01*
X174939329Y-112145444D01*
X174929919Y-112149161D01*
X174916650Y-112161997D01*
X174914111Y-112164386D01*
X170427825Y-116269863D01*
X170423939Y-116272299D01*
X170404698Y-116290957D01*
X170402053Y-116293449D01*
X170382299Y-116311528D01*
X170379634Y-116315264D01*
X152449242Y-133705007D01*
X152443243Y-133709102D01*
X152428583Y-133724823D01*
X152424159Y-133729334D01*
X152408744Y-133744284D01*
X152404766Y-133750363D01*
X145891386Y-140735188D01*
X145880152Y-140743945D01*
X145864735Y-140763233D01*
X145858478Y-140770479D01*
X145848560Y-140781117D01*
X145845068Y-140793192D01*
X139273004Y-140793192D01*
X139205835Y-140614218D01*
X139203348Y-140602726D01*
X139199158Y-140594273D01*
X139199158Y-140594272D01*
X139198664Y-140593275D01*
X139193591Y-140581591D01*
X139193201Y-140580551D01*
X139193199Y-140580549D01*
X139189886Y-140571718D01*
X139183188Y-140562052D01*
X139126853Y-140448399D01*
X139123731Y-140438484D01*
X139117780Y-140428619D01*
X139117780Y-140428617D01*
X139116357Y-140426259D01*
X139111359Y-140417140D01*
X139105023Y-140404355D01*
X139098333Y-140396379D01*
X139028590Y-140280756D01*
X139022175Y-140266857D01*
X139011826Y-140252626D01*
X139000573Y-140242232D01*
X138684030Y-139877505D01*
X138681592Y-139874609D01*
X138522399Y-139679647D01*
X138365836Y-139487906D01*
X138363544Y-139485012D01*
X138059588Y-139089208D01*
X138057344Y-139086192D01*
X137766400Y-138682835D01*
X137763218Y-138678210D01*
X137216152Y-137843788D01*
X137212247Y-137837428D01*
X136716341Y-136973478D01*
X136712840Y-136966939D01*
X136268782Y-136075162D01*
X136265663Y-136068406D01*
X136241339Y-136011337D01*
X135874946Y-135151688D01*
X135872229Y-135144748D01*
X135867848Y-135132506D01*
X135535708Y-134204451D01*
X135533957Y-134199193D01*
X135387170Y-133723294D01*
X135386127Y-133719721D01*
X135379661Y-133696306D01*
X135255370Y-133246215D01*
X135252136Y-133230806D01*
X135158854Y-132588655D01*
X135157938Y-132580473D01*
X135122420Y-132130669D01*
X135106409Y-131927897D01*
X135106041Y-131920335D01*
X135106017Y-131919065D01*
X135093830Y-131264352D01*
X135093895Y-131257362D01*
X135094168Y-131249949D01*
X135118150Y-130599809D01*
X135118547Y-130593468D01*
X135176398Y-129936373D01*
X135177033Y-129930669D01*
X135265297Y-129276044D01*
X135266117Y-129270806D01*
X135382078Y-128620751D01*
X135382998Y-128616114D01*
X135523690Y-127971392D01*
X135524300Y-127968742D01*
X135527713Y-127954590D01*
X135666598Y-127378688D01*
X135669132Y-127372898D01*
X135672456Y-127356015D01*
X135672457Y-127356014D01*
X135673678Y-127349812D01*
X135674811Y-127344639D01*
X135680318Y-127321807D01*
X135680439Y-127315479D01*
X135684563Y-127294539D01*
X135787587Y-126771400D01*
X150885073Y-126771400D01*
X150904349Y-127004026D01*
X150904349Y-127004029D01*
X150904350Y-127004030D01*
X150961650Y-127230305D01*
X151005400Y-127330044D01*
X151055416Y-127444069D01*
X151183086Y-127639483D01*
X151254098Y-127716622D01*
X151336758Y-127806415D01*
X151341180Y-127811218D01*
X151525383Y-127954590D01*
X151730673Y-128065687D01*
X151951449Y-128141480D01*
X152181688Y-128179900D01*
X152181691Y-128179900D01*
X152415109Y-128179900D01*
X152415112Y-128179900D01*
X152645351Y-128141480D01*
X152866127Y-128065687D01*
X153071417Y-127954590D01*
X153255620Y-127811218D01*
X153255621Y-127811216D01*
X153263859Y-127804805D01*
X153265112Y-127806415D01*
X153314608Y-127776664D01*
X153385573Y-127778792D01*
X153444121Y-127818949D01*
X153464522Y-127854538D01*
X153487954Y-127917362D01*
X153575495Y-128034304D01*
X153692437Y-128121845D01*
X153829306Y-128172894D01*
X153886463Y-128179040D01*
X153893177Y-128179400D01*
X154584400Y-128179400D01*
X154584400Y-127142862D01*
X154640947Y-127181416D01*
X154770573Y-127221400D01*
X154872124Y-127221400D01*
X154972538Y-127206265D01*
X155092400Y-127148542D01*
X155092400Y-128179400D01*
X155783623Y-128179400D01*
X155790336Y-128179040D01*
X155847493Y-128172894D01*
X155984362Y-128121845D01*
X156101304Y-128034304D01*
X156188845Y-127917362D01*
X156239894Y-127780493D01*
X156246040Y-127723336D01*
X156246400Y-127716622D01*
X156246400Y-127025400D01*
X155211368Y-127025400D01*
X155262025Y-126937660D01*
X155292210Y-126805408D01*
X155282073Y-126670135D01*
X155232513Y-126543859D01*
X155211413Y-126517400D01*
X156246400Y-126517400D01*
X156246400Y-125826177D01*
X156246040Y-125819463D01*
X156239894Y-125762306D01*
X156188845Y-125625437D01*
X156101304Y-125508495D01*
X155984362Y-125420954D01*
X155847493Y-125369905D01*
X155790336Y-125363759D01*
X155783623Y-125363400D01*
X155092400Y-125363400D01*
X155092400Y-126399937D01*
X155035853Y-126361384D01*
X154906227Y-126321400D01*
X154804676Y-126321400D01*
X154704262Y-126336535D01*
X154584400Y-126394257D01*
X154584400Y-125363400D01*
X153893177Y-125363400D01*
X153886463Y-125363759D01*
X153829306Y-125369905D01*
X153692437Y-125420954D01*
X153575495Y-125508495D01*
X153487954Y-125625436D01*
X153464522Y-125688262D01*
X153421975Y-125745097D01*
X153355454Y-125769908D01*
X153286080Y-125754816D01*
X153264120Y-125737658D01*
X153263859Y-125737995D01*
X153230248Y-125711834D01*
X153071417Y-125588210D01*
X153040179Y-125571304D01*
X152866126Y-125477112D01*
X152709216Y-125423245D01*
X152645351Y-125401320D01*
X152415112Y-125362900D01*
X152181688Y-125362900D01*
X151951449Y-125401320D01*
X151951446Y-125401320D01*
X151951446Y-125401321D01*
X151730673Y-125477112D01*
X151525384Y-125588209D01*
X151341179Y-125731582D01*
X151183084Y-125903319D01*
X151055416Y-126098730D01*
X150961650Y-126312494D01*
X150908553Y-126522173D01*
X150904349Y-126538774D01*
X150885073Y-126771400D01*
X135787587Y-126771400D01*
X135791593Y-126751060D01*
X135793492Y-126746231D01*
X135797624Y-126720798D01*
X135798371Y-126716643D01*
X135799739Y-126709702D01*
X135799738Y-126709700D01*
X135803338Y-126691431D01*
X135803241Y-126686242D01*
X135895201Y-126120468D01*
X135896512Y-126116837D01*
X135900389Y-126088773D01*
X135900831Y-126085827D01*
X135902107Y-126077987D01*
X135902106Y-126077985D01*
X135905375Y-126057892D01*
X135905191Y-126054039D01*
X135983470Y-125487812D01*
X135984393Y-125485084D01*
X135988135Y-125454077D01*
X135992398Y-125423245D01*
X135992204Y-125420371D01*
X135994505Y-125401321D01*
X136141255Y-124185902D01*
X136299743Y-122957468D01*
X136305179Y-122942184D01*
X136308492Y-122921926D01*
X136308494Y-122921925D01*
X136308493Y-122921922D01*
X136308781Y-122920165D01*
X136304080Y-122902804D01*
X136303030Y-122898649D01*
X136301419Y-122891781D01*
X136301418Y-122891779D01*
X136298918Y-122881126D01*
X136297829Y-122879714D01*
X136297829Y-122879713D01*
X136297827Y-122879712D01*
X136285297Y-122863467D01*
X136273246Y-122852588D01*
X136001114Y-122474008D01*
X135998069Y-122467714D01*
X135987946Y-122454967D01*
X135987946Y-122454965D01*
X135984303Y-122450377D01*
X135980692Y-122445598D01*
X135967802Y-122427665D01*
X135962578Y-122423016D01*
X135667423Y-122051282D01*
X135664096Y-122045171D01*
X135649529Y-122028517D01*
X135645691Y-122023912D01*
X135631917Y-122006564D01*
X135626502Y-122002189D01*
X135184695Y-121497053D01*
X134959674Y-121239777D01*
X134957736Y-121236498D01*
X134938583Y-121215610D01*
X134936611Y-121213407D01*
X134917940Y-121192060D01*
X134914887Y-121189768D01*
X134500698Y-120738060D01*
X134208865Y-120419791D01*
X134206964Y-120417669D01*
X133521225Y-119633719D01*
X133519208Y-119630310D01*
X133500202Y-119609627D01*
X133498141Y-119607328D01*
X133479668Y-119586209D01*
X133476498Y-119583831D01*
X133022113Y-119089345D01*
X132169913Y-118161934D01*
X130861002Y-116688584D01*
X130412722Y-116173446D01*
X128270555Y-113711789D01*
X127686295Y-113025206D01*
X127286878Y-112538210D01*
X127112374Y-112325442D01*
X127109904Y-112322331D01*
X126559955Y-111606137D01*
X126556577Y-111601523D01*
X126041639Y-110863320D01*
X126038620Y-110858784D01*
X126033891Y-110851336D01*
X125799688Y-110482461D01*
X125797468Y-110478830D01*
X125794610Y-110473973D01*
X125635847Y-110204123D01*
X125571563Y-110094859D01*
X125569220Y-110090698D01*
X125358731Y-109699748D01*
X125356367Y-109695131D01*
X125175180Y-109322644D01*
X125162610Y-109296803D01*
X125160234Y-109291622D01*
X124984912Y-108885223D01*
X124982626Y-108879545D01*
X124979171Y-108870322D01*
X124827248Y-108464777D01*
X124825113Y-108458589D01*
X124703868Y-108075002D01*
X127699999Y-108075002D01*
X127799999Y-110899999D01*
X128197063Y-112091191D01*
X128201612Y-112109139D01*
X128349999Y-112949999D01*
X136724999Y-122449999D01*
X136725000Y-122450000D01*
X137150000Y-121700000D01*
X137076770Y-121089758D01*
X137076711Y-121060242D01*
X137280797Y-119299999D01*
X150171884Y-119299999D01*
X150190314Y-119510655D01*
X150245043Y-119714909D01*
X150334411Y-119906559D01*
X150455701Y-120079779D01*
X150605220Y-120229298D01*
X150778440Y-120350588D01*
X150778441Y-120350588D01*
X150778442Y-120350589D01*
X150970090Y-120439956D01*
X151174345Y-120494686D01*
X151385000Y-120513116D01*
X151595655Y-120494686D01*
X151799910Y-120439956D01*
X151991558Y-120350589D01*
X152164776Y-120229301D01*
X152314301Y-120079776D01*
X152435589Y-119906558D01*
X152524956Y-119714910D01*
X152579686Y-119510655D01*
X152598116Y-119300000D01*
X155251884Y-119300000D01*
X155270314Y-119510655D01*
X155325043Y-119714909D01*
X155414411Y-119906559D01*
X155535701Y-120079779D01*
X155685220Y-120229298D01*
X155858440Y-120350588D01*
X155858441Y-120350588D01*
X155858442Y-120350589D01*
X156050090Y-120439956D01*
X156254345Y-120494686D01*
X156465000Y-120513116D01*
X156675655Y-120494686D01*
X156879910Y-120439956D01*
X157071558Y-120350589D01*
X157244776Y-120229301D01*
X157394301Y-120079776D01*
X157515589Y-119906558D01*
X157604956Y-119714910D01*
X157659686Y-119510655D01*
X157678116Y-119300000D01*
X157659686Y-119089345D01*
X157604956Y-118885090D01*
X157563319Y-118795800D01*
X159292473Y-118795800D01*
X159311749Y-119028426D01*
X159311749Y-119028429D01*
X159311750Y-119028430D01*
X159369050Y-119254705D01*
X159462816Y-119468469D01*
X159549472Y-119601107D01*
X159590486Y-119663883D01*
X159637459Y-119714909D01*
X159744158Y-119830815D01*
X159748580Y-119835618D01*
X159932783Y-119978990D01*
X160138073Y-120090087D01*
X160358849Y-120165880D01*
X160589088Y-120204300D01*
X160589091Y-120204300D01*
X160822509Y-120204300D01*
X160822512Y-120204300D01*
X161052751Y-120165880D01*
X161273527Y-120090087D01*
X161478817Y-119978990D01*
X161663020Y-119835618D01*
X161663021Y-119835616D01*
X161671259Y-119829205D01*
X161672512Y-119830815D01*
X161722008Y-119801064D01*
X161792973Y-119803192D01*
X161851521Y-119843349D01*
X161871922Y-119878938D01*
X161895354Y-119941762D01*
X161982895Y-120058704D01*
X162099837Y-120146245D01*
X162236706Y-120197294D01*
X162293863Y-120203440D01*
X162300577Y-120203800D01*
X162991800Y-120203800D01*
X162991800Y-119167262D01*
X163048347Y-119205816D01*
X163177973Y-119245800D01*
X163279524Y-119245800D01*
X163379938Y-119230665D01*
X163499800Y-119172942D01*
X163499800Y-120203800D01*
X164191023Y-120203800D01*
X164197736Y-120203440D01*
X164254893Y-120197294D01*
X164391762Y-120146245D01*
X164508704Y-120058704D01*
X164596245Y-119941762D01*
X164647294Y-119804893D01*
X164653440Y-119747736D01*
X164653800Y-119741022D01*
X164653800Y-119049800D01*
X163618768Y-119049800D01*
X163669425Y-118962060D01*
X163699610Y-118829808D01*
X163689473Y-118694535D01*
X163639913Y-118568259D01*
X163618813Y-118541800D01*
X164653800Y-118541800D01*
X164653800Y-117850577D01*
X164653440Y-117843863D01*
X164647294Y-117786706D01*
X164596245Y-117649837D01*
X164508704Y-117532895D01*
X164391762Y-117445354D01*
X164254893Y-117394305D01*
X164197736Y-117388159D01*
X164191023Y-117387800D01*
X163499800Y-117387800D01*
X163499800Y-118424337D01*
X163443253Y-118385784D01*
X163313627Y-118345800D01*
X163212076Y-118345800D01*
X163111662Y-118360935D01*
X162991800Y-118418657D01*
X162991800Y-117387800D01*
X162300577Y-117387800D01*
X162293863Y-117388159D01*
X162236706Y-117394305D01*
X162099837Y-117445354D01*
X161982895Y-117532895D01*
X161895354Y-117649836D01*
X161871922Y-117712662D01*
X161829375Y-117769497D01*
X161762854Y-117794308D01*
X161693480Y-117779216D01*
X161671520Y-117762058D01*
X161671259Y-117762395D01*
X161663020Y-117755982D01*
X161478817Y-117612610D01*
X161412633Y-117576793D01*
X161273526Y-117501512D01*
X161116118Y-117447474D01*
X161052751Y-117425720D01*
X160822512Y-117387300D01*
X160589088Y-117387300D01*
X160358849Y-117425720D01*
X160358846Y-117425720D01*
X160358846Y-117425721D01*
X160138073Y-117501512D01*
X159932784Y-117612609D01*
X159748579Y-117755982D01*
X159590484Y-117927719D01*
X159462816Y-118123130D01*
X159369050Y-118336894D01*
X159311750Y-118563169D01*
X159311749Y-118563174D01*
X159292473Y-118795800D01*
X157563319Y-118795800D01*
X157515589Y-118693442D01*
X157394301Y-118520224D01*
X157394300Y-118520223D01*
X157394298Y-118520220D01*
X157244779Y-118370701D01*
X157071559Y-118249411D01*
X156879909Y-118160043D01*
X156675655Y-118105314D01*
X156675654Y-118105314D01*
X156465000Y-118086884D01*
X156464999Y-118086884D01*
X156254344Y-118105314D01*
X156050090Y-118160043D01*
X155858440Y-118249411D01*
X155685220Y-118370701D01*
X155535701Y-118520220D01*
X155414411Y-118693440D01*
X155325043Y-118885090D01*
X155270314Y-119089344D01*
X155251884Y-119300000D01*
X152598116Y-119300000D01*
X152579686Y-119089345D01*
X152524956Y-118885090D01*
X152435589Y-118693442D01*
X152314301Y-118520224D01*
X152314300Y-118520223D01*
X152314298Y-118520220D01*
X152164779Y-118370701D01*
X151991559Y-118249411D01*
X151799909Y-118160043D01*
X151595655Y-118105314D01*
X151595654Y-118105314D01*
X151385000Y-118086884D01*
X151384999Y-118086884D01*
X151174344Y-118105314D01*
X150970090Y-118160043D01*
X150778440Y-118249411D01*
X150605220Y-118370701D01*
X150455701Y-118520220D01*
X150334411Y-118693440D01*
X150245043Y-118885090D01*
X150190314Y-119089344D01*
X150171884Y-119299999D01*
X137280797Y-119299999D01*
X137473099Y-117641392D01*
X137481058Y-117609651D01*
X138221665Y-115733448D01*
X138229517Y-115717111D01*
X139797490Y-112979381D01*
X139802850Y-112970837D01*
X141045745Y-111156211D01*
X141054967Y-111144339D01*
X141314867Y-110848173D01*
X141374831Y-110810167D01*
X141445826Y-110810612D01*
X141505310Y-110849370D01*
X141534398Y-110914134D01*
X141531917Y-110961402D01*
X141515059Y-111029882D01*
X141510900Y-111043369D01*
X141504915Y-111070892D01*
X141504141Y-111074229D01*
X141497403Y-111101599D01*
X141495203Y-111115556D01*
X141469456Y-111233965D01*
X141465960Y-111246757D01*
X141465018Y-111249602D01*
X141460667Y-111273964D01*
X141459755Y-111278573D01*
X141454486Y-111302806D01*
X141454273Y-111305799D01*
X141452632Y-111318965D01*
X141443399Y-111370666D01*
X141437418Y-111392544D01*
X141431816Y-111407564D01*
X141429590Y-111438670D01*
X141428954Y-111445172D01*
X141426783Y-111462689D01*
X141425779Y-111469334D01*
X141422325Y-111488681D01*
X141422050Y-111496790D01*
X141421167Y-111508009D01*
X141401855Y-111663854D01*
X141400285Y-111673464D01*
X141397897Y-111685204D01*
X141396984Y-111700974D01*
X141396239Y-111709172D01*
X141394298Y-111724842D01*
X141394531Y-111736825D01*
X141394344Y-111746559D01*
X141373564Y-112105394D01*
X141372737Y-112114253D01*
X141370927Y-112128257D01*
X141371122Y-112141923D01*
X141370924Y-112150993D01*
X141370134Y-112164632D01*
X141371331Y-112178692D01*
X141371772Y-112187580D01*
X141374310Y-112365655D01*
X141374002Y-112376438D01*
X141370690Y-112422751D01*
X141372748Y-112432213D01*
X141375614Y-112457200D01*
X141377088Y-112560688D01*
X141376874Y-112570038D01*
X141376097Y-112582973D01*
X141376504Y-112587884D01*
X141377322Y-112597746D01*
X141377739Y-112606355D01*
X141377950Y-112621174D01*
X141377951Y-112621179D01*
X141379976Y-112633970D01*
X141381095Y-112643258D01*
X141411424Y-113009089D01*
X141411840Y-113017526D01*
X141412079Y-113032788D01*
X141414053Y-113045150D01*
X141415197Y-113054600D01*
X141416232Y-113067084D01*
X141419645Y-113081960D01*
X141421257Y-113090256D01*
X141429400Y-113141237D01*
X141430656Y-113170095D01*
X141430653Y-113170128D01*
X141442553Y-113224830D01*
X141443855Y-113231739D01*
X141476382Y-113435382D01*
X141477143Y-113440939D01*
X141479697Y-113463271D01*
X141481043Y-113468403D01*
X141483588Y-113480492D01*
X141484423Y-113485722D01*
X141491091Y-113507189D01*
X141492635Y-113512584D01*
X141539135Y-113689796D01*
X141540381Y-113694991D01*
X141553871Y-113757005D01*
X141562406Y-113778487D01*
X141570770Y-113810361D01*
X141572292Y-113816860D01*
X141576290Y-113836220D01*
X141579001Y-113843729D01*
X141582360Y-113854529D01*
X141582892Y-113856555D01*
X141584389Y-113862258D01*
X141592075Y-113880469D01*
X141594504Y-113886677D01*
X141608603Y-113925730D01*
X141612442Y-113938415D01*
X141613847Y-113944128D01*
X141618729Y-113959963D01*
X141622859Y-113978947D01*
X141640467Y-114011195D01*
X141646705Y-114024383D01*
X141685083Y-114119384D01*
X141689691Y-114132972D01*
X141689748Y-114133179D01*
X141700792Y-114158407D01*
X141702194Y-114161740D01*
X141712513Y-114187284D01*
X141712615Y-114187459D01*
X141719118Y-114200270D01*
X141744197Y-114257555D01*
X141777207Y-114332957D01*
X141782065Y-114346073D01*
X141782169Y-114346294D01*
X141782170Y-114346297D01*
X141792834Y-114368972D01*
X141794117Y-114371699D01*
X141795519Y-114374788D01*
X141806893Y-114400767D01*
X141813575Y-114413070D01*
X141833488Y-114455406D01*
X141854769Y-114500653D01*
X141863870Y-114527492D01*
X141864177Y-114528905D01*
X141889107Y-114574562D01*
X141891124Y-114578413D01*
X141893820Y-114583783D01*
X141895231Y-114586683D01*
X141905187Y-114607848D01*
X141905201Y-114607873D01*
X141905567Y-114608651D01*
X141910240Y-114616823D01*
X141920277Y-114637261D01*
X141922939Y-114641782D01*
X141968131Y-114731797D01*
X141973195Y-114743275D01*
X141974922Y-114747785D01*
X141986086Y-114767820D01*
X141988626Y-114772619D01*
X141998917Y-114793118D01*
X141998920Y-114793123D01*
X141998921Y-114793124D01*
X142001684Y-114797094D01*
X142008321Y-114807723D01*
X142028487Y-114843909D01*
X142051044Y-114884388D01*
X142054449Y-114890944D01*
X142062270Y-114907146D01*
X142067750Y-114915285D01*
X142073293Y-114924316D01*
X142078057Y-114932865D01*
X142088944Y-114947151D01*
X142093244Y-114953150D01*
X142143598Y-115027942D01*
X142146859Y-115033050D01*
X142157881Y-115051261D01*
X142161999Y-115056280D01*
X142169098Y-115065819D01*
X142172725Y-115071205D01*
X142172727Y-115071207D01*
X142186999Y-115086985D01*
X142190968Y-115091592D01*
X142214588Y-115120383D01*
X142227761Y-115139912D01*
X142234367Y-115152010D01*
X142234368Y-115152011D01*
X142234369Y-115152012D01*
X142253018Y-115170661D01*
X142256182Y-115174444D01*
X142256377Y-115174263D01*
X142273714Y-115192853D01*
X142278972Y-115198862D01*
X142292846Y-115215770D01*
X142295801Y-115220151D01*
X142300093Y-115224443D01*
X142300094Y-115224444D01*
X142325956Y-115250305D01*
X142344413Y-115268762D01*
X142347458Y-115271915D01*
X142372537Y-115298802D01*
X142372546Y-115298810D01*
X142376011Y-115302525D01*
X142384864Y-115313196D01*
X142385078Y-115313414D01*
X142385080Y-115313416D01*
X142389863Y-115318277D01*
X142404858Y-115333517D01*
X142407184Y-115335945D01*
X142426619Y-115356781D01*
X142436910Y-115366092D01*
X142529979Y-115460682D01*
X142535898Y-115466698D01*
X142537751Y-115468862D01*
X142567723Y-115499044D01*
X142579030Y-115510535D01*
X142592688Y-115524416D01*
X142592692Y-115524419D01*
X142596146Y-115527929D01*
X142598067Y-115530151D01*
X142602311Y-115534342D01*
X142602312Y-115534344D01*
X142626646Y-115558379D01*
X142643320Y-115575170D01*
X142654422Y-115586350D01*
X142658765Y-115590104D01*
X142724018Y-115654554D01*
X142732474Y-115663779D01*
X142735608Y-115667560D01*
X142735609Y-115667561D01*
X142752574Y-115682924D01*
X142756514Y-115686650D01*
X142772792Y-115702728D01*
X142772795Y-115702730D01*
X142772797Y-115702732D01*
X142775882Y-115705012D01*
X142790081Y-115717239D01*
X142829591Y-115756749D01*
X142829593Y-115756750D01*
X142830601Y-115757758D01*
X142852005Y-115772969D01*
X142855802Y-115776407D01*
X142860767Y-115781154D01*
X142874347Y-115794872D01*
X142881121Y-115799996D01*
X142889667Y-115807075D01*
X142895962Y-115812776D01*
X142911945Y-115823549D01*
X142917536Y-115827544D01*
X142965866Y-115864105D01*
X142978944Y-115875496D01*
X142999954Y-115896506D01*
X143021471Y-115908255D01*
X143025562Y-115910565D01*
X143032467Y-115915124D01*
X143035588Y-115916848D01*
X143035589Y-115916849D01*
X143064459Y-115932801D01*
X143126880Y-115968485D01*
X143169926Y-115993093D01*
X143201264Y-116011055D01*
X143201533Y-116011161D01*
X143201536Y-116011163D01*
X143235225Y-116024482D01*
X143352311Y-116070929D01*
X143354619Y-116071872D01*
X143382538Y-116083610D01*
X143382541Y-116083610D01*
X143384271Y-116084338D01*
X143390658Y-116086429D01*
X143392484Y-116086866D01*
X143392487Y-116086867D01*
X143409356Y-116090903D01*
X143421815Y-116093884D01*
X143424301Y-116094505D01*
X143458763Y-116103495D01*
X143548054Y-116126789D01*
X143554683Y-116128715D01*
X143572882Y-116134552D01*
X143581254Y-116135967D01*
X143581424Y-116135996D01*
X143592239Y-116138315D01*
X143600625Y-116140504D01*
X143617426Y-116142400D01*
X143619579Y-116142643D01*
X143626448Y-116143610D01*
X143700068Y-116156059D01*
X143705833Y-116157174D01*
X143767004Y-116170482D01*
X143778790Y-116170724D01*
X143780409Y-116170907D01*
X143780417Y-116170909D01*
X143799441Y-116173058D01*
X143806276Y-116174022D01*
X143825157Y-116177216D01*
X143833796Y-116177429D01*
X143844824Y-116178188D01*
X143847356Y-116178474D01*
X143859973Y-116180555D01*
X143900327Y-116189334D01*
X143915137Y-116188274D01*
X143938268Y-116188749D01*
X144003091Y-116196077D01*
X144016974Y-116198440D01*
X144017876Y-116198646D01*
X144044679Y-116200836D01*
X144048456Y-116201204D01*
X144075134Y-116204221D01*
X144076071Y-116204192D01*
X144090130Y-116204552D01*
X144241893Y-116216960D01*
X144258394Y-116219419D01*
X144289043Y-116226087D01*
X144313891Y-116224309D01*
X144333007Y-116224410D01*
X144363711Y-116226923D01*
X144363730Y-116226921D01*
X144367042Y-116227194D01*
X144375658Y-116227214D01*
X144616054Y-116243192D01*
X144623604Y-116243694D01*
X144626908Y-116244143D01*
X144668892Y-116246704D01*
X144704144Y-116249047D01*
X144704144Y-116249046D01*
X144710902Y-116249496D01*
X144714230Y-116249469D01*
X145022823Y-116268294D01*
X145041919Y-116270937D01*
X145066094Y-116276197D01*
X145096783Y-116274001D01*
X145113710Y-116273932D01*
X145120294Y-116274348D01*
X145123413Y-116274583D01*
X145354840Y-116295055D01*
X145370500Y-116297441D01*
X145403243Y-116304565D01*
X145418732Y-116303457D01*
X145447118Y-116304638D01*
X145463222Y-116307146D01*
X145507060Y-116313976D01*
X145514409Y-116315346D01*
X145567932Y-116326990D01*
X145569203Y-116326899D01*
X145597589Y-116328080D01*
X145615398Y-116330854D01*
X145651757Y-116336518D01*
X145659118Y-116337890D01*
X145668273Y-116339882D01*
X145672384Y-116340850D01*
X145844623Y-116384527D01*
X145874033Y-116396072D01*
X145892529Y-116406172D01*
X145921962Y-116412574D01*
X145938456Y-116417362D01*
X146046410Y-116456855D01*
X146056158Y-116460892D01*
X146276014Y-116562938D01*
X146283343Y-116566635D01*
X146338361Y-116596677D01*
X146338362Y-116596677D01*
X146344898Y-116600246D01*
X146360022Y-116605649D01*
X146369763Y-116610621D01*
X146372816Y-116612233D01*
X146429830Y-116643365D01*
X146441906Y-116649959D01*
X146451164Y-116653442D01*
X146509654Y-116685822D01*
X146516840Y-116690118D01*
X146577145Y-116728947D01*
X146585375Y-116734724D01*
X146648495Y-116782920D01*
X146654604Y-116787895D01*
X146657850Y-116790712D01*
X146659106Y-116791802D01*
X146665602Y-116797855D01*
X146684699Y-116816952D01*
X146701867Y-116834120D01*
X146704885Y-116835768D01*
X146733597Y-116857262D01*
X146769331Y-116892996D01*
X146788657Y-116906928D01*
X146846627Y-116960870D01*
X146849861Y-116963989D01*
X146893962Y-117008090D01*
X146893964Y-117008091D01*
X146899374Y-117013501D01*
X146912781Y-117023303D01*
X147032351Y-117137584D01*
X147032477Y-117137713D01*
X147032606Y-117137876D01*
X147056924Y-117161072D01*
X147059010Y-117163109D01*
X147088522Y-117192621D01*
X147117118Y-117221217D01*
X147129299Y-117230113D01*
X147173657Y-117272430D01*
X147173838Y-117272602D01*
X147176607Y-117275628D01*
X147206594Y-117303850D01*
X147236423Y-117332306D01*
X147239589Y-117334903D01*
X147331478Y-117421384D01*
X147335033Y-117425210D01*
X147350993Y-117439969D01*
X147364384Y-117452353D01*
X147369556Y-117457221D01*
X147393481Y-117479737D01*
X147397542Y-117483017D01*
X147401869Y-117487018D01*
X147466067Y-117546387D01*
X147471764Y-117552377D01*
X147498947Y-117576793D01*
X147525798Y-117601625D01*
X147532295Y-117606748D01*
X147538247Y-117612094D01*
X147570870Y-117641398D01*
X147573076Y-117643379D01*
X147581970Y-117652205D01*
X147585259Y-117655811D01*
X147602979Y-117670394D01*
X147607046Y-117673891D01*
X147624102Y-117689212D01*
X147624105Y-117689214D01*
X147630809Y-117695236D01*
X147630108Y-117696015D01*
X147642082Y-117706565D01*
X147650185Y-117715889D01*
X147669375Y-117728182D01*
X147674152Y-117731242D01*
X147692131Y-117745201D01*
X147699573Y-117752143D01*
X147726929Y-117765869D01*
X147738359Y-117772374D01*
X147743280Y-117775526D01*
X147743285Y-117775528D01*
X147744087Y-117776042D01*
X147755300Y-117781970D01*
X147785886Y-117800546D01*
X147795005Y-117802973D01*
X147819094Y-117812112D01*
X147831552Y-117818364D01*
X147871233Y-117825561D01*
X147884057Y-117828588D01*
X147922771Y-117839895D01*
X147963207Y-117839835D01*
X147969621Y-117840811D01*
X147986731Y-117841112D01*
X147986734Y-117841113D01*
X148055660Y-117842326D01*
X148087471Y-117843493D01*
X148087475Y-117843492D01*
X148089696Y-117843574D01*
X148095069Y-117843336D01*
X148097270Y-117843058D01*
X148097275Y-117843059D01*
X148128884Y-117839080D01*
X148197407Y-117831780D01*
X148197410Y-117831778D01*
X148207777Y-117830674D01*
X148218771Y-117827767D01*
X148221100Y-117827473D01*
X148235028Y-117825720D01*
X148245264Y-117824855D01*
X148255857Y-117824394D01*
X148272733Y-117821211D01*
X148280296Y-117820023D01*
X148297355Y-117817877D01*
X148307611Y-117815060D01*
X148317593Y-117812752D01*
X148422193Y-117793028D01*
X148435182Y-117791274D01*
X148438595Y-117790993D01*
X148462376Y-117785546D01*
X148467022Y-117784576D01*
X148490998Y-117780056D01*
X148494249Y-117778945D01*
X148506845Y-117775361D01*
X148621637Y-117749072D01*
X148635065Y-117746753D01*
X148635177Y-117746739D01*
X148637143Y-117746509D01*
X148662006Y-117739902D01*
X148666145Y-117738879D01*
X148691206Y-117733140D01*
X148693137Y-117732395D01*
X148706107Y-117728184D01*
X148822646Y-117697221D01*
X148835112Y-117694577D01*
X148839352Y-117693901D01*
X148861810Y-117686926D01*
X148866768Y-117685497D01*
X148889487Y-117679462D01*
X148893423Y-117677785D01*
X148905396Y-117673390D01*
X149015174Y-117639299D01*
X149024391Y-117636817D01*
X149036477Y-117634053D01*
X149050863Y-117628509D01*
X149058778Y-117625759D01*
X149073488Y-117621192D01*
X149084667Y-117615875D01*
X149093460Y-117612096D01*
X149115456Y-117603622D01*
X149174071Y-117581039D01*
X149184305Y-117577591D01*
X149193224Y-117575008D01*
X149210067Y-117567388D01*
X149216671Y-117564625D01*
X149233930Y-117557976D01*
X149242051Y-117553426D01*
X149251665Y-117548571D01*
X149269744Y-117540392D01*
X149294876Y-117532078D01*
X149300980Y-117530751D01*
X149344731Y-117506859D01*
X149353164Y-117502658D01*
X149355697Y-117501512D01*
X149364784Y-117497402D01*
X149377478Y-117489307D01*
X149384806Y-117484977D01*
X149430578Y-117459984D01*
X149433348Y-117457213D01*
X149454703Y-117440068D01*
X149458005Y-117437963D01*
X149492301Y-117398667D01*
X149498105Y-117392455D01*
X149534989Y-117355573D01*
X149536867Y-117352132D01*
X149552524Y-117329668D01*
X149555102Y-117326716D01*
X149576943Y-117279338D01*
X149580762Y-117271743D01*
X149589059Y-117256549D01*
X149639258Y-117206350D01*
X149708631Y-117191257D01*
X149741316Y-117200325D01*
X149752336Y-117202378D01*
X149752337Y-117202379D01*
X149781651Y-117207841D01*
X149798402Y-117212171D01*
X149826690Y-117221599D01*
X149853045Y-117222550D01*
X149871566Y-117224598D01*
X149897498Y-117229431D01*
X149927174Y-117226412D01*
X149944447Y-117225848D01*
X149974254Y-117226924D01*
X149999810Y-117220410D01*
X150018151Y-117217159D01*
X150044400Y-117214490D01*
X150072030Y-117203229D01*
X150088447Y-117197822D01*
X150117341Y-117190460D01*
X150179520Y-117153599D01*
X150263858Y-117104211D01*
X150269276Y-117101504D01*
X150273510Y-117098965D01*
X150273516Y-117098963D01*
X150302717Y-117081456D01*
X150332152Y-117064220D01*
X150332161Y-117064212D01*
X150338255Y-117060644D01*
X150339321Y-117060103D01*
X150344265Y-117057051D01*
X150344268Y-117057050D01*
X150372705Y-117039497D01*
X150401349Y-117022326D01*
X150401355Y-117022320D01*
X150404848Y-117020227D01*
X150410919Y-117015911D01*
X150465929Y-116981959D01*
X150471324Y-116979104D01*
X150475482Y-116976477D01*
X150475488Y-116976475D01*
X150498221Y-116962115D01*
X150504364Y-116958236D01*
X150513338Y-116952696D01*
X150533276Y-116940392D01*
X150533278Y-116940390D01*
X150537478Y-116937798D01*
X150542387Y-116934219D01*
X150608721Y-116892323D01*
X150621178Y-116885410D01*
X150621602Y-116885206D01*
X150644202Y-116869979D01*
X150647305Y-116867955D01*
X150659539Y-116860227D01*
X150670403Y-116853366D01*
X150670767Y-116853055D01*
X150682126Y-116844429D01*
X150713581Y-116823236D01*
X150723940Y-116816958D01*
X150729183Y-116814117D01*
X150746674Y-116801105D01*
X150751456Y-116797718D01*
X150769548Y-116785530D01*
X150773977Y-116781520D01*
X150783308Y-116773855D01*
X150870634Y-116708898D01*
X150878665Y-116703395D01*
X150888748Y-116697047D01*
X150900851Y-116686752D01*
X150907231Y-116681675D01*
X150919987Y-116672188D01*
X150928445Y-116663779D01*
X150935610Y-116657189D01*
X150997171Y-116604833D01*
X151005219Y-116598533D01*
X151013920Y-116592278D01*
X151026230Y-116580429D01*
X151031924Y-116575276D01*
X151044948Y-116564201D01*
X151052048Y-116556157D01*
X151059103Y-116548790D01*
X151156215Y-116455327D01*
X151208659Y-116405449D01*
X151223694Y-116379481D01*
X151233320Y-116365206D01*
X151251758Y-116341537D01*
X151261378Y-116317179D01*
X151269531Y-116300322D01*
X151282651Y-116277665D01*
X151289761Y-116248514D01*
X151294974Y-116232112D01*
X151305999Y-116204199D01*
X151308366Y-116178118D01*
X151311439Y-116159653D01*
X151312316Y-116156058D01*
X151313222Y-116152341D01*
X151348796Y-116090903D01*
X151399199Y-116061583D01*
X151428941Y-116052600D01*
X151438277Y-116050166D01*
X151486431Y-116039569D01*
X151492368Y-116036307D01*
X151516606Y-116026124D01*
X151523089Y-116024166D01*
X151564353Y-115997194D01*
X151572624Y-115992228D01*
X151615856Y-115968485D01*
X151653020Y-115931136D01*
X151659075Y-115925441D01*
X151743328Y-115851291D01*
X151750417Y-115845495D01*
X151752820Y-115843671D01*
X151761154Y-115837349D01*
X151771195Y-115827176D01*
X151777607Y-115821120D01*
X151788342Y-115811674D01*
X151797109Y-115801395D01*
X151803271Y-115794683D01*
X151812087Y-115785752D01*
X151816661Y-115781350D01*
X151825817Y-115772969D01*
X151831799Y-115767494D01*
X151836386Y-115761898D01*
X151844144Y-115753279D01*
X151849236Y-115748122D01*
X151861446Y-115731587D01*
X151865340Y-115726587D01*
X151925190Y-115653596D01*
X151932431Y-115645503D01*
X151932952Y-115644967D01*
X151938814Y-115638960D01*
X151949798Y-115623899D01*
X151954135Y-115618293D01*
X151965960Y-115603874D01*
X151970704Y-115596028D01*
X151976698Y-115587019D01*
X152045222Y-115493075D01*
X152053094Y-115483341D01*
X152053574Y-115482804D01*
X152056368Y-115479680D01*
X152069030Y-115460634D01*
X152072117Y-115456203D01*
X152085597Y-115437725D01*
X152087903Y-115433372D01*
X152094308Y-115422615D01*
X152138229Y-115356558D01*
X152159501Y-115324562D01*
X152166947Y-115314701D01*
X152167555Y-115313737D01*
X152167558Y-115313735D01*
X152183235Y-115288926D01*
X152184821Y-115286482D01*
X152201040Y-115262090D01*
X152201043Y-115262083D01*
X152201667Y-115261145D01*
X152207632Y-115250321D01*
X152362910Y-115004622D01*
X152380441Y-114982729D01*
X152381987Y-114981188D01*
X152407874Y-114933929D01*
X152411828Y-114927217D01*
X152420801Y-114913021D01*
X152425315Y-114902932D01*
X152429793Y-114893916D01*
X152452928Y-114851685D01*
X152454630Y-114843906D01*
X152462710Y-114819376D01*
X152465964Y-114812107D01*
X152472455Y-114764380D01*
X152474210Y-114754477D01*
X152484510Y-114707442D01*
X152483952Y-114699492D01*
X152484792Y-114673697D01*
X152485868Y-114665794D01*
X152478655Y-114618197D01*
X152477542Y-114608137D01*
X152475320Y-114576464D01*
X152474175Y-114560144D01*
X152471400Y-114552674D01*
X152464938Y-114527685D01*
X152463744Y-114519801D01*
X152454181Y-114499276D01*
X152443544Y-114429083D01*
X152472545Y-114364279D01*
X152506858Y-114336114D01*
X152532496Y-114321767D01*
X152543174Y-114316441D01*
X152582902Y-114298938D01*
X152582907Y-114298933D01*
X152587557Y-114296885D01*
X152593014Y-114292080D01*
X152593018Y-114292079D01*
X152596002Y-114289451D01*
X152617720Y-114274076D01*
X152623486Y-114270850D01*
X152653843Y-114239853D01*
X152662612Y-114231713D01*
X152667418Y-114227662D01*
X152667424Y-114227654D01*
X152667972Y-114227193D01*
X152677644Y-114217573D01*
X152703847Y-114194505D01*
X152706846Y-114189756D01*
X152723355Y-114168881D01*
X152726807Y-114165358D01*
X152746342Y-114128679D01*
X152752448Y-114118424D01*
X152778086Y-114079683D01*
X152782293Y-114066029D01*
X152791497Y-114043903D01*
X152796223Y-114035032D01*
X152796223Y-114035030D01*
X152797445Y-114032737D01*
X152803258Y-114016258D01*
X152803054Y-114016188D01*
X152805989Y-114007658D01*
X152805992Y-114007654D01*
X152808687Y-113999823D01*
X152812797Y-113989414D01*
X152816175Y-113981864D01*
X152821519Y-113963118D01*
X152823549Y-113956658D01*
X152844369Y-113896186D01*
X152849767Y-113882991D01*
X152849987Y-113882530D01*
X152858097Y-113856481D01*
X152859220Y-113853054D01*
X152868106Y-113827249D01*
X152868205Y-113826727D01*
X152871659Y-113812926D01*
X152897177Y-113730974D01*
X152900996Y-113720939D01*
X152910401Y-113688508D01*
X152919814Y-113658278D01*
X152919821Y-113658234D01*
X152920439Y-113656254D01*
X152922778Y-113645823D01*
X152952993Y-113541624D01*
X152955749Y-113533996D01*
X152963112Y-113507189D01*
X152965471Y-113498598D01*
X152974690Y-113466807D01*
X152974690Y-113466800D01*
X152975705Y-113463303D01*
X152977345Y-113455360D01*
X152985531Y-113425551D01*
X152989933Y-113412547D01*
X152990022Y-113412184D01*
X152990025Y-113412178D01*
X152996805Y-113384665D01*
X152997632Y-113381494D01*
X153005226Y-113353847D01*
X153007736Y-113340318D01*
X153020401Y-113288938D01*
X153039273Y-113212372D01*
X153041621Y-113204078D01*
X153046149Y-113189951D01*
X153048306Y-113177173D01*
X153050203Y-113168029D01*
X153053304Y-113155452D01*
X153054768Y-113140681D01*
X153055905Y-113132185D01*
X153060050Y-113107646D01*
X153062177Y-113100883D01*
X153064503Y-113086078D01*
X153075229Y-113017785D01*
X153080857Y-112984472D01*
X153080857Y-112984469D01*
X153081353Y-112981534D01*
X153081831Y-112944755D01*
X153082055Y-112935604D01*
X153083008Y-112896755D01*
X153085101Y-112876806D01*
X153087987Y-112861328D01*
X153084219Y-112824273D01*
X153083585Y-112809883D01*
X153083587Y-112809767D01*
X153080005Y-112782330D01*
X153079596Y-112778798D01*
X153078937Y-112772314D01*
X153076805Y-112751337D01*
X153076774Y-112751213D01*
X153074097Y-112737060D01*
X153069278Y-112700138D01*
X153064444Y-112689177D01*
X153054628Y-112653353D01*
X153051981Y-112631312D01*
X153050784Y-112628521D01*
X153025051Y-112568515D01*
X152999331Y-112505389D01*
X152981335Y-112482790D01*
X152971720Y-112468895D01*
X152954030Y-112439259D01*
X152954028Y-112439257D01*
X152946888Y-112427295D01*
X152943046Y-112422599D01*
X152939717Y-112417143D01*
X152921552Y-112386972D01*
X152920760Y-112385656D01*
X152897420Y-112357418D01*
X152884184Y-112341208D01*
X152816242Y-112257998D01*
X152810019Y-112249698D01*
X152804191Y-112241218D01*
X152792329Y-112228354D01*
X152787379Y-112222651D01*
X152776314Y-112209099D01*
X152776312Y-112209096D01*
X152768737Y-112202134D01*
X152761373Y-112194782D01*
X152683048Y-112109841D01*
X152652636Y-112076860D01*
X152643717Y-112066035D01*
X152643087Y-112065177D01*
X152624378Y-112046123D01*
X152621657Y-112043263D01*
X152614774Y-112035799D01*
X152603572Y-112023651D01*
X152602734Y-112022969D01*
X152592379Y-112013536D01*
X152442893Y-111861298D01*
X152442752Y-111861132D01*
X152410063Y-111827864D01*
X152378952Y-111796181D01*
X152378802Y-111796049D01*
X152253755Y-111668786D01*
X152250547Y-111665398D01*
X152038238Y-111432689D01*
X152032388Y-111425795D01*
X151948131Y-111318965D01*
X151879263Y-111231647D01*
X151872004Y-111221437D01*
X151761060Y-111047678D01*
X151754046Y-111035177D01*
X151667137Y-110857272D01*
X151661976Y-110845136D01*
X151634951Y-110771033D01*
X151585077Y-110634277D01*
X151582105Y-110625030D01*
X151505691Y-110351460D01*
X151504831Y-110348210D01*
X151464882Y-110188493D01*
X151461319Y-110165036D01*
X151460568Y-110151726D01*
X151454104Y-110133570D01*
X151446209Y-110111393D01*
X151442677Y-110099710D01*
X151441293Y-110094176D01*
X151432934Y-110073717D01*
X151430901Y-110068396D01*
X151411043Y-110012619D01*
X151411042Y-110012617D01*
X151410264Y-110010432D01*
X151400922Y-109993644D01*
X151399476Y-109991832D01*
X151399476Y-109991831D01*
X151362563Y-109945571D01*
X151359065Y-109940975D01*
X151352951Y-109932547D01*
X151329141Y-109865662D01*
X151345272Y-109796522D01*
X151349478Y-109789613D01*
X151351132Y-109787086D01*
X151363821Y-109770780D01*
X151378184Y-109755158D01*
X151393636Y-109723794D01*
X151401200Y-109710538D01*
X151420346Y-109681271D01*
X151426489Y-109660952D01*
X151434068Y-109641739D01*
X151443449Y-109622704D01*
X151449440Y-109588255D01*
X151452965Y-109573395D01*
X151463086Y-109539931D01*
X151463256Y-109518706D01*
X151465114Y-109498142D01*
X151468753Y-109477228D01*
X151464797Y-109442492D01*
X151463993Y-109427202D01*
X151464050Y-109420337D01*
X151464511Y-109420340D01*
X151463154Y-109411800D01*
X151463155Y-109411798D01*
X151457042Y-109373318D01*
X151456299Y-109367863D01*
X151452047Y-109330516D01*
X151452046Y-109330513D01*
X151451150Y-109322644D01*
X151450816Y-109322740D01*
X151448810Y-109315702D01*
X151446177Y-109303793D01*
X151445812Y-109302614D01*
X151445811Y-109302608D01*
X151441876Y-109289903D01*
X151437249Y-109268559D01*
X151434177Y-109244450D01*
X151433508Y-109237796D01*
X151424930Y-109121163D01*
X151424707Y-109117288D01*
X151417912Y-108955621D01*
X151415073Y-108875673D01*
X151415338Y-108866006D01*
X151413491Y-108831103D01*
X151412377Y-108799701D01*
X151412347Y-108798852D01*
X151412346Y-108798848D01*
X151412251Y-108796161D01*
X151411134Y-108786549D01*
X151405513Y-108680296D01*
X151405598Y-108667667D01*
X151405523Y-108666687D01*
X151403287Y-108637586D01*
X151403102Y-108634727D01*
X151401562Y-108605600D01*
X151401511Y-108604631D01*
X151399792Y-108592097D01*
X151393176Y-108505971D01*
X151392836Y-108493657D01*
X151392951Y-108488259D01*
X151390241Y-108466087D01*
X151389680Y-108460447D01*
X151387960Y-108438051D01*
X151386036Y-108427106D01*
X151375853Y-108348369D01*
X151375853Y-108348368D01*
X151371612Y-108313662D01*
X151371610Y-108313656D01*
X151371392Y-108311868D01*
X151370567Y-108308905D01*
X151361531Y-108276432D01*
X151344349Y-108212973D01*
X151340883Y-108190170D01*
X151321987Y-108133702D01*
X151320087Y-108127498D01*
X151318421Y-108121514D01*
X151314659Y-108107993D01*
X151311630Y-108101103D01*
X151307488Y-108090377D01*
X151305101Y-108083244D01*
X151296000Y-108065135D01*
X151293236Y-108059263D01*
X151269784Y-108005919D01*
X151254844Y-107983253D01*
X151250485Y-107974581D01*
X151209380Y-107892796D01*
X151202970Y-107874672D01*
X151170178Y-107814637D01*
X151168189Y-107810842D01*
X151156592Y-107787767D01*
X151155458Y-107786139D01*
X151148274Y-107774531D01*
X151147331Y-107772805D01*
X151131876Y-107752164D01*
X151129377Y-107748706D01*
X151093390Y-107697055D01*
X151093387Y-107697052D01*
X151090241Y-107692537D01*
X151076877Y-107678711D01*
X150947589Y-107506041D01*
X150925691Y-107476514D01*
X150899769Y-107450596D01*
X150681823Y-107230693D01*
X150675843Y-107224222D01*
X150666464Y-107213332D01*
X150666461Y-107213330D01*
X150666460Y-107213328D01*
X150656348Y-107204513D01*
X150649647Y-107198228D01*
X150640227Y-107188723D01*
X150640226Y-107188722D01*
X150640225Y-107188721D01*
X150628761Y-107180059D01*
X150621947Y-107174526D01*
X150603843Y-107158743D01*
X150594069Y-107149243D01*
X150592692Y-107147751D01*
X150572742Y-107131533D01*
X150569429Y-107128744D01*
X150550015Y-107111820D01*
X150548305Y-107110714D01*
X150537269Y-107102694D01*
X150434314Y-107018997D01*
X150424791Y-107010414D01*
X150421866Y-107007495D01*
X150402940Y-106993356D01*
X150398871Y-106990184D01*
X150380528Y-106975272D01*
X150376981Y-106973147D01*
X150366334Y-106966007D01*
X150259530Y-106886216D01*
X150249604Y-106877976D01*
X150246697Y-106875300D01*
X150227075Y-106861841D01*
X150222935Y-106858876D01*
X150203862Y-106844627D01*
X150203858Y-106844625D01*
X150203857Y-106844624D01*
X150200381Y-106842730D01*
X150189389Y-106835991D01*
X150151718Y-106810151D01*
X150090062Y-106767858D01*
X150080930Y-106760964D01*
X150075049Y-106756088D01*
X150057852Y-106745559D01*
X150052390Y-106742017D01*
X150035784Y-106730627D01*
X150035783Y-106730626D01*
X150035778Y-106730623D01*
X150028951Y-106727254D01*
X150018927Y-106721727D01*
X149927785Y-106665927D01*
X149922850Y-106662745D01*
X149904835Y-106650521D01*
X149899410Y-106647877D01*
X149888842Y-106642084D01*
X149883708Y-106638941D01*
X149863723Y-106630336D01*
X149858363Y-106627878D01*
X149797809Y-106598372D01*
X149789990Y-106594216D01*
X149764001Y-106579205D01*
X149745560Y-106568554D01*
X149745559Y-106568553D01*
X149745558Y-106568553D01*
X149696322Y-106556598D01*
X149687542Y-106554126D01*
X149659561Y-106545144D01*
X149629345Y-106530780D01*
X149623587Y-106527032D01*
X149600183Y-106516852D01*
X149595680Y-106514218D01*
X149592281Y-106512157D01*
X149569748Y-106498004D01*
X149568692Y-106497535D01*
X149556244Y-106491154D01*
X149555262Y-106490579D01*
X149530607Y-106480548D01*
X149526942Y-106478989D01*
X149432771Y-106437155D01*
X149423991Y-106432838D01*
X149413581Y-106427207D01*
X149398642Y-106421703D01*
X149391052Y-106418623D01*
X149376488Y-106412153D01*
X149365085Y-106408933D01*
X149355766Y-106405905D01*
X149259276Y-106370351D01*
X149247759Y-106365445D01*
X149243344Y-106363299D01*
X149221553Y-106356326D01*
X149216406Y-106354555D01*
X149194947Y-106346649D01*
X149194943Y-106346648D01*
X149190151Y-106345625D01*
X149178055Y-106342407D01*
X149137999Y-106329590D01*
X149128188Y-106325996D01*
X149118765Y-106322093D01*
X149101730Y-106317747D01*
X149094498Y-106315670D01*
X149077761Y-106310315D01*
X149067701Y-106308619D01*
X149057504Y-106306463D01*
X149024834Y-106298128D01*
X149001291Y-106289551D01*
X148992352Y-106285244D01*
X148946789Y-106277732D01*
X148936143Y-106275501D01*
X148927333Y-106273253D01*
X148908755Y-106271258D01*
X148901721Y-106270301D01*
X148883271Y-106267259D01*
X148874185Y-106267072D01*
X148863337Y-106266379D01*
X148817404Y-106261446D01*
X148817169Y-106261489D01*
X148780021Y-106262623D01*
X148771126Y-106261573D01*
X148728933Y-106248830D01*
X148709103Y-106238779D01*
X148662542Y-106230136D01*
X148652383Y-106227811D01*
X148520594Y-106191865D01*
X148492026Y-106184062D01*
X148492009Y-106184058D01*
X148488046Y-106182976D01*
X148488062Y-106182980D01*
X148487948Y-106182949D01*
X148488606Y-106183105D01*
X148494972Y-106184569D01*
X148495170Y-106183565D01*
X148487906Y-106182942D01*
X148487950Y-106182950D01*
X148487904Y-106182943D01*
X148487912Y-106182945D01*
X148487875Y-106182940D01*
X148487796Y-106182919D01*
X148487861Y-106182934D01*
X148481377Y-106180052D01*
X148481029Y-106181790D01*
X148487200Y-106182824D01*
X148487796Y-106182919D01*
X148487676Y-106182904D01*
X148487678Y-106182904D01*
X148483561Y-106182393D01*
X148483559Y-106182393D01*
X148451643Y-106178432D01*
X148244500Y-106152655D01*
X148236179Y-106151335D01*
X148221141Y-106148432D01*
X148208716Y-106147836D01*
X148199205Y-106147018D01*
X148186837Y-106145479D01*
X148171501Y-106145771D01*
X148163076Y-106145649D01*
X147914882Y-106133750D01*
X147902939Y-106132606D01*
X147896770Y-106131716D01*
X147875231Y-106131707D01*
X147869261Y-106131563D01*
X147847730Y-106130531D01*
X147841537Y-106131121D01*
X147829549Y-106131688D01*
X147522918Y-106131558D01*
X147509953Y-106130884D01*
X147506267Y-106130501D01*
X147506264Y-106130501D01*
X147506263Y-106130501D01*
X147489204Y-106131169D01*
X147482215Y-106131443D01*
X147477235Y-106131539D01*
X147453158Y-106131529D01*
X147449490Y-106132055D01*
X147436558Y-106133231D01*
X147263683Y-106140005D01*
X147255129Y-106140050D01*
X147240128Y-106139618D01*
X147227425Y-106141073D01*
X147218028Y-106141794D01*
X147205265Y-106142294D01*
X147190531Y-106145005D01*
X147182066Y-106146267D01*
X146630924Y-106209377D01*
X146626064Y-106209838D01*
X146601791Y-106211668D01*
X146598419Y-106212415D01*
X146585527Y-106214575D01*
X146582121Y-106214965D01*
X146558596Y-106221142D01*
X146553853Y-106222289D01*
X146486360Y-106237242D01*
X146415526Y-106232448D01*
X146358528Y-106190120D01*
X146333462Y-106123695D01*
X146348288Y-106054263D01*
X146392831Y-106007064D01*
X147894227Y-105078569D01*
X147906116Y-105072074D01*
X149616664Y-104253986D01*
X149633825Y-104247274D01*
X151314074Y-103728374D01*
X151336350Y-103723648D01*
X152370620Y-103600521D01*
X152379411Y-103599786D01*
X153925000Y-103525000D01*
X155225000Y-103375000D01*
X156425000Y-102975000D01*
X156424999Y-102974999D01*
X156425000Y-102974999D01*
X150182849Y-97231578D01*
X146725000Y-94050000D01*
X146724999Y-94050000D01*
X146456602Y-94184198D01*
X146389789Y-94197065D01*
X146132317Y-94175609D01*
X146117804Y-94173544D01*
X144439465Y-93834105D01*
X143900000Y-93725000D01*
X143899999Y-93725000D01*
X140525000Y-94074999D01*
X138224999Y-94699999D01*
X134974998Y-96425001D01*
X132352673Y-98922453D01*
X132352662Y-98922464D01*
X132350000Y-98925000D01*
X132347647Y-98927835D01*
X132347642Y-98927841D01*
X130399999Y-101274999D01*
X128250000Y-105049999D01*
X127699999Y-108075002D01*
X124703868Y-108075002D01*
X124691169Y-108034824D01*
X124689263Y-108028164D01*
X124675516Y-107974581D01*
X124587306Y-107630749D01*
X124586180Y-107617992D01*
X124577764Y-107592421D01*
X124575397Y-107584327D01*
X124573931Y-107578611D01*
X124572779Y-107577272D01*
X124570070Y-107574124D01*
X124564807Y-107567579D01*
X124548648Y-107546049D01*
X124538827Y-107537822D01*
X124451696Y-107436583D01*
X123672802Y-106531576D01*
X123671342Y-106529040D01*
X123650637Y-106505823D01*
X123630378Y-106482281D01*
X123628048Y-106480491D01*
X123564237Y-106408933D01*
X123441468Y-106271258D01*
X122738727Y-105483194D01*
X122737333Y-105480868D01*
X122716033Y-105457746D01*
X122695182Y-105434361D01*
X122693009Y-105432749D01*
X121597494Y-104243374D01*
X120836770Y-103417473D01*
X120836359Y-103416803D01*
X120813230Y-103391915D01*
X120790150Y-103366861D01*
X120789510Y-103366396D01*
X120037400Y-102557179D01*
X118900962Y-101334451D01*
X118753034Y-101172266D01*
X117955093Y-100297422D01*
X117516609Y-99803870D01*
X117023058Y-99248335D01*
X115250077Y-97231578D01*
X115249244Y-97230151D01*
X115227226Y-97205586D01*
X115205515Y-97180886D01*
X115204191Y-97179883D01*
X113435149Y-95205951D01*
X113434505Y-95204871D01*
X113412049Y-95180176D01*
X113389847Y-95155403D01*
X113388836Y-95154649D01*
X113316407Y-95075000D01*
X110859891Y-92373597D01*
X109769048Y-91174009D01*
X109769010Y-91173956D01*
X109751387Y-91154587D01*
X109729960Y-91131026D01*
X109729927Y-91131001D01*
X107921961Y-89143879D01*
X106100141Y-87123478D01*
X104294286Y-85088166D01*
X102532506Y-83056047D01*
X102530736Y-83053018D01*
X102511382Y-83031639D01*
X102509583Y-83029608D01*
X102490639Y-83007755D01*
X102487834Y-83005625D01*
X98409297Y-78500000D01*
X101149999Y-78500000D01*
X101774999Y-80749999D01*
X101774999Y-80750000D01*
X114800000Y-95500000D01*
X114846837Y-95101883D01*
X114863926Y-95051788D01*
X115075000Y-94700000D01*
X114860119Y-93983733D01*
X114858838Y-93915910D01*
X115025000Y-93275000D01*
X114667129Y-92817721D01*
X114640899Y-92751749D01*
X114654499Y-92682067D01*
X114703613Y-92630800D01*
X114706620Y-92629128D01*
X114899999Y-92525001D01*
X114899999Y-92525000D01*
X114900000Y-92525000D01*
X114849416Y-92361576D01*
X114606614Y-91577138D01*
X114605579Y-91506149D01*
X114643089Y-91445870D01*
X114670628Y-91427185D01*
X115125000Y-91200000D01*
X115048548Y-90921992D01*
X123391219Y-90921992D01*
X124183576Y-90921992D01*
X124155658Y-90981321D01*
X124126068Y-91136436D01*
X124135983Y-91294036D01*
X124180158Y-91429992D01*
X123391220Y-91429992D01*
X123441104Y-91626977D01*
X123533251Y-91837055D01*
X123658723Y-92029102D01*
X123814082Y-92197867D01*
X123995110Y-92338767D01*
X124196863Y-92447951D01*
X124413823Y-92522434D01*
X124500790Y-92536945D01*
X124500791Y-92536945D01*
X124500791Y-91749574D01*
X124522886Y-91761721D01*
X124675836Y-91800992D01*
X124794109Y-91800992D01*
X124911458Y-91786167D01*
X125008792Y-91747629D01*
X125008792Y-92536945D01*
X125095760Y-92522434D01*
X125312720Y-92447951D01*
X125514473Y-92338767D01*
X125695501Y-92197867D01*
X125850860Y-92029102D01*
X125976332Y-91837055D01*
X126068479Y-91626977D01*
X126118364Y-91429992D01*
X125326008Y-91429992D01*
X125353926Y-91370663D01*
X125383516Y-91215548D01*
X125373601Y-91057948D01*
X125329426Y-90921992D01*
X126118364Y-90921992D01*
X126068479Y-90725006D01*
X125976332Y-90514928D01*
X125850860Y-90322881D01*
X125695501Y-90154116D01*
X125514473Y-90013216D01*
X125312720Y-89904032D01*
X125095760Y-89829550D01*
X125008792Y-89815037D01*
X125008792Y-90602409D01*
X124986698Y-90590263D01*
X124833748Y-90550992D01*
X124715475Y-90550992D01*
X124598126Y-90565817D01*
X124500791Y-90604354D01*
X124500791Y-89815037D01*
X124413823Y-89829550D01*
X124196863Y-89904032D01*
X123995110Y-90013216D01*
X123814082Y-90154116D01*
X123658723Y-90322881D01*
X123533251Y-90514928D01*
X123441104Y-90725006D01*
X123391219Y-90921992D01*
X115048548Y-90921992D01*
X114880085Y-90309400D01*
X114881309Y-90238415D01*
X114920716Y-90179359D01*
X114955659Y-90158655D01*
X115425000Y-89975000D01*
X115410943Y-89915650D01*
X115224871Y-89130010D01*
X115228635Y-89059113D01*
X115270131Y-89001506D01*
X115299935Y-88984285D01*
X115875000Y-88750000D01*
X115898007Y-87783669D01*
X115919624Y-87716047D01*
X115974372Y-87670844D01*
X115977852Y-87669415D01*
X116600000Y-87425000D01*
X116577875Y-86517878D01*
X116596211Y-86449291D01*
X116648717Y-86401504D01*
X116692427Y-86389324D01*
X117400000Y-86325000D01*
X117467961Y-85418840D01*
X117493002Y-85352409D01*
X117549984Y-85310059D01*
X117566974Y-85305113D01*
X118400000Y-85125000D01*
X118488957Y-84302144D01*
X118516164Y-84236572D01*
X118574506Y-84196116D01*
X118602280Y-84190259D01*
X119504818Y-84104303D01*
X119550000Y-84100000D01*
X119584445Y-83445545D01*
X119593717Y-83269378D01*
X119617272Y-83202402D01*
X119673297Y-83158794D01*
X119719543Y-83150000D01*
X120699999Y-83150000D01*
X120700000Y-83150000D01*
X120721191Y-82514262D01*
X120743451Y-82446847D01*
X120798626Y-82402167D01*
X120839092Y-82392717D01*
X121900000Y-82325000D01*
X122046665Y-81780240D01*
X122083688Y-81719666D01*
X122147586Y-81688721D01*
X122183225Y-81687884D01*
X123125000Y-81800000D01*
X123315958Y-81290778D01*
X123358604Y-81234020D01*
X123425168Y-81209327D01*
X123446469Y-81209646D01*
X124600000Y-81325000D01*
X124668374Y-81119876D01*
X124708891Y-81061577D01*
X124774495Y-81034437D01*
X124799577Y-81034263D01*
X125775000Y-81125000D01*
X126198369Y-80857608D01*
X126266644Y-80838145D01*
X126307583Y-80845323D01*
X127100000Y-81125000D01*
X127252096Y-80934879D01*
X127310268Y-80894182D01*
X127375195Y-80890039D01*
X128050000Y-81025000D01*
X128200000Y-81025000D01*
X129550000Y-81000000D01*
X114250000Y-67700000D01*
X114155255Y-67691640D01*
X113428885Y-67627548D01*
X113375133Y-67610080D01*
X113358331Y-67599999D01*
X113025000Y-67400000D01*
X112486149Y-67375506D01*
X112464118Y-67372542D01*
X111700000Y-67200000D01*
X111699998Y-67200000D01*
X111385309Y-67334866D01*
X111314817Y-67343315D01*
X111312254Y-67342858D01*
X110425000Y-67175000D01*
X110424999Y-67175000D01*
X110262830Y-67377712D01*
X110204657Y-67418410D01*
X110164441Y-67425000D01*
X109225000Y-67425000D01*
X109146429Y-67525000D01*
X108997202Y-67714923D01*
X108939387Y-67756130D01*
X108874906Y-67760919D01*
X108150000Y-67624999D01*
X107908071Y-68042877D01*
X107856629Y-68091808D01*
X107809210Y-68105334D01*
X106950000Y-68174999D01*
X106949999Y-68175000D01*
X106703638Y-68690119D01*
X106656202Y-68742944D01*
X106609421Y-68760245D01*
X105875000Y-68874999D01*
X105875000Y-68875000D01*
X105672814Y-69504020D01*
X105632925Y-69562752D01*
X105576801Y-69589167D01*
X104874999Y-69725000D01*
X104619844Y-70281703D01*
X104573278Y-70335295D01*
X104556475Y-70344344D01*
X103925001Y-70624998D01*
X103925000Y-70625001D01*
X103788448Y-71148447D01*
X103751898Y-71209313D01*
X103728648Y-71226265D01*
X103025000Y-71624999D01*
X103025000Y-72324952D01*
X103004998Y-72393073D01*
X102959012Y-72435743D01*
X102425000Y-72725000D01*
X102379132Y-73413008D01*
X102354643Y-73479647D01*
X102323303Y-73509464D01*
X101775000Y-73874999D01*
X101775000Y-73875000D01*
X101811429Y-74300000D01*
X101844519Y-74686055D01*
X101830407Y-74755636D01*
X101801500Y-74792033D01*
X101474999Y-75074999D01*
X101520865Y-75946439D01*
X101504471Y-76015516D01*
X101456230Y-76063205D01*
X101299999Y-76150000D01*
X101149999Y-78500000D01*
X98409297Y-78500000D01*
X97058186Y-77007406D01*
X91613212Y-70979878D01*
X91303474Y-70625000D01*
X90931976Y-70199360D01*
X90930326Y-70196553D01*
X90916186Y-70180984D01*
X90916186Y-70180983D01*
X90909765Y-70173913D01*
X90903491Y-70166725D01*
X90903446Y-70166702D01*
X90889696Y-70150924D01*
X90887106Y-70148965D01*
X90819927Y-70075000D01*
X90502039Y-69724999D01*
X90212300Y-69405991D01*
X90211178Y-69404149D01*
X90195877Y-69387727D01*
X90195877Y-69387726D01*
X90189246Y-69380609D01*
X90182709Y-69373411D01*
X90182707Y-69373410D01*
X90167637Y-69356815D01*
X90165889Y-69355538D01*
X89654106Y-68806198D01*
X88727758Y-67811869D01*
X88532123Y-67599999D01*
X92000000Y-67599999D01*
X92117248Y-68162794D01*
X92111559Y-68233562D01*
X92110884Y-68235287D01*
X92025000Y-68449997D01*
X92025000Y-68450000D01*
X92468623Y-69127109D01*
X92489224Y-69195051D01*
X92484562Y-69230133D01*
X92149999Y-70424998D01*
X92149999Y-70424999D01*
X97225000Y-75975000D01*
X97450000Y-75325000D01*
X97139999Y-74616426D01*
X97131020Y-74546000D01*
X97161542Y-74481899D01*
X97179830Y-74465127D01*
X97400000Y-74300000D01*
X96886765Y-73518990D01*
X96866071Y-73451077D01*
X96885378Y-73382756D01*
X96911397Y-73353002D01*
X97125000Y-73175000D01*
X96854789Y-72409404D01*
X96850980Y-72338513D01*
X96886103Y-72276813D01*
X96894880Y-72269095D01*
X97200000Y-72025000D01*
X97000634Y-71102933D01*
X96999506Y-71097039D01*
X96868630Y-70311782D01*
X96877161Y-70241303D01*
X96922443Y-70186622D01*
X96959189Y-70169669D01*
X97300000Y-70075000D01*
X97800000Y-69725000D01*
X97846046Y-68873138D01*
X97869695Y-68806198D01*
X97915511Y-68767244D01*
X98350000Y-68550000D01*
X98372324Y-67835603D01*
X98394444Y-67768143D01*
X98449526Y-67723348D01*
X98455558Y-67720999D01*
X99000000Y-67525000D01*
X99089592Y-66696265D01*
X99116800Y-66630692D01*
X99175142Y-66590236D01*
X99195697Y-66585277D01*
X99750000Y-66500000D01*
X100048577Y-65810975D01*
X100094014Y-65756425D01*
X100140240Y-65737372D01*
X100850000Y-65600000D01*
X100980342Y-64948286D01*
X101013315Y-64885413D01*
X101075047Y-64850346D01*
X101100188Y-64847053D01*
X101850000Y-64825000D01*
X102023130Y-64305608D01*
X102063647Y-64247310D01*
X102129252Y-64220170D01*
X102134770Y-64219701D01*
X102850000Y-64175000D01*
X103037379Y-63675322D01*
X103080025Y-63618564D01*
X103146589Y-63593871D01*
X103180064Y-63596012D01*
X103565032Y-63673006D01*
X103949999Y-63750000D01*
X103949999Y-63749999D01*
X103950000Y-63750000D01*
X104177291Y-63336742D01*
X104227646Y-63286694D01*
X104297065Y-63271814D01*
X104320564Y-63275828D01*
X105150000Y-63500000D01*
X105150000Y-63499999D01*
X105225774Y-63121131D01*
X105258747Y-63058255D01*
X105320479Y-63023188D01*
X105371585Y-63021823D01*
X106225000Y-63175000D01*
X106450502Y-62990497D01*
X106515889Y-62962844D01*
X106561906Y-62966049D01*
X107175000Y-63125000D01*
X107175001Y-63124999D01*
X107175002Y-63125000D01*
X107218873Y-63122910D01*
X107679531Y-63100974D01*
X107719717Y-63105561D01*
X108675000Y-63375000D01*
X109150000Y-63250000D01*
X109150000Y-63249999D01*
X103850001Y-58525000D01*
X103850000Y-58525000D01*
X103275529Y-58662872D01*
X103204621Y-58659320D01*
X103180611Y-58647980D01*
X102650000Y-58325000D01*
X101725001Y-58300000D01*
X101725000Y-58300000D01*
X101641088Y-58315256D01*
X101473263Y-58345770D01*
X101426781Y-58345506D01*
X100675000Y-58200000D01*
X100674997Y-58200000D01*
X100319398Y-58318534D01*
X100279553Y-58325000D01*
X99600000Y-58325000D01*
X99284267Y-58573076D01*
X99218344Y-58599435D01*
X99206421Y-58600000D01*
X98400000Y-58600000D01*
X98186005Y-58985191D01*
X98135437Y-59035025D01*
X98075861Y-59050000D01*
X97375000Y-59050000D01*
X97074037Y-59420415D01*
X97015557Y-59460671D01*
X97013593Y-59461298D01*
X96325001Y-59674999D01*
X96324998Y-59675002D01*
X96107315Y-60153905D01*
X96060917Y-60207643D01*
X95996951Y-60227691D01*
X95350000Y-60250000D01*
X95166281Y-60938945D01*
X95129402Y-60999611D01*
X95091330Y-61023467D01*
X94525000Y-61249999D01*
X94345712Y-61877506D01*
X94307765Y-61937511D01*
X94251326Y-61966015D01*
X93750000Y-62074999D01*
X93658658Y-62691556D01*
X93628888Y-62756010D01*
X93599531Y-62780720D01*
X93075000Y-63099999D01*
X93075000Y-63100000D01*
X93119566Y-63701652D01*
X93104650Y-63771065D01*
X93063802Y-63815798D01*
X92599999Y-64124999D01*
X92599999Y-64125000D01*
X92667406Y-64866477D01*
X92653653Y-64936129D01*
X92604427Y-64987288D01*
X92600877Y-64989241D01*
X92250000Y-65174999D01*
X92249999Y-65175000D01*
X92426919Y-65904793D01*
X92423529Y-65975709D01*
X92382338Y-66033534D01*
X92363420Y-66045836D01*
X92025000Y-66224999D01*
X92098447Y-67032923D01*
X92096932Y-67066869D01*
X92000000Y-67599999D01*
X88532123Y-67599999D01*
X88000637Y-67024406D01*
X87286531Y-66228660D01*
X87284632Y-66226495D01*
X87069723Y-65975709D01*
X86590799Y-65416832D01*
X86588320Y-65413845D01*
X85919124Y-64581490D01*
X85657658Y-64244926D01*
X85652269Y-64237439D01*
X85421545Y-63890758D01*
X85416850Y-63883127D01*
X85212310Y-63522625D01*
X85208320Y-63514996D01*
X85029301Y-63142065D01*
X85025982Y-63134526D01*
X84871801Y-62750527D01*
X84869080Y-62743080D01*
X84852070Y-62691556D01*
X84739105Y-62349388D01*
X84736964Y-62342186D01*
X84630527Y-61940153D01*
X84628885Y-61933146D01*
X84545359Y-61524406D01*
X84544172Y-61517663D01*
X84482905Y-61103356D01*
X84482116Y-61096841D01*
X84475156Y-61023467D01*
X84442459Y-60678790D01*
X84442025Y-60672563D01*
X84423316Y-60251967D01*
X84423194Y-60245912D01*
X84423213Y-60241026D01*
X84424765Y-59824563D01*
X84424923Y-59818707D01*
X84431982Y-59678354D01*
X84446089Y-59397853D01*
X84446503Y-59392187D01*
X84447014Y-59386847D01*
X84486576Y-58973435D01*
X84487225Y-58967942D01*
X84489749Y-58949970D01*
X84545502Y-58552832D01*
X84546375Y-58547456D01*
X84547046Y-58543827D01*
X84622352Y-58136375D01*
X84623124Y-58132538D01*
X84701336Y-57772602D01*
X84702618Y-57767271D01*
X84796068Y-57412642D01*
X84797545Y-57407488D01*
X84906072Y-57057500D01*
X84907738Y-57052505D01*
X85030945Y-56707587D01*
X85032796Y-56702727D01*
X85170297Y-56363275D01*
X85172338Y-56358521D01*
X85251187Y-56184800D01*
X86809085Y-56184800D01*
X86809258Y-56188101D01*
X86828158Y-56548751D01*
X86828159Y-56548762D01*
X86828331Y-56552041D01*
X86828844Y-56555282D01*
X86828845Y-56555288D01*
X86885342Y-56911998D01*
X86885343Y-56912007D01*
X86885859Y-56915259D01*
X86886711Y-56918439D01*
X86886713Y-56918448D01*
X86922624Y-57052469D01*
X86981039Y-57270474D01*
X86982224Y-57273561D01*
X86982225Y-57273564D01*
X87111642Y-57610709D01*
X87111647Y-57610721D01*
X87112827Y-57613794D01*
X87114320Y-57616725D01*
X87114324Y-57616733D01*
X87193754Y-57772623D01*
X87279780Y-57941458D01*
X87281576Y-57944224D01*
X87281578Y-57944227D01*
X87478265Y-58247100D01*
X87478273Y-58247111D01*
X87480068Y-58249875D01*
X87711498Y-58535667D01*
X87971533Y-58795702D01*
X88257325Y-59027132D01*
X88260091Y-59028928D01*
X88260099Y-59028934D01*
X88499788Y-59184589D01*
X88565742Y-59227420D01*
X88893406Y-59394373D01*
X88896487Y-59395555D01*
X88896490Y-59395557D01*
X88961248Y-59420415D01*
X89236726Y-59526161D01*
X89591941Y-59621341D01*
X89955159Y-59678869D01*
X90322400Y-59698115D01*
X90689641Y-59678869D01*
X91052859Y-59621341D01*
X91408074Y-59526161D01*
X91751394Y-59394373D01*
X92079058Y-59227420D01*
X92387475Y-59027132D01*
X92673267Y-58795702D01*
X92933302Y-58535667D01*
X93164732Y-58249875D01*
X93365020Y-57941458D01*
X93531973Y-57613794D01*
X93663761Y-57270474D01*
X93758941Y-56915259D01*
X93816469Y-56552041D01*
X93835715Y-56184800D01*
X93816469Y-55817559D01*
X93758941Y-55454341D01*
X93663761Y-55099126D01*
X93531973Y-54755806D01*
X93365020Y-54428143D01*
X93164732Y-54119725D01*
X92933302Y-53833933D01*
X92673267Y-53573898D01*
X92387475Y-53342468D01*
X92384711Y-53340673D01*
X92384700Y-53340665D01*
X92081827Y-53143978D01*
X92081824Y-53143976D01*
X92079058Y-53142180D01*
X92062065Y-53133522D01*
X91754333Y-52976724D01*
X91754325Y-52976720D01*
X91751394Y-52975227D01*
X91748321Y-52974047D01*
X91748309Y-52974042D01*
X91411164Y-52844625D01*
X91411161Y-52844624D01*
X91408074Y-52843439D01*
X91404888Y-52842585D01*
X91404881Y-52842583D01*
X91056048Y-52749113D01*
X91056039Y-52749111D01*
X91052859Y-52748259D01*
X91049607Y-52747743D01*
X91049598Y-52747742D01*
X90692888Y-52691245D01*
X90692882Y-52691244D01*
X90689641Y-52690731D01*
X90686362Y-52690559D01*
X90686351Y-52690558D01*
X90325701Y-52671658D01*
X90322400Y-52671485D01*
X90319099Y-52671658D01*
X89958448Y-52690558D01*
X89958435Y-52690559D01*
X89955159Y-52690731D01*
X89951919Y-52691244D01*
X89951911Y-52691245D01*
X89595201Y-52747742D01*
X89595188Y-52747744D01*
X89591941Y-52748259D01*
X89588764Y-52749110D01*
X89588751Y-52749113D01*
X89239918Y-52842583D01*
X89239905Y-52842587D01*
X89236726Y-52843439D01*
X89233643Y-52844622D01*
X89233635Y-52844625D01*
X88896490Y-52974042D01*
X88896471Y-52974050D01*
X88893406Y-52975227D01*
X88890481Y-52976717D01*
X88890466Y-52976724D01*
X88568684Y-53140681D01*
X88568676Y-53140685D01*
X88565743Y-53142180D01*
X88562984Y-53143971D01*
X88562973Y-53143978D01*
X88260099Y-53340666D01*
X88260091Y-53340671D01*
X88257325Y-53342468D01*
X88254757Y-53344546D01*
X88254748Y-53344554D01*
X87974108Y-53571812D01*
X87974099Y-53571819D01*
X87971533Y-53573898D01*
X87969199Y-53576231D01*
X87969189Y-53576241D01*
X87713841Y-53831589D01*
X87713831Y-53831599D01*
X87711498Y-53833933D01*
X87709419Y-53836499D01*
X87709412Y-53836508D01*
X87482154Y-54117148D01*
X87482146Y-54117157D01*
X87480068Y-54119725D01*
X87478271Y-54122491D01*
X87478266Y-54122499D01*
X87281578Y-54425373D01*
X87281571Y-54425384D01*
X87279780Y-54428143D01*
X87278285Y-54431076D01*
X87278281Y-54431084D01*
X87114324Y-54752866D01*
X87114317Y-54752881D01*
X87112827Y-54755806D01*
X87111650Y-54758871D01*
X87111642Y-54758890D01*
X86982225Y-55096035D01*
X86982222Y-55096043D01*
X86981039Y-55099126D01*
X86980187Y-55102305D01*
X86980183Y-55102318D01*
X86886713Y-55451151D01*
X86886710Y-55451164D01*
X86885859Y-55454341D01*
X86885344Y-55457588D01*
X86885342Y-55457601D01*
X86848360Y-55691098D01*
X86828331Y-55817559D01*
X86828159Y-55820835D01*
X86828158Y-55820848D01*
X86817578Y-56022744D01*
X86809085Y-56184800D01*
X85251187Y-56184800D01*
X85323688Y-56025066D01*
X85325894Y-56020459D01*
X85342132Y-55988237D01*
X85490737Y-55693338D01*
X85493106Y-55688867D01*
X85518132Y-55643811D01*
X85670177Y-55370071D01*
X85673988Y-55363666D01*
X86068383Y-54743659D01*
X86073973Y-54735587D01*
X86514839Y-54149431D01*
X86521008Y-54141859D01*
X86540516Y-54119725D01*
X87006013Y-53591567D01*
X87012714Y-53584533D01*
X87538582Y-53073499D01*
X87545823Y-53066989D01*
X88109203Y-52598701D01*
X88117045Y-52592688D01*
X88217511Y-52521717D01*
X88716072Y-52169525D01*
X88722276Y-52165415D01*
X89031423Y-51973597D01*
X89035710Y-51971054D01*
X89353666Y-51791116D01*
X89358128Y-51788710D01*
X89682934Y-51622016D01*
X89687525Y-51619779D01*
X90018780Y-51466751D01*
X90023596Y-51464648D01*
X90360855Y-51325685D01*
X90365841Y-51323754D01*
X90708792Y-51199265D01*
X90713875Y-51197543D01*
X91062066Y-51087942D01*
X91067282Y-51086425D01*
X91420319Y-50992122D01*
X91425746Y-50990802D01*
X91783134Y-50912231D01*
X91788705Y-50911138D01*
X92150141Y-50848686D01*
X92155802Y-50847841D01*
X92520917Y-50801920D01*
X92526686Y-50801331D01*
X92855820Y-50775444D01*
X92892213Y-50772582D01*
X92902092Y-50772194D01*
X92924838Y-50772194D01*
X92929178Y-50771264D01*
X93459567Y-50756486D01*
X93467405Y-50756512D01*
G37*
%TD.AperFunction*%
%TD*%
M02*
