%TF.GenerationSoftware,KiCad,Pcbnew,(6.0.1)*%
%TF.CreationDate,2022-06-23T19:30:41-05:00*%
%TF.ProjectId,toorcamp-sign-lts,746f6f72-6361-46d7-902d-7369676e2d6c,rev?*%
%TF.SameCoordinates,Original*%
%TF.FileFunction,Profile,NP*%
%FSLAX46Y46*%
G04 Gerber Fmt 4.6, Leading zero omitted, Abs format (unit mm)*
G04 Created by KiCad (PCBNEW (6.0.1)) date 2022-06-23 19:30:41*
%MOMM*%
%LPD*%
G01*
G04 APERTURE LIST*
%TA.AperFunction,Profile*%
%ADD10C,0.100000*%
%TD*%
%TA.AperFunction,Profile*%
%ADD11C,0.150000*%
%TD*%
G04 APERTURE END LIST*
D10*
X150617950Y-107811675D02*
X150835350Y-107578475D01*
X85859520Y-166438275D02*
X85872010Y-166347275D01*
X101365150Y-164840275D02*
X101898950Y-165454675D01*
X106502750Y-148824175D02*
X106897250Y-148793975D01*
X168685150Y-114937675D02*
X161674250Y-121153075D01*
X157665650Y-101866375D02*
X157743250Y-101828275D01*
X115946450Y-162136775D02*
X115650250Y-162583275D01*
X144062050Y-136359175D02*
X143622450Y-136519375D01*
X140807050Y-118554075D02*
X141270950Y-118523275D01*
X98863550Y-156165775D02*
X99197050Y-155268275D01*
X116451350Y-161213575D02*
X116213650Y-161679975D01*
X97060850Y-172925075D02*
X97060850Y-172925075D01*
X101340450Y-163853175D02*
X101108450Y-163660075D01*
X151567950Y-109208775D02*
X151029150Y-108588275D01*
X142367550Y-137882075D02*
X142532150Y-138121775D01*
X139400850Y-141294175D02*
X137987250Y-142546875D01*
X109939950Y-146729475D02*
X110079150Y-146119575D01*
X139448750Y-118809275D02*
X139896250Y-118696975D01*
X158141450Y-123757475D02*
X157874350Y-123609275D01*
X121905150Y-156487375D02*
X121517350Y-156662175D01*
X109868050Y-148778775D02*
X109804050Y-148219575D01*
X99370450Y-154843175D02*
X99573550Y-154418775D01*
X141573350Y-136942375D02*
X141567050Y-136955675D01*
X122751750Y-156063875D02*
X122377050Y-156258175D01*
X136016450Y-120703875D02*
X136433950Y-120368975D01*
X138567850Y-119116075D02*
X139006050Y-118948875D01*
X143634750Y-114199275D02*
X144217950Y-113602475D01*
X121802550Y-139105875D02*
X121885950Y-139088775D01*
X135890050Y-144134175D02*
X135732650Y-144356175D01*
X101695350Y-151608175D02*
X102079050Y-151249975D01*
X133505350Y-123483275D02*
X133844050Y-122985375D01*
X86168320Y-165909675D02*
X86377940Y-165683675D01*
X100652150Y-152761375D02*
X100980250Y-152365575D01*
X111973550Y-142423475D02*
X112296150Y-142068075D01*
X150044750Y-131461075D02*
X149966350Y-131511175D01*
X141567050Y-136955675D02*
X141586250Y-136993875D01*
D11*
X170365550Y-90205655D02*
X176471650Y-84473375D01*
D10*
X109794850Y-147809275D02*
X109842650Y-147302675D01*
X128957250Y-150595175D02*
X128872550Y-150646675D01*
X156568850Y-123045975D02*
X156445550Y-123134175D01*
X180690850Y-104136875D02*
X178998850Y-105691775D01*
X116982250Y-159767275D02*
X116836150Y-160256375D01*
X136433950Y-120368975D02*
X136854250Y-120062375D01*
X156172550Y-123996475D02*
X156414250Y-124564275D01*
X138133950Y-119310875D02*
X138567850Y-119116075D01*
X110672050Y-144367475D02*
X110902750Y-143908575D01*
X149966350Y-131511175D02*
X149764850Y-131695275D01*
X145023350Y-118949575D02*
X144865250Y-118453175D01*
X99197050Y-155268275D02*
X99370450Y-154843175D01*
X168654050Y-91636275D02*
X169588050Y-90845545D01*
X144281850Y-116884975D02*
X143673550Y-115276675D01*
X157780450Y-101646475D02*
X157808750Y-101580375D01*
X121929250Y-134425975D02*
X122039750Y-134215275D01*
X136441250Y-143747175D02*
X136273150Y-143813075D01*
D11*
X194383027Y-69051067D02*
G75*
G03*
X176471650Y-84473375I-4188235J-13248046D01*
G01*
D10*
X127329850Y-151627175D02*
X127033850Y-152134175D01*
X107202450Y-166999175D02*
X106781250Y-166944875D01*
X149764850Y-131695275D02*
X149526150Y-131967675D01*
X111236550Y-166270875D02*
X110835650Y-166451375D01*
X114139750Y-140468575D02*
X114540750Y-140195775D01*
X108838850Y-166990075D02*
X108435450Y-167026775D01*
X150537950Y-107932875D02*
X150617950Y-107811675D01*
X143622450Y-136519375D02*
X143193550Y-136646975D01*
X157905550Y-101455375D02*
X158287350Y-101044275D01*
D11*
X188054050Y-96817775D02*
G75*
G03*
X203090850Y-77920175I1626071J14137320D01*
G01*
D10*
X103924850Y-173205475D02*
X100771050Y-176036175D01*
X114185850Y-164246675D02*
X113752450Y-164627175D01*
X100980250Y-152365575D02*
X101328450Y-151980575D01*
X147575150Y-134163075D02*
X147166450Y-134505775D01*
X125819750Y-153632475D02*
X125277850Y-154168575D01*
X101108450Y-163660075D02*
X100920550Y-163523275D01*
X121517350Y-156662175D02*
X121180050Y-156789975D01*
X124191050Y-155113375D02*
X123835150Y-155380575D01*
X141740850Y-118519175D02*
X142217250Y-118541975D01*
X144255750Y-118940275D02*
X144541150Y-119049675D01*
X141586250Y-136993875D02*
X141692150Y-137134075D01*
X109239850Y-166929975D02*
X108838850Y-166990075D01*
X153803450Y-111740775D02*
X153725750Y-111633075D01*
X156859850Y-125568875D02*
X153598150Y-128506175D01*
X103418350Y-167139175D02*
X105647050Y-169608775D01*
X123165650Y-132764475D02*
X123892950Y-131989475D01*
X117096850Y-159272575D02*
X116982250Y-159767275D01*
X157430950Y-101918675D02*
X157510650Y-101874775D01*
X117229250Y-158269675D02*
X117179350Y-158772975D01*
X122187750Y-133978675D02*
X122598550Y-133426275D01*
X87007670Y-165065275D02*
X87967200Y-164174275D01*
X151273950Y-110567275D02*
X153020250Y-111422675D01*
X111390250Y-143156675D02*
X111670950Y-142786875D01*
X137453050Y-143000475D02*
X137022950Y-143347375D01*
X93840250Y-169368175D02*
X92350320Y-170707375D01*
X132440150Y-147546875D02*
X131075250Y-148770675D01*
X145862450Y-135434675D02*
X145412450Y-135703875D01*
X100690850Y-163993975D02*
X100966350Y-164358275D01*
X123117950Y-155853975D02*
X122751750Y-156063875D01*
X92350320Y-170707375D02*
X90860360Y-172046475D01*
X136175750Y-143798275D02*
X136066050Y-143728575D01*
X157808750Y-101580375D02*
X157905550Y-101455375D01*
X143673550Y-115276675D02*
X143488450Y-114736875D01*
X121757050Y-134873875D02*
X121838350Y-134641575D01*
X139896250Y-118696975D02*
X140348950Y-118611975D01*
X110902750Y-143908575D02*
X111133550Y-143531075D01*
X158287350Y-101044275D02*
X158891550Y-100444275D01*
X118921050Y-138775675D02*
X119549150Y-138768875D01*
X124548450Y-154823575D02*
X124191050Y-155113375D01*
X110037850Y-166738875D02*
X109639250Y-166846375D01*
X85919750Y-166584175D02*
X85877890Y-166514775D01*
X136216150Y-143815375D02*
X136175750Y-143798275D01*
X144865250Y-118453175D02*
X144609550Y-117740175D01*
X121470750Y-137014475D02*
X121479550Y-136469375D01*
X164042750Y-95690175D02*
X166454550Y-93546875D01*
X116836150Y-160256375D02*
X116658950Y-160738775D01*
X112993350Y-141387775D02*
X113364050Y-141066275D01*
X142112150Y-137595175D02*
X142367550Y-137882075D01*
X121805150Y-138637075D02*
X121711350Y-138392975D01*
X133844050Y-122985375D02*
X134234550Y-122486575D01*
X102478150Y-150907775D02*
X102891050Y-150583175D01*
X151029150Y-108588275D02*
X150667350Y-108141075D01*
X142786650Y-118604075D02*
X143360850Y-118699875D01*
X101960850Y-164424675D02*
X101340450Y-163853175D01*
X105503650Y-149093275D02*
X105840350Y-148966375D01*
X176151950Y-108261275D02*
X168685150Y-114937675D01*
X100920550Y-163523275D02*
X100770650Y-163438875D01*
X121585450Y-137997475D02*
X121505650Y-137530875D01*
X123892950Y-131989475D02*
X124784450Y-131096975D01*
X108435450Y-167026775D02*
X108028750Y-167040375D01*
X156414250Y-124564275D02*
X156859850Y-125568875D01*
X98449450Y-155647975D02*
X98863550Y-156165775D01*
X125844050Y-130083075D02*
X127075750Y-128943675D01*
X106781250Y-166944875D02*
X106139950Y-166817975D01*
X153396950Y-111237375D02*
X152228250Y-109936675D01*
X121885950Y-139088775D02*
X121898250Y-139007875D01*
X115325550Y-163018475D02*
X114972950Y-163441375D01*
X148333850Y-133441175D02*
X147965350Y-133807475D01*
X99804850Y-153996675D02*
X100062850Y-153578575D01*
X108028750Y-167040375D02*
X107617950Y-167031075D01*
X104887450Y-166401275D02*
X104277550Y-166112175D01*
X103679250Y-165769575D02*
X103093350Y-165373975D01*
X104647450Y-149495475D02*
X105117550Y-149267175D01*
X134000650Y-146113275D02*
X132440150Y-147546875D01*
X151226250Y-130580675D02*
X150451450Y-131211775D01*
X147965350Y-133807475D02*
X147575150Y-134163075D01*
X118287650Y-138818875D02*
X118921050Y-138775675D01*
X123835150Y-155380575D02*
X123478250Y-155626875D01*
X112872150Y-165298575D02*
X112456850Y-165579675D01*
X132282050Y-126696375D02*
X132582350Y-125602675D01*
X106526950Y-170776075D02*
X106372850Y-170937475D01*
X157175050Y-102094875D02*
X157430950Y-101918675D01*
X142601050Y-138305175D02*
X142598150Y-138372975D01*
X116598750Y-139157375D02*
X117102250Y-139010675D01*
X97060850Y-172925075D02*
X93840250Y-169368175D01*
X155219650Y-103675175D02*
X156345250Y-102743175D01*
X148849750Y-109356175D02*
X151273950Y-110567275D01*
X136273150Y-143813075D02*
X136216150Y-143815375D01*
X159683650Y-99686075D02*
X161693950Y-97818975D01*
X135970250Y-143768575D02*
X135954150Y-143822475D01*
X110436350Y-166607275D02*
X110037850Y-166738875D01*
X156938350Y-123031475D02*
X156801850Y-122992875D01*
X153814850Y-111778375D02*
X153803450Y-111740775D01*
X121531050Y-135916775D02*
X121623950Y-135377875D01*
X144968850Y-119163975D02*
X145026750Y-119165675D01*
X86019040Y-166090575D02*
X86168320Y-165909675D01*
X145412450Y-135703875D02*
X144960250Y-135949175D01*
X142578850Y-138221075D02*
X142601050Y-138305175D01*
X135467350Y-144662675D02*
X135091750Y-145056075D01*
X111133550Y-143531075D02*
X111390250Y-143156675D01*
X85922720Y-166233875D02*
X86019040Y-166090575D01*
X102520350Y-164925575D02*
X101960850Y-164424675D01*
X106161950Y-148879175D02*
X106502750Y-148824175D01*
X132756950Y-125039975D02*
X132966150Y-124503675D01*
X85872010Y-166347275D02*
X85922720Y-166233875D01*
X120692750Y-138868375D02*
X120937450Y-138917575D01*
X90860360Y-172046475D02*
X90439060Y-171596575D01*
X104958450Y-172270275D02*
X103924850Y-173205475D01*
X157783150Y-101753475D02*
X157780450Y-101646475D01*
X153598150Y-128506175D02*
X152313350Y-129646775D01*
X144787650Y-119126575D02*
X144968850Y-119163975D01*
X147166450Y-134505775D02*
X146742650Y-134833475D01*
X132582350Y-125602675D02*
X132756950Y-125039975D01*
D11*
X203090850Y-77920176D02*
G75*
G03*
X194383027Y-69051067I-1622861J7115941D01*
G01*
D10*
X114947950Y-139942475D02*
X115359350Y-139710275D01*
X110835650Y-166451375D02*
X110436350Y-166607275D01*
X150216950Y-131383575D02*
X150103650Y-131443575D01*
X124909850Y-154509175D02*
X124548450Y-154823575D01*
X135601250Y-121067175D02*
X136016450Y-120703875D01*
X106327150Y-170386675D02*
X106579550Y-170704075D01*
X87967200Y-164174275D02*
X91111460Y-161330075D01*
X133214150Y-123987075D02*
X133505350Y-123483275D01*
X121637850Y-139090475D02*
X121802550Y-139105875D01*
X113293050Y-164991675D02*
X112872150Y-165298575D01*
X158502750Y-123894375D02*
X158360950Y-123857575D01*
X121415550Y-139046175D02*
X121637850Y-139090475D01*
X121623950Y-135377875D02*
X121757050Y-134873875D01*
X158891550Y-100444275D02*
X159683650Y-99686075D01*
X156683150Y-122998375D02*
X156568850Y-123045975D01*
X121711350Y-138392975D02*
X121642550Y-138205375D01*
X156196550Y-123359575D02*
X156124550Y-123450175D01*
X114540750Y-140195775D02*
X114947950Y-139942475D01*
X127585550Y-151094275D02*
X127329850Y-151627175D01*
X145057850Y-119093175D02*
X145023350Y-118949575D01*
X106579550Y-170704075D02*
X106526950Y-170776075D01*
X115650250Y-162583275D02*
X115325550Y-163018475D01*
X153725750Y-111633075D02*
X153396950Y-111237375D01*
X148993150Y-132685475D02*
X148677550Y-133066375D01*
X169588050Y-90845545D02*
X170365550Y-90205655D01*
X159397050Y-123146275D02*
X158750550Y-123699475D01*
X145026750Y-119165675D02*
X145058350Y-119154775D01*
X127033850Y-152134175D02*
X126689250Y-152628575D01*
X152228250Y-109936675D02*
X151567950Y-109208775D01*
X135954150Y-143822475D02*
X135942050Y-143994375D01*
X135929050Y-144054175D02*
X135890050Y-144134175D01*
X144217950Y-113602475D02*
X145081150Y-112775775D01*
X136025550Y-143722175D02*
X135993850Y-143735275D01*
X128872550Y-150646675D02*
X128828550Y-150550075D01*
X135188150Y-121458975D02*
X135601250Y-121067175D01*
X112046350Y-165835375D02*
X111639850Y-166065675D01*
X109791850Y-148028275D02*
X109794850Y-147809275D01*
X128757250Y-150335675D02*
X128572450Y-149679975D01*
X110079150Y-146119575D02*
X110252650Y-145502775D01*
X98035350Y-155130175D02*
X98449450Y-155647975D01*
X141692150Y-137134075D02*
X142112150Y-137595175D01*
X153578250Y-111682875D02*
X153814850Y-111778375D01*
X148677550Y-133066375D02*
X148333850Y-133441175D01*
X101328450Y-151980575D02*
X101695350Y-151608175D01*
X180796050Y-104026375D02*
X180690850Y-104136875D01*
X122598550Y-133426275D02*
X123165650Y-132764475D01*
X137987250Y-142546875D02*
X137453050Y-143000475D01*
X100527050Y-163732575D02*
X100690850Y-163993975D01*
X114972950Y-163441375D02*
X114592950Y-163851075D01*
X158750550Y-123699475D02*
X158502750Y-123894375D01*
X100652450Y-163402875D02*
X100560150Y-163411375D01*
X117179350Y-158772975D02*
X117096850Y-159272575D01*
X161693950Y-97818975D02*
X164042750Y-95690175D01*
X125277850Y-154168575D02*
X124909850Y-154509175D01*
X102079050Y-151249975D02*
X102478150Y-150907775D01*
X144960250Y-135949175D02*
X144509050Y-136168275D01*
X157510650Y-101874775D02*
X157555150Y-101863175D01*
X145058350Y-119154775D02*
X145057850Y-119093175D01*
X126287350Y-153123475D02*
X125819750Y-153632475D01*
X100966350Y-164358275D02*
X101365150Y-164840275D01*
X143475950Y-114384075D02*
X143634750Y-114199275D01*
X104277550Y-166112175D02*
X103679250Y-165769575D01*
X137703850Y-119533375D02*
X138133950Y-119310875D01*
X116213650Y-161679975D02*
X115946450Y-162136775D01*
X142217250Y-118541975D02*
X142786650Y-118604075D01*
X113746850Y-140759375D02*
X114139750Y-140468575D01*
X157874350Y-123609275D02*
X157589450Y-123428375D01*
X143420550Y-114478575D02*
X143475950Y-114384075D01*
X115359350Y-139710275D02*
X115772850Y-139500975D01*
X135993850Y-143735275D02*
X135970250Y-143768575D01*
X97310950Y-155763875D02*
X98035350Y-155130175D01*
X142532150Y-138121775D02*
X142578850Y-138221075D01*
X151606050Y-106842475D02*
X152696250Y-105857875D01*
X129947650Y-149763075D02*
X129174350Y-150422275D01*
X143872850Y-118816275D02*
X144255750Y-118940275D01*
X103751450Y-149993775D02*
X104195750Y-149732375D01*
X149277450Y-132300375D02*
X148993150Y-132685475D01*
X100770650Y-163438875D02*
X100652450Y-163402875D01*
X113364050Y-141066275D02*
X113746850Y-140759375D01*
X85977730Y-166654275D02*
X85919750Y-166584175D01*
X153952050Y-104757775D02*
X155219650Y-103675175D01*
X104195750Y-149732375D02*
X104647450Y-149495475D01*
X111670950Y-142786875D02*
X111973550Y-142423475D01*
X142569450Y-138423475D02*
X139400850Y-141294175D01*
X156079150Y-123660175D02*
X156107950Y-123805975D01*
X141270950Y-118523275D02*
X141740850Y-118519175D01*
X100771050Y-176036175D02*
X100281350Y-176481975D01*
X106139950Y-166817975D02*
X105508450Y-166636575D01*
X127075750Y-128943675D02*
X128483450Y-127674675D01*
X111639850Y-166065675D02*
X111236550Y-166270875D01*
X166454550Y-93546875D02*
X168654050Y-91636275D01*
X178998850Y-105691775D02*
X176151950Y-108261275D01*
X114592950Y-163851075D02*
X114185850Y-164246675D01*
X128483450Y-127674675D02*
X131027350Y-125405875D01*
X128010350Y-149897175D02*
X127809550Y-150521975D01*
X100281350Y-176481975D02*
X97060850Y-172925075D01*
X112296150Y-142068075D02*
X112636750Y-141722275D01*
X112636750Y-141722275D02*
X112993350Y-141387775D01*
X135942050Y-143994375D02*
X135929050Y-144054175D01*
X127809550Y-150521975D02*
X127585550Y-151094275D01*
X105840350Y-148966375D02*
X106161950Y-148879175D01*
X143360850Y-118699875D02*
X143872850Y-118816275D01*
X143193550Y-136646975D02*
X142778550Y-136739575D01*
X158360950Y-123857575D02*
X158141450Y-123757475D01*
X124784450Y-131096975D02*
X125844050Y-130083075D01*
X117673250Y-138897475D02*
X118287650Y-138818875D01*
X122377050Y-156258175D02*
X121905150Y-156487375D01*
X132966150Y-124503675D02*
X133214150Y-123987075D01*
X109804050Y-148219575D02*
X109791850Y-148028275D01*
X157589450Y-123428375D02*
X157106250Y-123115675D01*
X100560150Y-163411375D02*
X100487450Y-163460275D01*
X91111460Y-161330075D02*
X97310950Y-155763875D01*
X146742650Y-134833475D02*
X146306950Y-135143875D01*
X153020250Y-111422675D02*
X153578250Y-111682875D01*
X110252650Y-145502775D02*
X110452750Y-144908775D01*
X100345750Y-153166275D02*
X100652150Y-152761375D01*
X156801850Y-122992875D02*
X156683150Y-122998375D01*
X105803550Y-171486875D02*
X104958450Y-172270275D01*
X156345250Y-102743175D02*
X157175050Y-102094875D01*
X119549150Y-138768875D02*
X120147850Y-138799475D01*
X150451450Y-131211775D02*
X150216950Y-131383575D01*
X157555150Y-101863175D02*
X157665650Y-101866375D01*
X117246050Y-157763375D02*
X117229250Y-158269675D01*
X143488450Y-114736875D02*
X143420550Y-114478575D01*
X117246250Y-156980375D02*
X117246050Y-157763375D01*
X146135150Y-111806775D02*
X148849750Y-109356175D01*
X152696250Y-105857875D02*
X153952050Y-104757775D01*
X121869450Y-138849675D02*
X121805150Y-138637075D01*
X144609550Y-117740175D02*
X144281850Y-116884975D01*
X131075250Y-148770675D02*
X129947650Y-149763075D01*
X109639250Y-166846375D02*
X109239850Y-166929975D01*
X157743250Y-101828275D02*
X157783150Y-101753475D01*
X100463150Y-163559575D02*
X100483350Y-163635975D01*
X131027350Y-125405875D02*
X131654750Y-126051175D01*
X113752450Y-164627175D02*
X113293050Y-164991675D01*
X115772850Y-139500975D02*
X116186750Y-139316175D01*
X85877890Y-166514775D02*
X85859520Y-166438275D01*
X100483350Y-163635975D02*
X100527050Y-163732575D01*
X137277350Y-119783875D02*
X137703850Y-119533375D01*
X135091750Y-145056075D02*
X134000650Y-146113275D01*
X105117550Y-149267175D02*
X105503650Y-149093275D01*
X149526150Y-131967675D02*
X149277450Y-132300375D01*
X86377940Y-165683675D02*
X87007670Y-165065275D01*
X135732650Y-144356175D02*
X135467350Y-144662675D01*
X120136450Y-156964575D02*
X119079050Y-156980375D01*
X142598150Y-138372975D02*
X142569450Y-138423475D01*
X161674250Y-121153075D02*
X159397050Y-123146275D01*
X116658950Y-160738775D02*
X116451350Y-161213575D01*
X152313350Y-129646775D02*
X151226250Y-130580675D01*
X107617950Y-167031075D02*
X107202450Y-166999175D01*
X150667350Y-108141075D02*
X150570150Y-108002975D01*
X121838350Y-134641575D02*
X121929250Y-134425975D01*
X156085050Y-123545975D02*
X156079150Y-123660175D01*
X136854250Y-120062375D02*
X137277350Y-119783875D01*
X103315950Y-150277975D02*
X103751450Y-149993775D01*
X101898950Y-165454675D02*
X103418350Y-167139175D01*
X146306950Y-135143875D02*
X145862450Y-135434675D01*
X120859850Y-156878075D02*
X120523150Y-156933775D01*
X137022950Y-143347375D02*
X136688450Y-143594075D01*
X121180050Y-156789975D02*
X120859850Y-156878075D01*
X106897250Y-148793975D02*
X107984950Y-148778775D01*
X107984950Y-148778775D02*
X109868050Y-148778775D01*
X103093350Y-165373975D02*
X102520350Y-164925575D01*
X145081150Y-112775775D02*
X146135150Y-111806775D01*
X140348950Y-118611975D02*
X140807050Y-118554075D01*
X120523150Y-156933775D02*
X120136450Y-156964575D01*
X126689250Y-152628575D02*
X126287350Y-153123475D01*
X122039750Y-134215275D02*
X122187750Y-133978675D01*
X128338050Y-148778775D02*
X128010350Y-149897175D01*
X117102250Y-139010675D02*
X117673250Y-138897475D01*
X90439060Y-171596575D02*
X88210720Y-169142775D01*
X156445550Y-123134175D02*
X156299750Y-123261075D01*
X97060850Y-172925075D02*
X97060850Y-172925075D01*
X109842650Y-147302675D02*
X109939950Y-146729475D01*
D11*
X188054050Y-96817775D02*
X180796050Y-104026375D01*
D10*
X99573550Y-154418775D02*
X99804850Y-153996675D01*
X121159650Y-138976675D02*
X121415550Y-139046175D01*
X88210720Y-169142775D02*
X85977730Y-166654275D01*
X128572450Y-149679975D02*
X128338050Y-148778775D01*
X105508450Y-166636575D02*
X104887450Y-166401275D01*
X129174350Y-150422275D02*
X128957250Y-150595175D01*
X150103650Y-131443575D02*
X150044750Y-131461075D01*
X144509050Y-136168275D02*
X144062050Y-136359175D01*
X156299750Y-123261075D02*
X156196550Y-123359575D01*
X106372850Y-170937475D02*
X105803550Y-171486875D01*
X121642550Y-138205375D02*
X121585450Y-137997475D01*
X128828550Y-150550075D02*
X128757250Y-150335675D01*
X156124550Y-123450175D02*
X156085050Y-123545975D01*
X120937450Y-138917575D02*
X121159650Y-138976675D01*
X144541150Y-119049675D02*
X144787650Y-119126575D01*
X102891050Y-150583175D02*
X103315950Y-150277975D01*
X116186750Y-139316175D02*
X116598750Y-139157375D01*
X105647050Y-169608775D02*
X106327150Y-170386675D01*
X121479550Y-136469375D02*
X121531050Y-135916775D01*
X119079050Y-156980375D02*
X117246250Y-156980375D01*
X112456850Y-165579675D02*
X112046350Y-165835375D01*
X150835350Y-107578475D02*
X151606050Y-106842475D01*
X136688450Y-143594075D02*
X136441250Y-143747175D01*
X100487450Y-163460275D02*
X100464950Y-163501675D01*
X121505650Y-137530875D02*
X121470750Y-137014475D01*
X131654750Y-126051175D02*
X132282050Y-126696375D01*
X120147850Y-138799475D02*
X120692750Y-138868375D01*
X156107950Y-123805975D02*
X156172550Y-123996475D01*
X150570150Y-108002975D02*
X150537950Y-107932875D01*
X110452750Y-144908775D02*
X110672050Y-144367475D01*
X157106250Y-123115675D02*
X156938350Y-123031475D01*
X142778550Y-136739575D02*
X141573350Y-136942375D01*
X100464950Y-163501675D02*
X100463150Y-163559575D01*
X136066050Y-143728575D02*
X136025550Y-143722175D01*
X121898250Y-139007875D02*
X121869450Y-138849675D01*
X134234550Y-122486575D02*
X134681150Y-121980075D01*
X100062850Y-153578575D02*
X100345750Y-153166275D01*
X134681150Y-121980075D02*
X135188150Y-121458975D01*
X139006050Y-118948875D02*
X139448750Y-118809275D01*
X123478250Y-155626875D02*
X123117950Y-155853975D01*
M02*
