%TF.GenerationSoftware,KiCad,Pcbnew,(6.0.1)*%
%TF.CreationDate,2022-06-23T19:30:41-05:00*%
%TF.ProjectId,toorcamp-sign-lts,746f6f72-6361-46d7-902d-7369676e2d6c,rev?*%
%TF.SameCoordinates,Original*%
%TF.FileFunction,Legend,Top*%
%TF.FilePolarity,Positive*%
%FSLAX46Y46*%
G04 Gerber Fmt 4.6, Leading zero omitted, Abs format (unit mm)*
G04 Created by KiCad (PCBNEW (6.0.1)) date 2022-06-23 19:30:41*
%MOMM*%
%LPD*%
G01*
G04 APERTURE LIST*
%ADD10C,0.010000*%
G04 APERTURE END LIST*
D10*
%TO.C,G\u002A\u002A\u002A*%
X115896671Y-150653393D02*
X115903652Y-150653695D01*
X115903652Y-150653695D02*
X116078226Y-150679713D01*
X116078226Y-150679713D02*
X116229963Y-150740859D01*
X116229963Y-150740859D02*
X116357481Y-150836257D01*
X116357481Y-150836257D02*
X116459400Y-150965035D01*
X116459400Y-150965035D02*
X116493421Y-151027184D01*
X116493421Y-151027184D02*
X116530646Y-151137665D01*
X116530646Y-151137665D02*
X116549777Y-151269909D01*
X116549777Y-151269909D02*
X116549896Y-151406986D01*
X116549896Y-151406986D02*
X116530085Y-151531966D01*
X116530085Y-151531966D02*
X116522218Y-151558415D01*
X116522218Y-151558415D02*
X116469666Y-151665612D01*
X116469666Y-151665612D02*
X116387880Y-151772887D01*
X116387880Y-151772887D02*
X116288041Y-151867723D01*
X116288041Y-151867723D02*
X116185144Y-151935676D01*
X116185144Y-151935676D02*
X116086446Y-151971810D01*
X116086446Y-151971810D02*
X115966900Y-151994385D01*
X115966900Y-151994385D02*
X115842351Y-152002147D01*
X115842351Y-152002147D02*
X115728642Y-151993848D01*
X115728642Y-151993848D02*
X115661792Y-151977005D01*
X115661792Y-151977005D02*
X115503922Y-151896774D01*
X115503922Y-151896774D02*
X115372792Y-151783858D01*
X115372792Y-151783858D02*
X115267794Y-151637717D01*
X115267794Y-151637717D02*
X115257014Y-151618095D01*
X115257014Y-151618095D02*
X115233375Y-151566580D01*
X115233375Y-151566580D02*
X115218926Y-151512060D01*
X115218926Y-151512060D02*
X115211612Y-151442028D01*
X115211612Y-151442028D02*
X115209384Y-151343976D01*
X115209384Y-151343976D02*
X115209360Y-151327642D01*
X115209360Y-151327642D02*
X115210804Y-151227533D01*
X115210804Y-151227533D02*
X115216709Y-151156417D01*
X115216709Y-151156417D02*
X115229516Y-151101004D01*
X115229516Y-151101004D02*
X115251662Y-151048002D01*
X115251662Y-151048002D02*
X115265681Y-151020725D01*
X115265681Y-151020725D02*
X115364345Y-150879237D01*
X115364345Y-150879237D02*
X115493913Y-150765983D01*
X115493913Y-150765983D02*
X115607319Y-150702210D01*
X115607319Y-150702210D02*
X115676764Y-150673252D01*
X115676764Y-150673252D02*
X115736966Y-150657292D01*
X115736966Y-150657292D02*
X115804683Y-150651587D01*
X115804683Y-150651587D02*
X115896671Y-150653393D01*
X115896671Y-150653393D02*
X115896671Y-150653393D01*
G36*
X115896671Y-150653393D02*
G01*
X115903652Y-150653695D01*
X116078226Y-150679713D01*
X116229963Y-150740859D01*
X116357481Y-150836257D01*
X116459400Y-150965035D01*
X116493421Y-151027184D01*
X116530646Y-151137665D01*
X116549777Y-151269909D01*
X116549896Y-151406986D01*
X116530085Y-151531966D01*
X116522218Y-151558415D01*
X116469666Y-151665612D01*
X116387880Y-151772887D01*
X116288041Y-151867723D01*
X116185144Y-151935676D01*
X116086446Y-151971810D01*
X115966900Y-151994385D01*
X115842351Y-152002147D01*
X115728642Y-151993848D01*
X115661792Y-151977005D01*
X115503922Y-151896774D01*
X115372792Y-151783858D01*
X115267794Y-151637717D01*
X115257014Y-151618095D01*
X115233375Y-151566580D01*
X115218926Y-151512060D01*
X115211612Y-151442028D01*
X115209384Y-151343976D01*
X115209360Y-151327642D01*
X115210804Y-151227533D01*
X115216709Y-151156417D01*
X115229516Y-151101004D01*
X115251662Y-151048002D01*
X115265681Y-151020725D01*
X115364345Y-150879237D01*
X115493913Y-150765983D01*
X115607319Y-150702210D01*
X115676764Y-150673252D01*
X115736966Y-150657292D01*
X115804683Y-150651587D01*
X115896671Y-150653393D01*
G37*
X115896671Y-150653393D02*
X115903652Y-150653695D01*
X116078226Y-150679713D01*
X116229963Y-150740859D01*
X116357481Y-150836257D01*
X116459400Y-150965035D01*
X116493421Y-151027184D01*
X116530646Y-151137665D01*
X116549777Y-151269909D01*
X116549896Y-151406986D01*
X116530085Y-151531966D01*
X116522218Y-151558415D01*
X116469666Y-151665612D01*
X116387880Y-151772887D01*
X116288041Y-151867723D01*
X116185144Y-151935676D01*
X116086446Y-151971810D01*
X115966900Y-151994385D01*
X115842351Y-152002147D01*
X115728642Y-151993848D01*
X115661792Y-151977005D01*
X115503922Y-151896774D01*
X115372792Y-151783858D01*
X115267794Y-151637717D01*
X115257014Y-151618095D01*
X115233375Y-151566580D01*
X115218926Y-151512060D01*
X115211612Y-151442028D01*
X115209384Y-151343976D01*
X115209360Y-151327642D01*
X115210804Y-151227533D01*
X115216709Y-151156417D01*
X115229516Y-151101004D01*
X115251662Y-151048002D01*
X115265681Y-151020725D01*
X115364345Y-150879237D01*
X115493913Y-150765983D01*
X115607319Y-150702210D01*
X115676764Y-150673252D01*
X115736966Y-150657292D01*
X115804683Y-150651587D01*
X115896671Y-150653393D01*
X154512071Y-115941495D02*
X154635112Y-115985033D01*
X154635112Y-115985033D02*
X154779283Y-116077429D01*
X154779283Y-116077429D02*
X154892447Y-116195793D01*
X154892447Y-116195793D02*
X154971772Y-116335747D01*
X154971772Y-116335747D02*
X155014426Y-116492909D01*
X155014426Y-116492909D02*
X155021204Y-116582308D01*
X155021204Y-116582308D02*
X155010496Y-116740847D01*
X155010496Y-116740847D02*
X154971772Y-116874850D01*
X154971772Y-116874850D02*
X154900937Y-116994712D01*
X154900937Y-116994712D02*
X154824519Y-117081335D01*
X154824519Y-117081335D02*
X154690703Y-117186329D01*
X154690703Y-117186329D02*
X154539133Y-117254474D01*
X154539133Y-117254474D02*
X154375752Y-117284001D01*
X154375752Y-117284001D02*
X154206504Y-117273141D01*
X154206504Y-117273141D02*
X154190723Y-117270025D01*
X154190723Y-117270025D02*
X154055334Y-117221736D01*
X154055334Y-117221736D02*
X153927105Y-117138752D01*
X153927105Y-117138752D02*
X153815099Y-117028667D01*
X153815099Y-117028667D02*
X153728374Y-116899077D01*
X153728374Y-116899077D02*
X153714590Y-116870899D01*
X153714590Y-116870899D02*
X153678172Y-116750165D01*
X153678172Y-116750165D02*
X153666233Y-116610766D01*
X153666233Y-116610766D02*
X153678492Y-116468372D01*
X153678492Y-116468372D02*
X153714670Y-116338658D01*
X153714670Y-116338658D02*
X153724503Y-116316145D01*
X153724503Y-116316145D02*
X153814937Y-116171009D01*
X153814937Y-116171009D02*
X153935900Y-116055028D01*
X153935900Y-116055028D02*
X154058786Y-115981861D01*
X154058786Y-115981861D02*
X154202420Y-115935807D01*
X154202420Y-115935807D02*
X154358061Y-115922376D01*
X154358061Y-115922376D02*
X154512071Y-115941495D01*
X154512071Y-115941495D02*
X154512071Y-115941495D01*
G36*
X154512071Y-115941495D02*
G01*
X154635112Y-115985033D01*
X154779283Y-116077429D01*
X154892447Y-116195793D01*
X154971772Y-116335747D01*
X155014426Y-116492909D01*
X155021204Y-116582308D01*
X155010496Y-116740847D01*
X154971772Y-116874850D01*
X154900937Y-116994712D01*
X154824519Y-117081335D01*
X154690703Y-117186329D01*
X154539133Y-117254474D01*
X154375752Y-117284001D01*
X154206504Y-117273141D01*
X154190723Y-117270025D01*
X154055334Y-117221736D01*
X153927105Y-117138752D01*
X153815099Y-117028667D01*
X153728374Y-116899077D01*
X153714590Y-116870899D01*
X153678172Y-116750165D01*
X153666233Y-116610766D01*
X153678492Y-116468372D01*
X153714670Y-116338658D01*
X153724503Y-116316145D01*
X153814937Y-116171009D01*
X153935900Y-116055028D01*
X154058786Y-115981861D01*
X154202420Y-115935807D01*
X154358061Y-115922376D01*
X154512071Y-115941495D01*
G37*
X154512071Y-115941495D02*
X154635112Y-115985033D01*
X154779283Y-116077429D01*
X154892447Y-116195793D01*
X154971772Y-116335747D01*
X155014426Y-116492909D01*
X155021204Y-116582308D01*
X155010496Y-116740847D01*
X154971772Y-116874850D01*
X154900937Y-116994712D01*
X154824519Y-117081335D01*
X154690703Y-117186329D01*
X154539133Y-117254474D01*
X154375752Y-117284001D01*
X154206504Y-117273141D01*
X154190723Y-117270025D01*
X154055334Y-117221736D01*
X153927105Y-117138752D01*
X153815099Y-117028667D01*
X153728374Y-116899077D01*
X153714590Y-116870899D01*
X153678172Y-116750165D01*
X153666233Y-116610766D01*
X153678492Y-116468372D01*
X153714670Y-116338658D01*
X153724503Y-116316145D01*
X153814937Y-116171009D01*
X153935900Y-116055028D01*
X154058786Y-115981861D01*
X154202420Y-115935807D01*
X154358061Y-115922376D01*
X154512071Y-115941495D01*
X90882435Y-165998260D02*
X90954395Y-166006680D01*
X90954395Y-166006680D02*
X91016758Y-166024729D01*
X91016758Y-166024729D02*
X91084305Y-166054840D01*
X91084305Y-166054840D02*
X91227180Y-166146579D01*
X91227180Y-166146579D02*
X91337030Y-166264378D01*
X91337030Y-166264378D02*
X91412582Y-166406300D01*
X91412582Y-166406300D02*
X91452564Y-166570406D01*
X91452564Y-166570406D02*
X91457399Y-166623098D01*
X91457399Y-166623098D02*
X91453723Y-166784277D01*
X91453723Y-166784277D02*
X91419540Y-166923951D01*
X91419540Y-166923951D02*
X91351587Y-167053019D01*
X91351587Y-167053019D02*
X91312806Y-167105910D01*
X91312806Y-167105910D02*
X91209095Y-167205656D01*
X91209095Y-167205656D02*
X91078836Y-167282914D01*
X91078836Y-167282914D02*
X90933150Y-167333875D01*
X90933150Y-167333875D02*
X90783159Y-167354730D01*
X90783159Y-167354730D02*
X90639987Y-167341672D01*
X90639987Y-167341672D02*
X90630786Y-167339459D01*
X90630786Y-167339459D02*
X90473954Y-167279115D01*
X90473954Y-167279115D02*
X90336061Y-167184203D01*
X90336061Y-167184203D02*
X90224131Y-167060373D01*
X90224131Y-167060373D02*
X90169108Y-166968036D01*
X90169108Y-166968036D02*
X90143723Y-166909711D01*
X90143723Y-166909711D02*
X90128263Y-166852125D01*
X90128263Y-166852125D02*
X90120478Y-166781809D01*
X90120478Y-166781809D02*
X90118115Y-166685293D01*
X90118115Y-166685293D02*
X90118094Y-166662751D01*
X90118094Y-166662751D02*
X90119952Y-166559826D01*
X90119952Y-166559826D02*
X90126597Y-166486537D01*
X90126597Y-166486537D02*
X90140125Y-166430270D01*
X90140125Y-166430270D02*
X90162632Y-166378413D01*
X90162632Y-166378413D02*
X90166636Y-166370756D01*
X90166636Y-166370756D02*
X90264558Y-166227158D01*
X90264558Y-166227158D02*
X90388333Y-166113131D01*
X90388333Y-166113131D02*
X90484825Y-166055141D01*
X90484825Y-166055141D02*
X90554252Y-166024527D01*
X90554252Y-166024527D02*
X90617751Y-166006662D01*
X90617751Y-166006662D02*
X90691737Y-165998320D01*
X90691737Y-165998320D02*
X90784574Y-165996283D01*
X90784574Y-165996283D02*
X90882435Y-165998260D01*
X90882435Y-165998260D02*
X90882435Y-165998260D01*
G36*
X90882435Y-165998260D02*
G01*
X90954395Y-166006680D01*
X91016758Y-166024729D01*
X91084305Y-166054840D01*
X91227180Y-166146579D01*
X91337030Y-166264378D01*
X91412582Y-166406300D01*
X91452564Y-166570406D01*
X91457399Y-166623098D01*
X91453723Y-166784277D01*
X91419540Y-166923951D01*
X91351587Y-167053019D01*
X91312806Y-167105910D01*
X91209095Y-167205656D01*
X91078836Y-167282914D01*
X90933150Y-167333875D01*
X90783159Y-167354730D01*
X90639987Y-167341672D01*
X90630786Y-167339459D01*
X90473954Y-167279115D01*
X90336061Y-167184203D01*
X90224131Y-167060373D01*
X90169108Y-166968036D01*
X90143723Y-166909711D01*
X90128263Y-166852125D01*
X90120478Y-166781809D01*
X90118115Y-166685293D01*
X90118094Y-166662751D01*
X90119952Y-166559826D01*
X90126597Y-166486537D01*
X90140125Y-166430270D01*
X90162632Y-166378413D01*
X90166636Y-166370756D01*
X90264558Y-166227158D01*
X90388333Y-166113131D01*
X90484825Y-166055141D01*
X90554252Y-166024527D01*
X90617751Y-166006662D01*
X90691737Y-165998320D01*
X90784574Y-165996283D01*
X90882435Y-165998260D01*
G37*
X90882435Y-165998260D02*
X90954395Y-166006680D01*
X91016758Y-166024729D01*
X91084305Y-166054840D01*
X91227180Y-166146579D01*
X91337030Y-166264378D01*
X91412582Y-166406300D01*
X91452564Y-166570406D01*
X91457399Y-166623098D01*
X91453723Y-166784277D01*
X91419540Y-166923951D01*
X91351587Y-167053019D01*
X91312806Y-167105910D01*
X91209095Y-167205656D01*
X91078836Y-167282914D01*
X90933150Y-167333875D01*
X90783159Y-167354730D01*
X90639987Y-167341672D01*
X90630786Y-167339459D01*
X90473954Y-167279115D01*
X90336061Y-167184203D01*
X90224131Y-167060373D01*
X90169108Y-166968036D01*
X90143723Y-166909711D01*
X90128263Y-166852125D01*
X90120478Y-166781809D01*
X90118115Y-166685293D01*
X90118094Y-166662751D01*
X90119952Y-166559826D01*
X90126597Y-166486537D01*
X90140125Y-166430270D01*
X90162632Y-166378413D01*
X90166636Y-166370756D01*
X90264558Y-166227158D01*
X90388333Y-166113131D01*
X90484825Y-166055141D01*
X90554252Y-166024527D01*
X90617751Y-166006662D01*
X90691737Y-165998320D01*
X90784574Y-165996283D01*
X90882435Y-165998260D01*
X176345117Y-104082154D02*
X176387430Y-104091533D01*
X176387430Y-104091533D02*
X176552446Y-104152821D01*
X176552446Y-104152821D02*
X176687984Y-104244343D01*
X176687984Y-104244343D02*
X176793520Y-104365608D01*
X176793520Y-104365608D02*
X176868531Y-104516123D01*
X176868531Y-104516123D02*
X176881809Y-104556135D01*
X176881809Y-104556135D02*
X176912851Y-104724850D01*
X176912851Y-104724850D02*
X176902881Y-104887177D01*
X176902881Y-104887177D02*
X176852807Y-105039482D01*
X176852807Y-105039482D02*
X176763534Y-105178134D01*
X176763534Y-105178134D02*
X176713075Y-105232892D01*
X176713075Y-105232892D02*
X176583471Y-105333294D01*
X176583471Y-105333294D02*
X176436922Y-105400496D01*
X176436922Y-105400496D02*
X176281436Y-105432576D01*
X176281436Y-105432576D02*
X176125017Y-105427610D01*
X176125017Y-105427610D02*
X176016797Y-105400188D01*
X176016797Y-105400188D02*
X175858362Y-105323954D01*
X175858362Y-105323954D02*
X175731508Y-105219561D01*
X175731508Y-105219561D02*
X175635829Y-105086583D01*
X175635829Y-105086583D02*
X175573109Y-104932245D01*
X175573109Y-104932245D02*
X175547623Y-104775335D01*
X175547623Y-104775335D02*
X175560112Y-104623550D01*
X175560112Y-104623550D02*
X175606222Y-104481387D01*
X175606222Y-104481387D02*
X175681600Y-104353339D01*
X175681600Y-104353339D02*
X175781891Y-104243901D01*
X175781891Y-104243901D02*
X175902742Y-104157569D01*
X175902742Y-104157569D02*
X176039799Y-104098837D01*
X176039799Y-104098837D02*
X176188709Y-104072201D01*
X176188709Y-104072201D02*
X176345117Y-104082154D01*
X176345117Y-104082154D02*
X176345117Y-104082154D01*
G36*
X176345117Y-104082154D02*
G01*
X176387430Y-104091533D01*
X176552446Y-104152821D01*
X176687984Y-104244343D01*
X176793520Y-104365608D01*
X176868531Y-104516123D01*
X176881809Y-104556135D01*
X176912851Y-104724850D01*
X176902881Y-104887177D01*
X176852807Y-105039482D01*
X176763534Y-105178134D01*
X176713075Y-105232892D01*
X176583471Y-105333294D01*
X176436922Y-105400496D01*
X176281436Y-105432576D01*
X176125017Y-105427610D01*
X176016797Y-105400188D01*
X175858362Y-105323954D01*
X175731508Y-105219561D01*
X175635829Y-105086583D01*
X175573109Y-104932245D01*
X175547623Y-104775335D01*
X175560112Y-104623550D01*
X175606222Y-104481387D01*
X175681600Y-104353339D01*
X175781891Y-104243901D01*
X175902742Y-104157569D01*
X176039799Y-104098837D01*
X176188709Y-104072201D01*
X176345117Y-104082154D01*
G37*
X176345117Y-104082154D02*
X176387430Y-104091533D01*
X176552446Y-104152821D01*
X176687984Y-104244343D01*
X176793520Y-104365608D01*
X176868531Y-104516123D01*
X176881809Y-104556135D01*
X176912851Y-104724850D01*
X176902881Y-104887177D01*
X176852807Y-105039482D01*
X176763534Y-105178134D01*
X176713075Y-105232892D01*
X176583471Y-105333294D01*
X176436922Y-105400496D01*
X176281436Y-105432576D01*
X176125017Y-105427610D01*
X176016797Y-105400188D01*
X175858362Y-105323954D01*
X175731508Y-105219561D01*
X175635829Y-105086583D01*
X175573109Y-104932245D01*
X175547623Y-104775335D01*
X175560112Y-104623550D01*
X175606222Y-104481387D01*
X175681600Y-104353339D01*
X175781891Y-104243901D01*
X175902742Y-104157569D01*
X176039799Y-104098837D01*
X176188709Y-104072201D01*
X176345117Y-104082154D01*
X138247421Y-138597831D02*
X138396129Y-138662958D01*
X138396129Y-138662958D02*
X138521290Y-138762760D01*
X138521290Y-138762760D02*
X138620967Y-138895966D01*
X138620967Y-138895966D02*
X138645361Y-138941744D01*
X138645361Y-138941744D02*
X138675808Y-139010061D01*
X138675808Y-139010061D02*
X138693520Y-139071644D01*
X138693520Y-139071644D02*
X138701633Y-139142714D01*
X138701633Y-139142714D02*
X138703280Y-139239491D01*
X138703280Y-139239491D02*
X138703270Y-139241475D01*
X138703270Y-139241475D02*
X138700656Y-139339028D01*
X138700656Y-139339028D02*
X138691738Y-139410892D01*
X138691738Y-139410892D02*
X138673101Y-139473613D01*
X138673101Y-139473613D02*
X138641329Y-139543735D01*
X138641329Y-139543735D02*
X138640573Y-139545252D01*
X138640573Y-139545252D02*
X138548254Y-139685706D01*
X138548254Y-139685706D02*
X138428733Y-139795196D01*
X138428733Y-139795196D02*
X138286108Y-139871263D01*
X138286108Y-139871263D02*
X138124474Y-139911446D01*
X138124474Y-139911446D02*
X138020781Y-139917317D01*
X138020781Y-139917317D02*
X137933001Y-139912041D01*
X137933001Y-139912041D02*
X137849804Y-139899869D01*
X137849804Y-139899869D02*
X137799592Y-139886767D01*
X137799592Y-139886767D02*
X137647400Y-139809833D01*
X137647400Y-139809833D02*
X137523738Y-139703275D01*
X137523738Y-139703275D02*
X137431342Y-139571039D01*
X137431342Y-139571039D02*
X137372950Y-139417070D01*
X137372950Y-139417070D02*
X137351298Y-139245313D01*
X137351298Y-139245313D02*
X137351248Y-139240464D01*
X137351248Y-139240464D02*
X137353273Y-139147805D01*
X137353273Y-139147805D02*
X137364080Y-139076699D01*
X137364080Y-139076699D02*
X137388374Y-139006561D01*
X137388374Y-139006561D02*
X137420378Y-138937929D01*
X137420378Y-138937929D02*
X137512151Y-138793923D01*
X137512151Y-138793923D02*
X137628038Y-138684509D01*
X137628038Y-138684509D02*
X137766773Y-138610400D01*
X137766773Y-138610400D02*
X137927084Y-138572311D01*
X137927084Y-138572311D02*
X138077103Y-138568650D01*
X138077103Y-138568650D02*
X138247421Y-138597831D01*
X138247421Y-138597831D02*
X138247421Y-138597831D01*
G36*
X138247421Y-138597831D02*
G01*
X138396129Y-138662958D01*
X138521290Y-138762760D01*
X138620967Y-138895966D01*
X138645361Y-138941744D01*
X138675808Y-139010061D01*
X138693520Y-139071644D01*
X138701633Y-139142714D01*
X138703280Y-139239491D01*
X138703270Y-139241475D01*
X138700656Y-139339028D01*
X138691738Y-139410892D01*
X138673101Y-139473613D01*
X138641329Y-139543735D01*
X138640573Y-139545252D01*
X138548254Y-139685706D01*
X138428733Y-139795196D01*
X138286108Y-139871263D01*
X138124474Y-139911446D01*
X138020781Y-139917317D01*
X137933001Y-139912041D01*
X137849804Y-139899869D01*
X137799592Y-139886767D01*
X137647400Y-139809833D01*
X137523738Y-139703275D01*
X137431342Y-139571039D01*
X137372950Y-139417070D01*
X137351298Y-139245313D01*
X137351248Y-139240464D01*
X137353273Y-139147805D01*
X137364080Y-139076699D01*
X137388374Y-139006561D01*
X137420378Y-138937929D01*
X137512151Y-138793923D01*
X137628038Y-138684509D01*
X137766773Y-138610400D01*
X137927084Y-138572311D01*
X138077103Y-138568650D01*
X138247421Y-138597831D01*
G37*
X138247421Y-138597831D02*
X138396129Y-138662958D01*
X138521290Y-138762760D01*
X138620967Y-138895966D01*
X138645361Y-138941744D01*
X138675808Y-139010061D01*
X138693520Y-139071644D01*
X138701633Y-139142714D01*
X138703280Y-139239491D01*
X138703270Y-139241475D01*
X138700656Y-139339028D01*
X138691738Y-139410892D01*
X138673101Y-139473613D01*
X138641329Y-139543735D01*
X138640573Y-139545252D01*
X138548254Y-139685706D01*
X138428733Y-139795196D01*
X138286108Y-139871263D01*
X138124474Y-139911446D01*
X138020781Y-139917317D01*
X137933001Y-139912041D01*
X137849804Y-139899869D01*
X137799592Y-139886767D01*
X137647400Y-139809833D01*
X137523738Y-139703275D01*
X137431342Y-139571039D01*
X137372950Y-139417070D01*
X137351298Y-139245313D01*
X137351248Y-139240464D01*
X137353273Y-139147805D01*
X137364080Y-139076699D01*
X137388374Y-139006561D01*
X137420378Y-138937929D01*
X137512151Y-138793923D01*
X137628038Y-138684509D01*
X137766773Y-138610400D01*
X137927084Y-138572311D01*
X138077103Y-138568650D01*
X138247421Y-138597831D01*
X162804813Y-108448165D02*
X162932445Y-108492033D01*
X162932445Y-108492033D02*
X163058137Y-108573328D01*
X163058137Y-108573328D02*
X163170504Y-108682691D01*
X163170504Y-108682691D02*
X163256818Y-108807081D01*
X163256818Y-108807081D02*
X163274402Y-108842423D01*
X163274402Y-108842423D02*
X163312126Y-108968847D01*
X163312126Y-108968847D02*
X163323432Y-109112282D01*
X163323432Y-109112282D02*
X163308664Y-109256936D01*
X163308664Y-109256936D02*
X163268164Y-109387018D01*
X163268164Y-109387018D02*
X163262294Y-109399470D01*
X163262294Y-109399470D02*
X163185567Y-109519396D01*
X163185567Y-109519396D02*
X163083018Y-109627896D01*
X163083018Y-109627896D02*
X162967496Y-109712352D01*
X162967496Y-109712352D02*
X162917850Y-109737772D01*
X162917850Y-109737772D02*
X162806994Y-109771682D01*
X162806994Y-109771682D02*
X162677577Y-109788426D01*
X162677577Y-109788426D02*
X162549427Y-109786551D01*
X162549427Y-109786551D02*
X162462737Y-109771125D01*
X162462737Y-109771125D02*
X162314462Y-109708012D01*
X162314462Y-109708012D02*
X162181979Y-109610366D01*
X162181979Y-109610366D02*
X162073414Y-109485287D01*
X162073414Y-109485287D02*
X162012645Y-109377899D01*
X162012645Y-109377899D02*
X161979471Y-109267359D01*
X161979471Y-109267359D02*
X161965726Y-109136844D01*
X161965726Y-109136844D02*
X161971410Y-109003215D01*
X161971410Y-109003215D02*
X161996520Y-108883332D01*
X161996520Y-108883332D02*
X162012672Y-108841544D01*
X162012672Y-108841544D02*
X162080185Y-108729437D01*
X162080185Y-108729437D02*
X162172650Y-108622711D01*
X162172650Y-108622711D02*
X162277614Y-108534046D01*
X162277614Y-108534046D02*
X162364009Y-108483830D01*
X162364009Y-108483830D02*
X162502313Y-108442227D01*
X162502313Y-108442227D02*
X162654264Y-108430411D01*
X162654264Y-108430411D02*
X162804813Y-108448165D01*
X162804813Y-108448165D02*
X162804813Y-108448165D01*
G36*
X162804813Y-108448165D02*
G01*
X162932445Y-108492033D01*
X163058137Y-108573328D01*
X163170504Y-108682691D01*
X163256818Y-108807081D01*
X163274402Y-108842423D01*
X163312126Y-108968847D01*
X163323432Y-109112282D01*
X163308664Y-109256936D01*
X163268164Y-109387018D01*
X163262294Y-109399470D01*
X163185567Y-109519396D01*
X163083018Y-109627896D01*
X162967496Y-109712352D01*
X162917850Y-109737772D01*
X162806994Y-109771682D01*
X162677577Y-109788426D01*
X162549427Y-109786551D01*
X162462737Y-109771125D01*
X162314462Y-109708012D01*
X162181979Y-109610366D01*
X162073414Y-109485287D01*
X162012645Y-109377899D01*
X161979471Y-109267359D01*
X161965726Y-109136844D01*
X161971410Y-109003215D01*
X161996520Y-108883332D01*
X162012672Y-108841544D01*
X162080185Y-108729437D01*
X162172650Y-108622711D01*
X162277614Y-108534046D01*
X162364009Y-108483830D01*
X162502313Y-108442227D01*
X162654264Y-108430411D01*
X162804813Y-108448165D01*
G37*
X162804813Y-108448165D02*
X162932445Y-108492033D01*
X163058137Y-108573328D01*
X163170504Y-108682691D01*
X163256818Y-108807081D01*
X163274402Y-108842423D01*
X163312126Y-108968847D01*
X163323432Y-109112282D01*
X163308664Y-109256936D01*
X163268164Y-109387018D01*
X163262294Y-109399470D01*
X163185567Y-109519396D01*
X163083018Y-109627896D01*
X162967496Y-109712352D01*
X162917850Y-109737772D01*
X162806994Y-109771682D01*
X162677577Y-109788426D01*
X162549427Y-109786551D01*
X162462737Y-109771125D01*
X162314462Y-109708012D01*
X162181979Y-109610366D01*
X162073414Y-109485287D01*
X162012645Y-109377899D01*
X161979471Y-109267359D01*
X161965726Y-109136844D01*
X161971410Y-109003215D01*
X161996520Y-108883332D01*
X162012672Y-108841544D01*
X162080185Y-108729437D01*
X162172650Y-108622711D01*
X162277614Y-108534046D01*
X162364009Y-108483830D01*
X162502313Y-108442227D01*
X162654264Y-108430411D01*
X162804813Y-108448165D01*
X115865156Y-143479103D02*
X116010825Y-143523777D01*
X116010825Y-143523777D02*
X116143471Y-143599796D01*
X116143471Y-143599796D02*
X116256455Y-143706051D01*
X116256455Y-143706051D02*
X116327285Y-143810342D01*
X116327285Y-143810342D02*
X116387581Y-143960292D01*
X116387581Y-143960292D02*
X116413795Y-144119556D01*
X116413795Y-144119556D02*
X116405600Y-144277935D01*
X116405600Y-144277935D02*
X116362668Y-144425228D01*
X116362668Y-144425228D02*
X116347989Y-144456187D01*
X116347989Y-144456187D02*
X116289079Y-144543624D01*
X116289079Y-144543624D02*
X116205347Y-144633955D01*
X116205347Y-144633955D02*
X116110897Y-144713431D01*
X116110897Y-144713431D02*
X116035550Y-144760752D01*
X116035550Y-144760752D02*
X115912540Y-144804465D01*
X115912540Y-144804465D02*
X115770757Y-144824678D01*
X115770757Y-144824678D02*
X115627303Y-144820360D01*
X115627303Y-144820360D02*
X115505370Y-144792708D01*
X115505370Y-144792708D02*
X115358157Y-144719709D01*
X115358157Y-144719709D02*
X115238594Y-144619577D01*
X115238594Y-144619577D02*
X115147796Y-144498161D01*
X115147796Y-144498161D02*
X115086878Y-144361313D01*
X115086878Y-144361313D02*
X115056956Y-144214884D01*
X115056956Y-144214884D02*
X115059142Y-144064724D01*
X115059142Y-144064724D02*
X115094554Y-143916684D01*
X115094554Y-143916684D02*
X115164304Y-143776614D01*
X115164304Y-143776614D02*
X115269509Y-143650366D01*
X115269509Y-143650366D02*
X115284979Y-143636053D01*
X115284979Y-143636053D02*
X115416374Y-143544249D01*
X115416374Y-143544249D02*
X115561293Y-143488230D01*
X115561293Y-143488230D02*
X115713099Y-143466884D01*
X115713099Y-143466884D02*
X115865156Y-143479103D01*
X115865156Y-143479103D02*
X115865156Y-143479103D01*
G36*
X115865156Y-143479103D02*
G01*
X116010825Y-143523777D01*
X116143471Y-143599796D01*
X116256455Y-143706051D01*
X116327285Y-143810342D01*
X116387581Y-143960292D01*
X116413795Y-144119556D01*
X116405600Y-144277935D01*
X116362668Y-144425228D01*
X116347989Y-144456187D01*
X116289079Y-144543624D01*
X116205347Y-144633955D01*
X116110897Y-144713431D01*
X116035550Y-144760752D01*
X115912540Y-144804465D01*
X115770757Y-144824678D01*
X115627303Y-144820360D01*
X115505370Y-144792708D01*
X115358157Y-144719709D01*
X115238594Y-144619577D01*
X115147796Y-144498161D01*
X115086878Y-144361313D01*
X115056956Y-144214884D01*
X115059142Y-144064724D01*
X115094554Y-143916684D01*
X115164304Y-143776614D01*
X115269509Y-143650366D01*
X115284979Y-143636053D01*
X115416374Y-143544249D01*
X115561293Y-143488230D01*
X115713099Y-143466884D01*
X115865156Y-143479103D01*
G37*
X115865156Y-143479103D02*
X116010825Y-143523777D01*
X116143471Y-143599796D01*
X116256455Y-143706051D01*
X116327285Y-143810342D01*
X116387581Y-143960292D01*
X116413795Y-144119556D01*
X116405600Y-144277935D01*
X116362668Y-144425228D01*
X116347989Y-144456187D01*
X116289079Y-144543624D01*
X116205347Y-144633955D01*
X116110897Y-144713431D01*
X116035550Y-144760752D01*
X115912540Y-144804465D01*
X115770757Y-144824678D01*
X115627303Y-144820360D01*
X115505370Y-144792708D01*
X115358157Y-144719709D01*
X115238594Y-144619577D01*
X115147796Y-144498161D01*
X115086878Y-144361313D01*
X115056956Y-144214884D01*
X115059142Y-144064724D01*
X115094554Y-143916684D01*
X115164304Y-143776614D01*
X115269509Y-143650366D01*
X115284979Y-143636053D01*
X115416374Y-143544249D01*
X115561293Y-143488230D01*
X115713099Y-143466884D01*
X115865156Y-143479103D01*
X112443765Y-161803975D02*
X112563168Y-161834542D01*
X112563168Y-161834542D02*
X112670445Y-161891427D01*
X112670445Y-161891427D02*
X112765055Y-161966799D01*
X112765055Y-161966799D02*
X112867886Y-162086178D01*
X112867886Y-162086178D02*
X112936992Y-162223554D01*
X112936992Y-162223554D02*
X112972895Y-162372037D01*
X112972895Y-162372037D02*
X112976117Y-162524740D01*
X112976117Y-162524740D02*
X112947180Y-162674774D01*
X112947180Y-162674774D02*
X112886605Y-162815250D01*
X112886605Y-162815250D02*
X112794915Y-162939280D01*
X112794915Y-162939280D02*
X112684325Y-163032412D01*
X112684325Y-163032412D02*
X112548507Y-163101075D01*
X112548507Y-163101075D02*
X112398936Y-163140478D01*
X112398936Y-163140478D02*
X112249645Y-163147667D01*
X112249645Y-163147667D02*
X112180392Y-163138443D01*
X112180392Y-163138443D02*
X112018999Y-163084992D01*
X112018999Y-163084992D02*
X111876478Y-162996434D01*
X111876478Y-162996434D02*
X111759058Y-162877462D01*
X111759058Y-162877462D02*
X111690174Y-162769075D01*
X111690174Y-162769075D02*
X111642388Y-162634636D01*
X111642388Y-162634636D02*
X111623287Y-162483988D01*
X111623287Y-162483988D02*
X111633669Y-162332771D01*
X111633669Y-162332771D02*
X111662418Y-162225362D01*
X111662418Y-162225362D02*
X111737798Y-162082127D01*
X111737798Y-162082127D02*
X111844990Y-161959097D01*
X111844990Y-161959097D02*
X111975720Y-161865430D01*
X111975720Y-161865430D02*
X111997911Y-161853955D01*
X111997911Y-161853955D02*
X112067146Y-161823110D01*
X112067146Y-161823110D02*
X112129608Y-161805111D01*
X112129608Y-161805111D02*
X112201668Y-161796736D01*
X112201668Y-161796736D02*
X112298784Y-161794765D01*
X112298784Y-161794765D02*
X112443765Y-161803975D01*
X112443765Y-161803975D02*
X112443765Y-161803975D01*
G36*
X112443765Y-161803975D02*
G01*
X112563168Y-161834542D01*
X112670445Y-161891427D01*
X112765055Y-161966799D01*
X112867886Y-162086178D01*
X112936992Y-162223554D01*
X112972895Y-162372037D01*
X112976117Y-162524740D01*
X112947180Y-162674774D01*
X112886605Y-162815250D01*
X112794915Y-162939280D01*
X112684325Y-163032412D01*
X112548507Y-163101075D01*
X112398936Y-163140478D01*
X112249645Y-163147667D01*
X112180392Y-163138443D01*
X112018999Y-163084992D01*
X111876478Y-162996434D01*
X111759058Y-162877462D01*
X111690174Y-162769075D01*
X111642388Y-162634636D01*
X111623287Y-162483988D01*
X111633669Y-162332771D01*
X111662418Y-162225362D01*
X111737798Y-162082127D01*
X111844990Y-161959097D01*
X111975720Y-161865430D01*
X111997911Y-161853955D01*
X112067146Y-161823110D01*
X112129608Y-161805111D01*
X112201668Y-161796736D01*
X112298784Y-161794765D01*
X112443765Y-161803975D01*
G37*
X112443765Y-161803975D02*
X112563168Y-161834542D01*
X112670445Y-161891427D01*
X112765055Y-161966799D01*
X112867886Y-162086178D01*
X112936992Y-162223554D01*
X112972895Y-162372037D01*
X112976117Y-162524740D01*
X112947180Y-162674774D01*
X112886605Y-162815250D01*
X112794915Y-162939280D01*
X112684325Y-163032412D01*
X112548507Y-163101075D01*
X112398936Y-163140478D01*
X112249645Y-163147667D01*
X112180392Y-163138443D01*
X112018999Y-163084992D01*
X111876478Y-162996434D01*
X111759058Y-162877462D01*
X111690174Y-162769075D01*
X111642388Y-162634636D01*
X111623287Y-162483988D01*
X111633669Y-162332771D01*
X111662418Y-162225362D01*
X111737798Y-162082127D01*
X111844990Y-161959097D01*
X111975720Y-161865430D01*
X111997911Y-161853955D01*
X112067146Y-161823110D01*
X112129608Y-161805111D01*
X112201668Y-161796736D01*
X112298784Y-161794765D01*
X112443765Y-161803975D01*
X148600520Y-113801668D02*
X148639482Y-113803480D01*
X148639482Y-113803480D02*
X148781027Y-113818835D01*
X148781027Y-113818835D02*
X148895012Y-113852277D01*
X148895012Y-113852277D02*
X148994245Y-113909139D01*
X148994245Y-113909139D02*
X149086450Y-113989642D01*
X149086450Y-113989642D02*
X149189775Y-114120224D01*
X149189775Y-114120224D02*
X149256203Y-114263858D01*
X149256203Y-114263858D02*
X149286700Y-114414661D01*
X149286700Y-114414661D02*
X149282232Y-114566751D01*
X149282232Y-114566751D02*
X149243765Y-114714245D01*
X149243765Y-114714245D02*
X149172266Y-114851261D01*
X149172266Y-114851261D02*
X149068699Y-114971916D01*
X149068699Y-114971916D02*
X148934032Y-115070328D01*
X148934032Y-115070328D02*
X148906534Y-115085241D01*
X148906534Y-115085241D02*
X148785174Y-115128736D01*
X148785174Y-115128736D02*
X148644412Y-115149139D01*
X148644412Y-115149139D02*
X148500817Y-115145681D01*
X148500817Y-115145681D02*
X148370956Y-115117589D01*
X148370956Y-115117589D02*
X148353164Y-115110997D01*
X148353164Y-115110997D02*
X148216087Y-115035552D01*
X148216087Y-115035552D02*
X148096009Y-114928494D01*
X148096009Y-114928494D02*
X148004087Y-114800136D01*
X148004087Y-114800136D02*
X147992264Y-114777347D01*
X147992264Y-114777347D02*
X147961419Y-114708113D01*
X147961419Y-114708113D02*
X147943419Y-114645651D01*
X147943419Y-114645651D02*
X147935045Y-114573591D01*
X147935045Y-114573591D02*
X147933074Y-114476475D01*
X147933074Y-114476475D02*
X147936466Y-114368159D01*
X147936466Y-114368159D02*
X147947987Y-114286833D01*
X147947987Y-114286833D02*
X147970091Y-114217534D01*
X147970091Y-114217534D02*
X147978812Y-114197590D01*
X147978812Y-114197590D02*
X148064595Y-114059311D01*
X148064595Y-114059311D02*
X148181464Y-113942246D01*
X148181464Y-113942246D02*
X148319827Y-113855897D01*
X148319827Y-113855897D02*
X148327327Y-113852471D01*
X148327327Y-113852471D02*
X148396763Y-113823482D01*
X148396763Y-113823482D02*
X148454859Y-113807012D01*
X148454859Y-113807012D02*
X148517488Y-113800571D01*
X148517488Y-113800571D02*
X148600520Y-113801668D01*
X148600520Y-113801668D02*
X148600520Y-113801668D01*
G36*
X148600520Y-113801668D02*
G01*
X148639482Y-113803480D01*
X148781027Y-113818835D01*
X148895012Y-113852277D01*
X148994245Y-113909139D01*
X149086450Y-113989642D01*
X149189775Y-114120224D01*
X149256203Y-114263858D01*
X149286700Y-114414661D01*
X149282232Y-114566751D01*
X149243765Y-114714245D01*
X149172266Y-114851261D01*
X149068699Y-114971916D01*
X148934032Y-115070328D01*
X148906534Y-115085241D01*
X148785174Y-115128736D01*
X148644412Y-115149139D01*
X148500817Y-115145681D01*
X148370956Y-115117589D01*
X148353164Y-115110997D01*
X148216087Y-115035552D01*
X148096009Y-114928494D01*
X148004087Y-114800136D01*
X147992264Y-114777347D01*
X147961419Y-114708113D01*
X147943419Y-114645651D01*
X147935045Y-114573591D01*
X147933074Y-114476475D01*
X147936466Y-114368159D01*
X147947987Y-114286833D01*
X147970091Y-114217534D01*
X147978812Y-114197590D01*
X148064595Y-114059311D01*
X148181464Y-113942246D01*
X148319827Y-113855897D01*
X148327327Y-113852471D01*
X148396763Y-113823482D01*
X148454859Y-113807012D01*
X148517488Y-113800571D01*
X148600520Y-113801668D01*
G37*
X148600520Y-113801668D02*
X148639482Y-113803480D01*
X148781027Y-113818835D01*
X148895012Y-113852277D01*
X148994245Y-113909139D01*
X149086450Y-113989642D01*
X149189775Y-114120224D01*
X149256203Y-114263858D01*
X149286700Y-114414661D01*
X149282232Y-114566751D01*
X149243765Y-114714245D01*
X149172266Y-114851261D01*
X149068699Y-114971916D01*
X148934032Y-115070328D01*
X148906534Y-115085241D01*
X148785174Y-115128736D01*
X148644412Y-115149139D01*
X148500817Y-115145681D01*
X148370956Y-115117589D01*
X148353164Y-115110997D01*
X148216087Y-115035552D01*
X148096009Y-114928494D01*
X148004087Y-114800136D01*
X147992264Y-114777347D01*
X147961419Y-114708113D01*
X147943419Y-114645651D01*
X147935045Y-114573591D01*
X147933074Y-114476475D01*
X147936466Y-114368159D01*
X147947987Y-114286833D01*
X147970091Y-114217534D01*
X147978812Y-114197590D01*
X148064595Y-114059311D01*
X148181464Y-113942246D01*
X148319827Y-113855897D01*
X148327327Y-113852471D01*
X148396763Y-113823482D01*
X148454859Y-113807012D01*
X148517488Y-113800571D01*
X148600520Y-113801668D01*
X168074671Y-103718809D02*
X168224293Y-103778637D01*
X168224293Y-103778637D02*
X168353383Y-103874105D01*
X168353383Y-103874105D02*
X168458456Y-104002981D01*
X168458456Y-104002981D02*
X168498903Y-104075171D01*
X168498903Y-104075171D02*
X168553733Y-104233286D01*
X168553733Y-104233286D02*
X168568114Y-104399760D01*
X168568114Y-104399760D02*
X168541766Y-104569581D01*
X168541766Y-104569581D02*
X168528990Y-104611356D01*
X168528990Y-104611356D02*
X168471464Y-104726888D01*
X168471464Y-104726888D02*
X168382941Y-104837775D01*
X168382941Y-104837775D02*
X168274291Y-104933084D01*
X168274291Y-104933084D02*
X168156381Y-105001882D01*
X168156381Y-105001882D02*
X168130364Y-105012342D01*
X168130364Y-105012342D02*
X167978680Y-105048597D01*
X167978680Y-105048597D02*
X167819246Y-105052756D01*
X167819246Y-105052756D02*
X167674452Y-105025896D01*
X167674452Y-105025896D02*
X167528359Y-104960162D01*
X167528359Y-104960162D02*
X167408112Y-104865905D01*
X167408112Y-104865905D02*
X167314970Y-104749068D01*
X167314970Y-104749068D02*
X167250195Y-104615591D01*
X167250195Y-104615591D02*
X167215047Y-104471416D01*
X167215047Y-104471416D02*
X167210786Y-104322484D01*
X167210786Y-104322484D02*
X167238674Y-104174737D01*
X167238674Y-104174737D02*
X167299970Y-104034114D01*
X167299970Y-104034114D02*
X167395935Y-103906558D01*
X167395935Y-103906558D02*
X167429912Y-103873332D01*
X167429912Y-103873332D02*
X167557052Y-103778797D01*
X167557052Y-103778797D02*
X167694451Y-103721313D01*
X167694451Y-103721313D02*
X167850646Y-103697729D01*
X167850646Y-103697729D02*
X167908004Y-103696852D01*
X167908004Y-103696852D02*
X168074671Y-103718809D01*
X168074671Y-103718809D02*
X168074671Y-103718809D01*
G36*
X168074671Y-103718809D02*
G01*
X168224293Y-103778637D01*
X168353383Y-103874105D01*
X168458456Y-104002981D01*
X168498903Y-104075171D01*
X168553733Y-104233286D01*
X168568114Y-104399760D01*
X168541766Y-104569581D01*
X168528990Y-104611356D01*
X168471464Y-104726888D01*
X168382941Y-104837775D01*
X168274291Y-104933084D01*
X168156381Y-105001882D01*
X168130364Y-105012342D01*
X167978680Y-105048597D01*
X167819246Y-105052756D01*
X167674452Y-105025896D01*
X167528359Y-104960162D01*
X167408112Y-104865905D01*
X167314970Y-104749068D01*
X167250195Y-104615591D01*
X167215047Y-104471416D01*
X167210786Y-104322484D01*
X167238674Y-104174737D01*
X167299970Y-104034114D01*
X167395935Y-103906558D01*
X167429912Y-103873332D01*
X167557052Y-103778797D01*
X167694451Y-103721313D01*
X167850646Y-103697729D01*
X167908004Y-103696852D01*
X168074671Y-103718809D01*
G37*
X168074671Y-103718809D02*
X168224293Y-103778637D01*
X168353383Y-103874105D01*
X168458456Y-104002981D01*
X168498903Y-104075171D01*
X168553733Y-104233286D01*
X168568114Y-104399760D01*
X168541766Y-104569581D01*
X168528990Y-104611356D01*
X168471464Y-104726888D01*
X168382941Y-104837775D01*
X168274291Y-104933084D01*
X168156381Y-105001882D01*
X168130364Y-105012342D01*
X167978680Y-105048597D01*
X167819246Y-105052756D01*
X167674452Y-105025896D01*
X167528359Y-104960162D01*
X167408112Y-104865905D01*
X167314970Y-104749068D01*
X167250195Y-104615591D01*
X167215047Y-104471416D01*
X167210786Y-104322484D01*
X167238674Y-104174737D01*
X167299970Y-104034114D01*
X167395935Y-103906558D01*
X167429912Y-103873332D01*
X167557052Y-103778797D01*
X167694451Y-103721313D01*
X167850646Y-103697729D01*
X167908004Y-103696852D01*
X168074671Y-103718809D01*
X164349794Y-99673267D02*
X164422926Y-99683718D01*
X164422926Y-99683718D02*
X164489596Y-99705555D01*
X164489596Y-99705555D02*
X164541112Y-99729131D01*
X164541112Y-99729131D02*
X164666623Y-99810203D01*
X164666623Y-99810203D02*
X164778826Y-99919299D01*
X164778826Y-99919299D02*
X164865020Y-100043406D01*
X164865020Y-100043406D02*
X164882923Y-100079423D01*
X164882923Y-100079423D02*
X164917747Y-100196162D01*
X164917747Y-100196162D02*
X164930680Y-100332527D01*
X164930680Y-100332527D02*
X164921829Y-100471974D01*
X164921829Y-100471974D02*
X164891300Y-100597959D01*
X164891300Y-100597959D02*
X164879401Y-100627417D01*
X164879401Y-100627417D02*
X164814504Y-100733812D01*
X164814504Y-100733812D02*
X164721446Y-100837301D01*
X164721446Y-100837301D02*
X164613244Y-100925159D01*
X164613244Y-100925159D02*
X164521889Y-100976819D01*
X164521889Y-100976819D02*
X164414543Y-101009946D01*
X164414543Y-101009946D02*
X164289529Y-101026781D01*
X164289529Y-101026781D02*
X164165112Y-101026157D01*
X164165112Y-101026157D02*
X164059556Y-101006907D01*
X164059556Y-101006907D02*
X164058145Y-101006450D01*
X164058145Y-101006450D02*
X163906178Y-100935278D01*
X163906178Y-100935278D02*
X163773017Y-100830400D01*
X163773017Y-100830400D02*
X163666724Y-100699040D01*
X163666724Y-100699040D02*
X163621166Y-100614899D01*
X163621166Y-100614899D02*
X163588529Y-100505716D01*
X163588529Y-100505716D02*
X163575046Y-100375819D01*
X163575046Y-100375819D02*
X163580704Y-100242239D01*
X163580704Y-100242239D02*
X163605485Y-100122006D01*
X163605485Y-100122006D02*
X163621665Y-100079423D01*
X163621665Y-100079423D02*
X163698547Y-99953137D01*
X163698547Y-99953137D02*
X163804993Y-99838321D01*
X163804993Y-99838321D02*
X163928265Y-99748027D01*
X163928265Y-99748027D02*
X163963622Y-99729131D01*
X163963622Y-99729131D02*
X164036223Y-99697337D01*
X164036223Y-99697337D02*
X164102991Y-99679423D01*
X164102991Y-99679423D02*
X164181758Y-99671772D01*
X164181758Y-99671772D02*
X164252367Y-99670587D01*
X164252367Y-99670587D02*
X164349794Y-99673267D01*
X164349794Y-99673267D02*
X164349794Y-99673267D01*
G36*
X164349794Y-99673267D02*
G01*
X164422926Y-99683718D01*
X164489596Y-99705555D01*
X164541112Y-99729131D01*
X164666623Y-99810203D01*
X164778826Y-99919299D01*
X164865020Y-100043406D01*
X164882923Y-100079423D01*
X164917747Y-100196162D01*
X164930680Y-100332527D01*
X164921829Y-100471974D01*
X164891300Y-100597959D01*
X164879401Y-100627417D01*
X164814504Y-100733812D01*
X164721446Y-100837301D01*
X164613244Y-100925159D01*
X164521889Y-100976819D01*
X164414543Y-101009946D01*
X164289529Y-101026781D01*
X164165112Y-101026157D01*
X164059556Y-101006907D01*
X164058145Y-101006450D01*
X163906178Y-100935278D01*
X163773017Y-100830400D01*
X163666724Y-100699040D01*
X163621166Y-100614899D01*
X163588529Y-100505716D01*
X163575046Y-100375819D01*
X163580704Y-100242239D01*
X163605485Y-100122006D01*
X163621665Y-100079423D01*
X163698547Y-99953137D01*
X163804993Y-99838321D01*
X163928265Y-99748027D01*
X163963622Y-99729131D01*
X164036223Y-99697337D01*
X164102991Y-99679423D01*
X164181758Y-99671772D01*
X164252367Y-99670587D01*
X164349794Y-99673267D01*
G37*
X164349794Y-99673267D02*
X164422926Y-99683718D01*
X164489596Y-99705555D01*
X164541112Y-99729131D01*
X164666623Y-99810203D01*
X164778826Y-99919299D01*
X164865020Y-100043406D01*
X164882923Y-100079423D01*
X164917747Y-100196162D01*
X164930680Y-100332527D01*
X164921829Y-100471974D01*
X164891300Y-100597959D01*
X164879401Y-100627417D01*
X164814504Y-100733812D01*
X164721446Y-100837301D01*
X164613244Y-100925159D01*
X164521889Y-100976819D01*
X164414543Y-101009946D01*
X164289529Y-101026781D01*
X164165112Y-101026157D01*
X164059556Y-101006907D01*
X164058145Y-101006450D01*
X163906178Y-100935278D01*
X163773017Y-100830400D01*
X163666724Y-100699040D01*
X163621166Y-100614899D01*
X163588529Y-100505716D01*
X163575046Y-100375819D01*
X163580704Y-100242239D01*
X163605485Y-100122006D01*
X163621665Y-100079423D01*
X163698547Y-99953137D01*
X163804993Y-99838321D01*
X163928265Y-99748027D01*
X163963622Y-99729131D01*
X164036223Y-99697337D01*
X164102991Y-99679423D01*
X164181758Y-99671772D01*
X164252367Y-99670587D01*
X164349794Y-99673267D01*
X130447645Y-137602509D02*
X130521613Y-137608140D01*
X130521613Y-137608140D02*
X130577235Y-137619872D01*
X130577235Y-137619872D02*
X130626474Y-137639622D01*
X130626474Y-137639622D02*
X130645946Y-137649600D01*
X130645946Y-137649600D02*
X130790046Y-137748209D01*
X130790046Y-137748209D02*
X130904349Y-137872499D01*
X130904349Y-137872499D02*
X130961861Y-137968077D01*
X130961861Y-137968077D02*
X130992279Y-138036293D01*
X130992279Y-138036293D02*
X131009966Y-138097700D01*
X131009966Y-138097700D02*
X131018047Y-138168500D01*
X131018047Y-138168500D02*
X131019641Y-138264894D01*
X131019641Y-138264894D02*
X131019625Y-138267809D01*
X131019625Y-138267809D02*
X131008013Y-138418797D01*
X131008013Y-138418797D02*
X130971782Y-138544657D01*
X130971782Y-138544657D02*
X130905832Y-138657821D01*
X130905832Y-138657821D02*
X130819042Y-138756901D01*
X130819042Y-138756901D02*
X130697305Y-138850295D01*
X130697305Y-138850295D02*
X130553389Y-138913192D01*
X130553389Y-138913192D02*
X130396527Y-138943475D01*
X130396527Y-138943475D02*
X130235952Y-138939023D01*
X130235952Y-138939023D02*
X130129505Y-138915123D01*
X130129505Y-138915123D02*
X129981363Y-138847736D01*
X129981363Y-138847736D02*
X129857786Y-138748548D01*
X129857786Y-138748548D02*
X129762282Y-138622480D01*
X129762282Y-138622480D02*
X129698360Y-138474456D01*
X129698360Y-138474456D02*
X129669527Y-138309398D01*
X129669527Y-138309398D02*
X129668219Y-138267809D01*
X129668219Y-138267809D02*
X129686934Y-138096096D01*
X129686934Y-138096096D02*
X129743358Y-137941802D01*
X129743358Y-137941802D02*
X129835575Y-137808222D01*
X129835575Y-137808222D02*
X129961672Y-137698656D01*
X129961672Y-137698656D02*
X130019118Y-137663424D01*
X130019118Y-137663424D02*
X130075002Y-137634402D01*
X130075002Y-137634402D02*
X130124049Y-137616084D01*
X130124049Y-137616084D02*
X130178884Y-137606041D01*
X130178884Y-137606041D02*
X130252136Y-137601844D01*
X130252136Y-137601844D02*
X130343367Y-137601059D01*
X130343367Y-137601059D02*
X130447645Y-137602509D01*
X130447645Y-137602509D02*
X130447645Y-137602509D01*
G36*
X130447645Y-137602509D02*
G01*
X130521613Y-137608140D01*
X130577235Y-137619872D01*
X130626474Y-137639622D01*
X130645946Y-137649600D01*
X130790046Y-137748209D01*
X130904349Y-137872499D01*
X130961861Y-137968077D01*
X130992279Y-138036293D01*
X131009966Y-138097700D01*
X131018047Y-138168500D01*
X131019641Y-138264894D01*
X131019625Y-138267809D01*
X131008013Y-138418797D01*
X130971782Y-138544657D01*
X130905832Y-138657821D01*
X130819042Y-138756901D01*
X130697305Y-138850295D01*
X130553389Y-138913192D01*
X130396527Y-138943475D01*
X130235952Y-138939023D01*
X130129505Y-138915123D01*
X129981363Y-138847736D01*
X129857786Y-138748548D01*
X129762282Y-138622480D01*
X129698360Y-138474456D01*
X129669527Y-138309398D01*
X129668219Y-138267809D01*
X129686934Y-138096096D01*
X129743358Y-137941802D01*
X129835575Y-137808222D01*
X129961672Y-137698656D01*
X130019118Y-137663424D01*
X130075002Y-137634402D01*
X130124049Y-137616084D01*
X130178884Y-137606041D01*
X130252136Y-137601844D01*
X130343367Y-137601059D01*
X130447645Y-137602509D01*
G37*
X130447645Y-137602509D02*
X130521613Y-137608140D01*
X130577235Y-137619872D01*
X130626474Y-137639622D01*
X130645946Y-137649600D01*
X130790046Y-137748209D01*
X130904349Y-137872499D01*
X130961861Y-137968077D01*
X130992279Y-138036293D01*
X131009966Y-138097700D01*
X131018047Y-138168500D01*
X131019641Y-138264894D01*
X131019625Y-138267809D01*
X131008013Y-138418797D01*
X130971782Y-138544657D01*
X130905832Y-138657821D01*
X130819042Y-138756901D01*
X130697305Y-138850295D01*
X130553389Y-138913192D01*
X130396527Y-138943475D01*
X130235952Y-138939023D01*
X130129505Y-138915123D01*
X129981363Y-138847736D01*
X129857786Y-138748548D01*
X129762282Y-138622480D01*
X129698360Y-138474456D01*
X129669527Y-138309398D01*
X129668219Y-138267809D01*
X129686934Y-138096096D01*
X129743358Y-137941802D01*
X129835575Y-137808222D01*
X129961672Y-137698656D01*
X130019118Y-137663424D01*
X130075002Y-137634402D01*
X130124049Y-137616084D01*
X130178884Y-137606041D01*
X130252136Y-137601844D01*
X130343367Y-137601059D01*
X130447645Y-137602509D01*
X123343922Y-151860052D02*
X123512978Y-151887182D01*
X123512978Y-151887182D02*
X123661728Y-151951300D01*
X123661728Y-151951300D02*
X123788838Y-152051548D01*
X123788838Y-152051548D02*
X123892971Y-152187069D01*
X123892971Y-152187069D02*
X123915719Y-152227225D01*
X123915719Y-152227225D02*
X123942989Y-152283589D01*
X123942989Y-152283589D02*
X123959796Y-152336240D01*
X123959796Y-152336240D02*
X123968578Y-152398470D01*
X123968578Y-152398470D02*
X123971774Y-152483571D01*
X123971774Y-152483571D02*
X123972040Y-152534142D01*
X123972040Y-152534142D02*
X123965604Y-152671735D01*
X123965604Y-152671735D02*
X123943012Y-152781455D01*
X123943012Y-152781455D02*
X123899435Y-152876218D01*
X123899435Y-152876218D02*
X123830046Y-152968938D01*
X123830046Y-152968938D02*
X123795331Y-153006929D01*
X123795331Y-153006929D02*
X123680503Y-153104851D01*
X123680503Y-153104851D02*
X123552015Y-153167860D01*
X123552015Y-153167860D02*
X123401785Y-153199430D01*
X123401785Y-153199430D02*
X123337200Y-153203911D01*
X123337200Y-153203911D02*
X123249544Y-153204827D01*
X123249544Y-153204827D02*
X123172392Y-153201426D01*
X123172392Y-153201426D02*
X123120347Y-153194433D01*
X123120347Y-153194433D02*
X123114950Y-153192907D01*
X123114950Y-153192907D02*
X122958461Y-153119959D01*
X122958461Y-153119959D02*
X122823049Y-153013267D01*
X122823049Y-153013267D02*
X122715724Y-152878783D01*
X122715724Y-152878783D02*
X122688262Y-152830475D01*
X122688262Y-152830475D02*
X122655414Y-152747521D01*
X122655414Y-152747521D02*
X122636950Y-152647551D01*
X122636950Y-152647551D02*
X122631360Y-152572614D01*
X122631360Y-152572614D02*
X122633399Y-152425328D01*
X122633399Y-152425328D02*
X122657971Y-152304169D01*
X122657971Y-152304169D02*
X122709719Y-152196899D01*
X122709719Y-152196899D02*
X122793287Y-152091278D01*
X122793287Y-152091278D02*
X122827322Y-152056014D01*
X122827322Y-152056014D02*
X122934987Y-151961342D01*
X122934987Y-151961342D02*
X123040404Y-151899967D01*
X123040404Y-151899967D02*
X123155813Y-151867247D01*
X123155813Y-151867247D02*
X123293453Y-151858538D01*
X123293453Y-151858538D02*
X123343922Y-151860052D01*
X123343922Y-151860052D02*
X123343922Y-151860052D01*
G36*
X123343922Y-151860052D02*
G01*
X123512978Y-151887182D01*
X123661728Y-151951300D01*
X123788838Y-152051548D01*
X123892971Y-152187069D01*
X123915719Y-152227225D01*
X123942989Y-152283589D01*
X123959796Y-152336240D01*
X123968578Y-152398470D01*
X123971774Y-152483571D01*
X123972040Y-152534142D01*
X123965604Y-152671735D01*
X123943012Y-152781455D01*
X123899435Y-152876218D01*
X123830046Y-152968938D01*
X123795331Y-153006929D01*
X123680503Y-153104851D01*
X123552015Y-153167860D01*
X123401785Y-153199430D01*
X123337200Y-153203911D01*
X123249544Y-153204827D01*
X123172392Y-153201426D01*
X123120347Y-153194433D01*
X123114950Y-153192907D01*
X122958461Y-153119959D01*
X122823049Y-153013267D01*
X122715724Y-152878783D01*
X122688262Y-152830475D01*
X122655414Y-152747521D01*
X122636950Y-152647551D01*
X122631360Y-152572614D01*
X122633399Y-152425328D01*
X122657971Y-152304169D01*
X122709719Y-152196899D01*
X122793287Y-152091278D01*
X122827322Y-152056014D01*
X122934987Y-151961342D01*
X123040404Y-151899967D01*
X123155813Y-151867247D01*
X123293453Y-151858538D01*
X123343922Y-151860052D01*
G37*
X123343922Y-151860052D02*
X123512978Y-151887182D01*
X123661728Y-151951300D01*
X123788838Y-152051548D01*
X123892971Y-152187069D01*
X123915719Y-152227225D01*
X123942989Y-152283589D01*
X123959796Y-152336240D01*
X123968578Y-152398470D01*
X123971774Y-152483571D01*
X123972040Y-152534142D01*
X123965604Y-152671735D01*
X123943012Y-152781455D01*
X123899435Y-152876218D01*
X123830046Y-152968938D01*
X123795331Y-153006929D01*
X123680503Y-153104851D01*
X123552015Y-153167860D01*
X123401785Y-153199430D01*
X123337200Y-153203911D01*
X123249544Y-153204827D01*
X123172392Y-153201426D01*
X123120347Y-153194433D01*
X123114950Y-153192907D01*
X122958461Y-153119959D01*
X122823049Y-153013267D01*
X122715724Y-152878783D01*
X122688262Y-152830475D01*
X122655414Y-152747521D01*
X122636950Y-152647551D01*
X122631360Y-152572614D01*
X122633399Y-152425328D01*
X122657971Y-152304169D01*
X122709719Y-152196899D01*
X122793287Y-152091278D01*
X122827322Y-152056014D01*
X122934987Y-151961342D01*
X123040404Y-151899967D01*
X123155813Y-151867247D01*
X123293453Y-151858538D01*
X123343922Y-151860052D01*
X163455195Y-115716527D02*
X163528224Y-115722947D01*
X163528224Y-115722947D02*
X163584744Y-115736305D01*
X163584744Y-115736305D02*
X163637626Y-115758764D01*
X163637626Y-115758764D02*
X163649117Y-115764653D01*
X163649117Y-115764653D02*
X163787146Y-115858618D01*
X163787146Y-115858618D02*
X163902926Y-115981022D01*
X163902926Y-115981022D02*
X163963052Y-116074559D01*
X163963052Y-116074559D02*
X163990322Y-116130922D01*
X163990322Y-116130922D02*
X164007129Y-116183574D01*
X164007129Y-116183574D02*
X164015911Y-116245804D01*
X164015911Y-116245804D02*
X164019107Y-116330904D01*
X164019107Y-116330904D02*
X164019373Y-116381475D01*
X164019373Y-116381475D02*
X164017731Y-116483886D01*
X164017731Y-116483886D02*
X164011312Y-116556916D01*
X164011312Y-116556916D02*
X163997953Y-116613436D01*
X163997953Y-116613436D02*
X163975494Y-116666317D01*
X163975494Y-116666317D02*
X163969606Y-116677809D01*
X163969606Y-116677809D02*
X163876886Y-116814415D01*
X163876886Y-116814415D02*
X163756847Y-116928419D01*
X163756847Y-116928419D02*
X163659700Y-116990304D01*
X163659700Y-116990304D02*
X163554190Y-117028354D01*
X163554190Y-117028354D02*
X163425589Y-117050149D01*
X163425589Y-117050149D02*
X163290278Y-117054729D01*
X163290278Y-117054729D02*
X163164640Y-117041134D01*
X163164640Y-117041134D02*
X163098784Y-117023156D01*
X163098784Y-117023156D02*
X163011404Y-116976273D01*
X163011404Y-116976273D02*
X162917929Y-116902022D01*
X162917929Y-116902022D02*
X162829403Y-116811699D01*
X162829403Y-116811699D02*
X162756871Y-116716598D01*
X162756871Y-116716598D02*
X162711377Y-116628014D01*
X162711377Y-116628014D02*
X162710828Y-116626413D01*
X162710828Y-116626413D02*
X162684992Y-116508972D01*
X162684992Y-116508972D02*
X162676823Y-116373960D01*
X162676823Y-116373960D02*
X162686386Y-116240879D01*
X162686386Y-116240879D02*
X162709148Y-116141952D01*
X162709148Y-116141952D02*
X162758994Y-116042683D01*
X162758994Y-116042683D02*
X162837253Y-115940530D01*
X162837253Y-115940530D02*
X162932819Y-115847783D01*
X162932819Y-115847783D02*
X163034584Y-115776733D01*
X163034584Y-115776733D02*
X163043589Y-115771864D01*
X163043589Y-115771864D02*
X163100986Y-115744281D01*
X163100986Y-115744281D02*
X163154134Y-115727284D01*
X163154134Y-115727284D02*
X163216447Y-115718401D01*
X163216447Y-115718401D02*
X163301337Y-115715162D01*
X163301337Y-115715162D02*
X163352784Y-115714885D01*
X163352784Y-115714885D02*
X163455195Y-115716527D01*
X163455195Y-115716527D02*
X163455195Y-115716527D01*
G36*
X163455195Y-115716527D02*
G01*
X163528224Y-115722947D01*
X163584744Y-115736305D01*
X163637626Y-115758764D01*
X163649117Y-115764653D01*
X163787146Y-115858618D01*
X163902926Y-115981022D01*
X163963052Y-116074559D01*
X163990322Y-116130922D01*
X164007129Y-116183574D01*
X164015911Y-116245804D01*
X164019107Y-116330904D01*
X164019373Y-116381475D01*
X164017731Y-116483886D01*
X164011312Y-116556916D01*
X163997953Y-116613436D01*
X163975494Y-116666317D01*
X163969606Y-116677809D01*
X163876886Y-116814415D01*
X163756847Y-116928419D01*
X163659700Y-116990304D01*
X163554190Y-117028354D01*
X163425589Y-117050149D01*
X163290278Y-117054729D01*
X163164640Y-117041134D01*
X163098784Y-117023156D01*
X163011404Y-116976273D01*
X162917929Y-116902022D01*
X162829403Y-116811699D01*
X162756871Y-116716598D01*
X162711377Y-116628014D01*
X162710828Y-116626413D01*
X162684992Y-116508972D01*
X162676823Y-116373960D01*
X162686386Y-116240879D01*
X162709148Y-116141952D01*
X162758994Y-116042683D01*
X162837253Y-115940530D01*
X162932819Y-115847783D01*
X163034584Y-115776733D01*
X163043589Y-115771864D01*
X163100986Y-115744281D01*
X163154134Y-115727284D01*
X163216447Y-115718401D01*
X163301337Y-115715162D01*
X163352784Y-115714885D01*
X163455195Y-115716527D01*
G37*
X163455195Y-115716527D02*
X163528224Y-115722947D01*
X163584744Y-115736305D01*
X163637626Y-115758764D01*
X163649117Y-115764653D01*
X163787146Y-115858618D01*
X163902926Y-115981022D01*
X163963052Y-116074559D01*
X163990322Y-116130922D01*
X164007129Y-116183574D01*
X164015911Y-116245804D01*
X164019107Y-116330904D01*
X164019373Y-116381475D01*
X164017731Y-116483886D01*
X164011312Y-116556916D01*
X163997953Y-116613436D01*
X163975494Y-116666317D01*
X163969606Y-116677809D01*
X163876886Y-116814415D01*
X163756847Y-116928419D01*
X163659700Y-116990304D01*
X163554190Y-117028354D01*
X163425589Y-117050149D01*
X163290278Y-117054729D01*
X163164640Y-117041134D01*
X163098784Y-117023156D01*
X163011404Y-116976273D01*
X162917929Y-116902022D01*
X162829403Y-116811699D01*
X162756871Y-116716598D01*
X162711377Y-116628014D01*
X162710828Y-116626413D01*
X162684992Y-116508972D01*
X162676823Y-116373960D01*
X162686386Y-116240879D01*
X162709148Y-116141952D01*
X162758994Y-116042683D01*
X162837253Y-115940530D01*
X162932819Y-115847783D01*
X163034584Y-115776733D01*
X163043589Y-115771864D01*
X163100986Y-115744281D01*
X163154134Y-115727284D01*
X163216447Y-115718401D01*
X163301337Y-115715162D01*
X163352784Y-115714885D01*
X163455195Y-115716527D01*
X159553398Y-111360976D02*
X159663137Y-111383595D01*
X159663137Y-111383595D02*
X159757915Y-111427196D01*
X159757915Y-111427196D02*
X159850647Y-111496606D01*
X159850647Y-111496606D02*
X159888571Y-111531261D01*
X159888571Y-111531261D02*
X159986249Y-111652018D01*
X159986249Y-111652018D02*
X160053973Y-111795536D01*
X160053973Y-111795536D02*
X160089567Y-111952627D01*
X160089567Y-111952627D02*
X160090851Y-112114105D01*
X160090851Y-112114105D02*
X160060522Y-112256655D01*
X160060522Y-112256655D02*
X160010856Y-112357430D01*
X160010856Y-112357430D02*
X159932903Y-112460295D01*
X159932903Y-112460295D02*
X159837689Y-112554038D01*
X159837689Y-112554038D02*
X159736245Y-112627447D01*
X159736245Y-112627447D02*
X159660721Y-112663098D01*
X159660721Y-112663098D02*
X159553569Y-112686742D01*
X159553569Y-112686742D02*
X159426860Y-112695773D01*
X159426860Y-112695773D02*
X159298931Y-112690187D01*
X159298931Y-112690187D02*
X159188119Y-112669980D01*
X159188119Y-112669980D02*
X159166722Y-112663173D01*
X159166722Y-112663173D02*
X159079171Y-112617666D01*
X159079171Y-112617666D02*
X158984944Y-112545341D01*
X158984944Y-112545341D02*
X158896084Y-112457351D01*
X158896084Y-112457351D02*
X158824638Y-112364844D01*
X158824638Y-112364844D02*
X158801610Y-112325168D01*
X158801610Y-112325168D02*
X158775828Y-112268603D01*
X158775828Y-112268603D02*
X158760058Y-112213589D01*
X158760058Y-112213589D02*
X158752014Y-112146832D01*
X158752014Y-112146832D02*
X158749410Y-112055039D01*
X158749410Y-112055039D02*
X158749347Y-112021142D01*
X158749347Y-112021142D02*
X158750953Y-111920788D01*
X158750953Y-111920788D02*
X158757032Y-111849399D01*
X158757032Y-111849399D02*
X158770029Y-111793654D01*
X158770029Y-111793654D02*
X158792392Y-111740232D01*
X158792392Y-111740232D02*
X158805726Y-111714225D01*
X158805726Y-111714225D02*
X158899497Y-111579236D01*
X158899497Y-111579236D02*
X159023264Y-111464914D01*
X159023264Y-111464914D02*
X159119450Y-111404320D01*
X159119450Y-111404320D02*
X159173193Y-111379734D01*
X159173193Y-111379734D02*
X159227974Y-111364689D01*
X159227974Y-111364689D02*
X159296668Y-111357021D01*
X159296668Y-111357021D02*
X159392147Y-111354565D01*
X159392147Y-111354565D02*
X159415784Y-111354509D01*
X159415784Y-111354509D02*
X159553398Y-111360976D01*
X159553398Y-111360976D02*
X159553398Y-111360976D01*
G36*
X159553398Y-111360976D02*
G01*
X159663137Y-111383595D01*
X159757915Y-111427196D01*
X159850647Y-111496606D01*
X159888571Y-111531261D01*
X159986249Y-111652018D01*
X160053973Y-111795536D01*
X160089567Y-111952627D01*
X160090851Y-112114105D01*
X160060522Y-112256655D01*
X160010856Y-112357430D01*
X159932903Y-112460295D01*
X159837689Y-112554038D01*
X159736245Y-112627447D01*
X159660721Y-112663098D01*
X159553569Y-112686742D01*
X159426860Y-112695773D01*
X159298931Y-112690187D01*
X159188119Y-112669980D01*
X159166722Y-112663173D01*
X159079171Y-112617666D01*
X158984944Y-112545341D01*
X158896084Y-112457351D01*
X158824638Y-112364844D01*
X158801610Y-112325168D01*
X158775828Y-112268603D01*
X158760058Y-112213589D01*
X158752014Y-112146832D01*
X158749410Y-112055039D01*
X158749347Y-112021142D01*
X158750953Y-111920788D01*
X158757032Y-111849399D01*
X158770029Y-111793654D01*
X158792392Y-111740232D01*
X158805726Y-111714225D01*
X158899497Y-111579236D01*
X159023264Y-111464914D01*
X159119450Y-111404320D01*
X159173193Y-111379734D01*
X159227974Y-111364689D01*
X159296668Y-111357021D01*
X159392147Y-111354565D01*
X159415784Y-111354509D01*
X159553398Y-111360976D01*
G37*
X159553398Y-111360976D02*
X159663137Y-111383595D01*
X159757915Y-111427196D01*
X159850647Y-111496606D01*
X159888571Y-111531261D01*
X159986249Y-111652018D01*
X160053973Y-111795536D01*
X160089567Y-111952627D01*
X160090851Y-112114105D01*
X160060522Y-112256655D01*
X160010856Y-112357430D01*
X159932903Y-112460295D01*
X159837689Y-112554038D01*
X159736245Y-112627447D01*
X159660721Y-112663098D01*
X159553569Y-112686742D01*
X159426860Y-112695773D01*
X159298931Y-112690187D01*
X159188119Y-112669980D01*
X159166722Y-112663173D01*
X159079171Y-112617666D01*
X158984944Y-112545341D01*
X158896084Y-112457351D01*
X158824638Y-112364844D01*
X158801610Y-112325168D01*
X158775828Y-112268603D01*
X158760058Y-112213589D01*
X158752014Y-112146832D01*
X158749410Y-112055039D01*
X158749347Y-112021142D01*
X158750953Y-111920788D01*
X158757032Y-111849399D01*
X158770029Y-111793654D01*
X158792392Y-111740232D01*
X158805726Y-111714225D01*
X158899497Y-111579236D01*
X159023264Y-111464914D01*
X159119450Y-111404320D01*
X159173193Y-111379734D01*
X159227974Y-111364689D01*
X159296668Y-111357021D01*
X159392147Y-111354565D01*
X159415784Y-111354509D01*
X159553398Y-111360976D01*
X138521515Y-123084138D02*
X138670764Y-123143302D01*
X138670764Y-123143302D02*
X138800462Y-123237941D01*
X138800462Y-123237941D02*
X138906422Y-123365378D01*
X138906422Y-123365378D02*
X138950236Y-123442671D01*
X138950236Y-123442671D02*
X139004857Y-123600381D01*
X139004857Y-123600381D02*
X139019512Y-123766637D01*
X139019512Y-123766637D02*
X138993822Y-123934984D01*
X138993822Y-123934984D02*
X138981517Y-123975261D01*
X138981517Y-123975261D02*
X138924805Y-124090461D01*
X138924805Y-124090461D02*
X138838403Y-124201872D01*
X138838403Y-124201872D02*
X138734009Y-124296804D01*
X138734009Y-124296804D02*
X138625251Y-124361738D01*
X138625251Y-124361738D02*
X138503677Y-124399587D01*
X138503677Y-124399587D02*
X138368562Y-124417741D01*
X138368562Y-124417741D02*
X138236303Y-124415251D01*
X138236303Y-124415251D02*
X138123296Y-124391171D01*
X138123296Y-124391171D02*
X138122231Y-124390786D01*
X138122231Y-124390786D02*
X137971875Y-124316138D01*
X137971875Y-124316138D02*
X137849406Y-124215105D01*
X137849406Y-124215105D02*
X137756018Y-124093391D01*
X137756018Y-124093391D02*
X137692906Y-123956698D01*
X137692906Y-123956698D02*
X137661267Y-123810730D01*
X137661267Y-123810730D02*
X137662294Y-123661191D01*
X137662294Y-123661191D02*
X137697184Y-123513782D01*
X137697184Y-123513782D02*
X137767130Y-123374209D01*
X137767130Y-123374209D02*
X137873329Y-123248173D01*
X137873329Y-123248173D02*
X137881246Y-123240832D01*
X137881246Y-123240832D02*
X138010125Y-123145477D01*
X138010125Y-123145477D02*
X138150299Y-123087498D01*
X138150299Y-123087498D02*
X138309628Y-123063959D01*
X138309628Y-123063959D02*
X138356899Y-123063127D01*
X138356899Y-123063127D02*
X138521515Y-123084138D01*
X138521515Y-123084138D02*
X138521515Y-123084138D01*
G36*
X138521515Y-123084138D02*
G01*
X138670764Y-123143302D01*
X138800462Y-123237941D01*
X138906422Y-123365378D01*
X138950236Y-123442671D01*
X139004857Y-123600381D01*
X139019512Y-123766637D01*
X138993822Y-123934984D01*
X138981517Y-123975261D01*
X138924805Y-124090461D01*
X138838403Y-124201872D01*
X138734009Y-124296804D01*
X138625251Y-124361738D01*
X138503677Y-124399587D01*
X138368562Y-124417741D01*
X138236303Y-124415251D01*
X138123296Y-124391171D01*
X138122231Y-124390786D01*
X137971875Y-124316138D01*
X137849406Y-124215105D01*
X137756018Y-124093391D01*
X137692906Y-123956698D01*
X137661267Y-123810730D01*
X137662294Y-123661191D01*
X137697184Y-123513782D01*
X137767130Y-123374209D01*
X137873329Y-123248173D01*
X137881246Y-123240832D01*
X138010125Y-123145477D01*
X138150299Y-123087498D01*
X138309628Y-123063959D01*
X138356899Y-123063127D01*
X138521515Y-123084138D01*
G37*
X138521515Y-123084138D02*
X138670764Y-123143302D01*
X138800462Y-123237941D01*
X138906422Y-123365378D01*
X138950236Y-123442671D01*
X139004857Y-123600381D01*
X139019512Y-123766637D01*
X138993822Y-123934984D01*
X138981517Y-123975261D01*
X138924805Y-124090461D01*
X138838403Y-124201872D01*
X138734009Y-124296804D01*
X138625251Y-124361738D01*
X138503677Y-124399587D01*
X138368562Y-124417741D01*
X138236303Y-124415251D01*
X138123296Y-124391171D01*
X138122231Y-124390786D01*
X137971875Y-124316138D01*
X137849406Y-124215105D01*
X137756018Y-124093391D01*
X137692906Y-123956698D01*
X137661267Y-123810730D01*
X137662294Y-123661191D01*
X137697184Y-123513782D01*
X137767130Y-123374209D01*
X137873329Y-123248173D01*
X137881246Y-123240832D01*
X138010125Y-123145477D01*
X138150299Y-123087498D01*
X138309628Y-123063959D01*
X138356899Y-123063127D01*
X138521515Y-123084138D01*
X137932477Y-127539457D02*
X138060447Y-127581195D01*
X138060447Y-127581195D02*
X138205583Y-127671628D01*
X138205583Y-127671628D02*
X138321564Y-127792592D01*
X138321564Y-127792592D02*
X138394731Y-127915478D01*
X138394731Y-127915478D02*
X138441035Y-128060078D01*
X138441035Y-128060078D02*
X138454213Y-128216566D01*
X138454213Y-128216566D02*
X138434354Y-128371458D01*
X138434354Y-128371458D02*
X138390926Y-128493097D01*
X138390926Y-128493097D02*
X138301819Y-128630111D01*
X138301819Y-128630111D02*
X138185554Y-128740663D01*
X138185554Y-128740663D02*
X138048923Y-128821615D01*
X138048923Y-128821615D02*
X137898714Y-128869825D01*
X137898714Y-128869825D02*
X137741716Y-128882153D01*
X137741716Y-128882153D02*
X137598690Y-128859546D01*
X137598690Y-128859546D02*
X137444013Y-128796034D01*
X137444013Y-128796034D02*
X137313919Y-128702239D01*
X137313919Y-128702239D02*
X137211143Y-128583849D01*
X137211143Y-128583849D02*
X137138416Y-128446556D01*
X137138416Y-128446556D02*
X137098473Y-128296049D01*
X137098473Y-128296049D02*
X137094044Y-128138019D01*
X137094044Y-128138019D02*
X137127865Y-127978156D01*
X137127865Y-127978156D02*
X137149040Y-127923294D01*
X137149040Y-127923294D02*
X137209867Y-127820642D01*
X137209867Y-127820642D02*
X137297784Y-127718988D01*
X137297784Y-127718988D02*
X137399430Y-127631812D01*
X137399430Y-127631812D02*
X137493175Y-127576163D01*
X137493175Y-127576163D02*
X137629749Y-127535232D01*
X137629749Y-127535232D02*
X137781454Y-127523043D01*
X137781454Y-127523043D02*
X137932477Y-127539457D01*
X137932477Y-127539457D02*
X137932477Y-127539457D01*
G36*
X137932477Y-127539457D02*
G01*
X138060447Y-127581195D01*
X138205583Y-127671628D01*
X138321564Y-127792592D01*
X138394731Y-127915478D01*
X138441035Y-128060078D01*
X138454213Y-128216566D01*
X138434354Y-128371458D01*
X138390926Y-128493097D01*
X138301819Y-128630111D01*
X138185554Y-128740663D01*
X138048923Y-128821615D01*
X137898714Y-128869825D01*
X137741716Y-128882153D01*
X137598690Y-128859546D01*
X137444013Y-128796034D01*
X137313919Y-128702239D01*
X137211143Y-128583849D01*
X137138416Y-128446556D01*
X137098473Y-128296049D01*
X137094044Y-128138019D01*
X137127865Y-127978156D01*
X137149040Y-127923294D01*
X137209867Y-127820642D01*
X137297784Y-127718988D01*
X137399430Y-127631812D01*
X137493175Y-127576163D01*
X137629749Y-127535232D01*
X137781454Y-127523043D01*
X137932477Y-127539457D01*
G37*
X137932477Y-127539457D02*
X138060447Y-127581195D01*
X138205583Y-127671628D01*
X138321564Y-127792592D01*
X138394731Y-127915478D01*
X138441035Y-128060078D01*
X138454213Y-128216566D01*
X138434354Y-128371458D01*
X138390926Y-128493097D01*
X138301819Y-128630111D01*
X138185554Y-128740663D01*
X138048923Y-128821615D01*
X137898714Y-128869825D01*
X137741716Y-128882153D01*
X137598690Y-128859546D01*
X137444013Y-128796034D01*
X137313919Y-128702239D01*
X137211143Y-128583849D01*
X137138416Y-128446556D01*
X137098473Y-128296049D01*
X137094044Y-128138019D01*
X137127865Y-127978156D01*
X137149040Y-127923294D01*
X137209867Y-127820642D01*
X137297784Y-127718988D01*
X137399430Y-127631812D01*
X137493175Y-127576163D01*
X137629749Y-127535232D01*
X137781454Y-127523043D01*
X137932477Y-127539457D01*
X168831654Y-95706229D02*
X168976089Y-95761368D01*
X168976089Y-95761368D02*
X169108379Y-95852361D01*
X169108379Y-95852361D02*
X169148254Y-95890346D01*
X169148254Y-95890346D02*
X169234507Y-95992538D01*
X169234507Y-95992538D02*
X169290582Y-96095328D01*
X169290582Y-96095328D02*
X169321293Y-96211274D01*
X169321293Y-96211274D02*
X169331454Y-96352935D01*
X169331454Y-96352935D02*
X169331526Y-96368392D01*
X169331526Y-96368392D02*
X169321816Y-96519450D01*
X169321816Y-96519450D02*
X169289788Y-96643481D01*
X169289788Y-96643481D02*
X169231097Y-96751786D01*
X169231097Y-96751786D02*
X169145892Y-96851200D01*
X169145892Y-96851200D02*
X169033348Y-96938332D01*
X169033348Y-96938332D02*
X168897969Y-97003220D01*
X168897969Y-97003220D02*
X168751906Y-97042337D01*
X168751906Y-97042337D02*
X168607305Y-97052155D01*
X168607305Y-97052155D02*
X168504384Y-97037474D01*
X168504384Y-97037474D02*
X168372465Y-96988256D01*
X168372465Y-96988256D02*
X168250490Y-96914906D01*
X168250490Y-96914906D02*
X168167115Y-96840654D01*
X168167115Y-96840654D02*
X168067024Y-96700931D01*
X168067024Y-96700931D02*
X168004518Y-96548167D01*
X168004518Y-96548167D02*
X167980483Y-96388171D01*
X167980483Y-96388171D02*
X167995801Y-96226755D01*
X167995801Y-96226755D02*
X168050209Y-96072048D01*
X168050209Y-96072048D02*
X168139933Y-95933170D01*
X168139933Y-95933170D02*
X168253965Y-95824116D01*
X168253965Y-95824116D02*
X168386228Y-95745889D01*
X168386228Y-95745889D02*
X168530647Y-95699495D01*
X168530647Y-95699495D02*
X168681148Y-95685940D01*
X168681148Y-95685940D02*
X168831654Y-95706229D01*
X168831654Y-95706229D02*
X168831654Y-95706229D01*
G36*
X168831654Y-95706229D02*
G01*
X168976089Y-95761368D01*
X169108379Y-95852361D01*
X169148254Y-95890346D01*
X169234507Y-95992538D01*
X169290582Y-96095328D01*
X169321293Y-96211274D01*
X169331454Y-96352935D01*
X169331526Y-96368392D01*
X169321816Y-96519450D01*
X169289788Y-96643481D01*
X169231097Y-96751786D01*
X169145892Y-96851200D01*
X169033348Y-96938332D01*
X168897969Y-97003220D01*
X168751906Y-97042337D01*
X168607305Y-97052155D01*
X168504384Y-97037474D01*
X168372465Y-96988256D01*
X168250490Y-96914906D01*
X168167115Y-96840654D01*
X168067024Y-96700931D01*
X168004518Y-96548167D01*
X167980483Y-96388171D01*
X167995801Y-96226755D01*
X168050209Y-96072048D01*
X168139933Y-95933170D01*
X168253965Y-95824116D01*
X168386228Y-95745889D01*
X168530647Y-95699495D01*
X168681148Y-95685940D01*
X168831654Y-95706229D01*
G37*
X168831654Y-95706229D02*
X168976089Y-95761368D01*
X169108379Y-95852361D01*
X169148254Y-95890346D01*
X169234507Y-95992538D01*
X169290582Y-96095328D01*
X169321293Y-96211274D01*
X169331454Y-96352935D01*
X169331526Y-96368392D01*
X169321816Y-96519450D01*
X169289788Y-96643481D01*
X169231097Y-96751786D01*
X169145892Y-96851200D01*
X169033348Y-96938332D01*
X168897969Y-97003220D01*
X168751906Y-97042337D01*
X168607305Y-97052155D01*
X168504384Y-97037474D01*
X168372465Y-96988256D01*
X168250490Y-96914906D01*
X168167115Y-96840654D01*
X168067024Y-96700931D01*
X168004518Y-96548167D01*
X167980483Y-96388171D01*
X167995801Y-96226755D01*
X168050209Y-96072048D01*
X168139933Y-95933170D01*
X168253965Y-95824116D01*
X168386228Y-95745889D01*
X168530647Y-95699495D01*
X168681148Y-95685940D01*
X168831654Y-95706229D01*
X167768145Y-111804433D02*
X167840446Y-111815761D01*
X167840446Y-111815761D02*
X167910989Y-111840249D01*
X167910989Y-111840249D02*
X167975129Y-111870130D01*
X167975129Y-111870130D02*
X168117301Y-111958758D01*
X168117301Y-111958758D02*
X168223696Y-112068228D01*
X168223696Y-112068228D02*
X168295965Y-112201125D01*
X168295965Y-112201125D02*
X168335762Y-112360034D01*
X168335762Y-112360034D02*
X168343847Y-112446943D01*
X168343847Y-112446943D02*
X168347058Y-112541550D01*
X168347058Y-112541550D02*
X168343652Y-112609904D01*
X168343652Y-112609904D02*
X168331132Y-112667885D01*
X168331132Y-112667885D02*
X168307004Y-112731374D01*
X168307004Y-112731374D02*
X168294788Y-112759098D01*
X168294788Y-112759098D02*
X168211861Y-112896297D01*
X168211861Y-112896297D02*
X168099101Y-113012593D01*
X168099101Y-113012593D02*
X167966063Y-113098384D01*
X167966063Y-113098384D02*
X167949669Y-113105961D01*
X167949669Y-113105961D02*
X167825645Y-113143489D01*
X167825645Y-113143489D02*
X167684615Y-113158558D01*
X167684615Y-113158558D02*
X167544893Y-113150431D01*
X167544893Y-113150431D02*
X167444987Y-113126245D01*
X167444987Y-113126245D02*
X167292273Y-113050902D01*
X167292273Y-113050902D02*
X167168439Y-112946415D01*
X167168439Y-112946415D02*
X167076123Y-112816854D01*
X167076123Y-112816854D02*
X167017961Y-112666293D01*
X167017961Y-112666293D02*
X166996591Y-112498802D01*
X166996591Y-112498802D02*
X166998323Y-112436452D01*
X166998323Y-112436452D02*
X167025537Y-112272829D01*
X167025537Y-112272829D02*
X167085565Y-112132129D01*
X167085565Y-112132129D02*
X167181643Y-112006991D01*
X167181643Y-112006991D02*
X167191432Y-111996980D01*
X167191432Y-111996980D02*
X167318608Y-111894792D01*
X167318608Y-111894792D02*
X167460716Y-111830784D01*
X167460716Y-111830784D02*
X167622225Y-111803147D01*
X167622225Y-111803147D02*
X167673893Y-111801677D01*
X167673893Y-111801677D02*
X167768145Y-111804433D01*
X167768145Y-111804433D02*
X167768145Y-111804433D01*
G36*
X167768145Y-111804433D02*
G01*
X167840446Y-111815761D01*
X167910989Y-111840249D01*
X167975129Y-111870130D01*
X168117301Y-111958758D01*
X168223696Y-112068228D01*
X168295965Y-112201125D01*
X168335762Y-112360034D01*
X168343847Y-112446943D01*
X168347058Y-112541550D01*
X168343652Y-112609904D01*
X168331132Y-112667885D01*
X168307004Y-112731374D01*
X168294788Y-112759098D01*
X168211861Y-112896297D01*
X168099101Y-113012593D01*
X167966063Y-113098384D01*
X167949669Y-113105961D01*
X167825645Y-113143489D01*
X167684615Y-113158558D01*
X167544893Y-113150431D01*
X167444987Y-113126245D01*
X167292273Y-113050902D01*
X167168439Y-112946415D01*
X167076123Y-112816854D01*
X167017961Y-112666293D01*
X166996591Y-112498802D01*
X166998323Y-112436452D01*
X167025537Y-112272829D01*
X167085565Y-112132129D01*
X167181643Y-112006991D01*
X167191432Y-111996980D01*
X167318608Y-111894792D01*
X167460716Y-111830784D01*
X167622225Y-111803147D01*
X167673893Y-111801677D01*
X167768145Y-111804433D01*
G37*
X167768145Y-111804433D02*
X167840446Y-111815761D01*
X167910989Y-111840249D01*
X167975129Y-111870130D01*
X168117301Y-111958758D01*
X168223696Y-112068228D01*
X168295965Y-112201125D01*
X168335762Y-112360034D01*
X168343847Y-112446943D01*
X168347058Y-112541550D01*
X168343652Y-112609904D01*
X168331132Y-112667885D01*
X168307004Y-112731374D01*
X168294788Y-112759098D01*
X168211861Y-112896297D01*
X168099101Y-113012593D01*
X167966063Y-113098384D01*
X167949669Y-113105961D01*
X167825645Y-113143489D01*
X167684615Y-113158558D01*
X167544893Y-113150431D01*
X167444987Y-113126245D01*
X167292273Y-113050902D01*
X167168439Y-112946415D01*
X167076123Y-112816854D01*
X167017961Y-112666293D01*
X166996591Y-112498802D01*
X166998323Y-112436452D01*
X167025537Y-112272829D01*
X167085565Y-112132129D01*
X167181643Y-112006991D01*
X167191432Y-111996980D01*
X167318608Y-111894792D01*
X167460716Y-111830784D01*
X167622225Y-111803147D01*
X167673893Y-111801677D01*
X167768145Y-111804433D01*
X124914164Y-135254621D02*
X124996387Y-135270449D01*
X124996387Y-135270449D02*
X125159075Y-135330393D01*
X125159075Y-135330393D02*
X125290800Y-135418827D01*
X125290800Y-135418827D02*
X125347880Y-135477133D01*
X125347880Y-135477133D02*
X125439518Y-135615705D01*
X125439518Y-135615705D02*
X125495185Y-135767495D01*
X125495185Y-135767495D02*
X125514898Y-135925530D01*
X125514898Y-135925530D02*
X125498675Y-136082843D01*
X125498675Y-136082843D02*
X125446536Y-136232464D01*
X125446536Y-136232464D02*
X125358496Y-136367421D01*
X125358496Y-136367421D02*
X125345539Y-136382279D01*
X125345539Y-136382279D02*
X125222794Y-136489951D01*
X125222794Y-136489951D02*
X125081069Y-136565383D01*
X125081069Y-136565383D02*
X124928133Y-136606459D01*
X124928133Y-136606459D02*
X124771756Y-136611066D01*
X124771756Y-136611066D02*
X124624130Y-136578688D01*
X124624130Y-136578688D02*
X124467031Y-136502753D01*
X124467031Y-136502753D02*
X124338749Y-136399608D01*
X124338749Y-136399608D02*
X124242114Y-136273421D01*
X124242114Y-136273421D02*
X124179957Y-136128362D01*
X124179957Y-136128362D02*
X124155107Y-135968600D01*
X124155107Y-135968600D02*
X124157032Y-135890710D01*
X124157032Y-135890710D02*
X124189318Y-135725832D01*
X124189318Y-135725832D02*
X124255119Y-135579547D01*
X124255119Y-135579547D02*
X124349502Y-135455500D01*
X124349502Y-135455500D02*
X124467532Y-135357338D01*
X124467532Y-135357338D02*
X124604275Y-135288707D01*
X124604275Y-135288707D02*
X124754797Y-135253253D01*
X124754797Y-135253253D02*
X124914164Y-135254621D01*
X124914164Y-135254621D02*
X124914164Y-135254621D01*
G36*
X124914164Y-135254621D02*
G01*
X124996387Y-135270449D01*
X125159075Y-135330393D01*
X125290800Y-135418827D01*
X125347880Y-135477133D01*
X125439518Y-135615705D01*
X125495185Y-135767495D01*
X125514898Y-135925530D01*
X125498675Y-136082843D01*
X125446536Y-136232464D01*
X125358496Y-136367421D01*
X125345539Y-136382279D01*
X125222794Y-136489951D01*
X125081069Y-136565383D01*
X124928133Y-136606459D01*
X124771756Y-136611066D01*
X124624130Y-136578688D01*
X124467031Y-136502753D01*
X124338749Y-136399608D01*
X124242114Y-136273421D01*
X124179957Y-136128362D01*
X124155107Y-135968600D01*
X124157032Y-135890710D01*
X124189318Y-135725832D01*
X124255119Y-135579547D01*
X124349502Y-135455500D01*
X124467532Y-135357338D01*
X124604275Y-135288707D01*
X124754797Y-135253253D01*
X124914164Y-135254621D01*
G37*
X124914164Y-135254621D02*
X124996387Y-135270449D01*
X125159075Y-135330393D01*
X125290800Y-135418827D01*
X125347880Y-135477133D01*
X125439518Y-135615705D01*
X125495185Y-135767495D01*
X125514898Y-135925530D01*
X125498675Y-136082843D01*
X125446536Y-136232464D01*
X125358496Y-136367421D01*
X125345539Y-136382279D01*
X125222794Y-136489951D01*
X125081069Y-136565383D01*
X124928133Y-136606459D01*
X124771756Y-136611066D01*
X124624130Y-136578688D01*
X124467031Y-136502753D01*
X124338749Y-136399608D01*
X124242114Y-136273421D01*
X124179957Y-136128362D01*
X124155107Y-135968600D01*
X124157032Y-135890710D01*
X124189318Y-135725832D01*
X124255119Y-135579547D01*
X124349502Y-135455500D01*
X124467532Y-135357338D01*
X124604275Y-135288707D01*
X124754797Y-135253253D01*
X124914164Y-135254621D01*
X146027727Y-131459427D02*
X146157741Y-131489722D01*
X146157741Y-131489722D02*
X146273919Y-131550076D01*
X146273919Y-131550076D02*
X146356491Y-131615398D01*
X146356491Y-131615398D02*
X146466675Y-131735253D01*
X146466675Y-131735253D02*
X146538727Y-131865663D01*
X146538727Y-131865663D02*
X146576803Y-132015258D01*
X146576803Y-132015258D02*
X146583737Y-132087142D01*
X146583737Y-132087142D02*
X146574174Y-132259779D01*
X146574174Y-132259779D02*
X146526029Y-132416908D01*
X146526029Y-132416908D02*
X146441241Y-132555030D01*
X146441241Y-132555030D02*
X146321746Y-132670650D01*
X146321746Y-132670650D02*
X146226152Y-132732205D01*
X146226152Y-132732205D02*
X146155752Y-132766199D01*
X146155752Y-132766199D02*
X146088584Y-132786237D01*
X146088584Y-132786237D02*
X146007216Y-132796482D01*
X146007216Y-132796482D02*
X145943462Y-132799689D01*
X145943462Y-132799689D02*
X145855743Y-132800393D01*
X145855743Y-132800393D02*
X145778535Y-132796842D01*
X145778535Y-132796842D02*
X145726425Y-132789787D01*
X145726425Y-132789787D02*
X145720950Y-132788240D01*
X145720950Y-132788240D02*
X145582862Y-132724975D01*
X145582862Y-132724975D02*
X145457528Y-132633703D01*
X145457528Y-132633703D02*
X145353852Y-132522784D01*
X145353852Y-132522784D02*
X145280739Y-132400581D01*
X145280739Y-132400581D02*
X145265182Y-132360248D01*
X145265182Y-132360248D02*
X145240425Y-132240722D01*
X145240425Y-132240722D02*
X145235820Y-132105014D01*
X145235820Y-132105014D02*
X145250448Y-131970054D01*
X145250448Y-131970054D02*
X145283391Y-131852772D01*
X145283391Y-131852772D02*
X145293980Y-131829017D01*
X145293980Y-131829017D02*
X145385220Y-131687257D01*
X145385220Y-131687257D02*
X145503335Y-131577531D01*
X145503335Y-131577531D02*
X145645636Y-131501574D01*
X145645636Y-131501574D02*
X145809436Y-131461119D01*
X145809436Y-131461119D02*
X145872978Y-131455588D01*
X145872978Y-131455588D02*
X146027727Y-131459427D01*
X146027727Y-131459427D02*
X146027727Y-131459427D01*
G36*
X146027727Y-131459427D02*
G01*
X146157741Y-131489722D01*
X146273919Y-131550076D01*
X146356491Y-131615398D01*
X146466675Y-131735253D01*
X146538727Y-131865663D01*
X146576803Y-132015258D01*
X146583737Y-132087142D01*
X146574174Y-132259779D01*
X146526029Y-132416908D01*
X146441241Y-132555030D01*
X146321746Y-132670650D01*
X146226152Y-132732205D01*
X146155752Y-132766199D01*
X146088584Y-132786237D01*
X146007216Y-132796482D01*
X145943462Y-132799689D01*
X145855743Y-132800393D01*
X145778535Y-132796842D01*
X145726425Y-132789787D01*
X145720950Y-132788240D01*
X145582862Y-132724975D01*
X145457528Y-132633703D01*
X145353852Y-132522784D01*
X145280739Y-132400581D01*
X145265182Y-132360248D01*
X145240425Y-132240722D01*
X145235820Y-132105014D01*
X145250448Y-131970054D01*
X145283391Y-131852772D01*
X145293980Y-131829017D01*
X145385220Y-131687257D01*
X145503335Y-131577531D01*
X145645636Y-131501574D01*
X145809436Y-131461119D01*
X145872978Y-131455588D01*
X146027727Y-131459427D01*
G37*
X146027727Y-131459427D02*
X146157741Y-131489722D01*
X146273919Y-131550076D01*
X146356491Y-131615398D01*
X146466675Y-131735253D01*
X146538727Y-131865663D01*
X146576803Y-132015258D01*
X146583737Y-132087142D01*
X146574174Y-132259779D01*
X146526029Y-132416908D01*
X146441241Y-132555030D01*
X146321746Y-132670650D01*
X146226152Y-132732205D01*
X146155752Y-132766199D01*
X146088584Y-132786237D01*
X146007216Y-132796482D01*
X145943462Y-132799689D01*
X145855743Y-132800393D01*
X145778535Y-132796842D01*
X145726425Y-132789787D01*
X145720950Y-132788240D01*
X145582862Y-132724975D01*
X145457528Y-132633703D01*
X145353852Y-132522784D01*
X145280739Y-132400581D01*
X145265182Y-132360248D01*
X145240425Y-132240722D01*
X145235820Y-132105014D01*
X145250448Y-131970054D01*
X145283391Y-131852772D01*
X145293980Y-131829017D01*
X145385220Y-131687257D01*
X145503335Y-131577531D01*
X145645636Y-131501574D01*
X145809436Y-131461119D01*
X145872978Y-131455588D01*
X146027727Y-131459427D01*
X97825488Y-167022756D02*
X97973883Y-167060893D01*
X97973883Y-167060893D02*
X98112175Y-167128063D01*
X98112175Y-167128063D02*
X98227923Y-167219296D01*
X98227923Y-167219296D02*
X98254448Y-167248300D01*
X98254448Y-167248300D02*
X98341188Y-167374775D01*
X98341188Y-167374775D02*
X98392677Y-167510979D01*
X98392677Y-167510979D02*
X98412539Y-167667239D01*
X98412539Y-167667239D02*
X98413037Y-167700059D01*
X98413037Y-167700059D02*
X98399034Y-167859999D01*
X98399034Y-167859999D02*
X98354249Y-167998011D01*
X98354249Y-167998011D02*
X98274517Y-168125087D01*
X98274517Y-168125087D02*
X98233714Y-168173321D01*
X98233714Y-168173321D02*
X98121176Y-168268103D01*
X98121176Y-168268103D02*
X97984560Y-168336074D01*
X97984560Y-168336074D02*
X97834574Y-168374544D01*
X97834574Y-168374544D02*
X97681922Y-168380822D01*
X97681922Y-168380822D02*
X97537311Y-168352219D01*
X97537311Y-168352219D02*
X97530797Y-168349938D01*
X97530797Y-168349938D02*
X97370911Y-168273136D01*
X97370911Y-168273136D02*
X97242647Y-168168746D01*
X97242647Y-168168746D02*
X97173222Y-168081296D01*
X97173222Y-168081296D02*
X97099031Y-167933622D01*
X97099031Y-167933622D02*
X97063236Y-167780733D01*
X97063236Y-167780733D02*
X97063255Y-167628044D01*
X97063255Y-167628044D02*
X97096508Y-167480976D01*
X97096508Y-167480976D02*
X97160413Y-167344945D01*
X97160413Y-167344945D02*
X97252390Y-167225368D01*
X97252390Y-167225368D02*
X97369858Y-167127665D01*
X97369858Y-167127665D02*
X97510236Y-167057253D01*
X97510236Y-167057253D02*
X97670943Y-167019549D01*
X97670943Y-167019549D02*
X97679433Y-167018623D01*
X97679433Y-167018623D02*
X97825488Y-167022756D01*
X97825488Y-167022756D02*
X97825488Y-167022756D01*
G36*
X97825488Y-167022756D02*
G01*
X97973883Y-167060893D01*
X98112175Y-167128063D01*
X98227923Y-167219296D01*
X98254448Y-167248300D01*
X98341188Y-167374775D01*
X98392677Y-167510979D01*
X98412539Y-167667239D01*
X98413037Y-167700059D01*
X98399034Y-167859999D01*
X98354249Y-167998011D01*
X98274517Y-168125087D01*
X98233714Y-168173321D01*
X98121176Y-168268103D01*
X97984560Y-168336074D01*
X97834574Y-168374544D01*
X97681922Y-168380822D01*
X97537311Y-168352219D01*
X97530797Y-168349938D01*
X97370911Y-168273136D01*
X97242647Y-168168746D01*
X97173222Y-168081296D01*
X97099031Y-167933622D01*
X97063236Y-167780733D01*
X97063255Y-167628044D01*
X97096508Y-167480976D01*
X97160413Y-167344945D01*
X97252390Y-167225368D01*
X97369858Y-167127665D01*
X97510236Y-167057253D01*
X97670943Y-167019549D01*
X97679433Y-167018623D01*
X97825488Y-167022756D01*
G37*
X97825488Y-167022756D02*
X97973883Y-167060893D01*
X98112175Y-167128063D01*
X98227923Y-167219296D01*
X98254448Y-167248300D01*
X98341188Y-167374775D01*
X98392677Y-167510979D01*
X98412539Y-167667239D01*
X98413037Y-167700059D01*
X98399034Y-167859999D01*
X98354249Y-167998011D01*
X98274517Y-168125087D01*
X98233714Y-168173321D01*
X98121176Y-168268103D01*
X97984560Y-168336074D01*
X97834574Y-168374544D01*
X97681922Y-168380822D01*
X97537311Y-168352219D01*
X97530797Y-168349938D01*
X97370911Y-168273136D01*
X97242647Y-168168746D01*
X97173222Y-168081296D01*
X97099031Y-167933622D01*
X97063236Y-167780733D01*
X97063255Y-167628044D01*
X97096508Y-167480976D01*
X97160413Y-167344945D01*
X97252390Y-167225368D01*
X97369858Y-167127665D01*
X97510236Y-167057253D01*
X97670943Y-167019549D01*
X97679433Y-167018623D01*
X97825488Y-167022756D01*
X97552521Y-159996139D02*
X97699268Y-160038012D01*
X97699268Y-160038012D02*
X97834157Y-160111573D01*
X97834157Y-160111573D02*
X97950993Y-160215604D01*
X97950993Y-160215604D02*
X98043586Y-160348888D01*
X98043586Y-160348888D02*
X98061186Y-160384384D01*
X98061186Y-160384384D02*
X98085392Y-160448076D01*
X98085392Y-160448076D02*
X98099440Y-160518330D01*
X98099440Y-160518330D02*
X98105508Y-160609078D01*
X98105508Y-160609078D02*
X98106232Y-160672725D01*
X98106232Y-160672725D02*
X98104498Y-160771145D01*
X98104498Y-160771145D02*
X98097589Y-160841598D01*
X98097589Y-160841598D02*
X98082780Y-160898376D01*
X98082780Y-160898376D02*
X98057344Y-160955776D01*
X98057344Y-160955776D02*
X98049301Y-160971336D01*
X98049301Y-160971336D02*
X97954919Y-161107927D01*
X97954919Y-161107927D02*
X97833121Y-161217255D01*
X97833121Y-161217255D02*
X97690778Y-161295891D01*
X97690778Y-161295891D02*
X97534760Y-161340406D01*
X97534760Y-161340406D02*
X97371940Y-161347372D01*
X97371940Y-161347372D02*
X97311100Y-161339702D01*
X97311100Y-161339702D02*
X97156513Y-161293528D01*
X97156513Y-161293528D02*
X97024625Y-161216279D01*
X97024625Y-161216279D02*
X96917078Y-161113607D01*
X96917078Y-161113607D02*
X96835519Y-160991166D01*
X96835519Y-160991166D02*
X96781589Y-160854606D01*
X96781589Y-160854606D02*
X96756936Y-160709581D01*
X96756936Y-160709581D02*
X96763201Y-160561743D01*
X96763201Y-160561743D02*
X96802030Y-160416743D01*
X96802030Y-160416743D02*
X96875068Y-160280234D01*
X96875068Y-160280234D02*
X96970784Y-160169891D01*
X96970784Y-160169891D02*
X97103046Y-160072830D01*
X97103046Y-160072830D02*
X97248217Y-160012330D01*
X97248217Y-160012330D02*
X97400107Y-159987172D01*
X97400107Y-159987172D02*
X97552521Y-159996139D01*
X97552521Y-159996139D02*
X97552521Y-159996139D01*
G36*
X97552521Y-159996139D02*
G01*
X97699268Y-160038012D01*
X97834157Y-160111573D01*
X97950993Y-160215604D01*
X98043586Y-160348888D01*
X98061186Y-160384384D01*
X98085392Y-160448076D01*
X98099440Y-160518330D01*
X98105508Y-160609078D01*
X98106232Y-160672725D01*
X98104498Y-160771145D01*
X98097589Y-160841598D01*
X98082780Y-160898376D01*
X98057344Y-160955776D01*
X98049301Y-160971336D01*
X97954919Y-161107927D01*
X97833121Y-161217255D01*
X97690778Y-161295891D01*
X97534760Y-161340406D01*
X97371940Y-161347372D01*
X97311100Y-161339702D01*
X97156513Y-161293528D01*
X97024625Y-161216279D01*
X96917078Y-161113607D01*
X96835519Y-160991166D01*
X96781589Y-160854606D01*
X96756936Y-160709581D01*
X96763201Y-160561743D01*
X96802030Y-160416743D01*
X96875068Y-160280234D01*
X96970784Y-160169891D01*
X97103046Y-160072830D01*
X97248217Y-160012330D01*
X97400107Y-159987172D01*
X97552521Y-159996139D01*
G37*
X97552521Y-159996139D02*
X97699268Y-160038012D01*
X97834157Y-160111573D01*
X97950993Y-160215604D01*
X98043586Y-160348888D01*
X98061186Y-160384384D01*
X98085392Y-160448076D01*
X98099440Y-160518330D01*
X98105508Y-160609078D01*
X98106232Y-160672725D01*
X98104498Y-160771145D01*
X98097589Y-160841598D01*
X98082780Y-160898376D01*
X98057344Y-160955776D01*
X98049301Y-160971336D01*
X97954919Y-161107927D01*
X97833121Y-161217255D01*
X97690778Y-161295891D01*
X97534760Y-161340406D01*
X97371940Y-161347372D01*
X97311100Y-161339702D01*
X97156513Y-161293528D01*
X97024625Y-161216279D01*
X96917078Y-161113607D01*
X96835519Y-160991166D01*
X96781589Y-160854606D01*
X96756936Y-160709581D01*
X96763201Y-160561743D01*
X96802030Y-160416743D01*
X96875068Y-160280234D01*
X96970784Y-160169891D01*
X97103046Y-160072830D01*
X97248217Y-160012330D01*
X97400107Y-159987172D01*
X97552521Y-159996139D01*
X111566292Y-154714421D02*
X111712699Y-154769502D01*
X111712699Y-154769502D02*
X111846832Y-154860008D01*
X111846832Y-154860008D02*
X111877246Y-154887838D01*
X111877246Y-154887838D02*
X111979616Y-155014593D01*
X111979616Y-155014593D02*
X112044529Y-155160307D01*
X112044529Y-155160307D02*
X112072476Y-155326192D01*
X112072476Y-155326192D02*
X112073748Y-155373585D01*
X112073748Y-155373585D02*
X112070992Y-155467837D01*
X112070992Y-155467837D02*
X112059664Y-155540138D01*
X112059664Y-155540138D02*
X112035176Y-155610681D01*
X112035176Y-155610681D02*
X112005295Y-155674820D01*
X112005295Y-155674820D02*
X111935930Y-155790246D01*
X111935930Y-155790246D02*
X111857315Y-155877995D01*
X111857315Y-155877995D02*
X111847938Y-155885869D01*
X111847938Y-155885869D02*
X111755765Y-155954807D01*
X111755765Y-155954807D02*
X111673665Y-155999707D01*
X111673665Y-155999707D02*
X111586531Y-156026118D01*
X111586531Y-156026118D02*
X111479255Y-156039590D01*
X111479255Y-156039590D02*
X111420367Y-156042909D01*
X111420367Y-156042909D02*
X111326422Y-156045910D01*
X111326422Y-156045910D02*
X111260139Y-156043360D01*
X111260139Y-156043360D02*
X111206950Y-156032641D01*
X111206950Y-156032641D02*
X111152286Y-156011137D01*
X111152286Y-156011137D02*
X111099344Y-155985238D01*
X111099344Y-155985238D02*
X110954798Y-155890379D01*
X110954798Y-155890379D02*
X110838808Y-155768236D01*
X110838808Y-155768236D02*
X110767314Y-155648233D01*
X110767314Y-155648233D02*
X110741874Y-155579700D01*
X110741874Y-155579700D02*
X110727679Y-155502699D01*
X110727679Y-155502699D02*
X110722318Y-155402435D01*
X110722318Y-155402435D02*
X110722074Y-155370475D01*
X110722074Y-155370475D02*
X110724081Y-155272714D01*
X110724081Y-155272714D02*
X110732519Y-155200793D01*
X110732519Y-155200793D02*
X110750607Y-155138342D01*
X110750607Y-155138342D02*
X110781264Y-155069603D01*
X110781264Y-155069603D02*
X110869625Y-154933979D01*
X110869625Y-154933979D02*
X110983339Y-154827539D01*
X110983339Y-154827539D02*
X111116134Y-154751323D01*
X111116134Y-154751323D02*
X111261738Y-154706371D01*
X111261738Y-154706371D02*
X111413882Y-154693724D01*
X111413882Y-154693724D02*
X111566292Y-154714421D01*
X111566292Y-154714421D02*
X111566292Y-154714421D01*
G36*
X111566292Y-154714421D02*
G01*
X111712699Y-154769502D01*
X111846832Y-154860008D01*
X111877246Y-154887838D01*
X111979616Y-155014593D01*
X112044529Y-155160307D01*
X112072476Y-155326192D01*
X112073748Y-155373585D01*
X112070992Y-155467837D01*
X112059664Y-155540138D01*
X112035176Y-155610681D01*
X112005295Y-155674820D01*
X111935930Y-155790246D01*
X111857315Y-155877995D01*
X111847938Y-155885869D01*
X111755765Y-155954807D01*
X111673665Y-155999707D01*
X111586531Y-156026118D01*
X111479255Y-156039590D01*
X111420367Y-156042909D01*
X111326422Y-156045910D01*
X111260139Y-156043360D01*
X111206950Y-156032641D01*
X111152286Y-156011137D01*
X111099344Y-155985238D01*
X110954798Y-155890379D01*
X110838808Y-155768236D01*
X110767314Y-155648233D01*
X110741874Y-155579700D01*
X110727679Y-155502699D01*
X110722318Y-155402435D01*
X110722074Y-155370475D01*
X110724081Y-155272714D01*
X110732519Y-155200793D01*
X110750607Y-155138342D01*
X110781264Y-155069603D01*
X110869625Y-154933979D01*
X110983339Y-154827539D01*
X111116134Y-154751323D01*
X111261738Y-154706371D01*
X111413882Y-154693724D01*
X111566292Y-154714421D01*
G37*
X111566292Y-154714421D02*
X111712699Y-154769502D01*
X111846832Y-154860008D01*
X111877246Y-154887838D01*
X111979616Y-155014593D01*
X112044529Y-155160307D01*
X112072476Y-155326192D01*
X112073748Y-155373585D01*
X112070992Y-155467837D01*
X112059664Y-155540138D01*
X112035176Y-155610681D01*
X112005295Y-155674820D01*
X111935930Y-155790246D01*
X111857315Y-155877995D01*
X111847938Y-155885869D01*
X111755765Y-155954807D01*
X111673665Y-155999707D01*
X111586531Y-156026118D01*
X111479255Y-156039590D01*
X111420367Y-156042909D01*
X111326422Y-156045910D01*
X111260139Y-156043360D01*
X111206950Y-156032641D01*
X111152286Y-156011137D01*
X111099344Y-155985238D01*
X110954798Y-155890379D01*
X110838808Y-155768236D01*
X110767314Y-155648233D01*
X110741874Y-155579700D01*
X110727679Y-155502699D01*
X110722318Y-155402435D01*
X110722074Y-155370475D01*
X110724081Y-155272714D01*
X110732519Y-155200793D01*
X110750607Y-155138342D01*
X110781264Y-155069603D01*
X110869625Y-154933979D01*
X110983339Y-154827539D01*
X111116134Y-154751323D01*
X111261738Y-154706371D01*
X111413882Y-154693724D01*
X111566292Y-154714421D01*
X159609718Y-119199717D02*
X159751590Y-119239434D01*
X159751590Y-119239434D02*
X159883015Y-119309337D01*
X159883015Y-119309337D02*
X159998275Y-119409430D01*
X159998275Y-119409430D02*
X160091652Y-119539718D01*
X160091652Y-119539718D02*
X160118873Y-119594158D01*
X160118873Y-119594158D02*
X160155856Y-119718797D01*
X160155856Y-119718797D02*
X160167862Y-119861355D01*
X160167862Y-119861355D02*
X160155114Y-120005736D01*
X160155114Y-120005736D02*
X160117836Y-120135842D01*
X160117836Y-120135842D02*
X160111151Y-120150972D01*
X160111151Y-120150972D02*
X160022419Y-120294703D01*
X160022419Y-120294703D02*
X159905444Y-120408474D01*
X159905444Y-120408474D02*
X159764496Y-120489436D01*
X159764496Y-120489436D02*
X159603841Y-120534743D01*
X159603841Y-120534743D02*
X159523609Y-120542870D01*
X159523609Y-120542870D02*
X159439996Y-120543804D01*
X159439996Y-120543804D02*
X159364204Y-120539542D01*
X159364204Y-120539542D02*
X159320534Y-120532697D01*
X159320534Y-120532697D02*
X159168226Y-120471243D01*
X159168226Y-120471243D02*
X159033817Y-120374808D01*
X159033817Y-120374808D02*
X158924344Y-120249326D01*
X158924344Y-120249326D02*
X158867986Y-120150972D01*
X158867986Y-120150972D02*
X158827200Y-120024613D01*
X158827200Y-120024613D02*
X158810836Y-119881883D01*
X158810836Y-119881883D02*
X158819147Y-119738799D01*
X158819147Y-119738799D02*
X158852380Y-119611376D01*
X158852380Y-119611376D02*
X158859310Y-119595090D01*
X158859310Y-119595090D02*
X158943784Y-119453779D01*
X158943784Y-119453779D02*
X159052120Y-119342628D01*
X159052120Y-119342628D02*
X159178599Y-119261642D01*
X159178599Y-119261642D02*
X159317504Y-119210825D01*
X159317504Y-119210825D02*
X159463116Y-119190182D01*
X159463116Y-119190182D02*
X159609718Y-119199717D01*
X159609718Y-119199717D02*
X159609718Y-119199717D01*
G36*
X159609718Y-119199717D02*
G01*
X159751590Y-119239434D01*
X159883015Y-119309337D01*
X159998275Y-119409430D01*
X160091652Y-119539718D01*
X160118873Y-119594158D01*
X160155856Y-119718797D01*
X160167862Y-119861355D01*
X160155114Y-120005736D01*
X160117836Y-120135842D01*
X160111151Y-120150972D01*
X160022419Y-120294703D01*
X159905444Y-120408474D01*
X159764496Y-120489436D01*
X159603841Y-120534743D01*
X159523609Y-120542870D01*
X159439996Y-120543804D01*
X159364204Y-120539542D01*
X159320534Y-120532697D01*
X159168226Y-120471243D01*
X159033817Y-120374808D01*
X158924344Y-120249326D01*
X158867986Y-120150972D01*
X158827200Y-120024613D01*
X158810836Y-119881883D01*
X158819147Y-119738799D01*
X158852380Y-119611376D01*
X158859310Y-119595090D01*
X158943784Y-119453779D01*
X159052120Y-119342628D01*
X159178599Y-119261642D01*
X159317504Y-119210825D01*
X159463116Y-119190182D01*
X159609718Y-119199717D01*
G37*
X159609718Y-119199717D02*
X159751590Y-119239434D01*
X159883015Y-119309337D01*
X159998275Y-119409430D01*
X160091652Y-119539718D01*
X160118873Y-119594158D01*
X160155856Y-119718797D01*
X160167862Y-119861355D01*
X160155114Y-120005736D01*
X160117836Y-120135842D01*
X160111151Y-120150972D01*
X160022419Y-120294703D01*
X159905444Y-120408474D01*
X159764496Y-120489436D01*
X159603841Y-120534743D01*
X159523609Y-120542870D01*
X159439996Y-120543804D01*
X159364204Y-120539542D01*
X159320534Y-120532697D01*
X159168226Y-120471243D01*
X159033817Y-120374808D01*
X158924344Y-120249326D01*
X158867986Y-120150972D01*
X158827200Y-120024613D01*
X158810836Y-119881883D01*
X158819147Y-119738799D01*
X158852380Y-119611376D01*
X158859310Y-119595090D01*
X158943784Y-119453779D01*
X159052120Y-119342628D01*
X159178599Y-119261642D01*
X159317504Y-119210825D01*
X159463116Y-119190182D01*
X159609718Y-119199717D01*
X176908663Y-95729479D02*
X177029866Y-95772205D01*
X177029866Y-95772205D02*
X177167722Y-95860665D01*
X177167722Y-95860665D02*
X177277311Y-95975979D01*
X177277311Y-95975979D02*
X177356389Y-96111659D01*
X177356389Y-96111659D02*
X177402716Y-96261217D01*
X177402716Y-96261217D02*
X177414050Y-96418165D01*
X177414050Y-96418165D02*
X177388150Y-96576015D01*
X177388150Y-96576015D02*
X177345524Y-96685903D01*
X177345524Y-96685903D02*
X177253667Y-96828029D01*
X177253667Y-96828029D02*
X177135604Y-96940284D01*
X177135604Y-96940284D02*
X176996959Y-97019972D01*
X176996959Y-97019972D02*
X176843353Y-97064399D01*
X176843353Y-97064399D02*
X176680411Y-97070871D01*
X176680411Y-97070871D02*
X176576330Y-97054445D01*
X176576330Y-97054445D02*
X176425358Y-96997898D01*
X176425358Y-96997898D02*
X176289785Y-96905982D01*
X176289785Y-96905982D02*
X176177364Y-96784969D01*
X176177364Y-96784969D02*
X176113606Y-96680309D01*
X176113606Y-96680309D02*
X176077850Y-96571960D01*
X176077850Y-96571960D02*
X176061317Y-96441556D01*
X176061317Y-96441556D02*
X176063948Y-96304727D01*
X176063948Y-96304727D02*
X176085685Y-96177106D01*
X176085685Y-96177106D02*
X176115811Y-96094118D01*
X176115811Y-96094118D02*
X176206583Y-95956103D01*
X176206583Y-95956103D02*
X176329080Y-95841526D01*
X176329080Y-95841526D02*
X176451818Y-95768274D01*
X176451818Y-95768274D02*
X176595975Y-95722345D01*
X176595975Y-95722345D02*
X176752816Y-95709444D01*
X176752816Y-95709444D02*
X176908663Y-95729479D01*
X176908663Y-95729479D02*
X176908663Y-95729479D01*
G36*
X176908663Y-95729479D02*
G01*
X177029866Y-95772205D01*
X177167722Y-95860665D01*
X177277311Y-95975979D01*
X177356389Y-96111659D01*
X177402716Y-96261217D01*
X177414050Y-96418165D01*
X177388150Y-96576015D01*
X177345524Y-96685903D01*
X177253667Y-96828029D01*
X177135604Y-96940284D01*
X176996959Y-97019972D01*
X176843353Y-97064399D01*
X176680411Y-97070871D01*
X176576330Y-97054445D01*
X176425358Y-96997898D01*
X176289785Y-96905982D01*
X176177364Y-96784969D01*
X176113606Y-96680309D01*
X176077850Y-96571960D01*
X176061317Y-96441556D01*
X176063948Y-96304727D01*
X176085685Y-96177106D01*
X176115811Y-96094118D01*
X176206583Y-95956103D01*
X176329080Y-95841526D01*
X176451818Y-95768274D01*
X176595975Y-95722345D01*
X176752816Y-95709444D01*
X176908663Y-95729479D01*
G37*
X176908663Y-95729479D02*
X177029866Y-95772205D01*
X177167722Y-95860665D01*
X177277311Y-95975979D01*
X177356389Y-96111659D01*
X177402716Y-96261217D01*
X177414050Y-96418165D01*
X177388150Y-96576015D01*
X177345524Y-96685903D01*
X177253667Y-96828029D01*
X177135604Y-96940284D01*
X176996959Y-97019972D01*
X176843353Y-97064399D01*
X176680411Y-97070871D01*
X176576330Y-97054445D01*
X176425358Y-96997898D01*
X176289785Y-96905982D01*
X176177364Y-96784969D01*
X176113606Y-96680309D01*
X176077850Y-96571960D01*
X176061317Y-96441556D01*
X176063948Y-96304727D01*
X176085685Y-96177106D01*
X176115811Y-96094118D01*
X176206583Y-95956103D01*
X176329080Y-95841526D01*
X176451818Y-95768274D01*
X176595975Y-95722345D01*
X176752816Y-95709444D01*
X176908663Y-95729479D01*
X134203375Y-134216521D02*
X134276665Y-134223165D01*
X134276665Y-134223165D02*
X134332932Y-134236693D01*
X134332932Y-134236693D02*
X134384788Y-134259200D01*
X134384788Y-134259200D02*
X134392446Y-134263204D01*
X134392446Y-134263204D02*
X134536197Y-134361263D01*
X134536197Y-134361263D02*
X134650486Y-134485327D01*
X134650486Y-134485327D02*
X134708361Y-134581410D01*
X134708361Y-134581410D02*
X134739001Y-134650406D01*
X134739001Y-134650406D02*
X134756881Y-134713166D01*
X134756881Y-134713166D02*
X134765211Y-134786035D01*
X134765211Y-134786035D02*
X134767200Y-134881142D01*
X134767200Y-134881142D02*
X134765041Y-134979229D01*
X134765041Y-134979229D02*
X134756423Y-135051451D01*
X134756423Y-135051451D02*
X134738140Y-135114152D01*
X134738140Y-135114152D02*
X134708361Y-135180873D01*
X134708361Y-135180873D02*
X134617462Y-135319162D01*
X134617462Y-135319162D02*
X134494033Y-135434552D01*
X134494033Y-135434552D02*
X134392446Y-135497850D01*
X134392446Y-135497850D02*
X134291078Y-135533325D01*
X134291078Y-135533325D02*
X134166132Y-135552084D01*
X134166132Y-135552084D02*
X134033122Y-135553650D01*
X134033122Y-135553650D02*
X133907563Y-135537549D01*
X133907563Y-135537549D02*
X133831258Y-135515056D01*
X133831258Y-135515056D02*
X133753081Y-135474540D01*
X133753081Y-135474540D02*
X133670237Y-135417128D01*
X133670237Y-135417128D02*
X133623424Y-135376706D01*
X133623424Y-135376706D02*
X133519555Y-135248648D01*
X133519555Y-135248648D02*
X133450521Y-135104661D01*
X133450521Y-135104661D02*
X133416395Y-134951467D01*
X133416395Y-134951467D02*
X133417250Y-134795788D01*
X133417250Y-134795788D02*
X133453159Y-134644345D01*
X133453159Y-134644345D02*
X133524197Y-134503861D01*
X133524197Y-134503861D02*
X133612739Y-134397613D01*
X133612739Y-134397613D02*
X133710070Y-134314392D01*
X133710070Y-134314392D02*
X133806538Y-134259361D01*
X133806538Y-134259361D02*
X133914445Y-134227905D01*
X133914445Y-134227905D02*
X134046092Y-134215410D01*
X134046092Y-134215410D02*
X134100450Y-134214662D01*
X134100450Y-134214662D02*
X134203375Y-134216521D01*
X134203375Y-134216521D02*
X134203375Y-134216521D01*
G36*
X134203375Y-134216521D02*
G01*
X134276665Y-134223165D01*
X134332932Y-134236693D01*
X134384788Y-134259200D01*
X134392446Y-134263204D01*
X134536197Y-134361263D01*
X134650486Y-134485327D01*
X134708361Y-134581410D01*
X134739001Y-134650406D01*
X134756881Y-134713166D01*
X134765211Y-134786035D01*
X134767200Y-134881142D01*
X134765041Y-134979229D01*
X134756423Y-135051451D01*
X134738140Y-135114152D01*
X134708361Y-135180873D01*
X134617462Y-135319162D01*
X134494033Y-135434552D01*
X134392446Y-135497850D01*
X134291078Y-135533325D01*
X134166132Y-135552084D01*
X134033122Y-135553650D01*
X133907563Y-135537549D01*
X133831258Y-135515056D01*
X133753081Y-135474540D01*
X133670237Y-135417128D01*
X133623424Y-135376706D01*
X133519555Y-135248648D01*
X133450521Y-135104661D01*
X133416395Y-134951467D01*
X133417250Y-134795788D01*
X133453159Y-134644345D01*
X133524197Y-134503861D01*
X133612739Y-134397613D01*
X133710070Y-134314392D01*
X133806538Y-134259361D01*
X133914445Y-134227905D01*
X134046092Y-134215410D01*
X134100450Y-134214662D01*
X134203375Y-134216521D01*
G37*
X134203375Y-134216521D02*
X134276665Y-134223165D01*
X134332932Y-134236693D01*
X134384788Y-134259200D01*
X134392446Y-134263204D01*
X134536197Y-134361263D01*
X134650486Y-134485327D01*
X134708361Y-134581410D01*
X134739001Y-134650406D01*
X134756881Y-134713166D01*
X134765211Y-134786035D01*
X134767200Y-134881142D01*
X134765041Y-134979229D01*
X134756423Y-135051451D01*
X134738140Y-135114152D01*
X134708361Y-135180873D01*
X134617462Y-135319162D01*
X134494033Y-135434552D01*
X134392446Y-135497850D01*
X134291078Y-135533325D01*
X134166132Y-135552084D01*
X134033122Y-135553650D01*
X133907563Y-135537549D01*
X133831258Y-135515056D01*
X133753081Y-135474540D01*
X133670237Y-135417128D01*
X133623424Y-135376706D01*
X133519555Y-135248648D01*
X133450521Y-135104661D01*
X133416395Y-134951467D01*
X133417250Y-134795788D01*
X133453159Y-134644345D01*
X133524197Y-134503861D01*
X133612739Y-134397613D01*
X133710070Y-134314392D01*
X133806538Y-134259361D01*
X133914445Y-134227905D01*
X134046092Y-134215410D01*
X134100450Y-134214662D01*
X134203375Y-134216521D01*
X142614269Y-121580998D02*
X142690491Y-121592202D01*
X142690491Y-121592202D02*
X142760870Y-121615244D01*
X142760870Y-121615244D02*
X142801781Y-121633345D01*
X142801781Y-121633345D02*
X142946930Y-121723803D01*
X142946930Y-121723803D02*
X143062914Y-121844781D01*
X143062914Y-121844781D02*
X143136064Y-121967645D01*
X143136064Y-121967645D02*
X143178864Y-122101305D01*
X143178864Y-122101305D02*
X143194191Y-122250745D01*
X143194191Y-122250745D02*
X143181871Y-122400072D01*
X143181871Y-122400072D02*
X143142205Y-122532337D01*
X143142205Y-122532337D02*
X143076364Y-122641491D01*
X143076364Y-122641491D02*
X142983442Y-122746312D01*
X142983442Y-122746312D02*
X142876811Y-122833430D01*
X142876811Y-122833430D02*
X142795215Y-122879400D01*
X142795215Y-122879400D02*
X142701730Y-122909255D01*
X142701730Y-122909255D02*
X142589714Y-122928583D01*
X142589714Y-122928583D02*
X142476970Y-122935531D01*
X142476970Y-122935531D02*
X142381300Y-122928244D01*
X142381300Y-122928244D02*
X142363550Y-122924351D01*
X142363550Y-122924351D02*
X142210188Y-122864203D01*
X142210188Y-122864203D02*
X142071841Y-122770078D01*
X142071841Y-122770078D02*
X142008159Y-122708017D01*
X142008159Y-122708017D02*
X141915413Y-122574870D01*
X141915413Y-122574870D02*
X141858456Y-122426417D01*
X141858456Y-122426417D02*
X141837285Y-122269953D01*
X141837285Y-122269953D02*
X141851896Y-122112775D01*
X141851896Y-122112775D02*
X141902283Y-121962180D01*
X141902283Y-121962180D02*
X141988442Y-121825463D01*
X141988442Y-121825463D02*
X142008695Y-121801838D01*
X142008695Y-121801838D02*
X142129711Y-121691559D01*
X142129711Y-121691559D02*
X142262412Y-121619875D01*
X142262412Y-121619875D02*
X142413406Y-121583861D01*
X142413406Y-121583861D02*
X142514101Y-121578159D01*
X142514101Y-121578159D02*
X142614269Y-121580998D01*
X142614269Y-121580998D02*
X142614269Y-121580998D01*
G36*
X142614269Y-121580998D02*
G01*
X142690491Y-121592202D01*
X142760870Y-121615244D01*
X142801781Y-121633345D01*
X142946930Y-121723803D01*
X143062914Y-121844781D01*
X143136064Y-121967645D01*
X143178864Y-122101305D01*
X143194191Y-122250745D01*
X143181871Y-122400072D01*
X143142205Y-122532337D01*
X143076364Y-122641491D01*
X142983442Y-122746312D01*
X142876811Y-122833430D01*
X142795215Y-122879400D01*
X142701730Y-122909255D01*
X142589714Y-122928583D01*
X142476970Y-122935531D01*
X142381300Y-122928244D01*
X142363550Y-122924351D01*
X142210188Y-122864203D01*
X142071841Y-122770078D01*
X142008159Y-122708017D01*
X141915413Y-122574870D01*
X141858456Y-122426417D01*
X141837285Y-122269953D01*
X141851896Y-122112775D01*
X141902283Y-121962180D01*
X141988442Y-121825463D01*
X142008695Y-121801838D01*
X142129711Y-121691559D01*
X142262412Y-121619875D01*
X142413406Y-121583861D01*
X142514101Y-121578159D01*
X142614269Y-121580998D01*
G37*
X142614269Y-121580998D02*
X142690491Y-121592202D01*
X142760870Y-121615244D01*
X142801781Y-121633345D01*
X142946930Y-121723803D01*
X143062914Y-121844781D01*
X143136064Y-121967645D01*
X143178864Y-122101305D01*
X143194191Y-122250745D01*
X143181871Y-122400072D01*
X143142205Y-122532337D01*
X143076364Y-122641491D01*
X142983442Y-122746312D01*
X142876811Y-122833430D01*
X142795215Y-122879400D01*
X142701730Y-122909255D01*
X142589714Y-122928583D01*
X142476970Y-122935531D01*
X142381300Y-122928244D01*
X142363550Y-122924351D01*
X142210188Y-122864203D01*
X142071841Y-122770078D01*
X142008159Y-122708017D01*
X141915413Y-122574870D01*
X141858456Y-122426417D01*
X141837285Y-122269953D01*
X141851896Y-122112775D01*
X141902283Y-121962180D01*
X141988442Y-121825463D01*
X142008695Y-121801838D01*
X142129711Y-121691559D01*
X142262412Y-121619875D01*
X142413406Y-121583861D01*
X142514101Y-121578159D01*
X142614269Y-121580998D01*
X132530158Y-143650085D02*
X132677625Y-143695312D01*
X132677625Y-143695312D02*
X132812753Y-143774717D01*
X132812753Y-143774717D02*
X132852158Y-143807398D01*
X132852158Y-143807398D02*
X132919558Y-143877122D01*
X132919558Y-143877122D02*
X132982246Y-143957078D01*
X132982246Y-143957078D02*
X133016728Y-144012281D01*
X133016728Y-144012281D02*
X133044311Y-144069677D01*
X133044311Y-144069677D02*
X133061308Y-144122826D01*
X133061308Y-144122826D02*
X133070191Y-144185139D01*
X133070191Y-144185139D02*
X133073430Y-144270029D01*
X133073430Y-144270029D02*
X133073707Y-144321475D01*
X133073707Y-144321475D02*
X133068259Y-144452870D01*
X133068259Y-144452870D02*
X133048466Y-144556723D01*
X133048466Y-144556723D02*
X133009248Y-144646796D01*
X133009248Y-144646796D02*
X132945524Y-144736853D01*
X132945524Y-144736853D02*
X132901723Y-144787465D01*
X132901723Y-144787465D02*
X132790212Y-144881146D01*
X132790212Y-144881146D02*
X132654104Y-144948663D01*
X132654104Y-144948663D02*
X132503813Y-144987646D01*
X132503813Y-144987646D02*
X132349755Y-144995728D01*
X132349755Y-144995728D02*
X132202346Y-144970538D01*
X132202346Y-144970538D02*
X132160664Y-144956015D01*
X132160664Y-144956015D02*
X132015045Y-144877336D01*
X132015045Y-144877336D02*
X131897273Y-144771229D01*
X131897273Y-144771229D02*
X131809066Y-144643578D01*
X131809066Y-144643578D02*
X131752143Y-144500263D01*
X131752143Y-144500263D02*
X131728223Y-144347168D01*
X131728223Y-144347168D02*
X131739025Y-144190172D01*
X131739025Y-144190172D02*
X131786266Y-144035159D01*
X131786266Y-144035159D02*
X131855273Y-143910920D01*
X131855273Y-143910920D02*
X131958348Y-143796272D01*
X131958348Y-143796272D02*
X132084447Y-143712130D01*
X132084447Y-143712130D02*
X132226496Y-143659229D01*
X132226496Y-143659229D02*
X132377424Y-143638302D01*
X132377424Y-143638302D02*
X132530158Y-143650085D01*
X132530158Y-143650085D02*
X132530158Y-143650085D01*
G36*
X132530158Y-143650085D02*
G01*
X132677625Y-143695312D01*
X132812753Y-143774717D01*
X132852158Y-143807398D01*
X132919558Y-143877122D01*
X132982246Y-143957078D01*
X133016728Y-144012281D01*
X133044311Y-144069677D01*
X133061308Y-144122826D01*
X133070191Y-144185139D01*
X133073430Y-144270029D01*
X133073707Y-144321475D01*
X133068259Y-144452870D01*
X133048466Y-144556723D01*
X133009248Y-144646796D01*
X132945524Y-144736853D01*
X132901723Y-144787465D01*
X132790212Y-144881146D01*
X132654104Y-144948663D01*
X132503813Y-144987646D01*
X132349755Y-144995728D01*
X132202346Y-144970538D01*
X132160664Y-144956015D01*
X132015045Y-144877336D01*
X131897273Y-144771229D01*
X131809066Y-144643578D01*
X131752143Y-144500263D01*
X131728223Y-144347168D01*
X131739025Y-144190172D01*
X131786266Y-144035159D01*
X131855273Y-143910920D01*
X131958348Y-143796272D01*
X132084447Y-143712130D01*
X132226496Y-143659229D01*
X132377424Y-143638302D01*
X132530158Y-143650085D01*
G37*
X132530158Y-143650085D02*
X132677625Y-143695312D01*
X132812753Y-143774717D01*
X132852158Y-143807398D01*
X132919558Y-143877122D01*
X132982246Y-143957078D01*
X133016728Y-144012281D01*
X133044311Y-144069677D01*
X133061308Y-144122826D01*
X133070191Y-144185139D01*
X133073430Y-144270029D01*
X133073707Y-144321475D01*
X133068259Y-144452870D01*
X133048466Y-144556723D01*
X133009248Y-144646796D01*
X132945524Y-144736853D01*
X132901723Y-144787465D01*
X132790212Y-144881146D01*
X132654104Y-144948663D01*
X132503813Y-144987646D01*
X132349755Y-144995728D01*
X132202346Y-144970538D01*
X132160664Y-144956015D01*
X132015045Y-144877336D01*
X131897273Y-144771229D01*
X131809066Y-144643578D01*
X131752143Y-144500263D01*
X131728223Y-144347168D01*
X131739025Y-144190172D01*
X131786266Y-144035159D01*
X131855273Y-143910920D01*
X131958348Y-143796272D01*
X132084447Y-143712130D01*
X132226496Y-143659229D01*
X132377424Y-143638302D01*
X132530158Y-143650085D01*
X155776020Y-107324668D02*
X155814982Y-107326480D01*
X155814982Y-107326480D02*
X155956527Y-107341835D01*
X155956527Y-107341835D02*
X156070512Y-107375277D01*
X156070512Y-107375277D02*
X156169745Y-107432139D01*
X156169745Y-107432139D02*
X156261950Y-107512642D01*
X156261950Y-107512642D02*
X156367188Y-107646113D01*
X156367188Y-107646113D02*
X156434265Y-107795889D01*
X156434265Y-107795889D02*
X156461805Y-107957584D01*
X156461805Y-107957584D02*
X156450931Y-108113689D01*
X156450931Y-108113689D02*
X156432898Y-108194144D01*
X156432898Y-108194144D02*
X156410848Y-108266832D01*
X156410848Y-108266832D02*
X156396010Y-108302622D01*
X156396010Y-108302622D02*
X156335878Y-108391577D01*
X156335878Y-108391577D02*
X156250961Y-108482926D01*
X156250961Y-108482926D02*
X156155537Y-108562739D01*
X156155537Y-108562739D02*
X156082883Y-108608085D01*
X156082883Y-108608085D02*
X155958177Y-108652340D01*
X155958177Y-108652340D02*
X155814886Y-108672256D01*
X155814886Y-108672256D02*
X155669720Y-108666870D01*
X155669720Y-108666870D02*
X155549320Y-108638896D01*
X155549320Y-108638896D02*
X155398713Y-108564017D01*
X155398713Y-108564017D02*
X155275290Y-108459271D01*
X155275290Y-108459271D02*
X155182315Y-108329719D01*
X155182315Y-108329719D02*
X155123050Y-108180420D01*
X155123050Y-108180420D02*
X155100760Y-108016436D01*
X155100760Y-108016436D02*
X155103013Y-107946792D01*
X155103013Y-107946792D02*
X155136350Y-107779729D01*
X155136350Y-107779729D02*
X155206205Y-107630864D01*
X155206205Y-107630864D02*
X155309395Y-107504741D01*
X155309395Y-107504741D02*
X155442741Y-107405906D01*
X155442741Y-107405906D02*
X155502827Y-107375471D01*
X155502827Y-107375471D02*
X155572263Y-107346482D01*
X155572263Y-107346482D02*
X155630359Y-107330012D01*
X155630359Y-107330012D02*
X155692988Y-107323571D01*
X155692988Y-107323571D02*
X155776020Y-107324668D01*
X155776020Y-107324668D02*
X155776020Y-107324668D01*
G36*
X155776020Y-107324668D02*
G01*
X155814982Y-107326480D01*
X155956527Y-107341835D01*
X156070512Y-107375277D01*
X156169745Y-107432139D01*
X156261950Y-107512642D01*
X156367188Y-107646113D01*
X156434265Y-107795889D01*
X156461805Y-107957584D01*
X156450931Y-108113689D01*
X156432898Y-108194144D01*
X156410848Y-108266832D01*
X156396010Y-108302622D01*
X156335878Y-108391577D01*
X156250961Y-108482926D01*
X156155537Y-108562739D01*
X156082883Y-108608085D01*
X155958177Y-108652340D01*
X155814886Y-108672256D01*
X155669720Y-108666870D01*
X155549320Y-108638896D01*
X155398713Y-108564017D01*
X155275290Y-108459271D01*
X155182315Y-108329719D01*
X155123050Y-108180420D01*
X155100760Y-108016436D01*
X155103013Y-107946792D01*
X155136350Y-107779729D01*
X155206205Y-107630864D01*
X155309395Y-107504741D01*
X155442741Y-107405906D01*
X155502827Y-107375471D01*
X155572263Y-107346482D01*
X155630359Y-107330012D01*
X155692988Y-107323571D01*
X155776020Y-107324668D01*
G37*
X155776020Y-107324668D02*
X155814982Y-107326480D01*
X155956527Y-107341835D01*
X156070512Y-107375277D01*
X156169745Y-107432139D01*
X156261950Y-107512642D01*
X156367188Y-107646113D01*
X156434265Y-107795889D01*
X156461805Y-107957584D01*
X156450931Y-108113689D01*
X156432898Y-108194144D01*
X156410848Y-108266832D01*
X156396010Y-108302622D01*
X156335878Y-108391577D01*
X156250961Y-108482926D01*
X156155537Y-108562739D01*
X156082883Y-108608085D01*
X155958177Y-108652340D01*
X155814886Y-108672256D01*
X155669720Y-108666870D01*
X155549320Y-108638896D01*
X155398713Y-108564017D01*
X155275290Y-108459271D01*
X155182315Y-108329719D01*
X155123050Y-108180420D01*
X155100760Y-108016436D01*
X155103013Y-107946792D01*
X155136350Y-107779729D01*
X155206205Y-107630864D01*
X155309395Y-107504741D01*
X155442741Y-107405906D01*
X155502827Y-107375471D01*
X155572263Y-107346482D01*
X155630359Y-107330012D01*
X155692988Y-107323571D01*
X155776020Y-107324668D01*
X141577482Y-131647989D02*
X141706984Y-131671291D01*
X141706984Y-131671291D02*
X141746294Y-131684214D01*
X141746294Y-131684214D02*
X141878351Y-131755037D01*
X141878351Y-131755037D02*
X141995969Y-131858715D01*
X141995969Y-131858715D02*
X142089552Y-131986051D01*
X142089552Y-131986051D02*
X142117391Y-132039981D01*
X142117391Y-132039981D02*
X142165861Y-132194579D01*
X142165861Y-132194579D02*
X142175442Y-132354685D01*
X142175442Y-132354685D02*
X142147581Y-132512951D01*
X142147581Y-132512951D02*
X142083725Y-132662032D01*
X142083725Y-132662032D02*
X141985320Y-132794579D01*
X141985320Y-132794579D02*
X141964711Y-132815473D01*
X141964711Y-132815473D02*
X141835481Y-132913183D01*
X141835481Y-132913183D02*
X141687567Y-132973060D01*
X141687567Y-132973060D02*
X141520421Y-132995313D01*
X141520421Y-132995313D02*
X141492114Y-132995400D01*
X141492114Y-132995400D02*
X141407227Y-132991488D01*
X141407227Y-132991488D02*
X141329684Y-132983242D01*
X141329684Y-132983242D02*
X141283670Y-132974257D01*
X141283670Y-132974257D02*
X141228287Y-132951331D01*
X141228287Y-132951331D02*
X141158221Y-132913402D01*
X141158221Y-132913402D02*
X141115041Y-132886207D01*
X141115041Y-132886207D02*
X140989169Y-132778557D01*
X140989169Y-132778557D02*
X140897159Y-132651839D01*
X140897159Y-132651839D02*
X140838616Y-132511857D01*
X140838616Y-132511857D02*
X140813144Y-132364412D01*
X140813144Y-132364412D02*
X140820347Y-132215309D01*
X140820347Y-132215309D02*
X140859830Y-132070350D01*
X140859830Y-132070350D02*
X140931199Y-131935339D01*
X140931199Y-131935339D02*
X141034057Y-131816079D01*
X141034057Y-131816079D02*
X141168009Y-131718373D01*
X141168009Y-131718373D02*
X141195621Y-131703404D01*
X141195621Y-131703404D02*
X141306198Y-131664589D01*
X141306198Y-131664589D02*
X141438686Y-131645936D01*
X141438686Y-131645936D02*
X141577482Y-131647989D01*
X141577482Y-131647989D02*
X141577482Y-131647989D01*
G36*
X141577482Y-131647989D02*
G01*
X141706984Y-131671291D01*
X141746294Y-131684214D01*
X141878351Y-131755037D01*
X141995969Y-131858715D01*
X142089552Y-131986051D01*
X142117391Y-132039981D01*
X142165861Y-132194579D01*
X142175442Y-132354685D01*
X142147581Y-132512951D01*
X142083725Y-132662032D01*
X141985320Y-132794579D01*
X141964711Y-132815473D01*
X141835481Y-132913183D01*
X141687567Y-132973060D01*
X141520421Y-132995313D01*
X141492114Y-132995400D01*
X141407227Y-132991488D01*
X141329684Y-132983242D01*
X141283670Y-132974257D01*
X141228287Y-132951331D01*
X141158221Y-132913402D01*
X141115041Y-132886207D01*
X140989169Y-132778557D01*
X140897159Y-132651839D01*
X140838616Y-132511857D01*
X140813144Y-132364412D01*
X140820347Y-132215309D01*
X140859830Y-132070350D01*
X140931199Y-131935339D01*
X141034057Y-131816079D01*
X141168009Y-131718373D01*
X141195621Y-131703404D01*
X141306198Y-131664589D01*
X141438686Y-131645936D01*
X141577482Y-131647989D01*
G37*
X141577482Y-131647989D02*
X141706984Y-131671291D01*
X141746294Y-131684214D01*
X141878351Y-131755037D01*
X141995969Y-131858715D01*
X142089552Y-131986051D01*
X142117391Y-132039981D01*
X142165861Y-132194579D01*
X142175442Y-132354685D01*
X142147581Y-132512951D01*
X142083725Y-132662032D01*
X141985320Y-132794579D01*
X141964711Y-132815473D01*
X141835481Y-132913183D01*
X141687567Y-132973060D01*
X141520421Y-132995313D01*
X141492114Y-132995400D01*
X141407227Y-132991488D01*
X141329684Y-132983242D01*
X141283670Y-132974257D01*
X141228287Y-132951331D01*
X141158221Y-132913402D01*
X141115041Y-132886207D01*
X140989169Y-132778557D01*
X140897159Y-132651839D01*
X140838616Y-132511857D01*
X140813144Y-132364412D01*
X140820347Y-132215309D01*
X140859830Y-132070350D01*
X140931199Y-131935339D01*
X141034057Y-131816079D01*
X141168009Y-131718373D01*
X141195621Y-131703404D01*
X141306198Y-131664589D01*
X141438686Y-131645936D01*
X141577482Y-131647989D01*
X130637960Y-130198610D02*
X130786880Y-130257288D01*
X130786880Y-130257288D02*
X130867497Y-130308323D01*
X130867497Y-130308323D02*
X130964972Y-130398593D01*
X130964972Y-130398593D02*
X131048357Y-130510578D01*
X131048357Y-130510578D02*
X131106303Y-130628290D01*
X131106303Y-130628290D02*
X131115911Y-130658251D01*
X131115911Y-130658251D02*
X131133134Y-130765062D01*
X131133134Y-130765062D02*
X131133749Y-130888617D01*
X131133749Y-130888617D02*
X131119125Y-131012000D01*
X131119125Y-131012000D02*
X131090628Y-131118294D01*
X131090628Y-131118294D02*
X131076046Y-131151471D01*
X131076046Y-131151471D02*
X130979879Y-131296861D01*
X130979879Y-131296861D02*
X130858662Y-131408627D01*
X130858662Y-131408627D02*
X130714678Y-131485282D01*
X130714678Y-131485282D02*
X130550208Y-131525337D01*
X130550208Y-131525337D02*
X130495190Y-131530102D01*
X130495190Y-131530102D02*
X130376868Y-131529664D01*
X130376868Y-131529664D02*
X130277738Y-131512649D01*
X130277738Y-131512649D02*
X130231288Y-131497998D01*
X130231288Y-131497998D02*
X130094498Y-131429081D01*
X130094498Y-131429081D02*
X129973276Y-131329401D01*
X129973276Y-131329401D02*
X129875930Y-131207754D01*
X129875930Y-131207754D02*
X129810765Y-131072934D01*
X129810765Y-131072934D02*
X129801828Y-131043330D01*
X129801828Y-131043330D02*
X129785239Y-130932475D01*
X129785239Y-130932475D02*
X129786469Y-130805048D01*
X129786469Y-130805048D02*
X129803999Y-130679037D01*
X129803999Y-130679037D02*
X129836311Y-130572427D01*
X129836311Y-130572427D02*
X129842789Y-130558292D01*
X129842789Y-130558292D02*
X129931490Y-130421448D01*
X129931490Y-130421448D02*
X130046287Y-130313274D01*
X130046287Y-130313274D02*
X130180756Y-130235336D01*
X130180756Y-130235336D02*
X130328474Y-130189201D01*
X130328474Y-130189201D02*
X130483017Y-130176437D01*
X130483017Y-130176437D02*
X130637960Y-130198610D01*
X130637960Y-130198610D02*
X130637960Y-130198610D01*
G36*
X130637960Y-130198610D02*
G01*
X130786880Y-130257288D01*
X130867497Y-130308323D01*
X130964972Y-130398593D01*
X131048357Y-130510578D01*
X131106303Y-130628290D01*
X131115911Y-130658251D01*
X131133134Y-130765062D01*
X131133749Y-130888617D01*
X131119125Y-131012000D01*
X131090628Y-131118294D01*
X131076046Y-131151471D01*
X130979879Y-131296861D01*
X130858662Y-131408627D01*
X130714678Y-131485282D01*
X130550208Y-131525337D01*
X130495190Y-131530102D01*
X130376868Y-131529664D01*
X130277738Y-131512649D01*
X130231288Y-131497998D01*
X130094498Y-131429081D01*
X129973276Y-131329401D01*
X129875930Y-131207754D01*
X129810765Y-131072934D01*
X129801828Y-131043330D01*
X129785239Y-130932475D01*
X129786469Y-130805048D01*
X129803999Y-130679037D01*
X129836311Y-130572427D01*
X129842789Y-130558292D01*
X129931490Y-130421448D01*
X130046287Y-130313274D01*
X130180756Y-130235336D01*
X130328474Y-130189201D01*
X130483017Y-130176437D01*
X130637960Y-130198610D01*
G37*
X130637960Y-130198610D02*
X130786880Y-130257288D01*
X130867497Y-130308323D01*
X130964972Y-130398593D01*
X131048357Y-130510578D01*
X131106303Y-130628290D01*
X131115911Y-130658251D01*
X131133134Y-130765062D01*
X131133749Y-130888617D01*
X131119125Y-131012000D01*
X131090628Y-131118294D01*
X131076046Y-131151471D01*
X130979879Y-131296861D01*
X130858662Y-131408627D01*
X130714678Y-131485282D01*
X130550208Y-131525337D01*
X130495190Y-131530102D01*
X130376868Y-131529664D01*
X130277738Y-131512649D01*
X130231288Y-131497998D01*
X130094498Y-131429081D01*
X129973276Y-131329401D01*
X129875930Y-131207754D01*
X129810765Y-131072934D01*
X129801828Y-131043330D01*
X129785239Y-130932475D01*
X129786469Y-130805048D01*
X129803999Y-130679037D01*
X129836311Y-130572427D01*
X129842789Y-130558292D01*
X129931490Y-130421448D01*
X130046287Y-130313274D01*
X130180756Y-130235336D01*
X130328474Y-130189201D01*
X130483017Y-130176437D01*
X130637960Y-130198610D01*
X173198120Y-91692598D02*
X173268327Y-91699394D01*
X173268327Y-91699394D02*
X173325042Y-91714113D01*
X173325042Y-91714113D02*
X173382654Y-91739526D01*
X173382654Y-91739526D02*
X173400951Y-91748960D01*
X173400951Y-91748960D02*
X173545362Y-91846545D01*
X173545362Y-91846545D02*
X173657141Y-91967968D01*
X173657141Y-91967968D02*
X173734275Y-92108498D01*
X173734275Y-92108498D02*
X173774746Y-92263403D01*
X173774746Y-92263403D02*
X173776541Y-92427954D01*
X173776541Y-92427954D02*
X173748423Y-92564517D01*
X173748423Y-92564517D02*
X173682560Y-92712810D01*
X173682560Y-92712810D02*
X173585317Y-92838554D01*
X173585317Y-92838554D02*
X173462957Y-92937988D01*
X173462957Y-92937988D02*
X173321743Y-93007355D01*
X173321743Y-93007355D02*
X173167935Y-93042895D01*
X173167935Y-93042895D02*
X173007795Y-93040850D01*
X173007795Y-93040850D02*
X172966582Y-93033839D01*
X172966582Y-93033839D02*
X172811481Y-92981444D01*
X172811481Y-92981444D02*
X172672032Y-92893686D01*
X172672032Y-92893686D02*
X172555979Y-92776767D01*
X172555979Y-92776767D02*
X172471172Y-92637125D01*
X172471172Y-92637125D02*
X172433625Y-92510559D01*
X172433625Y-92510559D02*
X172421536Y-92366632D01*
X172421536Y-92366632D02*
X172434699Y-92221653D01*
X172434699Y-92221653D02*
X172472909Y-92091929D01*
X172472909Y-92091929D02*
X172478153Y-92080311D01*
X172478153Y-92080311D02*
X172568929Y-91934675D01*
X172568929Y-91934675D02*
X172691871Y-91816495D01*
X172691871Y-91816495D02*
X172799116Y-91748960D01*
X172799116Y-91748960D02*
X172859565Y-91720046D01*
X172859565Y-91720046D02*
X172915080Y-91702606D01*
X172915080Y-91702606D02*
X172980048Y-91693866D01*
X172980048Y-91693866D02*
X173068857Y-91691052D01*
X173068857Y-91691052D02*
X173100034Y-91690948D01*
X173100034Y-91690948D02*
X173198120Y-91692598D01*
X173198120Y-91692598D02*
X173198120Y-91692598D01*
G36*
X173198120Y-91692598D02*
G01*
X173268327Y-91699394D01*
X173325042Y-91714113D01*
X173382654Y-91739526D01*
X173400951Y-91748960D01*
X173545362Y-91846545D01*
X173657141Y-91967968D01*
X173734275Y-92108498D01*
X173774746Y-92263403D01*
X173776541Y-92427954D01*
X173748423Y-92564517D01*
X173682560Y-92712810D01*
X173585317Y-92838554D01*
X173462957Y-92937988D01*
X173321743Y-93007355D01*
X173167935Y-93042895D01*
X173007795Y-93040850D01*
X172966582Y-93033839D01*
X172811481Y-92981444D01*
X172672032Y-92893686D01*
X172555979Y-92776767D01*
X172471172Y-92637125D01*
X172433625Y-92510559D01*
X172421536Y-92366632D01*
X172434699Y-92221653D01*
X172472909Y-92091929D01*
X172478153Y-92080311D01*
X172568929Y-91934675D01*
X172691871Y-91816495D01*
X172799116Y-91748960D01*
X172859565Y-91720046D01*
X172915080Y-91702606D01*
X172980048Y-91693866D01*
X173068857Y-91691052D01*
X173100034Y-91690948D01*
X173198120Y-91692598D01*
G37*
X173198120Y-91692598D02*
X173268327Y-91699394D01*
X173325042Y-91714113D01*
X173382654Y-91739526D01*
X173400951Y-91748960D01*
X173545362Y-91846545D01*
X173657141Y-91967968D01*
X173734275Y-92108498D01*
X173774746Y-92263403D01*
X173776541Y-92427954D01*
X173748423Y-92564517D01*
X173682560Y-92712810D01*
X173585317Y-92838554D01*
X173462957Y-92937988D01*
X173321743Y-93007355D01*
X173167935Y-93042895D01*
X173007795Y-93040850D01*
X172966582Y-93033839D01*
X172811481Y-92981444D01*
X172672032Y-92893686D01*
X172555979Y-92776767D01*
X172471172Y-92637125D01*
X172433625Y-92510559D01*
X172421536Y-92366632D01*
X172434699Y-92221653D01*
X172472909Y-92091929D01*
X172478153Y-92080311D01*
X172568929Y-91934675D01*
X172691871Y-91816495D01*
X172799116Y-91748960D01*
X172859565Y-91720046D01*
X172915080Y-91702606D01*
X172980048Y-91693866D01*
X173068857Y-91691052D01*
X173100034Y-91690948D01*
X173198120Y-91692598D01*
X165028056Y-106359293D02*
X165152438Y-106378423D01*
X165152438Y-106378423D02*
X165241617Y-106409298D01*
X165241617Y-106409298D02*
X165381416Y-106499873D01*
X165381416Y-106499873D02*
X165491201Y-106615385D01*
X165491201Y-106615385D02*
X165569789Y-106749777D01*
X165569789Y-106749777D02*
X165616002Y-106896989D01*
X165616002Y-106896989D02*
X165628658Y-107050966D01*
X165628658Y-107050966D02*
X165606577Y-107205649D01*
X165606577Y-107205649D02*
X165548579Y-107354980D01*
X165548579Y-107354980D02*
X165453483Y-107492901D01*
X165453483Y-107492901D02*
X165452892Y-107493575D01*
X165452892Y-107493575D02*
X165396094Y-107546465D01*
X165396094Y-107546465D02*
X165321489Y-107601211D01*
X165321489Y-107601211D02*
X165275116Y-107629296D01*
X165275116Y-107629296D02*
X165210870Y-107660899D01*
X165210870Y-107660899D02*
X165149770Y-107680678D01*
X165149770Y-107680678D02*
X165076883Y-107692050D01*
X165076883Y-107692050D02*
X164977278Y-107698431D01*
X164977278Y-107698431D02*
X164972034Y-107698651D01*
X164972034Y-107698651D02*
X164877962Y-107701437D01*
X164877962Y-107701437D02*
X164811522Y-107698698D01*
X164811522Y-107698698D02*
X164758110Y-107687791D01*
X164758110Y-107687791D02*
X164703124Y-107666075D01*
X164703124Y-107666075D02*
X164651011Y-107640572D01*
X164651011Y-107640572D02*
X164506309Y-107545580D01*
X164506309Y-107545580D02*
X164390157Y-107423180D01*
X164390157Y-107423180D02*
X164318832Y-107303566D01*
X164318832Y-107303566D02*
X164285354Y-107193375D01*
X164285354Y-107193375D02*
X164271829Y-107062091D01*
X164271829Y-107062091D02*
X164278019Y-106925831D01*
X164278019Y-106925831D02*
X164303684Y-106800710D01*
X164303684Y-106800710D02*
X164327175Y-106740059D01*
X164327175Y-106740059D02*
X164400844Y-106623331D01*
X164400844Y-106623331D02*
X164499799Y-106516227D01*
X164499799Y-106516227D02*
X164610934Y-106431897D01*
X164610934Y-106431897D02*
X164660961Y-106405098D01*
X164660961Y-106405098D02*
X164766678Y-106372518D01*
X164766678Y-106372518D02*
X164894256Y-106357287D01*
X164894256Y-106357287D02*
X165028056Y-106359293D01*
X165028056Y-106359293D02*
X165028056Y-106359293D01*
G36*
X165028056Y-106359293D02*
G01*
X165152438Y-106378423D01*
X165241617Y-106409298D01*
X165381416Y-106499873D01*
X165491201Y-106615385D01*
X165569789Y-106749777D01*
X165616002Y-106896989D01*
X165628658Y-107050966D01*
X165606577Y-107205649D01*
X165548579Y-107354980D01*
X165453483Y-107492901D01*
X165452892Y-107493575D01*
X165396094Y-107546465D01*
X165321489Y-107601211D01*
X165275116Y-107629296D01*
X165210870Y-107660899D01*
X165149770Y-107680678D01*
X165076883Y-107692050D01*
X164977278Y-107698431D01*
X164972034Y-107698651D01*
X164877962Y-107701437D01*
X164811522Y-107698698D01*
X164758110Y-107687791D01*
X164703124Y-107666075D01*
X164651011Y-107640572D01*
X164506309Y-107545580D01*
X164390157Y-107423180D01*
X164318832Y-107303566D01*
X164285354Y-107193375D01*
X164271829Y-107062091D01*
X164278019Y-106925831D01*
X164303684Y-106800710D01*
X164327175Y-106740059D01*
X164400844Y-106623331D01*
X164499799Y-106516227D01*
X164610934Y-106431897D01*
X164660961Y-106405098D01*
X164766678Y-106372518D01*
X164894256Y-106357287D01*
X165028056Y-106359293D01*
G37*
X165028056Y-106359293D02*
X165152438Y-106378423D01*
X165241617Y-106409298D01*
X165381416Y-106499873D01*
X165491201Y-106615385D01*
X165569789Y-106749777D01*
X165616002Y-106896989D01*
X165628658Y-107050966D01*
X165606577Y-107205649D01*
X165548579Y-107354980D01*
X165453483Y-107492901D01*
X165452892Y-107493575D01*
X165396094Y-107546465D01*
X165321489Y-107601211D01*
X165275116Y-107629296D01*
X165210870Y-107660899D01*
X165149770Y-107680678D01*
X165076883Y-107692050D01*
X164977278Y-107698431D01*
X164972034Y-107698651D01*
X164877962Y-107701437D01*
X164811522Y-107698698D01*
X164758110Y-107687791D01*
X164703124Y-107666075D01*
X164651011Y-107640572D01*
X164506309Y-107545580D01*
X164390157Y-107423180D01*
X164318832Y-107303566D01*
X164285354Y-107193375D01*
X164271829Y-107062091D01*
X164278019Y-106925831D01*
X164303684Y-106800710D01*
X164327175Y-106740059D01*
X164400844Y-106623331D01*
X164499799Y-106516227D01*
X164610934Y-106431897D01*
X164660961Y-106405098D01*
X164766678Y-106372518D01*
X164894256Y-106357287D01*
X165028056Y-106359293D01*
X147172009Y-126534385D02*
X147323684Y-126602159D01*
X147323684Y-126602159D02*
X147364780Y-126628490D01*
X147364780Y-126628490D02*
X147483585Y-126734362D01*
X147483585Y-126734362D02*
X147570950Y-126862790D01*
X147570950Y-126862790D02*
X147626044Y-127007084D01*
X147626044Y-127007084D02*
X147648036Y-127160558D01*
X147648036Y-127160558D02*
X147636095Y-127316521D01*
X147636095Y-127316521D02*
X147589392Y-127468288D01*
X147589392Y-127468288D02*
X147507094Y-127609168D01*
X147507094Y-127609168D02*
X147489400Y-127631679D01*
X147489400Y-127631679D02*
X147385049Y-127728101D01*
X147385049Y-127728101D02*
X147254203Y-127801801D01*
X147254203Y-127801801D02*
X147108090Y-127849274D01*
X147108090Y-127849274D02*
X146957936Y-127867012D01*
X146957936Y-127867012D02*
X146814967Y-127851512D01*
X146814967Y-127851512D02*
X146798955Y-127847287D01*
X146798955Y-127847287D02*
X146635290Y-127781359D01*
X146635290Y-127781359D02*
X146499105Y-127683354D01*
X146499105Y-127683354D02*
X146388992Y-127552139D01*
X146388992Y-127552139D02*
X146349647Y-127485857D01*
X146349647Y-127485857D02*
X146327139Y-127436853D01*
X146327139Y-127436853D02*
X146313109Y-127384278D01*
X146313109Y-127384278D02*
X146305722Y-127316373D01*
X146305722Y-127316373D02*
X146303144Y-127221377D01*
X146303144Y-127221377D02*
X146303034Y-127187059D01*
X146303034Y-127187059D02*
X146304484Y-127082781D01*
X146304484Y-127082781D02*
X146310115Y-127008813D01*
X146310115Y-127008813D02*
X146321847Y-126953191D01*
X146321847Y-126953191D02*
X146341597Y-126903951D01*
X146341597Y-126903951D02*
X146351575Y-126884480D01*
X146351575Y-126884480D02*
X146448698Y-126743356D01*
X146448698Y-126743356D02*
X146569387Y-126633392D01*
X146569387Y-126633392D02*
X146707852Y-126556050D01*
X146707852Y-126556050D02*
X146858304Y-126512793D01*
X146858304Y-126512793D02*
X147014953Y-126505084D01*
X147014953Y-126505084D02*
X147172009Y-126534385D01*
X147172009Y-126534385D02*
X147172009Y-126534385D01*
G36*
X147172009Y-126534385D02*
G01*
X147323684Y-126602159D01*
X147364780Y-126628490D01*
X147483585Y-126734362D01*
X147570950Y-126862790D01*
X147626044Y-127007084D01*
X147648036Y-127160558D01*
X147636095Y-127316521D01*
X147589392Y-127468288D01*
X147507094Y-127609168D01*
X147489400Y-127631679D01*
X147385049Y-127728101D01*
X147254203Y-127801801D01*
X147108090Y-127849274D01*
X146957936Y-127867012D01*
X146814967Y-127851512D01*
X146798955Y-127847287D01*
X146635290Y-127781359D01*
X146499105Y-127683354D01*
X146388992Y-127552139D01*
X146349647Y-127485857D01*
X146327139Y-127436853D01*
X146313109Y-127384278D01*
X146305722Y-127316373D01*
X146303144Y-127221377D01*
X146303034Y-127187059D01*
X146304484Y-127082781D01*
X146310115Y-127008813D01*
X146321847Y-126953191D01*
X146341597Y-126903951D01*
X146351575Y-126884480D01*
X146448698Y-126743356D01*
X146569387Y-126633392D01*
X146707852Y-126556050D01*
X146858304Y-126512793D01*
X147014953Y-126505084D01*
X147172009Y-126534385D01*
G37*
X147172009Y-126534385D02*
X147323684Y-126602159D01*
X147364780Y-126628490D01*
X147483585Y-126734362D01*
X147570950Y-126862790D01*
X147626044Y-127007084D01*
X147648036Y-127160558D01*
X147636095Y-127316521D01*
X147589392Y-127468288D01*
X147507094Y-127609168D01*
X147489400Y-127631679D01*
X147385049Y-127728101D01*
X147254203Y-127801801D01*
X147108090Y-127849274D01*
X146957936Y-127867012D01*
X146814967Y-127851512D01*
X146798955Y-127847287D01*
X146635290Y-127781359D01*
X146499105Y-127683354D01*
X146388992Y-127552139D01*
X146349647Y-127485857D01*
X146327139Y-127436853D01*
X146313109Y-127384278D01*
X146305722Y-127316373D01*
X146303144Y-127221377D01*
X146303034Y-127187059D01*
X146304484Y-127082781D01*
X146310115Y-127008813D01*
X146321847Y-126953191D01*
X146341597Y-126903951D01*
X146351575Y-126884480D01*
X146448698Y-126743356D01*
X146569387Y-126633392D01*
X146707852Y-126556050D01*
X146858304Y-126512793D01*
X147014953Y-126505084D01*
X147172009Y-126534385D01*
X104977087Y-160590008D02*
X105047706Y-160596830D01*
X105047706Y-160596830D02*
X105104397Y-160611411D01*
X105104397Y-160611411D02*
X105161330Y-160636445D01*
X105161330Y-160636445D02*
X105178478Y-160645291D01*
X105178478Y-160645291D02*
X105314484Y-160737767D01*
X105314484Y-160737767D02*
X105420047Y-160852327D01*
X105420047Y-160852327D02*
X105495161Y-160983205D01*
X105495161Y-160983205D02*
X105539822Y-161124636D01*
X105539822Y-161124636D02*
X105554022Y-161270853D01*
X105554022Y-161270853D02*
X105537757Y-161416091D01*
X105537757Y-161416091D02*
X105491020Y-161554583D01*
X105491020Y-161554583D02*
X105413807Y-161680564D01*
X105413807Y-161680564D02*
X105306111Y-161788268D01*
X105306111Y-161788268D02*
X105179681Y-161866457D01*
X105179681Y-161866457D02*
X105015820Y-161924171D01*
X105015820Y-161924171D02*
X104852845Y-161941786D01*
X104852845Y-161941786D02*
X104745072Y-161930492D01*
X104745072Y-161930492D02*
X104585620Y-161878425D01*
X104585620Y-161878425D02*
X104446512Y-161789599D01*
X104446512Y-161789599D02*
X104382289Y-161728432D01*
X104382289Y-161728432D02*
X104283985Y-161593596D01*
X104283985Y-161593596D02*
X104222158Y-161446727D01*
X104222158Y-161446727D02*
X104195795Y-161293891D01*
X104195795Y-161293891D02*
X104203884Y-161141152D01*
X104203884Y-161141152D02*
X104245411Y-160994572D01*
X104245411Y-160994572D02*
X104319365Y-160860217D01*
X104319365Y-160860217D02*
X104424733Y-160744149D01*
X104424733Y-160744149D02*
X104560502Y-160652434D01*
X104560502Y-160652434D02*
X104562099Y-160651615D01*
X104562099Y-160651615D02*
X104627901Y-160620306D01*
X104627901Y-160620306D02*
X104684793Y-160601330D01*
X104684793Y-160601330D02*
X104747670Y-160591704D01*
X104747670Y-160591704D02*
X104831427Y-160588442D01*
X104831427Y-160588442D02*
X104878370Y-160588253D01*
X104878370Y-160588253D02*
X104977087Y-160590008D01*
X104977087Y-160590008D02*
X104977087Y-160590008D01*
G36*
X104977087Y-160590008D02*
G01*
X105047706Y-160596830D01*
X105104397Y-160611411D01*
X105161330Y-160636445D01*
X105178478Y-160645291D01*
X105314484Y-160737767D01*
X105420047Y-160852327D01*
X105495161Y-160983205D01*
X105539822Y-161124636D01*
X105554022Y-161270853D01*
X105537757Y-161416091D01*
X105491020Y-161554583D01*
X105413807Y-161680564D01*
X105306111Y-161788268D01*
X105179681Y-161866457D01*
X105015820Y-161924171D01*
X104852845Y-161941786D01*
X104745072Y-161930492D01*
X104585620Y-161878425D01*
X104446512Y-161789599D01*
X104382289Y-161728432D01*
X104283985Y-161593596D01*
X104222158Y-161446727D01*
X104195795Y-161293891D01*
X104203884Y-161141152D01*
X104245411Y-160994572D01*
X104319365Y-160860217D01*
X104424733Y-160744149D01*
X104560502Y-160652434D01*
X104562099Y-160651615D01*
X104627901Y-160620306D01*
X104684793Y-160601330D01*
X104747670Y-160591704D01*
X104831427Y-160588442D01*
X104878370Y-160588253D01*
X104977087Y-160590008D01*
G37*
X104977087Y-160590008D02*
X105047706Y-160596830D01*
X105104397Y-160611411D01*
X105161330Y-160636445D01*
X105178478Y-160645291D01*
X105314484Y-160737767D01*
X105420047Y-160852327D01*
X105495161Y-160983205D01*
X105539822Y-161124636D01*
X105554022Y-161270853D01*
X105537757Y-161416091D01*
X105491020Y-161554583D01*
X105413807Y-161680564D01*
X105306111Y-161788268D01*
X105179681Y-161866457D01*
X105015820Y-161924171D01*
X104852845Y-161941786D01*
X104745072Y-161930492D01*
X104585620Y-161878425D01*
X104446512Y-161789599D01*
X104382289Y-161728432D01*
X104283985Y-161593596D01*
X104222158Y-161446727D01*
X104195795Y-161293891D01*
X104203884Y-161141152D01*
X104245411Y-160994572D01*
X104319365Y-160860217D01*
X104424733Y-160744149D01*
X104560502Y-160652434D01*
X104562099Y-160651615D01*
X104627901Y-160620306D01*
X104684793Y-160601330D01*
X104747670Y-160591704D01*
X104831427Y-160588442D01*
X104878370Y-160588253D01*
X104977087Y-160590008D01*
X94240389Y-163012100D02*
X94370457Y-163047507D01*
X94370457Y-163047507D02*
X94486564Y-163112215D01*
X94486564Y-163112215D02*
X94574763Y-163185744D01*
X94574763Y-163185744D02*
X94679456Y-163311969D01*
X94679456Y-163311969D02*
X94748682Y-163454654D01*
X94748682Y-163454654D02*
X94782481Y-163607205D01*
X94782481Y-163607205D02*
X94780892Y-163763029D01*
X94780892Y-163763029D02*
X94743955Y-163915532D01*
X94743955Y-163915532D02*
X94671709Y-164058122D01*
X94671709Y-164058122D02*
X94568808Y-164179903D01*
X94568808Y-164179903D02*
X94459814Y-164257373D01*
X94459814Y-164257373D02*
X94325614Y-164314555D01*
X94325614Y-164314555D02*
X94179985Y-164347664D01*
X94179985Y-164347664D02*
X94036707Y-164352914D01*
X94036707Y-164352914D02*
X93971239Y-164344109D01*
X93971239Y-164344109D02*
X93814752Y-164291412D01*
X93814752Y-164291412D02*
X93674851Y-164202971D01*
X93674851Y-164202971D02*
X93558337Y-164084228D01*
X93558337Y-164084228D02*
X93474756Y-163946694D01*
X93474756Y-163946694D02*
X93437892Y-163824684D01*
X93437892Y-163824684D02*
X93425874Y-163684269D01*
X93425874Y-163684269D02*
X93438438Y-163541124D01*
X93438438Y-163541124D02*
X93475316Y-163410925D01*
X93475316Y-163410925D02*
X93484170Y-163390811D01*
X93484170Y-163390811D02*
X93574910Y-163245191D01*
X93574910Y-163245191D02*
X93697634Y-163127285D01*
X93697634Y-163127285D02*
X93805116Y-163059882D01*
X93805116Y-163059882D02*
X93872158Y-163028804D01*
X93872158Y-163028804D02*
X93935257Y-163011087D01*
X93935257Y-163011087D02*
X94011293Y-163003219D01*
X94011293Y-163003219D02*
X94084867Y-163001675D01*
X94084867Y-163001675D02*
X94240389Y-163012100D01*
X94240389Y-163012100D02*
X94240389Y-163012100D01*
G36*
X94240389Y-163012100D02*
G01*
X94370457Y-163047507D01*
X94486564Y-163112215D01*
X94574763Y-163185744D01*
X94679456Y-163311969D01*
X94748682Y-163454654D01*
X94782481Y-163607205D01*
X94780892Y-163763029D01*
X94743955Y-163915532D01*
X94671709Y-164058122D01*
X94568808Y-164179903D01*
X94459814Y-164257373D01*
X94325614Y-164314555D01*
X94179985Y-164347664D01*
X94036707Y-164352914D01*
X93971239Y-164344109D01*
X93814752Y-164291412D01*
X93674851Y-164202971D01*
X93558337Y-164084228D01*
X93474756Y-163946694D01*
X93437892Y-163824684D01*
X93425874Y-163684269D01*
X93438438Y-163541124D01*
X93475316Y-163410925D01*
X93484170Y-163390811D01*
X93574910Y-163245191D01*
X93697634Y-163127285D01*
X93805116Y-163059882D01*
X93872158Y-163028804D01*
X93935257Y-163011087D01*
X94011293Y-163003219D01*
X94084867Y-163001675D01*
X94240389Y-163012100D01*
G37*
X94240389Y-163012100D02*
X94370457Y-163047507D01*
X94486564Y-163112215D01*
X94574763Y-163185744D01*
X94679456Y-163311969D01*
X94748682Y-163454654D01*
X94782481Y-163607205D01*
X94780892Y-163763029D01*
X94743955Y-163915532D01*
X94671709Y-164058122D01*
X94568808Y-164179903D01*
X94459814Y-164257373D01*
X94325614Y-164314555D01*
X94179985Y-164347664D01*
X94036707Y-164352914D01*
X93971239Y-164344109D01*
X93814752Y-164291412D01*
X93674851Y-164202971D01*
X93558337Y-164084228D01*
X93474756Y-163946694D01*
X93437892Y-163824684D01*
X93425874Y-163684269D01*
X93438438Y-163541124D01*
X93475316Y-163410925D01*
X93484170Y-163390811D01*
X93574910Y-163245191D01*
X93697634Y-163127285D01*
X93805116Y-163059882D01*
X93872158Y-163028804D01*
X93935257Y-163011087D01*
X94011293Y-163003219D01*
X94084867Y-163001675D01*
X94240389Y-163012100D01*
X122534044Y-144777519D02*
X122649701Y-144803032D01*
X122649701Y-144803032D02*
X122708370Y-144826699D01*
X122708370Y-144826699D02*
X122820903Y-144902529D01*
X122820903Y-144902529D02*
X122924892Y-145004438D01*
X122924892Y-145004438D02*
X123004681Y-145116772D01*
X123004681Y-145116772D02*
X123011893Y-145130222D01*
X123011893Y-145130222D02*
X123046673Y-145228772D01*
X123046673Y-145228772D02*
X123066636Y-145351468D01*
X123066636Y-145351468D02*
X123070909Y-145482481D01*
X123070909Y-145482481D02*
X123058617Y-145605984D01*
X123058617Y-145605984D02*
X123041899Y-145673034D01*
X123041899Y-145673034D02*
X122988816Y-145781451D01*
X122988816Y-145781451D02*
X122906380Y-145889528D01*
X122906380Y-145889528D02*
X122805777Y-145984725D01*
X122805777Y-145984725D02*
X122704478Y-146051343D01*
X122704478Y-146051343D02*
X122576945Y-146096725D01*
X122576945Y-146096725D02*
X122431026Y-146116673D01*
X122431026Y-146116673D02*
X122282676Y-146110506D01*
X122282676Y-146110506D02*
X122147849Y-146077546D01*
X122147849Y-146077546D02*
X122142014Y-146075287D01*
X122142014Y-146075287D02*
X122015608Y-146005184D01*
X122015608Y-146005184D02*
X121900906Y-145903843D01*
X121900906Y-145903843D02*
X121808749Y-145782355D01*
X121808749Y-145782355D02*
X121761467Y-145686069D01*
X121761467Y-145686069D02*
X121725463Y-145538190D01*
X121725463Y-145538190D02*
X121721646Y-145381408D01*
X121721646Y-145381408D02*
X121749349Y-145229917D01*
X121749349Y-145229917D02*
X121787397Y-145134114D01*
X121787397Y-145134114D02*
X121858864Y-145026676D01*
X121858864Y-145026676D02*
X121955095Y-144926833D01*
X121955095Y-144926833D02*
X122063536Y-144845786D01*
X122063536Y-144845786D02*
X122165558Y-144796693D01*
X122165558Y-144796693D02*
X122276145Y-144773474D01*
X122276145Y-144773474D02*
X122404249Y-144767375D01*
X122404249Y-144767375D02*
X122534044Y-144777519D01*
X122534044Y-144777519D02*
X122534044Y-144777519D01*
G36*
X122534044Y-144777519D02*
G01*
X122649701Y-144803032D01*
X122708370Y-144826699D01*
X122820903Y-144902529D01*
X122924892Y-145004438D01*
X123004681Y-145116772D01*
X123011893Y-145130222D01*
X123046673Y-145228772D01*
X123066636Y-145351468D01*
X123070909Y-145482481D01*
X123058617Y-145605984D01*
X123041899Y-145673034D01*
X122988816Y-145781451D01*
X122906380Y-145889528D01*
X122805777Y-145984725D01*
X122704478Y-146051343D01*
X122576945Y-146096725D01*
X122431026Y-146116673D01*
X122282676Y-146110506D01*
X122147849Y-146077546D01*
X122142014Y-146075287D01*
X122015608Y-146005184D01*
X121900906Y-145903843D01*
X121808749Y-145782355D01*
X121761467Y-145686069D01*
X121725463Y-145538190D01*
X121721646Y-145381408D01*
X121749349Y-145229917D01*
X121787397Y-145134114D01*
X121858864Y-145026676D01*
X121955095Y-144926833D01*
X122063536Y-144845786D01*
X122165558Y-144796693D01*
X122276145Y-144773474D01*
X122404249Y-144767375D01*
X122534044Y-144777519D01*
G37*
X122534044Y-144777519D02*
X122649701Y-144803032D01*
X122708370Y-144826699D01*
X122820903Y-144902529D01*
X122924892Y-145004438D01*
X123004681Y-145116772D01*
X123011893Y-145130222D01*
X123046673Y-145228772D01*
X123066636Y-145351468D01*
X123070909Y-145482481D01*
X123058617Y-145605984D01*
X123041899Y-145673034D01*
X122988816Y-145781451D01*
X122906380Y-145889528D01*
X122805777Y-145984725D01*
X122704478Y-146051343D01*
X122576945Y-146096725D01*
X122431026Y-146116673D01*
X122282676Y-146110506D01*
X122147849Y-146077546D01*
X122142014Y-146075287D01*
X122015608Y-146005184D01*
X121900906Y-145903843D01*
X121808749Y-145782355D01*
X121761467Y-145686069D01*
X121725463Y-145538190D01*
X121721646Y-145381408D01*
X121749349Y-145229917D01*
X121787397Y-145134114D01*
X121858864Y-145026676D01*
X121955095Y-144926833D01*
X122063536Y-144845786D01*
X122165558Y-144796693D01*
X122276145Y-144773474D01*
X122404249Y-144767375D01*
X122534044Y-144777519D01*
X172496353Y-99741849D02*
X172637209Y-99802546D01*
X172637209Y-99802546D02*
X172765218Y-99898655D01*
X172765218Y-99898655D02*
X172796416Y-99930423D01*
X172796416Y-99930423D02*
X172884677Y-100043182D01*
X172884677Y-100043182D02*
X172939885Y-100159145D01*
X172939885Y-100159145D02*
X172966969Y-100291224D01*
X172966969Y-100291224D02*
X172971819Y-100390059D01*
X172971819Y-100390059D02*
X172954698Y-100564409D01*
X172954698Y-100564409D02*
X172901605Y-100716573D01*
X172901605Y-100716573D02*
X172812775Y-100846151D01*
X172812775Y-100846151D02*
X172688440Y-100952741D01*
X172688440Y-100952741D02*
X172619992Y-100993621D01*
X172619992Y-100993621D02*
X172536288Y-101034048D01*
X172536288Y-101034048D02*
X172462591Y-101056973D01*
X172462591Y-101056973D02*
X172377785Y-101067962D01*
X172377785Y-101067962D02*
X172327987Y-101070591D01*
X172327987Y-101070591D02*
X172242462Y-101071386D01*
X172242462Y-101071386D02*
X172167307Y-101067613D01*
X172167307Y-101067613D02*
X172117909Y-101060081D01*
X172117909Y-101060081D02*
X172115784Y-101059425D01*
X172115784Y-101059425D02*
X171955404Y-100986942D01*
X171955404Y-100986942D02*
X171822887Y-100886701D01*
X171822887Y-100886701D02*
X171720793Y-100763429D01*
X171720793Y-100763429D02*
X171651685Y-100621850D01*
X171651685Y-100621850D02*
X171618124Y-100466691D01*
X171618124Y-100466691D02*
X171622670Y-100302677D01*
X171622670Y-100302677D02*
X171646989Y-100194492D01*
X171646989Y-100194492D02*
X171712326Y-100045311D01*
X171712326Y-100045311D02*
X171806178Y-99922040D01*
X171806178Y-99922040D02*
X171922636Y-99826037D01*
X171922636Y-99826037D02*
X172055791Y-99758658D01*
X172055791Y-99758658D02*
X172199735Y-99721262D01*
X172199735Y-99721262D02*
X172348558Y-99715207D01*
X172348558Y-99715207D02*
X172496353Y-99741849D01*
X172496353Y-99741849D02*
X172496353Y-99741849D01*
G36*
X172496353Y-99741849D02*
G01*
X172637209Y-99802546D01*
X172765218Y-99898655D01*
X172796416Y-99930423D01*
X172884677Y-100043182D01*
X172939885Y-100159145D01*
X172966969Y-100291224D01*
X172971819Y-100390059D01*
X172954698Y-100564409D01*
X172901605Y-100716573D01*
X172812775Y-100846151D01*
X172688440Y-100952741D01*
X172619992Y-100993621D01*
X172536288Y-101034048D01*
X172462591Y-101056973D01*
X172377785Y-101067962D01*
X172327987Y-101070591D01*
X172242462Y-101071386D01*
X172167307Y-101067613D01*
X172117909Y-101060081D01*
X172115784Y-101059425D01*
X171955404Y-100986942D01*
X171822887Y-100886701D01*
X171720793Y-100763429D01*
X171651685Y-100621850D01*
X171618124Y-100466691D01*
X171622670Y-100302677D01*
X171646989Y-100194492D01*
X171712326Y-100045311D01*
X171806178Y-99922040D01*
X171922636Y-99826037D01*
X172055791Y-99758658D01*
X172199735Y-99721262D01*
X172348558Y-99715207D01*
X172496353Y-99741849D01*
G37*
X172496353Y-99741849D02*
X172637209Y-99802546D01*
X172765218Y-99898655D01*
X172796416Y-99930423D01*
X172884677Y-100043182D01*
X172939885Y-100159145D01*
X172966969Y-100291224D01*
X172971819Y-100390059D01*
X172954698Y-100564409D01*
X172901605Y-100716573D01*
X172812775Y-100846151D01*
X172688440Y-100952741D01*
X172619992Y-100993621D01*
X172536288Y-101034048D01*
X172462591Y-101056973D01*
X172377785Y-101067962D01*
X172327987Y-101070591D01*
X172242462Y-101071386D01*
X172167307Y-101067613D01*
X172117909Y-101060081D01*
X172115784Y-101059425D01*
X171955404Y-100986942D01*
X171822887Y-100886701D01*
X171720793Y-100763429D01*
X171651685Y-100621850D01*
X171618124Y-100466691D01*
X171622670Y-100302677D01*
X171646989Y-100194492D01*
X171712326Y-100045311D01*
X171806178Y-99922040D01*
X171922636Y-99826037D01*
X172055791Y-99758658D01*
X172199735Y-99721262D01*
X172348558Y-99715207D01*
X172496353Y-99741849D01*
X101849466Y-171398292D02*
X101996920Y-171455905D01*
X101996920Y-171455905D02*
X102129268Y-171549515D01*
X102129268Y-171549515D02*
X102241803Y-171677579D01*
X102241803Y-171677579D02*
X102293254Y-171761593D01*
X102293254Y-171761593D02*
X102315761Y-171810597D01*
X102315761Y-171810597D02*
X102329791Y-171863172D01*
X102329791Y-171863172D02*
X102337178Y-171931078D01*
X102337178Y-171931078D02*
X102339757Y-172026073D01*
X102339757Y-172026073D02*
X102339867Y-172060392D01*
X102339867Y-172060392D02*
X102338837Y-172160749D01*
X102338837Y-172160749D02*
X102334129Y-172231419D01*
X102334129Y-172231419D02*
X102323314Y-172285028D01*
X102323314Y-172285028D02*
X102303964Y-172334204D01*
X102303964Y-172334204D02*
X102277501Y-172384641D01*
X102277501Y-172384641D02*
X102229175Y-172459750D01*
X102229175Y-172459750D02*
X102173045Y-172529997D01*
X102173045Y-172529997D02*
X102140884Y-172562417D01*
X102140884Y-172562417D02*
X102017557Y-172647108D01*
X102017557Y-172647108D02*
X101874761Y-172706649D01*
X101874761Y-172706649D02*
X101724567Y-172737855D01*
X101724567Y-172737855D02*
X101579046Y-172737537D01*
X101579046Y-172737537D02*
X101519330Y-172726520D01*
X101519330Y-172726520D02*
X101360190Y-172666238D01*
X101360190Y-172666238D02*
X101225117Y-172573927D01*
X101225117Y-172573927D02*
X101117847Y-172454338D01*
X101117847Y-172454338D02*
X101042113Y-172312223D01*
X101042113Y-172312223D02*
X101001652Y-172152333D01*
X101001652Y-172152333D02*
X100995784Y-172060392D01*
X100995784Y-172060392D02*
X101014823Y-171889321D01*
X101014823Y-171889321D02*
X101070715Y-171737098D01*
X101070715Y-171737098D02*
X101161617Y-171606745D01*
X101161617Y-171606745D02*
X101285686Y-171501285D01*
X101285686Y-171501285D02*
X101363551Y-171456867D01*
X101363551Y-171456867D02*
X101528075Y-171397230D01*
X101528075Y-171397230D02*
X101691616Y-171378220D01*
X101691616Y-171378220D02*
X101849466Y-171398292D01*
X101849466Y-171398292D02*
X101849466Y-171398292D01*
G36*
X101849466Y-171398292D02*
G01*
X101996920Y-171455905D01*
X102129268Y-171549515D01*
X102241803Y-171677579D01*
X102293254Y-171761593D01*
X102315761Y-171810597D01*
X102329791Y-171863172D01*
X102337178Y-171931078D01*
X102339757Y-172026073D01*
X102339867Y-172060392D01*
X102338837Y-172160749D01*
X102334129Y-172231419D01*
X102323314Y-172285028D01*
X102303964Y-172334204D01*
X102277501Y-172384641D01*
X102229175Y-172459750D01*
X102173045Y-172529997D01*
X102140884Y-172562417D01*
X102017557Y-172647108D01*
X101874761Y-172706649D01*
X101724567Y-172737855D01*
X101579046Y-172737537D01*
X101519330Y-172726520D01*
X101360190Y-172666238D01*
X101225117Y-172573927D01*
X101117847Y-172454338D01*
X101042113Y-172312223D01*
X101001652Y-172152333D01*
X100995784Y-172060392D01*
X101014823Y-171889321D01*
X101070715Y-171737098D01*
X101161617Y-171606745D01*
X101285686Y-171501285D01*
X101363551Y-171456867D01*
X101528075Y-171397230D01*
X101691616Y-171378220D01*
X101849466Y-171398292D01*
G37*
X101849466Y-171398292D02*
X101996920Y-171455905D01*
X102129268Y-171549515D01*
X102241803Y-171677579D01*
X102293254Y-171761593D01*
X102315761Y-171810597D01*
X102329791Y-171863172D01*
X102337178Y-171931078D01*
X102339757Y-172026073D01*
X102339867Y-172060392D01*
X102338837Y-172160749D01*
X102334129Y-172231419D01*
X102323314Y-172285028D01*
X102303964Y-172334204D01*
X102277501Y-172384641D01*
X102229175Y-172459750D01*
X102173045Y-172529997D01*
X102140884Y-172562417D01*
X102017557Y-172647108D01*
X101874761Y-172706649D01*
X101724567Y-172737855D01*
X101579046Y-172737537D01*
X101519330Y-172726520D01*
X101360190Y-172666238D01*
X101225117Y-172573927D01*
X101117847Y-172454338D01*
X101042113Y-172312223D01*
X101001652Y-172152333D01*
X100995784Y-172060392D01*
X101014823Y-171889321D01*
X101070715Y-171737098D01*
X101161617Y-171606745D01*
X101285686Y-171501285D01*
X101363551Y-171456867D01*
X101528075Y-171397230D01*
X101691616Y-171378220D01*
X101849466Y-171398292D01*
X104897814Y-153421811D02*
X105048982Y-153478490D01*
X105048982Y-153478490D02*
X105180466Y-153567773D01*
X105180466Y-153567773D02*
X105287528Y-153685421D01*
X105287528Y-153685421D02*
X105365432Y-153827192D01*
X105365432Y-153827192D02*
X105409438Y-153988847D01*
X105409438Y-153988847D02*
X105412433Y-154011200D01*
X105412433Y-154011200D02*
X105410322Y-154162313D01*
X105410322Y-154162313D02*
X105371771Y-154310864D01*
X105371771Y-154310864D02*
X105301713Y-154449389D01*
X105301713Y-154449389D02*
X105205084Y-154570423D01*
X105205084Y-154570423D02*
X105086818Y-154666504D01*
X105086818Y-154666504D02*
X104951850Y-154730166D01*
X104951850Y-154730166D02*
X104933514Y-154735622D01*
X104933514Y-154735622D02*
X104845605Y-154750360D01*
X104845605Y-154750360D02*
X104737648Y-154754896D01*
X104737648Y-154754896D02*
X104627621Y-154749625D01*
X104627621Y-154749625D02*
X104533500Y-154734945D01*
X104533500Y-154734945D02*
X104503157Y-154726113D01*
X104503157Y-154726113D02*
X104361138Y-154654418D01*
X104361138Y-154654418D02*
X104240241Y-154551818D01*
X104240241Y-154551818D02*
X104144913Y-154425341D01*
X104144913Y-154425341D02*
X104079599Y-154282017D01*
X104079599Y-154282017D02*
X104048746Y-154128874D01*
X104048746Y-154128874D02*
X104050967Y-154011200D01*
X104050967Y-154011200D02*
X104090197Y-153847262D01*
X104090197Y-153847262D02*
X104163943Y-153702653D01*
X104163943Y-153702653D02*
X104267467Y-153581615D01*
X104267467Y-153581615D02*
X104396031Y-153488388D01*
X104396031Y-153488388D02*
X104544898Y-153427211D01*
X104544898Y-153427211D02*
X104709329Y-153402324D01*
X104709329Y-153402324D02*
X104731700Y-153401975D01*
X104731700Y-153401975D02*
X104897814Y-153421811D01*
X104897814Y-153421811D02*
X104897814Y-153421811D01*
G36*
X104897814Y-153421811D02*
G01*
X105048982Y-153478490D01*
X105180466Y-153567773D01*
X105287528Y-153685421D01*
X105365432Y-153827192D01*
X105409438Y-153988847D01*
X105412433Y-154011200D01*
X105410322Y-154162313D01*
X105371771Y-154310864D01*
X105301713Y-154449389D01*
X105205084Y-154570423D01*
X105086818Y-154666504D01*
X104951850Y-154730166D01*
X104933514Y-154735622D01*
X104845605Y-154750360D01*
X104737648Y-154754896D01*
X104627621Y-154749625D01*
X104533500Y-154734945D01*
X104503157Y-154726113D01*
X104361138Y-154654418D01*
X104240241Y-154551818D01*
X104144913Y-154425341D01*
X104079599Y-154282017D01*
X104048746Y-154128874D01*
X104050967Y-154011200D01*
X104090197Y-153847262D01*
X104163943Y-153702653D01*
X104267467Y-153581615D01*
X104396031Y-153488388D01*
X104544898Y-153427211D01*
X104709329Y-153402324D01*
X104731700Y-153401975D01*
X104897814Y-153421811D01*
G37*
X104897814Y-153421811D02*
X105048982Y-153478490D01*
X105180466Y-153567773D01*
X105287528Y-153685421D01*
X105365432Y-153827192D01*
X105409438Y-153988847D01*
X105412433Y-154011200D01*
X105410322Y-154162313D01*
X105371771Y-154310864D01*
X105301713Y-154449389D01*
X105205084Y-154570423D01*
X105086818Y-154666504D01*
X104951850Y-154730166D01*
X104933514Y-154735622D01*
X104845605Y-154750360D01*
X104737648Y-154754896D01*
X104627621Y-154749625D01*
X104533500Y-154734945D01*
X104503157Y-154726113D01*
X104361138Y-154654418D01*
X104240241Y-154551818D01*
X104144913Y-154425341D01*
X104079599Y-154282017D01*
X104048746Y-154128874D01*
X104050967Y-154011200D01*
X104090197Y-153847262D01*
X104163943Y-153702653D01*
X104267467Y-153581615D01*
X104396031Y-153488388D01*
X104544898Y-153427211D01*
X104709329Y-153402324D01*
X104731700Y-153401975D01*
X104897814Y-153421811D01*
X150585923Y-119546277D02*
X150624280Y-119559508D01*
X150624280Y-119559508D02*
X150759683Y-119631557D01*
X150759683Y-119631557D02*
X150874177Y-119734589D01*
X150874177Y-119734589D02*
X150963591Y-119861087D01*
X150963591Y-119861087D02*
X151023753Y-120003532D01*
X151023753Y-120003532D02*
X151050488Y-120154406D01*
X151050488Y-120154406D02*
X151039626Y-120306191D01*
X151039626Y-120306191D02*
X151039369Y-120307422D01*
X151039369Y-120307422D02*
X151000185Y-120446226D01*
X151000185Y-120446226D02*
X150942782Y-120559788D01*
X150942782Y-120559788D02*
X150858759Y-120664046D01*
X150858759Y-120664046D02*
X150842644Y-120680568D01*
X150842644Y-120680568D02*
X150721776Y-120773301D01*
X150721776Y-120773301D02*
X150578798Y-120836197D01*
X150578798Y-120836197D02*
X150423468Y-120867285D01*
X150423468Y-120867285D02*
X150265544Y-120864594D01*
X150265544Y-120864594D02*
X150117179Y-120827096D01*
X150117179Y-120827096D02*
X149971207Y-120748582D01*
X149971207Y-120748582D02*
X149852213Y-120637529D01*
X149852213Y-120637529D02*
X149759855Y-120493619D01*
X149759855Y-120493619D02*
X149759546Y-120492992D01*
X149759546Y-120492992D02*
X149721038Y-120408170D01*
X149721038Y-120408170D02*
X149699816Y-120337880D01*
X149699816Y-120337880D02*
X149691037Y-120261211D01*
X149691037Y-120261211D02*
X149689700Y-120191475D01*
X149689700Y-120191475D02*
X149692588Y-120097594D01*
X149692588Y-120097594D02*
X149704481Y-120024932D01*
X149704481Y-120024932D02*
X149730223Y-119952577D01*
X149730223Y-119952577D02*
X149759546Y-119889959D01*
X149759546Y-119889959D02*
X149850473Y-119749916D01*
X149850473Y-119749916D02*
X149967470Y-119640170D01*
X149967470Y-119640170D02*
X150105025Y-119562827D01*
X150105025Y-119562827D02*
X150257627Y-119519992D01*
X150257627Y-119519992D02*
X150419764Y-119513774D01*
X150419764Y-119513774D02*
X150585923Y-119546277D01*
X150585923Y-119546277D02*
X150585923Y-119546277D01*
G36*
X150585923Y-119546277D02*
G01*
X150624280Y-119559508D01*
X150759683Y-119631557D01*
X150874177Y-119734589D01*
X150963591Y-119861087D01*
X151023753Y-120003532D01*
X151050488Y-120154406D01*
X151039626Y-120306191D01*
X151039369Y-120307422D01*
X151000185Y-120446226D01*
X150942782Y-120559788D01*
X150858759Y-120664046D01*
X150842644Y-120680568D01*
X150721776Y-120773301D01*
X150578798Y-120836197D01*
X150423468Y-120867285D01*
X150265544Y-120864594D01*
X150117179Y-120827096D01*
X149971207Y-120748582D01*
X149852213Y-120637529D01*
X149759855Y-120493619D01*
X149759546Y-120492992D01*
X149721038Y-120408170D01*
X149699816Y-120337880D01*
X149691037Y-120261211D01*
X149689700Y-120191475D01*
X149692588Y-120097594D01*
X149704481Y-120024932D01*
X149730223Y-119952577D01*
X149759546Y-119889959D01*
X149850473Y-119749916D01*
X149967470Y-119640170D01*
X150105025Y-119562827D01*
X150257627Y-119519992D01*
X150419764Y-119513774D01*
X150585923Y-119546277D01*
G37*
X150585923Y-119546277D02*
X150624280Y-119559508D01*
X150759683Y-119631557D01*
X150874177Y-119734589D01*
X150963591Y-119861087D01*
X151023753Y-120003532D01*
X151050488Y-120154406D01*
X151039626Y-120306191D01*
X151039369Y-120307422D01*
X151000185Y-120446226D01*
X150942782Y-120559788D01*
X150858759Y-120664046D01*
X150842644Y-120680568D01*
X150721776Y-120773301D01*
X150578798Y-120836197D01*
X150423468Y-120867285D01*
X150265544Y-120864594D01*
X150117179Y-120827096D01*
X149971207Y-120748582D01*
X149852213Y-120637529D01*
X149759855Y-120493619D01*
X149759546Y-120492992D01*
X149721038Y-120408170D01*
X149699816Y-120337880D01*
X149691037Y-120261211D01*
X149689700Y-120191475D01*
X149692588Y-120097594D01*
X149704481Y-120024932D01*
X149730223Y-119952577D01*
X149759546Y-119889959D01*
X149850473Y-119749916D01*
X149967470Y-119640170D01*
X150105025Y-119562827D01*
X150257627Y-119519992D01*
X150419764Y-119513774D01*
X150585923Y-119546277D01*
X171999203Y-108076310D02*
X172143165Y-108131221D01*
X172143165Y-108131221D02*
X172268351Y-108213895D01*
X172268351Y-108213895D02*
X172337815Y-108284613D01*
X172337815Y-108284613D02*
X172402897Y-108369948D01*
X172402897Y-108369948D02*
X172445789Y-108443007D01*
X172445789Y-108443007D02*
X172470966Y-108517226D01*
X172470966Y-108517226D02*
X172482904Y-108606038D01*
X172482904Y-108606038D02*
X172486078Y-108722880D01*
X172486078Y-108722880D02*
X172486087Y-108729725D01*
X172486087Y-108729725D02*
X172484748Y-108833500D01*
X172484748Y-108833500D02*
X172479215Y-108907531D01*
X172479215Y-108907531D02*
X172467411Y-108964354D01*
X172467411Y-108964354D02*
X172447258Y-109016504D01*
X172447258Y-109016504D02*
X172434118Y-109043347D01*
X172434118Y-109043347D02*
X172356819Y-109157567D01*
X172356819Y-109157567D02*
X172251714Y-109261767D01*
X172251714Y-109261767D02*
X172133187Y-109342406D01*
X172133187Y-109342406D02*
X172098335Y-109359461D01*
X172098335Y-109359461D02*
X171974312Y-109396989D01*
X171974312Y-109396989D02*
X171833281Y-109412058D01*
X171833281Y-109412058D02*
X171693559Y-109403931D01*
X171693559Y-109403931D02*
X171593654Y-109379745D01*
X171593654Y-109379745D02*
X171447082Y-109306986D01*
X171447082Y-109306986D02*
X171327731Y-109206869D01*
X171327731Y-109206869D02*
X171236822Y-109085361D01*
X171236822Y-109085361D02*
X171175577Y-108948431D01*
X171175577Y-108948431D02*
X171145217Y-108802046D01*
X171145217Y-108802046D02*
X171146964Y-108652173D01*
X171146964Y-108652173D02*
X171182041Y-108504782D01*
X171182041Y-108504782D02*
X171251667Y-108365840D01*
X171251667Y-108365840D02*
X171357065Y-108241314D01*
X171357065Y-108241314D02*
X171360052Y-108238546D01*
X171360052Y-108238546D02*
X171449366Y-108163564D01*
X171449366Y-108163564D02*
X171532335Y-108113948D01*
X171532335Y-108113948D02*
X171626910Y-108080397D01*
X171626910Y-108080397D02*
X171696652Y-108064117D01*
X171696652Y-108064117D02*
X171846890Y-108052747D01*
X171846890Y-108052747D02*
X171999203Y-108076310D01*
X171999203Y-108076310D02*
X171999203Y-108076310D01*
G36*
X171999203Y-108076310D02*
G01*
X172143165Y-108131221D01*
X172268351Y-108213895D01*
X172337815Y-108284613D01*
X172402897Y-108369948D01*
X172445789Y-108443007D01*
X172470966Y-108517226D01*
X172482904Y-108606038D01*
X172486078Y-108722880D01*
X172486087Y-108729725D01*
X172484748Y-108833500D01*
X172479215Y-108907531D01*
X172467411Y-108964354D01*
X172447258Y-109016504D01*
X172434118Y-109043347D01*
X172356819Y-109157567D01*
X172251714Y-109261767D01*
X172133187Y-109342406D01*
X172098335Y-109359461D01*
X171974312Y-109396989D01*
X171833281Y-109412058D01*
X171693559Y-109403931D01*
X171593654Y-109379745D01*
X171447082Y-109306986D01*
X171327731Y-109206869D01*
X171236822Y-109085361D01*
X171175577Y-108948431D01*
X171145217Y-108802046D01*
X171146964Y-108652173D01*
X171182041Y-108504782D01*
X171251667Y-108365840D01*
X171357065Y-108241314D01*
X171360052Y-108238546D01*
X171449366Y-108163564D01*
X171532335Y-108113948D01*
X171626910Y-108080397D01*
X171696652Y-108064117D01*
X171846890Y-108052747D01*
X171999203Y-108076310D01*
G37*
X171999203Y-108076310D02*
X172143165Y-108131221D01*
X172268351Y-108213895D01*
X172337815Y-108284613D01*
X172402897Y-108369948D01*
X172445789Y-108443007D01*
X172470966Y-108517226D01*
X172482904Y-108606038D01*
X172486078Y-108722880D01*
X172486087Y-108729725D01*
X172484748Y-108833500D01*
X172479215Y-108907531D01*
X172467411Y-108964354D01*
X172447258Y-109016504D01*
X172434118Y-109043347D01*
X172356819Y-109157567D01*
X172251714Y-109261767D01*
X172133187Y-109342406D01*
X172098335Y-109359461D01*
X171974312Y-109396989D01*
X171833281Y-109412058D01*
X171693559Y-109403931D01*
X171593654Y-109379745D01*
X171447082Y-109306986D01*
X171327731Y-109206869D01*
X171236822Y-109085361D01*
X171175577Y-108948431D01*
X171145217Y-108802046D01*
X171146964Y-108652173D01*
X171182041Y-108504782D01*
X171251667Y-108365840D01*
X171357065Y-108241314D01*
X171360052Y-108238546D01*
X171449366Y-108163564D01*
X171532335Y-108113948D01*
X171626910Y-108080397D01*
X171696652Y-108064117D01*
X171846890Y-108052747D01*
X171999203Y-108076310D01*
X152862854Y-125315316D02*
X152985439Y-125350748D01*
X152985439Y-125350748D02*
X153098049Y-125415999D01*
X153098049Y-125415999D02*
X153189813Y-125492995D01*
X153189813Y-125492995D02*
X153289172Y-125604834D01*
X153289172Y-125604834D02*
X153353328Y-125725408D01*
X153353328Y-125725408D02*
X153386232Y-125864216D01*
X153386232Y-125864216D02*
X153392793Y-125980559D01*
X153392793Y-125980559D02*
X153388976Y-126087665D01*
X153388976Y-126087665D02*
X153375437Y-126170698D01*
X153375437Y-126170698D02*
X153349044Y-126247402D01*
X153349044Y-126247402D02*
X153343429Y-126260250D01*
X153343429Y-126260250D02*
X153278893Y-126366283D01*
X153278893Y-126366283D02*
X153186267Y-126469554D01*
X153186267Y-126469554D02*
X153078595Y-126557293D01*
X153078595Y-126557293D02*
X152987010Y-126609230D01*
X152987010Y-126609230D02*
X152869053Y-126644913D01*
X152869053Y-126644913D02*
X152733578Y-126660426D01*
X152733578Y-126660426D02*
X152601030Y-126654334D01*
X152601030Y-126654334D02*
X152535570Y-126640913D01*
X152535570Y-126640913D02*
X152387389Y-126577896D01*
X152387389Y-126577896D02*
X152254923Y-126480301D01*
X152254923Y-126480301D02*
X152146260Y-126355189D01*
X152146260Y-126355189D02*
X152085333Y-126247733D01*
X152085333Y-126247733D02*
X152052695Y-126138549D01*
X152052695Y-126138549D02*
X152039213Y-126008653D01*
X152039213Y-126008653D02*
X152044871Y-125875073D01*
X152044871Y-125875073D02*
X152069652Y-125754839D01*
X152069652Y-125754839D02*
X152085832Y-125712257D01*
X152085832Y-125712257D02*
X152162713Y-125585970D01*
X152162713Y-125585970D02*
X152269160Y-125471155D01*
X152269160Y-125471155D02*
X152392432Y-125380860D01*
X152392432Y-125380860D02*
X152427788Y-125361964D01*
X152427788Y-125361964D02*
X152499625Y-125330390D01*
X152499625Y-125330390D02*
X152565110Y-125312644D01*
X152565110Y-125312644D02*
X152641934Y-125305189D01*
X152641934Y-125305189D02*
X152716534Y-125304216D01*
X152716534Y-125304216D02*
X152862854Y-125315316D01*
X152862854Y-125315316D02*
X152862854Y-125315316D01*
G36*
X152862854Y-125315316D02*
G01*
X152985439Y-125350748D01*
X153098049Y-125415999D01*
X153189813Y-125492995D01*
X153289172Y-125604834D01*
X153353328Y-125725408D01*
X153386232Y-125864216D01*
X153392793Y-125980559D01*
X153388976Y-126087665D01*
X153375437Y-126170698D01*
X153349044Y-126247402D01*
X153343429Y-126260250D01*
X153278893Y-126366283D01*
X153186267Y-126469554D01*
X153078595Y-126557293D01*
X152987010Y-126609230D01*
X152869053Y-126644913D01*
X152733578Y-126660426D01*
X152601030Y-126654334D01*
X152535570Y-126640913D01*
X152387389Y-126577896D01*
X152254923Y-126480301D01*
X152146260Y-126355189D01*
X152085333Y-126247733D01*
X152052695Y-126138549D01*
X152039213Y-126008653D01*
X152044871Y-125875073D01*
X152069652Y-125754839D01*
X152085832Y-125712257D01*
X152162713Y-125585970D01*
X152269160Y-125471155D01*
X152392432Y-125380860D01*
X152427788Y-125361964D01*
X152499625Y-125330390D01*
X152565110Y-125312644D01*
X152641934Y-125305189D01*
X152716534Y-125304216D01*
X152862854Y-125315316D01*
G37*
X152862854Y-125315316D02*
X152985439Y-125350748D01*
X153098049Y-125415999D01*
X153189813Y-125492995D01*
X153289172Y-125604834D01*
X153353328Y-125725408D01*
X153386232Y-125864216D01*
X153392793Y-125980559D01*
X153388976Y-126087665D01*
X153375437Y-126170698D01*
X153349044Y-126247402D01*
X153343429Y-126260250D01*
X153278893Y-126366283D01*
X153186267Y-126469554D01*
X153078595Y-126557293D01*
X152987010Y-126609230D01*
X152869053Y-126644913D01*
X152733578Y-126660426D01*
X152601030Y-126654334D01*
X152535570Y-126640913D01*
X152387389Y-126577896D01*
X152254923Y-126480301D01*
X152146260Y-126355189D01*
X152085333Y-126247733D01*
X152052695Y-126138549D01*
X152039213Y-126008653D01*
X152044871Y-125875073D01*
X152069652Y-125754839D01*
X152085832Y-125712257D01*
X152162713Y-125585970D01*
X152269160Y-125471155D01*
X152392432Y-125380860D01*
X152427788Y-125361964D01*
X152499625Y-125330390D01*
X152565110Y-125312644D01*
X152641934Y-125305189D01*
X152716534Y-125304216D01*
X152862854Y-125315316D01*
%TD*%
M02*
