M48
; DRILL file {KiCad (6.0.1)} date Thu Jun 23 19:30:37 2022
; FORMAT={-:-/ absolute / inch / decimal}
; #@! TF.CreationDate,2022-06-23T19:30:37-05:00
; #@! TF.GenerationSoftware,Kicad,Pcbnew,(6.0.1)
; #@! TF.FileFunction,Plated,1,2,PTH
FMAT,2
INCH
; #@! TA.AperFunction,Plated,PTH,ViaDrill
T1C0.0157
; #@! TA.AperFunction,Plated,PTH,ComponentDrill
T2C0.0197
; #@! TA.AperFunction,Plated,PTH,ComponentDrill
T3C0.0276
; #@! TA.AperFunction,Plated,PTH,ComponentDrill
T4C0.0354
; #@! TA.AperFunction,Plated,PTH,ComponentDrill
T5C0.2165
%
G90
G05
T1
X7.29Y-3.457
X7.292Y-3.032
X7.696Y-3.034
X7.713Y-3.448
T2
X6.9079Y-3.4927
X6.932Y-3.4686
X6.956Y-3.4446
T3
X7.0546Y-4.0004
X7.196Y-3.859
T4
X4.2287Y-6.2617
X4.2994Y-6.191
X4.6587Y-5.8617
X4.7294Y-5.791
X5.3007Y-5.1406
X5.365Y-5.2172
X5.7327Y-4.8727
X5.8034Y-4.802
X6.6504Y-3.9871
X6.7147Y-4.0637
T5
X8.003Y-2.688
T0
M30
